<svg xmlns="http://www.w3.org/2000/svg" viewBox="0 0 172.48 191.41"><defs><style>.cls-1{isolation:isolate;}.cls-2{fill:#445061;}.cls-3{fill:#5f7081;}.cls-4{fill:#ee7645;}.cls-5{fill:#516072;}.cls-6{fill:#2d3c51;}.cls-7{fill:#f4992c;}.cls-8{fill:#fcc83b;}.cls-9{fill:#02a5b2;}.cls-10{fill:#4bd7e2;}.cls-11{fill:#ed3a47;}.cls-12{fill:#ff525f;}</style></defs><title>Asset 1</title><g id="Layer_2" data-name="Layer 2"><g id="Livello_3" data-name="Livello 3"><g class="cls-1"><polygon class="cls-2" points="125.8 104.82 142.39 95.18 139.01 93.23 122.43 102.87 125.8 104.82"/><polygon class="cls-2" points="122.43 102.87 139.01 93.23 139.03 88.84 122.44 98.48 122.43 102.87"/><polygon class="cls-3" points="122.44 98.48 122.43 102.87 125.8 104.82 125.81 100.43 122.44 98.48"/><polygon class="cls-3" points="125.8 104.82 142.39 95.18 142.4 90.79 125.81 100.43 125.8 104.82"/><polygon class="cls-3" points="125.81 100.43 142.4 90.79 139.03 88.84 122.44 98.48 125.81 100.43"/><polygon class="cls-2" points="132.26 108.55 148.85 98.91 145.47 96.96 128.88 106.6 132.26 108.55"/><polygon class="cls-2" points="128.88 106.6 145.47 96.96 145.49 92.57 128.9 102.21 128.88 106.6"/><polygon class="cls-2" points="125.83 94.16 142.42 84.52 139.04 82.58 122.46 92.22 125.83 94.16"/><polygon class="cls-2" points="122.46 92.22 139.04 82.58 139.06 78.19 122.47 87.83 122.46 92.22"/><polygon class="cls-3" points="132.27 104.16 148.86 94.52 145.49 92.57 128.9 102.21 132.27 104.16"/><polygon class="cls-3" points="132.26 108.55 148.85 98.91 148.86 94.52 132.27 104.16 132.26 108.55"/><polygon class="cls-4" points="128.9 102.21 128.88 106.6 132.26 108.55 132.27 104.16 128.9 102.21"/><polygon class="cls-2" points="138.72 112.28 155.31 102.64 151.93 100.69 135.35 110.33 138.72 112.28"/><polygon class="cls-3" points="125.84 89.78 142.43 80.14 139.06 78.19 122.47 87.83 125.84 89.78"/><polygon class="cls-4" points="122.47 87.83 122.46 92.22 125.83 94.16 125.84 89.78 122.47 87.83"/><polygon class="cls-3" points="125.83 94.16 142.42 84.52 142.43 80.14 125.84 89.78 125.83 94.16"/><polygon class="cls-2" points="135.35 110.33 151.93 100.69 151.95 96.3 135.36 105.94 135.35 110.33"/><polygon class="cls-2" points="132.29 97.89 148.88 88.25 145.5 86.3 128.91 95.94 132.29 97.89"/><polygon class="cls-2" points="128.91 95.94 145.5 86.3 145.51 81.92 128.93 91.56 128.91 95.94"/><polygon class="cls-3" points="135.36 105.94 135.35 110.33 138.72 112.28 138.74 107.89 135.36 105.94"/><polygon class="cls-3" points="138.72 112.28 155.31 102.64 155.32 98.25 138.74 107.89 138.72 112.28"/><polygon class="cls-3" points="138.74 107.89 155.32 98.25 151.95 96.3 135.36 105.94 138.74 107.89"/><polygon class="cls-2" points="125.86 83.51 142.45 73.87 139.07 71.93 122.49 81.57 125.86 83.51"/><polygon class="cls-2" points="122.49 81.57 139.07 71.93 139.09 67.55 122.5 77.19 122.49 81.57"/><polygon class="cls-2" points="145.19 116.01 161.77 106.37 158.4 104.42 141.81 114.06 145.19 116.01"/><polygon class="cls-3" points="132.3 93.51 148.89 83.87 145.51 81.92 128.93 91.56 132.3 93.51"/><polygon class="cls-3" points="132.29 97.89 148.88 88.25 148.89 83.87 132.3 93.51 132.29 97.89"/><polygon class="cls-3" points="128.93 91.56 128.91 95.94 132.29 97.89 132.3 93.51 128.93 91.56"/><polygon class="cls-2" points="141.81 114.06 158.4 104.42 158.41 100.03 141.82 109.67 141.81 114.06"/><polygon class="cls-2" points="138.75 101.63 155.34 91.98 151.96 90.03 135.38 99.67 138.75 101.63"/><polygon class="cls-3" points="122.5 77.19 122.49 81.57 125.86 83.51 125.87 79.13 122.5 77.19"/><polygon class="cls-3" points="125.86 83.51 142.45 73.87 142.46 69.49 125.87 79.13 125.86 83.51"/><polygon class="cls-3" points="125.87 79.13 142.46 69.49 139.09 67.55 122.5 77.19 125.87 79.13"/><polygon class="cls-2" points="135.38 99.67 151.96 90.03 151.98 85.65 135.39 95.29 135.38 99.67"/><polygon class="cls-3" points="145.19 116.01 161.77 106.37 161.78 101.98 145.2 111.62 145.19 116.01"/><polygon class="cls-3" points="145.2 111.62 161.78 101.98 158.41 100.03 141.82 109.67 145.2 111.62"/><polygon class="cls-2" points="132.32 87.25 148.91 77.61 145.53 75.66 128.94 85.3 132.32 87.25"/><polygon class="cls-2" points="128.94 85.3 145.53 75.66 145.54 71.27 128.96 80.91 128.94 85.3"/><polygon class="cls-2" points="151.64 119.74 168.23 110.1 164.86 108.15 148.27 117.79 151.64 119.74"/><polygon class="cls-3" points="135.39 95.29 135.38 99.67 138.75 101.63 138.77 97.24 135.39 95.29"/><polygon class="cls-3" points="138.75 101.63 155.34 91.98 155.35 87.6 138.77 97.24 138.75 101.63"/><polygon class="cls-3" points="138.77 97.24 155.35 87.6 151.98 85.65 135.39 95.29 138.77 97.24"/><polygon class="cls-2" points="148.27 117.79 164.86 108.15 164.87 103.76 148.28 113.4 148.27 117.79"/><polygon class="cls-2" points="125.89 72.86 142.48 63.23 139.1 61.28 122.52 70.92 125.89 72.86"/><polygon class="cls-2" points="122.52 70.92 139.1 61.28 139.12 56.89 122.53 66.53 122.52 70.92"/><polygon class="cls-2" points="145.22 105.36 161.8 95.72 158.43 93.77 141.84 103.41 145.22 105.36"/><polygon class="cls-3" points="132.32 87.25 148.91 77.61 148.92 73.22 132.34 82.86 132.32 87.25"/><polygon class="cls-3" points="128.96 80.91 128.94 85.3 132.32 87.25 132.34 82.86 128.96 80.91"/><polygon class="cls-3" points="132.34 82.86 148.92 73.22 145.54 71.27 128.96 80.91 132.34 82.86"/><polygon class="cls-2" points="141.84 103.41 158.43 93.77 158.44 89.38 141.85 99.02 141.84 103.41"/><polygon class="cls-3" points="148.28 113.4 148.27 117.79 151.64 119.74 151.66 115.35 148.28 113.4"/><polygon class="cls-3" points="151.66 115.35 168.24 105.71 164.87 103.76 148.28 113.4 151.66 115.35"/><polygon class="cls-3" points="151.64 119.74 168.23 110.1 168.24 105.71 151.66 115.35 151.64 119.74"/><polygon class="cls-2" points="138.78 90.97 155.37 81.33 151.99 79.39 135.41 89.03 138.78 90.97"/><polygon class="cls-3" points="125.9 68.48 142.49 58.84 139.12 56.89 122.53 66.53 125.9 68.48"/><polygon class="cls-3" points="125.89 72.86 142.48 63.23 142.49 58.84 125.9 68.48 125.89 72.86"/><polygon class="cls-3" points="122.53 66.53 122.52 70.92 125.89 72.86 125.9 68.48 122.53 66.53"/><polygon class="cls-2" points="135.41 89.03 151.99 79.39 152.01 75 135.42 84.64 135.41 89.03"/><polygon class="cls-4" points="141.85 99.02 141.84 103.41 145.22 105.36 145.23 100.97 141.85 99.02"/><polygon class="cls-3" points="145.22 105.36 161.8 95.72 161.81 91.33 145.23 100.97 145.22 105.36"/><polygon class="cls-3" points="145.23 100.97 161.81 91.33 158.44 89.38 141.85 99.02 145.23 100.97"/><polygon class="cls-2" points="132.35 76.59 148.94 66.96 145.56 65.01 128.97 74.65 132.35 76.59"/><polygon class="cls-2" points="128.97 74.65 145.56 65.01 145.57 60.62 128.99 70.26 128.97 74.65"/><polygon class="cls-2" points="151.67 109.08 168.26 99.44 164.89 97.5 148.3 107.14 151.67 109.08"/><polygon class="cls-3" points="138.78 90.97 155.37 81.33 155.38 76.95 138.8 86.59 138.78 90.97"/><polygon class="cls-3" points="138.8 86.59 155.38 76.95 152.01 75 135.42 84.64 138.8 86.59"/><polygon class="cls-3" points="135.42 84.64 135.41 89.03 138.78 90.97 138.8 86.59 135.42 84.64"/><polygon class="cls-2" points="148.3 107.14 164.89 97.5 164.9 93.11 148.31 102.75 148.3 107.14"/><polygon class="cls-2" points="125.92 62.22 142.51 52.58 139.13 50.63 122.55 60.27 125.92 62.22"/><polygon class="cls-2" points="122.55 60.27 139.13 50.63 139.15 46.24 122.56 55.88 122.55 60.27"/><polygon class="cls-2" points="145.25 94.71 161.83 85.07 158.46 83.12 141.87 92.76 145.25 94.71"/><polygon class="cls-3" points="132.37 72.21 148.95 62.57 145.57 60.62 128.99 70.26 132.37 72.21"/><polygon class="cls-3" points="132.35 76.59 148.94 66.96 148.95 62.57 132.37 72.21 132.35 76.59"/><polygon class="cls-4" points="128.99 70.26 128.97 74.65 132.35 76.59 132.37 72.21 128.99 70.26"/><polygon class="cls-2" points="141.87 92.76 158.46 83.12 158.47 78.73 141.88 88.37 141.87 92.76"/><polygon class="cls-3" points="151.69 104.7 168.27 95.06 164.9 93.11 148.31 102.75 151.69 104.7"/><polygon class="cls-3" points="151.67 109.08 168.26 99.44 168.27 95.06 151.69 104.7 151.67 109.08"/><polygon class="cls-3" points="148.31 102.75 148.3 107.14 151.67 109.08 151.69 104.7 148.31 102.75"/><polygon class="cls-2" points="138.81 80.33 155.4 70.69 152.02 68.74 135.44 78.38 138.81 80.33"/><polygon class="cls-3" points="125.93 57.83 142.52 48.19 139.15 46.24 122.56 55.88 125.93 57.83"/><polygon class="cls-3" points="125.92 62.22 142.51 52.58 142.52 48.19 125.93 57.83 125.92 62.22"/><polygon class="cls-2" points="135.44 78.38 152.02 68.74 152.04 64.35 135.45 73.99 135.44 78.38"/><polygon class="cls-3" points="141.88 88.37 141.87 92.76 145.25 94.71 145.26 90.32 141.88 88.37"/><polygon class="cls-3" points="145.26 90.32 161.84 80.69 158.47 78.73 141.88 88.37 145.26 90.32"/><polygon class="cls-3" points="145.25 94.71 161.83 85.07 161.84 80.69 145.26 90.32 145.25 94.71"/><polygon class="cls-2" points="132.38 65.95 148.97 56.31 145.59 54.36 129 64 132.38 65.95"/><polygon class="cls-2" points="129 64 145.59 54.36 145.6 49.97 129.02 59.61 129 64"/><polygon class="cls-2" points="151.7 98.43 168.29 88.79 164.92 86.85 148.33 96.49 151.7 98.43"/><polygon class="cls-3" points="138.81 80.33 155.4 70.69 155.41 66.3 138.83 75.94 138.81 80.33"/><polygon class="cls-3" points="138.83 75.94 155.41 66.3 152.04 64.35 135.45 73.99 138.83 75.94"/><polygon class="cls-3" points="135.45 73.99 135.44 78.38 138.81 80.33 138.83 75.94 135.45 73.99"/><polygon class="cls-2" points="148.33 96.49 164.92 86.85 164.93 82.47 148.34 92.11 148.33 96.49"/><polygon class="cls-2" points="125.95 51.56 142.54 41.92 139.17 39.98 122.58 49.61 125.95 51.56"/><polygon class="cls-2" points="122.58 49.61 139.17 39.98 139.18 35.59 122.59 45.23 122.58 49.61"/><polygon class="cls-2" points="145.28 84.06 161.86 74.42 158.49 72.47 141.9 82.11 145.28 84.06"/><polygon class="cls-4" points="129.02 59.61 129 64 132.38 65.95 132.4 61.56 129.02 59.61"/><polygon class="cls-3" points="132.4 61.56 148.98 51.92 145.6 49.97 129.02 59.61 132.4 61.56"/><polygon class="cls-3" points="132.38 65.95 148.97 56.31 148.98 51.92 132.4 61.56 132.38 65.95"/><polygon class="cls-2" points="141.9 82.11 158.49 72.47 158.5 68.08 141.91 77.72 141.9 82.11"/><polygon class="cls-3" points="151.7 98.43 168.29 88.79 168.3 84.41 151.72 94.05 151.7 98.43"/><polygon class="cls-3" points="148.34 92.11 148.33 96.49 151.7 98.43 151.72 94.05 148.34 92.11"/><polygon class="cls-3" points="151.72 94.05 168.3 84.41 164.93 82.47 148.34 92.11 151.72 94.05"/><polygon class="cls-2" points="138.84 69.68 155.43 60.04 152.06 58.09 135.47 67.73 138.84 69.68"/><polygon class="cls-3" points="122.59 45.23 122.58 49.61 125.95 51.56 125.96 47.18 122.59 45.23"/><polygon class="cls-3" points="125.95 51.56 142.54 41.92 142.55 37.54 125.96 47.18 125.95 51.56"/><polygon class="cls-3" points="125.96 47.18 142.55 37.54 139.18 35.59 122.59 45.23 125.96 47.18"/><polygon class="cls-2" points="135.47 67.73 152.06 58.09 152.07 53.7 135.48 63.34 135.47 67.73"/><polygon class="cls-3" points="141.91 77.72 141.9 82.11 145.28 84.06 145.29 79.67 141.91 77.72"/><polygon class="cls-3" points="145.29 79.67 161.88 70.03 158.5 68.08 141.91 77.72 145.29 79.67"/><polygon class="cls-3" points="145.28 84.06 161.86 74.42 161.88 70.03 145.29 79.67 145.28 84.06"/><polygon class="cls-2" points="132.41 55.29 149 45.65 145.62 43.7 129.03 53.34 132.41 55.29"/><polygon class="cls-2" points="129.03 53.34 145.62 43.7 145.64 39.32 129.05 48.96 129.03 53.34"/><polygon class="cls-2" points="151.73 87.78 168.32 78.14 164.95 76.2 148.36 85.84 151.73 87.78"/><polygon class="cls-3" points="138.86 65.29 155.44 55.65 152.07 53.7 135.48 63.34 138.86 65.29"/><polygon class="cls-3" points="138.84 69.68 155.43 60.04 155.44 55.65 138.86 65.29 138.84 69.68"/><polygon class="cls-3" points="135.48 63.34 135.47 67.73 138.84 69.68 138.86 65.29 135.48 63.34"/><polygon class="cls-2" points="148.36 85.84 164.95 76.2 164.96 71.81 148.37 81.45 148.36 85.84"/><polygon class="cls-2" points="125.98 40.91 142.57 31.27 139.2 29.32 122.61 38.97 125.98 40.91"/><polygon class="cls-2" points="122.61 38.97 139.2 29.32 139.21 24.94 122.62 34.58 122.61 38.97"/><polygon class="cls-2" points="145.31 73.41 161.89 63.77 158.52 61.82 141.93 71.46 145.31 73.41"/><polygon class="cls-3" points="132.41 55.29 149 45.65 149.01 41.27 132.43 50.91 132.41 55.29"/><polygon class="cls-3" points="132.43 50.91 149.01 41.27 145.64 39.32 129.05 48.96 132.43 50.91"/><polygon class="cls-3" points="129.05 48.96 129.03 53.34 132.41 55.29 132.43 50.91 129.05 48.96"/><polygon class="cls-2" points="141.93 71.46 158.52 61.82 158.53 57.43 141.94 67.07 141.93 71.46"/><polygon class="cls-3" points="148.37 81.45 148.36 85.84 151.73 87.78 151.75 83.4 148.37 81.45"/><polygon class="cls-3" points="151.75 83.4 168.33 73.76 164.96 71.81 148.37 81.45 151.75 83.4"/><polygon class="cls-3" points="151.73 87.78 168.32 78.14 168.33 73.76 151.75 83.4 151.73 87.78"/><polygon class="cls-2" points="138.87 59.02 155.46 49.38 152.09 47.43 135.5 57.07 138.87 59.02"/><polygon class="cls-3" points="125.98 40.91 142.57 31.27 142.58 26.89 125.99 36.53 125.98 40.91"/><polygon class="cls-3" points="125.99 36.53 142.58 26.89 139.21 24.94 122.62 34.58 125.99 36.53"/><polygon class="cls-3" points="122.62 34.58 122.61 38.97 125.98 40.91 125.99 36.53 122.62 34.58"/><polygon class="cls-2" points="135.5 57.07 152.09 47.43 152.1 43.05 135.51 52.69 135.5 57.07"/><polygon class="cls-3" points="141.94 67.07 141.93 71.46 145.31 73.41 145.32 69.02 141.94 67.07"/><polygon class="cls-3" points="145.31 73.41 161.89 63.77 161.91 59.38 145.32 69.02 145.31 73.41"/><polygon class="cls-3" points="145.32 69.02 161.91 59.38 158.53 57.43 141.94 67.07 145.32 69.02"/><polygon class="cls-2" points="132.44 44.64 149.03 35 145.65 33.05 129.07 42.69 132.44 44.64"/><polygon class="cls-2" points="129.07 42.69 145.65 33.05 145.67 28.67 129.08 38.31 129.07 42.69"/><polygon class="cls-2" points="151.76 77.14 168.35 67.5 164.98 65.55 148.39 75.19 151.76 77.14"/><polygon class="cls-3" points="138.87 59.02 155.46 49.38 155.47 45 138.89 54.64 138.87 59.02"/><polygon class="cls-3" points="135.51 52.69 135.5 57.07 138.87 59.02 138.89 54.64 135.51 52.69"/><polygon class="cls-3" points="138.89 54.64 155.47 45 152.1 43.05 135.51 52.69 138.89 54.64"/><polygon class="cls-2" points="122.64 29.38 139.22 19.74 139.23 16.97 122.64 26.61 122.64 29.38"/><polygon class="cls-2" points="148.39 75.19 164.98 65.55 164.99 61.16 148.4 70.8 148.39 75.19"/><polygon class="cls-2" points="145.34 62.75 161.92 53.11 158.55 51.16 141.96 60.8 145.34 62.75"/><polygon class="cls-3" points="132.44 44.64 149.03 35 149.04 30.62 132.46 40.26 132.44 44.64"/><polygon class="cls-3" points="132.46 40.26 149.04 30.62 145.67 28.67 129.08 38.31 132.46 40.26"/><polygon class="cls-3" points="129.08 38.31 129.07 42.69 132.44 44.64 132.46 40.26 129.08 38.31"/><polygon class="cls-2" points="141.96 60.8 158.55 51.16 158.56 46.78 141.97 56.42 141.96 60.8"/><polygon class="cls-3" points="148.4 70.8 148.39 75.19 151.76 77.14 151.78 72.75 148.4 70.8"/><polygon class="cls-3" points="151.78 72.75 168.36 63.11 164.99 61.16 148.4 70.8 151.78 72.75"/><polygon class="cls-3" points="151.76 77.14 168.35 67.5 168.36 63.11 151.78 72.75 151.76 77.14"/><polygon class="cls-2" points="138.9 48.37 155.49 38.73 152.12 36.78 135.53 46.42 138.9 48.37"/><polygon class="cls-2" points="135.53 46.42 152.12 36.78 152.13 32.4 135.54 42.04 135.53 46.42"/><polygon class="cls-3" points="145.35 58.37 161.94 48.73 158.56 46.78 141.97 56.42 145.35 58.37"/><polygon class="cls-3" points="145.34 62.75 161.92 53.11 161.94 48.73 145.35 58.37 145.34 62.75"/><polygon class="cls-2" points="151.79 66.48 168.38 56.84 165.01 54.89 148.42 64.53 151.79 66.48"/><polygon class="cls-3" points="138.92 43.99 155.5 34.35 152.13 32.4 135.54 42.04 138.92 43.99"/><polygon class="cls-3" points="138.9 48.37 155.49 38.73 155.5 34.35 138.92 43.99 138.9 48.37"/><polygon class="cls-3" points="135.54 42.04 135.53 46.42 138.9 48.37 138.92 43.99 135.54 42.04"/><polygon class="cls-2" points="148.42 64.53 165.01 54.89 165.02 50.51 148.43 60.15 148.42 64.53"/><polygon class="cls-2" points="145.37 52.1 161.95 42.47 158.58 40.52 141.99 50.15 145.37 52.1"/><polygon class="cls-2" points="141.99 50.15 158.58 40.52 158.59 36.13 142 45.77 141.99 50.15"/><polygon class="cls-3" points="148.43 60.15 148.42 64.53 151.79 66.48 151.81 62.1 148.43 60.15"/><polygon class="cls-3" points="151.79 66.48 168.38 56.84 168.39 52.46 151.81 62.1 151.79 66.48"/><polygon class="cls-3" points="151.81 62.1 168.39 52.46 165.02 50.51 148.43 60.15 151.81 62.1"/><polygon class="cls-4" points="142 45.77 141.99 50.15 145.37 52.1 145.38 47.72 142 45.77"/><polygon class="cls-3" points="145.37 52.1 161.95 42.47 161.97 38.08 145.38 47.72 145.37 52.1"/><polygon class="cls-3" points="145.38 47.72 161.97 38.08 158.59 36.13 142 45.77 145.38 47.72"/><polygon class="cls-2" points="151.82 55.83 168.41 46.19 165.04 44.24 148.45 53.88 151.82 55.83"/><polygon class="cls-2" points="148.45 53.88 165.04 44.24 165.05 39.86 148.46 49.5 148.45 53.88"/><polygon class="cls-3" points="151.82 55.83 168.41 46.19 168.42 41.81 151.84 51.45 151.82 55.83"/><polygon class="cls-3" points="151.84 51.45 168.42 41.81 165.05 39.86 148.46 49.5 151.84 51.45"/><polygon class="cls-3" points="148.46 49.5 148.45 53.88 151.82 55.83 151.84 51.45 148.46 49.5"/><polygon class="cls-2" points="151.85 46.24 168.44 36.6 139.22 19.74 122.64 29.38 151.85 46.24"/><polygon class="cls-3" points="151.85 46.24 168.44 36.6 168.45 33.84 151.86 43.48 151.85 46.24"/><polygon class="cls-3" points="151.86 43.48 168.45 33.84 139.23 16.97 122.64 26.61 151.86 43.48"/><polygon class="cls-3" points="122.64 26.61 122.64 29.38 151.85 46.24 151.86 43.48 122.64 26.61"/><path class="cls-5" d="M155.62,130.35,118.4,108.86,118.66,15l37.22,21.49Zm-33-101,29.22,16.87V43.48L122.64,26.61v2.77M129,64l3.38,1.95V61.56L129,59.61V64m12.92,7.46,3.38,1.95V69l-3.38-1.95v4.39m-13,35.14,3.38,1.95v-4.39l-3.38-1.95v4.39m12.92,7.46,3.38,1.95v-4.39l-3.38-1.95v4.39M129,74.65l3.38,1.95V72.21L129,70.26v4.39m12.92,7.46,3.38,1.95V79.67l-3.38-1.95v4.39m-6.43-14.38,3.38,1.95V65.29l-3.38-1.95v4.39m0,10.65,3.38,1.95V75.94L135.45,74v4.39m-.09,32,3.38,1.95v-4.39l-3.38-1.95v4.39m6.52-17.57,3.38,1.95V90.32l-3.38-1.95v4.38m-12.92-7.46,3.38,1.95V82.86L129,80.91v4.38M142,60.8l3.38,1.95V58.37L142,56.42V60.8M129,53.34l3.38,1.95V50.91L129,49v4.38m-.12,42.6,3.38,1.95V93.51l-3.38-1.95v4.38m.15-53.25,3.38,1.95V40.26l-3.38-1.95v4.38m12.77,60.71,3.38,1.95V101L141.85,99v4.38M142,50.15l3.38,1.95V47.72L142,45.77v4.38M135.41,89,138.78,91V86.59l-3.38-1.95V89m.09-32L138.87,59V54.64l-3.38-1.95v4.38m0-10.65,3.38,1.95V44L135.54,42v4.38m-.15,53.25,3.38,1.95V97.24l-3.38-1.95v4.38m13-24.49,3.37,1.95V72.75L148.4,70.8v4.39M122.55,60.27l3.37,1.95V57.83l-3.37-1.95v4.39m25.81,25.57,3.37,1.95V83.4l-3.37-1.95v4.39m-.09,32,3.37,1.95v-4.39l-3.37-1.95v4.39m-25.84-14.92,3.37,1.95v-4.39l-3.37-1.95v4.39m.09-32,3.37,1.95V68.48l-3.37-1.95v4.39m25.81,25.57,3.37,1.95V94.05l-3.37-1.95v4.38M122.49,81.57l3.37,1.95V79.13l-3.37-1.95v4.38m25.93-17,3.37,1.95V62.1l-3.37-1.95v4.38m0-10.65,3.37,1.95V51.45l-3.37-1.95v4.38m-.15,53.25,3.37,1.95V104.7l-3.37-1.95v4.38M122.58,49.61,126,51.56V47.18l-3.37-1.95v4.38m0-10.65L126,40.91V36.53l-3.37-1.95V39m-.15,53.25,3.37,1.95V89.78l-3.37-1.95v4.38"/><polygon class="cls-3" points="141.82 109.67 141.81 114.06 145.19 116.01 145.2 111.62 141.82 109.67"/><polygon class="cls-3" points="122.56 55.88 122.55 60.27 125.92 62.22 125.93 57.83 122.56 55.88"/><polygon class="cls-3" points="141.97 56.42 141.96 60.8 145.34 62.75 145.35 58.37 141.97 56.42"/><polygon class="cls-2" points="155.89 36.47 172.48 26.83 135.25 5.33 118.67 14.97 155.89 36.47"/><polygon class="cls-6" points="155.62 130.35 172.21 120.72 172.48 26.83 155.89 36.47 155.62 130.35"/></g><g class="cls-1"><polygon class="cls-2" points="98.75 99.48 82.16 89.84 85.54 87.89 102.12 97.53 98.75 99.48"/><polygon class="cls-2" points="102.12 97.53 85.54 87.89 85.52 83.51 102.11 93.15 102.12 97.53"/><polygon class="cls-3" points="102.11 93.15 102.12 97.53 98.75 99.48 98.74 95.1 102.11 93.15"/><polygon class="cls-3" points="98.75 99.48 82.16 89.84 82.15 85.46 98.74 95.1 98.75 99.48"/><polygon class="cls-3" points="98.74 95.1 82.15 85.46 85.52 83.51 102.11 93.15 98.74 95.1"/><polygon class="cls-2" points="92.29 103.21 75.7 93.57 79.08 91.62 95.67 101.26 92.29 103.21"/><polygon class="cls-2" points="95.67 101.26 79.08 91.62 79.07 87.24 95.65 96.88 95.67 101.26"/><polygon class="cls-2" points="98.72 88.83 82.13 79.19 85.51 77.24 102.09 86.88 98.72 88.83"/><polygon class="cls-2" points="102.09 86.88 85.51 77.24 85.49 72.86 102.08 82.5 102.09 86.88"/><polygon class="cls-3" points="92.28 98.83 75.69 89.19 79.07 87.24 95.65 96.88 92.28 98.83"/><polygon class="cls-3" points="92.29 103.21 75.7 93.57 75.69 89.19 92.28 98.83 92.29 103.21"/><polygon class="cls-4" points="95.65 96.88 95.67 101.26 92.29 103.21 92.28 98.83 95.65 96.88"/><polygon class="cls-2" points="85.83 106.94 69.24 97.3 72.62 95.35 89.2 104.99 85.83 106.94"/><polygon class="cls-3" points="98.71 84.45 82.12 74.81 85.49 72.86 102.08 82.5 98.71 84.45"/><polygon class="cls-4" points="102.08 82.5 102.09 86.88 98.72 88.83 98.71 84.45 102.08 82.5"/><polygon class="cls-3" points="98.72 88.83 82.13 79.19 82.12 74.81 98.71 84.45 98.72 88.83"/><polygon class="cls-2" points="89.2 104.99 72.62 95.35 72.61 90.97 89.19 100.61 89.2 104.99"/><polygon class="cls-2" points="92.26 92.56 75.67 82.92 79.05 80.97 95.64 90.61 92.26 92.56"/><polygon class="cls-2" points="95.64 90.61 79.05 80.97 79.04 76.59 95.62 86.23 95.64 90.61"/><polygon class="cls-3" points="89.19 100.61 89.2 104.99 85.83 106.94 85.81 102.56 89.19 100.61"/><polygon class="cls-3" points="85.83 106.94 69.24 97.3 69.23 92.92 85.81 102.56 85.83 106.94"/><polygon class="cls-3" points="85.81 102.56 69.23 92.92 72.61 90.97 89.19 100.61 85.81 102.56"/><polygon class="cls-2" points="98.69 78.18 82.1 68.54 85.48 66.59 102.06 76.23 98.69 78.18"/><polygon class="cls-2" points="102.06 76.23 85.48 66.59 85.46 62.21 102.05 71.85 102.06 76.23"/><polygon class="cls-2" points="79.37 110.67 62.78 101.03 66.16 99.08 82.74 108.72 79.37 110.67"/><polygon class="cls-3" points="92.25 88.18 75.66 78.54 79.04 76.59 95.62 86.23 92.25 88.18"/><polygon class="cls-3" points="92.26 92.56 75.67 82.92 75.66 78.54 92.25 88.18 92.26 92.56"/><polygon class="cls-3" points="95.62 86.23 95.64 90.61 92.26 92.56 92.25 88.18 95.62 86.23"/><polygon class="cls-2" points="82.74 108.72 66.16 99.08 66.14 94.7 82.73 104.34 82.74 108.72"/><polygon class="cls-2" points="85.8 96.29 69.21 86.65 72.59 84.7 89.17 94.34 85.8 96.29"/><polygon class="cls-3" points="102.05 71.85 102.06 76.23 98.69 78.18 98.68 73.8 102.05 71.85"/><polygon class="cls-3" points="98.69 78.18 82.1 68.54 82.09 64.16 98.68 73.8 98.69 78.18"/><polygon class="cls-3" points="98.68 73.8 82.09 64.16 85.46 62.21 102.05 71.85 98.68 73.8"/><polygon class="cls-2" points="89.17 94.34 72.59 84.7 72.57 80.32 89.16 89.96 89.17 94.34"/><polygon class="cls-3" points="79.37 110.67 62.78 101.03 62.77 96.65 79.35 106.29 79.37 110.67"/><polygon class="cls-3" points="79.35 106.29 62.77 96.65 66.14 94.7 82.73 104.34 79.35 106.29"/><polygon class="cls-2" points="92.23 81.91 75.64 72.27 79.02 70.32 95.61 79.96 92.23 81.91"/><polygon class="cls-2" points="95.61 79.96 79.02 70.32 79.01 65.94 95.59 75.58 95.61 79.96"/><polygon class="cls-2" points="72.91 114.4 56.32 104.76 59.69 102.81 76.28 112.45 72.91 114.4"/><polygon class="cls-3" points="89.16 89.96 89.17 94.34 85.8 96.29 85.78 91.91 89.16 89.96"/><polygon class="cls-3" points="85.8 96.29 69.21 86.65 69.2 82.27 85.78 91.91 85.8 96.29"/><polygon class="cls-3" points="85.78 91.91 69.2 82.27 72.58 80.32 89.16 89.96 85.78 91.91"/><polygon class="cls-2" points="76.28 112.45 59.69 102.81 59.68 98.43 76.27 108.07 76.28 112.45"/><polygon class="cls-2" points="98.66 67.53 82.07 57.89 85.45 55.94 102.03 65.58 98.66 67.53"/><polygon class="cls-2" points="102.03 65.58 85.45 55.94 85.43 51.56 102.02 61.2 102.03 65.58"/><polygon class="cls-2" points="79.34 100.02 62.75 90.38 66.13 88.43 82.71 98.07 79.34 100.02"/><polygon class="cls-3" points="92.23 81.91 75.64 72.27 75.63 67.89 92.22 77.53 92.23 81.91"/><polygon class="cls-3" points="95.59 75.58 95.61 79.96 92.23 81.91 92.22 77.53 95.59 75.58"/><polygon class="cls-3" points="92.22 77.53 75.63 67.89 79.01 65.94 95.59 75.58 92.22 77.53"/><polygon class="cls-2" points="82.71 98.07 66.13 88.43 66.11 84.05 82.7 93.69 82.71 98.07"/><polygon class="cls-3" points="76.27 108.07 76.28 112.45 72.91 114.4 72.9 110.02 76.27 108.07"/><polygon class="cls-3" points="72.9 110.02 56.31 100.38 59.68 98.43 76.27 108.07 72.9 110.02"/><polygon class="cls-3" points="72.91 114.4 56.32 104.76 56.31 100.38 72.9 110.02 72.91 114.4"/><polygon class="cls-2" points="85.77 85.64 69.18 76 72.56 74.05 89.14 83.69 85.77 85.64"/><polygon class="cls-3" points="98.65 63.14 82.06 53.51 85.43 51.56 102.02 61.2 98.65 63.14"/><polygon class="cls-3" points="98.66 67.53 82.07 57.89 82.06 53.51 98.65 63.14 98.66 67.53"/><polygon class="cls-3" points="102.02 61.2 102.03 65.58 98.66 67.53 98.65 63.14 102.02 61.2"/><polygon class="cls-2" points="89.14 83.69 72.56 74.05 72.54 69.67 89.13 79.31 89.14 83.69"/><polygon class="cls-4" points="82.7 93.69 82.71 98.07 79.34 100.02 79.32 95.64 82.7 93.69"/><polygon class="cls-3" points="79.34 100.02 62.75 90.38 62.74 86 79.32 95.64 79.34 100.02"/><polygon class="cls-3" points="79.32 95.64 62.74 86 66.11 84.05 82.7 93.69 79.32 95.64"/><polygon class="cls-2" points="92.2 71.26 75.61 61.62 78.99 59.67 95.58 69.31 92.2 71.26"/><polygon class="cls-2" points="95.58 69.31 78.99 59.67 78.98 55.28 95.56 64.92 95.58 69.31"/><polygon class="cls-2" points="72.88 103.75 56.29 94.11 59.66 92.16 76.25 101.8 72.88 103.75"/><polygon class="cls-3" points="85.77 85.64 69.18 76 69.17 71.62 85.75 81.26 85.77 85.64"/><polygon class="cls-3" points="85.75 81.26 69.17 71.62 72.54 69.67 89.13 79.31 85.75 81.26"/><polygon class="cls-3" points="89.13 79.31 89.14 83.69 85.77 85.64 85.75 81.26 89.13 79.31"/><polygon class="cls-2" points="76.25 101.8 59.66 92.16 59.65 87.78 76.24 97.42 76.25 101.8"/><polygon class="cls-2" points="98.63 56.88 82.04 47.24 85.42 45.29 102 54.93 98.63 56.88"/><polygon class="cls-2" points="102 54.93 85.42 45.29 85.4 40.91 101.99 50.55 102 54.93"/><polygon class="cls-2" points="79.31 89.37 62.72 79.73 66.09 77.78 82.68 87.42 79.31 89.37"/><polygon class="cls-3" points="92.19 66.88 75.6 57.23 78.98 55.28 95.56 64.92 92.19 66.88"/><polygon class="cls-3" points="92.2 71.26 75.61 61.62 75.6 57.23 92.19 66.88 92.2 71.26"/><polygon class="cls-4" points="95.56 64.92 95.58 69.31 92.2 71.26 92.19 66.88 95.56 64.92"/><polygon class="cls-2" points="82.68 87.42 66.09 77.78 66.08 73.4 82.67 83.04 82.68 87.42"/><polygon class="cls-3" points="72.87 99.37 56.28 89.73 59.65 87.78 76.24 97.42 72.87 99.37"/><polygon class="cls-3" points="72.88 103.75 56.29 94.11 56.28 89.73 72.87 99.37 72.88 103.75"/><polygon class="cls-3" points="76.24 97.42 76.25 101.8 72.88 103.75 72.87 99.37 76.24 97.42"/><polygon class="cls-2" points="85.74 74.99 69.15 65.35 72.53 63.4 89.11 73.04 85.74 74.99"/><polygon class="cls-3" points="98.62 52.49 82.03 42.85 85.4 40.91 101.99 50.55 98.62 52.49"/><polygon class="cls-3" points="98.63 56.88 82.04 47.24 82.03 42.85 98.62 52.49 98.63 56.88"/><polygon class="cls-2" points="89.11 73.04 72.53 63.4 72.51 59.02 89.1 68.66 89.11 73.04"/><polygon class="cls-3" points="82.67 83.04 82.68 87.42 79.31 89.37 79.29 84.99 82.67 83.04"/><polygon class="cls-3" points="79.29 84.99 62.71 75.35 66.08 73.4 82.67 83.04 79.29 84.99"/><polygon class="cls-3" points="79.31 89.37 62.72 79.73 62.71 75.35 79.29 84.99 79.31 89.37"/><polygon class="cls-2" points="92.17 60.61 75.58 50.97 78.96 49.02 95.55 58.66 92.17 60.61"/><polygon class="cls-2" points="95.55 58.66 78.96 49.02 78.94 44.64 95.53 54.28 95.55 58.66"/><polygon class="cls-2" points="72.85 93.1 56.26 83.46 59.63 81.51 76.22 91.15 72.85 93.1"/><polygon class="cls-3" points="85.74 74.99 69.15 65.35 69.14 60.97 85.72 70.61 85.74 74.99"/><polygon class="cls-3" points="85.72 70.61 69.14 60.97 72.51 59.02 89.1 68.66 85.72 70.61"/><polygon class="cls-3" points="89.1 68.66 89.11 73.04 85.74 74.99 85.72 70.61 89.1 68.66"/><polygon class="cls-2" points="76.22 91.15 59.63 81.51 59.62 77.13 76.21 86.77 76.22 91.15"/><polygon class="cls-2" points="98.6 46.23 82.01 36.59 85.39 34.64 101.97 44.28 98.6 46.23"/><polygon class="cls-2" points="101.97 44.28 85.39 34.64 85.37 30.26 101.96 39.9 101.97 44.28"/><polygon class="cls-2" points="79.28 78.72 62.69 69.08 66.06 67.13 82.65 76.77 79.28 78.72"/><polygon class="cls-4" points="95.53 54.28 95.55 58.66 92.17 60.61 92.16 56.23 95.53 54.28"/><polygon class="cls-3" points="92.16 56.23 75.57 46.59 78.94 44.64 95.53 54.28 92.16 56.23"/><polygon class="cls-3" points="92.17 60.61 75.58 50.97 75.57 46.59 92.16 56.23 92.17 60.61"/><polygon class="cls-2" points="82.65 76.77 66.06 67.13 66.05 62.75 82.64 72.39 82.65 76.77"/><polygon class="cls-3" points="72.85 93.1 56.26 83.46 56.25 79.08 72.84 88.72 72.85 93.1"/><polygon class="cls-3" points="76.21 86.77 76.22 91.15 72.85 93.1 72.84 88.72 76.21 86.77"/><polygon class="cls-3" points="72.84 88.72 56.25 79.08 59.62 77.13 76.21 86.77 72.84 88.72"/><polygon class="cls-2" points="85.71 64.34 69.12 54.7 72.5 52.75 89.08 62.39 85.71 64.34"/><polygon class="cls-3" points="101.96 39.9 101.97 44.28 98.6 46.23 98.59 41.85 101.96 39.9"/><polygon class="cls-3" points="98.6 46.23 82.01 36.59 82 32.21 98.59 41.85 98.6 46.23"/><polygon class="cls-3" points="98.59 41.85 82 32.21 85.37 30.26 101.96 39.9 98.59 41.85"/><polygon class="cls-2" points="89.08 62.39 72.5 52.75 72.48 48.37 89.07 58.01 89.08 62.39"/><polygon class="cls-3" points="82.64 72.39 82.65 76.77 79.28 78.72 79.26 74.34 82.64 72.39"/><polygon class="cls-3" points="79.26 74.34 62.67 64.7 66.05 62.75 82.64 72.39 79.26 74.34"/><polygon class="cls-3" points="79.28 78.72 62.69 69.08 62.67 64.7 79.26 74.34 79.28 78.72"/><polygon class="cls-2" points="92.14 49.96 75.55 40.32 78.93 38.37 95.52 48.01 92.14 49.96"/><polygon class="cls-2" points="95.52 48.01 78.93 38.37 78.92 33.99 95.5 43.63 95.52 48.01"/><polygon class="cls-2" points="72.82 82.45 56.23 72.81 59.6 70.86 76.19 80.5 72.82 82.45"/><polygon class="cls-3" points="85.69 59.96 69.11 50.32 72.48 48.37 89.07 58.01 85.69 59.96"/><polygon class="cls-3" points="85.71 64.34 69.12 54.7 69.11 50.32 85.69 59.96 85.71 64.34"/><polygon class="cls-3" points="89.07 58.01 89.08 62.39 85.71 64.34 85.69 59.96 89.07 58.01"/><polygon class="cls-2" points="76.19 80.5 59.6 70.86 59.59 66.48 76.18 76.12 76.19 80.5"/><polygon class="cls-2" points="98.57 35.58 81.98 25.94 85.36 23.99 101.94 33.63 98.57 35.58"/><polygon class="cls-2" points="101.94 33.63 85.36 23.99 85.34 19.61 101.93 29.25 101.94 33.63"/><polygon class="cls-2" points="79.25 68.07 62.66 58.43 66.03 56.48 82.62 66.12 79.25 68.07"/><polygon class="cls-3" points="92.14 49.96 75.55 40.32 75.54 35.94 92.13 45.58 92.14 49.96"/><polygon class="cls-3" points="92.13 45.58 75.54 35.94 78.92 33.99 95.5 43.63 92.13 45.58"/><polygon class="cls-3" points="95.5 43.63 95.52 48.01 92.14 49.96 92.13 45.58 95.5 43.63"/><polygon class="cls-2" points="82.62 66.12 66.03 56.48 66.02 52.1 82.61 61.74 82.62 66.12"/><polygon class="cls-3" points="76.18 76.12 76.19 80.5 72.82 82.45 72.81 78.06 76.18 76.12"/><polygon class="cls-3" points="72.81 78.06 56.22 68.42 59.59 66.48 76.18 76.12 72.81 78.06"/><polygon class="cls-3" points="72.82 82.45 56.23 72.81 56.22 68.42 72.81 78.06 72.82 82.45"/><polygon class="cls-2" points="85.68 53.69 69.09 44.05 72.47 42.1 89.05 51.74 85.68 53.69"/><polygon class="cls-3" points="98.57 35.58 81.98 25.94 81.97 21.56 98.56 31.2 98.57 35.58"/><polygon class="cls-3" points="98.56 31.2 81.97 21.56 85.34 19.61 101.93 29.25 98.56 31.2"/><polygon class="cls-3" points="101.93 29.25 101.94 33.63 98.57 35.58 98.56 31.2 101.93 29.25"/><polygon class="cls-2" points="89.05 51.74 72.47 42.1 72.45 37.72 89.04 47.36 89.05 51.74"/><polygon class="cls-3" points="82.61 61.74 82.62 66.12 79.25 68.07 79.23 63.69 82.61 61.74"/><polygon class="cls-3" points="79.25 68.07 62.66 58.43 62.65 54.05 79.23 63.69 79.25 68.07"/><polygon class="cls-3" points="79.23 63.69 62.65 54.05 66.02 52.1 82.61 61.74 79.23 63.69"/><polygon class="cls-2" points="92.11 39.31 75.52 29.67 78.9 27.72 95.48 37.36 92.11 39.31"/><polygon class="cls-2" points="95.48 37.36 78.9 27.72 78.89 23.34 95.47 32.98 95.48 37.36"/><polygon class="cls-2" points="72.79 71.8 56.2 62.16 59.57 60.21 76.16 69.85 72.79 71.8"/><polygon class="cls-3" points="85.68 53.69 69.09 44.05 69.08 39.67 85.66 49.31 85.68 53.69"/><polygon class="cls-3" points="89.04 47.36 89.05 51.74 85.68 53.69 85.66 49.31 89.04 47.36"/><polygon class="cls-3" points="85.66 49.31 69.08 39.67 72.45 37.72 89.04 47.36 85.66 49.31"/><polygon class="cls-2" points="101.92 24.04 85.33 14.4 85.32 11.64 101.91 21.28 101.92 24.04"/><polygon class="cls-2" points="76.16 69.85 59.57 60.21 59.56 55.83 76.15 65.47 76.16 69.85"/><polygon class="cls-2" points="79.22 57.42 62.63 47.78 66 45.83 82.59 55.47 79.22 57.42"/><polygon class="cls-3" points="92.11 39.31 75.52 29.67 75.51 25.29 92.1 34.93 92.11 39.31"/><polygon class="cls-3" points="92.1 34.93 75.51 25.29 78.89 23.34 95.47 32.98 92.1 34.93"/><polygon class="cls-3" points="95.47 32.98 95.48 37.36 92.11 39.31 92.1 34.93 95.47 32.98"/><polygon class="cls-2" points="82.59 55.47 66 45.83 65.99 41.45 82.58 51.09 82.59 55.47"/><polygon class="cls-3" points="76.15 65.47 76.16 69.85 72.79 71.8 72.78 67.42 76.15 65.47"/><polygon class="cls-3" points="72.78 67.42 56.19 57.77 59.56 55.83 76.15 65.47 72.78 67.42"/><polygon class="cls-3" points="72.79 71.8 56.2 62.16 56.19 57.77 72.78 67.42 72.79 71.8"/><polygon class="cls-2" points="85.65 43.04 69.06 33.4 72.44 31.45 89.02 41.09 85.65 43.04"/><polygon class="cls-2" points="89.02 41.09 72.44 31.45 72.42 27.07 89.01 36.71 89.02 41.09"/><polygon class="cls-3" points="79.2 53.04 62.62 43.4 65.99 41.45 82.58 51.09 79.2 53.04"/><polygon class="cls-3" points="79.22 57.42 62.63 47.78 62.62 43.4 79.2 53.04 79.22 57.42"/><polygon class="cls-2" points="72.76 61.15 56.17 51.51 59.54 49.56 76.13 59.2 72.76 61.15"/><polygon class="cls-3" points="85.63 38.66 69.05 29.02 72.42 27.07 89.01 36.71 85.63 38.66"/><polygon class="cls-3" points="85.65 43.04 69.06 33.4 69.05 29.02 85.63 38.66 85.65 43.04"/><polygon class="cls-3" points="89.01 36.71 89.02 41.09 85.65 43.04 85.63 38.66 89.01 36.71"/><polygon class="cls-2" points="76.13 59.2 59.54 49.56 59.53 45.18 76.12 54.82 76.13 59.2"/><polygon class="cls-2" points="79.19 46.77 62.6 37.13 65.97 35.18 82.56 44.82 79.19 46.77"/><polygon class="cls-2" points="82.56 44.82 65.97 35.18 65.96 30.8 82.55 40.44 82.56 44.82"/><polygon class="cls-3" points="76.12 54.82 76.13 59.2 72.76 61.15 72.75 56.77 76.12 54.82"/><polygon class="cls-3" points="72.76 61.15 56.17 51.51 56.16 47.13 72.75 56.77 72.76 61.15"/><polygon class="cls-3" points="72.75 56.77 56.16 47.13 59.53 45.18 76.12 54.82 72.75 56.77"/><polygon class="cls-4" points="82.55 40.44 82.56 44.82 79.19 46.77 79.17 42.39 82.55 40.44"/><polygon class="cls-3" points="79.19 46.77 62.6 37.13 62.59 32.75 79.17 42.39 79.19 46.77"/><polygon class="cls-3" points="79.17 42.39 62.59 32.75 65.96 30.8 82.55 40.44 79.17 42.39"/><polygon class="cls-2" points="72.73 50.5 56.14 40.86 59.51 38.91 76.1 48.55 72.73 50.5"/><polygon class="cls-2" points="76.1 48.55 59.51 38.91 59.5 34.53 76.09 44.17 76.1 48.55"/><polygon class="cls-3" points="72.73 50.5 56.14 40.86 56.13 36.48 72.72 46.12 72.73 50.5"/><polygon class="cls-3" points="72.72 46.12 56.13 36.48 59.5 34.53 76.09 44.17 72.72 46.12"/><polygon class="cls-3" points="76.09 44.17 76.1 48.55 72.73 50.5 72.72 46.12 76.09 44.17"/><polygon class="cls-2" points="72.7 40.91 56.11 31.27 85.33 14.4 101.92 24.04 72.7 40.91"/><polygon class="cls-3" points="72.7 40.91 56.11 31.27 56.1 28.5 72.69 38.14 72.7 40.91"/><polygon class="cls-3" points="72.69 38.14 56.1 28.5 85.32 11.64 101.91 21.28 72.69 38.14"/><polygon class="cls-3" points="101.91 21.28 101.92 24.04 72.7 40.91 72.69 38.14 101.91 21.28"/><path class="cls-6" d="M68.66,31.13,105.89,9.64l.27,93.89L68.93,125ZM101.92,24V21.28L72.69,38.14v2.77L101.92,24M95.55,58.66V54.28l-3.38,1.95v4.39l3.38-1.95M82.62,66.12V61.74l-3.38,1.95v4.39l3.38-1.95m13,35.14V96.88l-3.38,1.95v4.39l3.38-1.95m-12.92,7.46v-4.39l-3.38,1.95v4.39l3.38-1.95M95.58,69.31V64.93l-3.38,1.95v4.39l3.38-1.95M82.65,76.77V72.39l-3.38,1.95v4.39l3.38-1.95m6.43-14.38V58L85.69,60v4.39l3.38-1.95m0,10.65V68.66l-3.38,1.95V75L89.11,73m.09,32v-4.39l-3.38,1.95v4.39L89.2,105M82.68,87.42V83L79.29,85v4.38l3.38-1.95M95.61,80V75.58l-3.38,1.95v4.38L95.61,80m-13-24.49V51.09L79.2,53v4.38l3.38-1.95M95.52,48V43.63l-3.38,1.95V50L95.52,48m.12,42.6V86.23l-3.38,1.95v4.38l3.38-1.95m-.15-53.25V33L92.1,34.93v4.38l3.38-1.95M82.71,98.07V93.69l-3.38,1.95V100l3.38-1.95m-.15-53.25V40.44l-3.38,1.95v4.38l3.38-1.95m6.58,38.87V79.31l-3.38,1.95v4.38l3.38-1.95m-.09-32V47.36l-3.38,1.95v4.38l3.38-1.95m0-10.65V36.71l-3.38,1.95V43L89,41.09m.15,53.25V90l-3.38,1.95v4.38l3.38-1.95m-13-24.49V65.47l-3.37,1.95V71.8l3.37-1.95M102,54.93V50.55L98.62,52.5v4.39L102,54.93M76.19,80.5V76.12l-3.37,1.95v4.39l3.37-1.95m.09,32v-4.39L72.9,110v4.39l3.37-1.95m25.84-14.92V93.15L98.74,95.1v4.39l3.37-1.95m-.09-32V61.2l-3.37,1.95v4.39L102,65.58M76.22,91.15V86.77l-3.37,1.95V93.1l3.37-1.95m25.84-14.92V71.85L98.68,73.8v4.38l3.37-1.95m-25.93-17V54.82l-3.37,1.95v4.38l3.37-1.95m0-10.65V44.17l-3.37,1.95V50.5l3.37-1.95m.15,53.25V97.42l-3.37,1.95v4.38l3.37-1.95M102,44.28V39.9l-3.37,1.95v4.38L102,44.28m0-10.65V29.25L98.56,31.2v4.38l3.37-1.95m.15,53.25V82.5l-3.37,1.95v4.38l3.37-1.95"/><polygon class="cls-3" points="82.73 104.34 82.74 108.72 79.37 110.67 79.35 106.29 82.73 104.34"/><polygon class="cls-3" points="101.99 50.55 102 54.93 98.63 56.88 98.62 52.49 101.99 50.55"/><polygon class="cls-3" points="82.58 51.09 82.59 55.47 79.22 57.42 79.2 53.04 82.58 51.09"/><polygon class="cls-2" points="68.66 31.13 52.07 21.49 89.3 0 105.89 9.64 68.66 31.13"/><polygon class="cls-5" points="68.93 125.02 52.34 115.38 52.07 21.49 68.66 31.13 68.93 125.02"/></g><g class="cls-1"><polygon class="cls-2" points="46.68 128.71 30.09 119.07 33.46 117.12 50.05 126.76 46.68 128.71"/><polygon class="cls-2" points="50.05 126.76 33.46 117.12 33.45 112.73 50.04 122.37 50.05 126.76"/><polygon class="cls-3" points="50.04 122.37 50.05 126.76 46.68 128.71 46.66 124.32 50.04 122.37"/><polygon class="cls-3" points="46.68 128.71 30.09 119.07 30.08 114.68 46.66 124.32 46.68 128.71"/><polygon class="cls-3" points="46.66 124.32 30.08 114.68 33.45 112.73 50.04 122.37 46.66 124.32"/><polygon class="cls-2" points="40.22 132.44 23.63 122.8 27 120.85 43.59 130.49 40.22 132.44"/><polygon class="cls-2" points="43.59 130.49 27 120.85 26.99 116.46 43.58 126.1 43.59 130.49"/><polygon class="cls-2" points="46.65 118.05 30.06 108.41 33.43 106.47 50.02 116.11 46.65 118.05"/><polygon class="cls-2" points="50.02 116.11 33.43 106.47 33.42 102.08 50.01 111.72 50.02 116.11"/><polygon class="cls-3" points="40.2 128.05 23.61 118.41 26.99 116.46 43.58 126.1 40.2 128.05"/><polygon class="cls-3" points="40.22 132.44 23.63 122.8 23.61 118.41 40.2 128.05 40.22 132.44"/><polygon class="cls-4" points="43.58 126.1 43.59 130.49 40.22 132.44 40.2 128.05 43.58 126.1"/><polygon class="cls-2" points="33.75 136.17 17.17 126.53 20.54 124.58 37.13 134.22 33.75 136.17"/><polygon class="cls-3" points="46.63 113.67 30.05 104.03 33.42 102.08 50.01 111.72 46.63 113.67"/><polygon class="cls-4" points="50.01 111.72 50.02 116.11 46.65 118.05 46.63 113.67 50.01 111.72"/><polygon class="cls-3" points="46.65 118.05 30.06 108.41 30.05 104.03 46.63 113.67 46.65 118.05"/><polygon class="cls-2" points="37.13 134.22 20.54 124.58 20.53 120.19 37.12 129.83 37.13 134.22"/><polygon class="cls-2" points="40.19 121.78 23.6 112.14 26.98 110.19 43.56 119.83 40.19 121.78"/><polygon class="cls-2" points="43.56 119.83 26.98 110.19 26.96 105.81 43.55 115.45 43.56 119.83"/><polygon class="cls-3" points="37.12 129.83 37.13 134.22 33.75 136.17 33.74 131.78 37.12 129.83"/><polygon class="cls-3" points="33.75 136.17 17.17 126.53 17.15 122.14 33.74 131.78 33.75 136.17"/><polygon class="cls-3" points="33.74 131.78 17.15 122.14 20.53 120.19 37.12 129.83 33.74 131.78"/><polygon class="cls-2" points="46.62 107.4 30.03 97.76 33.4 95.82 49.99 105.46 46.62 107.4"/><polygon class="cls-2" points="49.99 105.46 33.4 95.82 33.39 91.44 49.98 101.08 49.99 105.46"/><polygon class="cls-2" points="27.29 139.9 10.71 130.26 14.08 128.31 30.67 137.95 27.29 139.9"/><polygon class="cls-3" points="40.17 117.4 23.59 107.76 26.96 105.81 43.55 115.45 40.17 117.4"/><polygon class="cls-3" points="40.19 121.78 23.6 112.14 23.59 107.76 40.17 117.4 40.19 121.78"/><polygon class="cls-3" points="43.55 115.45 43.56 119.83 40.19 121.78 40.17 117.4 43.55 115.45"/><polygon class="cls-2" points="30.67 137.95 14.08 128.31 14.07 123.92 30.66 133.56 30.67 137.95"/><polygon class="cls-2" points="33.72 125.51 17.14 115.87 20.51 113.92 37.1 123.56 33.72 125.51"/><polygon class="cls-3" points="49.98 101.08 49.99 105.46 46.62 107.4 46.6 103.02 49.98 101.08"/><polygon class="cls-3" points="46.62 107.4 30.03 97.76 30.02 93.38 46.6 103.02 46.62 107.4"/><polygon class="cls-3" points="46.6 103.02 30.02 93.38 33.39 91.44 49.98 101.08 46.6 103.02"/><polygon class="cls-2" points="37.1 123.56 20.51 113.92 20.5 109.54 37.09 119.18 37.1 123.56"/><polygon class="cls-3" points="27.29 139.9 10.71 130.26 10.69 125.87 27.28 135.51 27.29 139.9"/><polygon class="cls-3" points="27.28 135.51 10.69 125.87 14.07 123.92 30.66 133.56 27.28 135.51"/><polygon class="cls-2" points="40.16 111.13 23.57 101.49 26.95 99.55 43.53 109.18 40.16 111.13"/><polygon class="cls-2" points="43.53 109.18 26.95 99.55 26.93 95.16 43.52 104.8 43.53 109.18"/><polygon class="cls-2" points="20.84 143.63 4.25 133.99 7.62 132.04 24.21 141.68 20.84 143.63"/><polygon class="cls-3" points="37.09 119.18 37.1 123.56 33.72 125.51 33.71 121.13 37.09 119.18"/><polygon class="cls-3" points="33.72 125.51 17.14 115.87 17.12 111.49 33.71 121.13 33.72 125.51"/><polygon class="cls-3" points="33.71 121.13 17.12 111.49 20.5 109.54 37.09 119.18 33.71 121.13"/><polygon class="cls-2" points="24.21 141.68 7.62 132.04 7.61 127.65 24.2 137.29 24.21 141.68"/><polygon class="cls-2" points="46.59 96.75 30 87.11 33.37 85.17 49.96 94.81 46.59 96.75"/><polygon class="cls-2" points="49.96 94.81 33.37 85.17 33.36 80.78 49.95 90.42 49.96 94.81"/><polygon class="cls-2" points="27.26 129.25 10.68 119.61 14.05 117.66 30.64 127.3 27.26 129.25"/><polygon class="cls-3" points="40.16 111.13 23.57 101.49 23.55 97.11 40.14 106.75 40.16 111.13"/><polygon class="cls-3" points="43.52 104.8 43.53 109.18 40.16 111.13 40.14 106.75 43.52 104.8"/><polygon class="cls-3" points="40.14 106.75 23.55 97.11 26.93 95.16 43.52 104.8 40.14 106.75"/><polygon class="cls-2" points="30.64 127.3 14.05 117.66 14.04 113.27 30.63 122.91 30.64 127.3"/><polygon class="cls-3" points="24.2 137.29 24.21 141.68 20.84 143.63 20.82 139.24 24.2 137.29"/><polygon class="cls-3" points="20.82 139.24 4.24 129.6 7.61 127.65 24.2 137.29 20.82 139.24"/><polygon class="cls-3" points="20.84 143.63 4.25 133.99 4.24 129.6 20.82 139.24 20.84 143.63"/><polygon class="cls-2" points="33.69 114.86 17.11 105.22 20.48 103.28 37.07 112.92 33.69 114.86"/><polygon class="cls-3" points="46.57 92.37 29.99 82.73 33.36 80.78 49.95 90.42 46.57 92.37"/><polygon class="cls-3" points="46.59 96.75 30 87.11 29.99 82.73 46.57 92.37 46.59 96.75"/><polygon class="cls-3" points="49.95 90.42 49.96 94.81 46.59 96.75 46.57 92.37 49.95 90.42"/><polygon class="cls-2" points="37.07 112.92 20.48 103.28 20.47 98.89 37.06 108.53 37.07 112.92"/><polygon class="cls-4" points="30.63 122.91 30.64 127.3 27.26 129.25 27.25 124.86 30.63 122.91"/><polygon class="cls-3" points="27.26 129.25 10.68 119.61 10.66 115.22 27.25 124.86 27.26 129.25"/><polygon class="cls-3" points="27.25 124.86 10.66 115.22 14.04 113.27 30.63 122.91 27.25 124.86"/><polygon class="cls-2" points="40.13 100.48 23.54 90.84 26.91 88.89 43.5 98.53 40.13 100.48"/><polygon class="cls-2" points="43.5 98.53 26.91 88.89 26.9 84.51 43.49 94.15 43.5 98.53"/><polygon class="cls-2" points="20.8 132.97 4.22 123.33 7.59 121.39 24.18 131.03 20.8 132.97"/><polygon class="cls-3" points="33.69 114.86 17.11 105.22 17.09 100.84 33.68 110.48 33.69 114.86"/><polygon class="cls-3" points="33.68 110.48 17.09 100.84 20.47 98.89 37.06 108.53 33.68 110.48"/><polygon class="cls-3" points="37.06 108.53 37.07 112.92 33.69 114.86 33.68 110.48 37.06 108.53"/><polygon class="cls-2" points="24.18 131.03 7.59 121.39 7.58 117 24.17 126.64 24.18 131.03"/><polygon class="cls-2" points="46.56 86.11 29.97 76.47 33.34 74.52 49.93 84.16 46.56 86.11"/><polygon class="cls-2" points="49.93 84.16 33.34 74.52 33.33 70.13 49.92 79.77 49.93 84.16"/><polygon class="cls-2" points="27.23 118.59 10.64 108.96 14.02 107.01 30.61 116.64 27.23 118.59"/><polygon class="cls-3" points="40.11 96.1 23.52 86.46 26.9 84.51 43.49 94.15 40.11 96.1"/><polygon class="cls-3" points="40.13 100.48 23.54 90.84 23.52 86.46 40.11 96.1 40.13 100.48"/><polygon class="cls-4" points="43.49 94.15 43.5 98.53 40.13 100.48 40.11 96.1 43.49 94.15"/><polygon class="cls-2" points="30.61 116.64 14.02 107.01 14.01 102.62 30.6 112.26 30.61 116.64"/><polygon class="cls-3" points="20.79 128.59 4.21 118.95 7.58 117 24.17 126.64 20.79 128.59"/><polygon class="cls-3" points="20.8 132.97 4.22 123.33 4.21 118.95 20.79 128.59 20.8 132.97"/><polygon class="cls-3" points="24.17 126.64 24.18 131.03 20.8 132.97 20.79 128.59 24.17 126.64"/><polygon class="cls-2" points="33.66 104.22 17.08 94.58 20.45 92.63 37.04 102.27 33.66 104.22"/><polygon class="cls-3" points="46.54 81.72 29.96 72.08 33.33 70.13 49.92 79.77 46.54 81.72"/><polygon class="cls-3" points="46.56 86.11 29.97 76.47 29.96 72.08 46.54 81.72 46.56 86.11"/><polygon class="cls-2" points="37.04 102.27 20.45 92.63 20.44 88.24 37.03 97.88 37.04 102.27"/><polygon class="cls-3" points="30.6 112.26 30.61 116.64 27.23 118.59 27.22 114.21 30.6 112.26"/><polygon class="cls-3" points="27.22 114.21 10.63 104.57 14.01 102.62 30.6 112.26 27.22 114.21"/><polygon class="cls-3" points="27.23 118.59 10.64 108.96 10.63 104.57 27.22 114.21 27.23 118.59"/><polygon class="cls-2" points="40.09 89.84 23.51 80.2 26.88 78.25 43.47 87.89 40.09 89.84"/><polygon class="cls-2" points="43.47 87.89 26.88 78.25 26.87 73.86 43.46 83.5 43.47 87.89"/><polygon class="cls-2" points="20.77 122.32 4.19 112.68 7.56 110.74 24.15 120.38 20.77 122.32"/><polygon class="cls-3" points="33.66 104.22 17.08 94.58 17.06 90.19 33.65 99.83 33.66 104.22"/><polygon class="cls-3" points="33.65 99.83 17.06 90.19 20.44 88.24 37.03 97.88 33.65 99.83"/><polygon class="cls-3" points="37.03 97.88 37.04 102.27 33.66 104.22 33.65 99.83 37.03 97.88"/><polygon class="cls-2" points="24.15 120.38 7.56 110.74 7.55 106.36 24.14 116 24.15 120.38"/><polygon class="cls-2" points="46.53 75.45 29.94 65.81 33.31 63.86 49.9 73.5 46.53 75.45"/><polygon class="cls-2" points="49.9 73.5 33.31 63.86 33.3 59.48 49.89 69.12 49.9 73.5"/><polygon class="cls-2" points="27.2 107.95 10.61 98.31 13.99 96.36 30.58 106 27.2 107.95"/><polygon class="cls-4" points="43.46 83.5 43.47 87.89 40.09 89.84 40.08 85.45 43.46 83.5"/><polygon class="cls-3" points="40.08 85.45 23.5 75.81 26.87 73.86 43.46 83.5 40.08 85.45"/><polygon class="cls-3" points="40.09 89.84 23.51 80.2 23.5 75.81 40.08 85.45 40.09 89.84"/><polygon class="cls-2" points="30.58 106 13.99 96.36 13.98 91.97 30.57 101.61 30.58 106"/><polygon class="cls-3" points="20.77 122.32 4.19 112.68 4.17 108.3 20.76 117.94 20.77 122.32"/><polygon class="cls-3" points="24.14 116 24.15 120.38 20.77 122.32 20.76 117.94 24.14 116"/><polygon class="cls-3" points="20.76 117.94 4.17 108.3 7.55 106.36 24.14 116 20.76 117.94"/><polygon class="cls-2" points="33.63 93.57 17.05 83.93 20.42 81.98 37.01 91.62 33.63 93.57"/><polygon class="cls-3" points="49.89 69.12 49.9 73.5 46.53 75.45 46.51 71.07 49.89 69.12"/><polygon class="cls-3" points="46.53 75.45 29.94 65.81 29.93 61.43 46.51 71.07 46.53 75.45"/><polygon class="cls-3" points="46.51 71.07 29.93 61.43 33.3 59.48 49.89 69.12 46.51 71.07"/><polygon class="cls-2" points="37.01 91.62 20.42 81.98 20.41 77.59 37 87.23 37.01 91.62"/><polygon class="cls-3" points="30.57 101.61 30.58 106 27.2 107.95 27.19 103.56 30.57 101.61"/><polygon class="cls-3" points="27.19 103.56 10.6 93.92 13.98 91.97 30.57 101.61 27.19 103.56"/><polygon class="cls-3" points="27.2 107.95 10.61 98.31 10.6 93.92 27.19 103.56 27.2 107.95"/><polygon class="cls-2" points="40.06 79.18 23.48 69.54 26.85 67.59 43.44 77.23 40.06 79.18"/><polygon class="cls-2" points="43.44 77.23 26.85 67.59 26.84 63.21 43.43 72.85 43.44 77.23"/><polygon class="cls-2" points="20.74 111.67 4.16 102.03 7.53 100.09 24.12 109.73 20.74 111.67"/><polygon class="cls-3" points="33.62 89.18 17.03 79.54 20.41 77.59 37 87.23 33.62 89.18"/><polygon class="cls-3" points="33.63 93.57 17.05 83.93 17.03 79.54 33.62 89.18 33.63 93.57"/><polygon class="cls-3" points="37 87.23 37.01 91.62 33.63 93.57 33.62 89.18 37 87.23"/><polygon class="cls-2" points="24.12 109.73 7.53 100.09 7.52 95.7 24.11 105.34 24.12 109.73"/><polygon class="cls-2" points="46.5 64.8 29.91 55.16 33.28 53.22 49.87 62.85 46.5 64.8"/><polygon class="cls-2" points="49.87 62.85 33.28 53.22 33.27 48.83 49.86 58.47 49.87 62.85"/><polygon class="cls-2" points="27.17 97.3 10.58 87.66 13.96 85.71 30.55 95.35 27.17 97.3"/><polygon class="cls-3" points="40.06 79.18 23.48 69.54 23.46 65.16 40.05 74.8 40.06 79.18"/><polygon class="cls-3" points="40.05 74.8 23.46 65.16 26.84 63.21 43.43 72.85 40.05 74.8"/><polygon class="cls-3" points="43.43 72.85 43.44 77.23 40.06 79.18 40.05 74.8 43.43 72.85"/><polygon class="cls-2" points="30.55 95.35 13.96 85.71 13.95 81.32 30.54 90.96 30.55 95.35"/><polygon class="cls-3" points="24.11 105.34 24.12 109.73 20.74 111.67 20.73 107.29 24.11 105.34"/><polygon class="cls-3" points="20.73 107.29 4.14 97.65 7.52 95.7 24.11 105.34 20.73 107.29"/><polygon class="cls-3" points="20.74 111.67 4.16 102.03 4.14 97.65 20.73 107.29 20.74 111.67"/><polygon class="cls-2" points="33.6 82.91 17.02 73.27 20.39 71.32 36.98 80.96 33.6 82.91"/><polygon class="cls-3" points="46.5 64.8 29.91 55.16 29.9 50.78 46.48 60.42 46.5 64.8"/><polygon class="cls-3" points="46.48 60.42 29.9 50.78 33.27 48.83 49.86 58.47 46.48 60.42"/><polygon class="cls-3" points="49.86 58.47 49.87 62.85 46.5 64.8 46.48 60.42 49.86 58.47"/><polygon class="cls-2" points="36.98 80.96 20.39 71.32 20.38 66.94 36.97 76.58 36.98 80.96"/><polygon class="cls-3" points="30.54 90.96 30.55 95.35 27.17 97.3 27.16 92.91 30.54 90.96"/><polygon class="cls-3" points="27.17 97.3 10.58 87.66 10.57 83.27 27.16 92.91 27.17 97.3"/><polygon class="cls-3" points="27.16 92.91 10.57 83.27 13.95 81.32 30.54 90.96 27.16 92.91"/><polygon class="cls-2" points="40.03 68.53 23.45 58.89 26.82 56.94 43.41 66.58 40.03 68.53"/><polygon class="cls-2" points="43.41 66.58 26.82 56.94 26.81 52.56 43.4 62.2 43.41 66.58"/><polygon class="cls-2" points="20.71 101.03 4.13 91.39 7.5 89.44 24.09 99.08 20.71 101.03"/><polygon class="cls-3" points="33.6 82.91 17.02 73.27 17 68.89 33.59 78.53 33.6 82.91"/><polygon class="cls-3" points="36.97 76.58 36.98 80.96 33.6 82.91 33.59 78.53 36.97 76.58"/><polygon class="cls-3" points="33.59 78.53 17 68.89 20.38 66.94 36.97 76.58 33.59 78.53"/><polygon class="cls-2" points="49.84 53.27 33.25 43.63 33.25 40.86 49.83 50.5 49.84 53.27"/><polygon class="cls-2" points="24.09 99.08 7.5 89.44 7.49 85.05 24.07 94.69 24.09 99.08"/><polygon class="cls-2" points="27.14 86.64 10.55 77 13.93 75.05 30.52 84.69 27.14 86.64"/><polygon class="cls-3" points="40.03 68.53 23.45 58.89 23.43 54.51 40.02 64.15 40.03 68.53"/><polygon class="cls-3" points="40.02 64.15 23.43 54.51 26.81 52.56 43.4 62.2 40.02 64.15"/><polygon class="cls-3" points="43.4 62.2 43.41 66.58 40.03 68.53 40.02 64.15 43.4 62.2"/><polygon class="cls-2" points="30.52 84.69 13.93 75.05 13.92 70.67 30.51 80.31 30.52 84.69"/><polygon class="cls-3" points="24.07 94.69 24.09 99.08 20.71 101.03 20.7 96.64 24.07 94.69"/><polygon class="cls-3" points="20.7 96.64 4.11 87 7.49 85.05 24.07 94.69 20.7 96.64"/><polygon class="cls-3" points="20.71 101.03 4.13 91.39 4.11 87 20.7 96.64 20.71 101.03"/><polygon class="cls-2" points="33.57 72.26 16.98 62.62 20.36 60.67 36.95 70.31 33.57 72.26"/><polygon class="cls-2" points="36.95 70.31 20.36 60.67 20.35 56.29 36.94 65.93 36.95 70.31"/><polygon class="cls-3" points="27.13 82.26 10.54 72.62 13.92 70.67 30.51 80.31 27.13 82.26"/><polygon class="cls-3" points="27.14 86.64 10.55 77 10.54 72.62 27.13 82.26 27.14 86.64"/><polygon class="cls-2" points="20.68 90.37 4.1 80.73 7.47 78.78 24.06 88.42 20.68 90.37"/><polygon class="cls-3" points="33.56 67.88 16.97 58.24 20.35 56.29 36.94 65.93 33.56 67.88"/><polygon class="cls-3" points="33.57 72.26 16.98 62.62 16.97 58.24 33.56 67.88 33.57 72.26"/><polygon class="cls-3" points="36.94 65.93 36.95 70.31 33.57 72.26 33.56 67.88 36.94 65.93"/><polygon class="cls-2" points="24.06 88.42 7.47 78.78 7.46 74.4 24.05 84.04 24.06 88.42"/><polygon class="cls-2" points="27.11 75.99 10.52 66.35 13.9 64.4 30.49 74.04 27.11 75.99"/><polygon class="cls-2" points="30.49 74.04 13.9 64.4 13.89 60.02 30.48 69.66 30.49 74.04"/><polygon class="cls-3" points="24.05 84.04 24.06 88.42 20.68 90.37 20.67 85.99 24.05 84.04"/><polygon class="cls-3" points="20.68 90.37 4.1 80.73 4.08 76.35 20.67 85.99 20.68 90.37"/><polygon class="cls-3" points="20.67 85.99 4.08 76.35 7.46 74.4 24.05 84.04 20.67 85.99"/><polygon class="cls-4" points="30.48 69.66 30.49 74.04 27.11 75.99 27.1 71.61 30.48 69.66"/><polygon class="cls-3" points="27.11 75.99 10.52 66.35 10.51 61.97 27.1 71.61 27.11 75.99"/><polygon class="cls-3" points="27.1 71.61 10.51 61.97 13.89 60.02 30.48 69.66 27.1 71.61"/><polygon class="cls-2" points="20.65 79.72 4.07 70.08 7.44 68.14 24.03 77.77 20.65 79.72"/><polygon class="cls-2" points="24.03 77.77 7.44 68.14 7.43 63.75 24.02 73.39 24.03 77.77"/><polygon class="cls-3" points="20.65 79.72 4.07 70.08 4.05 65.7 20.64 75.34 20.65 79.72"/><polygon class="cls-3" points="20.64 75.34 4.05 65.7 7.43 63.75 24.02 73.39 20.64 75.34"/><polygon class="cls-3" points="24.02 73.39 24.03 77.77 20.65 79.72 20.64 75.34 24.02 73.39"/><polygon class="cls-2" points="20.63 70.14 4.04 60.49 33.25 43.63 49.84 53.27 20.63 70.14"/><polygon class="cls-3" points="20.63 70.14 4.04 60.49 4.03 57.73 20.62 67.37 20.63 70.14"/><polygon class="cls-3" points="20.62 67.37 4.03 57.73 33.25 40.86 49.83 50.5 20.62 67.37"/><polygon class="cls-3" points="49.83 50.5 49.84 53.27 20.63 70.14 20.62 67.37 49.83 50.5"/><path class="cls-6" d="M16.59,60.36,53.81,38.86l.27,93.89L16.85,154.24Zm33.25-7.09V50.5L20.62,67.37v2.77L49.84,53.27M43.47,87.89V83.5l-3.38,1.95v4.39l3.38-1.95M30.55,95.35V91l-3.38,1.95V97.3l3.38-1.95m13,35.14V126.1l-3.38,1.95v4.39l3.38-1.95m-12.92,7.46v-4.39l-3.38,1.95v4.39l3.38-1.95M43.5,98.54V94.15L40.11,96.1v4.39l3.38-1.95M30.58,106v-4.39l-3.38,1.95v4.39L30.58,106M37,91.62V87.23l-3.38,1.95v4.39L37,91.62m0,10.65V97.88l-3.38,1.95v4.39L37,102.27m.09,32v-4.39l-3.38,1.95v4.39l3.38-1.95m-6.52-17.57v-4.38l-3.38,1.95v4.38l3.38-1.95m12.92-7.46V104.8l-3.38,1.95v4.38l3.38-1.95m-13-24.49V80.31l-3.38,1.95v4.38l3.38-1.95m12.92-7.46V72.85L40.05,74.8v4.38l3.38-1.95m.12,42.6v-4.38l-3.38,1.95v4.38l3.38-1.95m-.15-53.25V62.2L40,64.15v4.38l3.38-1.95M30.64,127.29v-4.38l-3.38,1.95v4.38l3.38-1.95M30.49,74V69.66L27.1,71.61V76L30.49,74m6.58,38.87v-4.38l-3.38,1.95v4.38l3.38-1.95M37,81V76.58l-3.38,1.95v4.38L37,81m0-10.65V65.93l-3.38,1.95v4.38L37,70.31m.15,53.25v-4.38l-3.38,1.95v4.38l3.38-1.95m-13-24.49V94.69L20.7,96.64V101l3.37-1.95M49.93,84.16V79.77l-3.37,1.95v4.39l3.37-1.95M24.12,109.73v-4.39l-3.37,1.95v4.39l3.37-1.95m.09,32v-4.39l-3.37,1.95v4.39l3.37-1.95m25.84-14.92v-4.39l-3.37,1.95v4.39l3.37-1.95m-.09-32V90.42l-3.37,1.95v4.39L50,94.81M24.15,120.38V116l-3.37,1.95v4.38l3.37-1.95M50,105.46v-4.38L46.6,103v4.38L50,105.46m-25.93-17V84L20.67,86v4.38l3.37-1.95m0-10.65V73.39l-3.37,1.95v4.38L24,77.77M24.18,131v-4.38l-3.37,1.95V133L24.18,131M49.9,73.5V69.12l-3.37,1.95v4.38L49.9,73.5m0-10.65V58.47l-3.37,1.95V64.8l3.37-1.95M50,116.11v-4.38l-3.37,1.95v4.38L50,116.11"/><polygon class="cls-3" points="30.66 133.56 30.67 137.95 27.29 139.9 27.28 135.51 30.66 133.56"/><polygon class="cls-3" points="49.92 79.77 49.93 84.16 46.56 86.11 46.54 81.72 49.92 79.77"/><polygon class="cls-3" points="30.51 80.31 30.52 84.69 27.14 86.64 27.13 82.26 30.51 80.31"/><polygon class="cls-2" points="16.59 60.36 0 50.72 37.23 29.22 53.81 38.86 16.59 60.36"/><polygon class="cls-5" points="16.85 154.24 0.27 144.6 0 50.72 16.59 60.36 16.85 154.24"/></g><g class="cls-1"><path class="cls-7" d="M78.79,178v4.9c0,2.17,1.43,4.34,4.28,6,5.73,3.33,15.06,3.33,20.83,0,2.9-1.68,4.35-3.88,4.35-6.08v-4.9c0,2.2-1.44,4.4-4.35,6.08-5.77,3.33-15.1,3.33-20.83,0C80.22,182.35,78.8,180.19,78.79,178Z"/><path class="cls-8" d="M83.14,171.94c-5.77,3.33-5.8,8.74-.07,12.07s15.06,3.33,20.83,0,5.8-8.73.07-12.07S88.91,168.61,83.14,171.94Z"/></g><path class="cls-7" d="M78.79,170.37v4.9c0,2.17,1.43,4.34,4.28,6,5.73,3.33,15.06,3.33,20.83,0,2.9-1.68,4.35-3.88,4.35-6.08v-4.9c0,2.2-1.44,4.4-4.35,6.08-5.77,3.33-15.1,3.33-20.83,0C80.22,174.7,78.8,172.54,78.79,170.37Z"/><path class="cls-8" d="M83.14,164.29c-5.77,3.33-5.8,8.74-.07,12.07s15.06,3.33,20.83,0,5.8-8.73.07-12.07S88.91,161,83.14,164.29Z"/><path class="cls-7" d="M78.79,162.72v4.9c0,2.17,1.43,4.34,4.28,6,5.73,3.33,15.06,3.33,20.83,0,2.9-1.68,4.35-3.88,4.35-6.08v-4.9c0,2.2-1.44,4.4-4.35,6.08-5.77,3.33-15.1,3.33-20.83,0C80.22,167.05,78.8,164.89,78.79,162.72Z"/><path class="cls-8" d="M83.14,156.64c-5.77,3.33-5.8,8.74-.07,12.07s15.06,3.33,20.83,0,5.8-8.73.07-12.07S88.91,153.31,83.14,156.64Z"/><path class="cls-7" d="M78.79,155.07V160c0,2.17,1.43,4.34,4.28,6,5.73,3.33,15.06,3.33,20.83,0,2.9-1.68,4.35-3.88,4.35-6.08V155c0,2.2-1.44,4.4-4.35,6.08-5.77,3.33-15.1,3.33-20.83,0C80.22,159.4,78.8,157.23,78.79,155.07Z"/><path class="cls-8" d="M83.14,149c-5.77,3.33-5.8,8.74-.07,12.07s15.06,3.33,20.83,0,5.8-8.73.07-12.07S88.91,145.66,83.14,149Z"/><g class="cls-1"><path class="cls-7" d="M78.79,147.41v4.9c0,2.17,1.43,4.34,4.28,6,5.73,3.33,15.06,3.33,20.83,0,2.9-1.68,4.35-3.88,4.35-6.08v-4.9c0,2.2-1.44,4.4-4.35,6.08-5.77,3.33-15.1,3.33-20.83,0C80.22,151.75,78.8,149.58,78.79,147.41Z"/><path class="cls-8" d="M83.14,141.34c-5.77,3.33-5.8,8.74-.07,12.07s15.06,3.33,20.83,0,5.8-8.73.07-12.07S88.91,138,83.14,141.34Z"/></g><g class="cls-1"><path class="cls-9" d="M110.94,157.81v4.9c0,2.17,1.43,4.34,4.28,6,5.73,3.33,15.06,3.33,20.83,0,2.9-1.68,4.35-3.88,4.35-6.08v-4.9c0,2.2-1.44,4.4-4.35,6.08-5.77,3.33-15.1,3.33-20.83,0C112.37,162.15,110.94,160,110.94,157.81Z"/><path class="cls-10" d="M115.29,151.74c-5.77,3.33-5.8,8.74-.07,12.07s15.06,3.33,20.83,0,5.8-8.73.07-12.07S121.06,148.41,115.29,151.74Z"/></g><path class="cls-9" d="M110.94,150.16v4.9c0,2.17,1.43,4.34,4.28,6,5.73,3.33,15.06,3.33,20.83,0,2.9-1.68,4.35-3.88,4.35-6.08v-4.9c0,2.2-1.44,4.4-4.35,6.08-5.77,3.33-15.1,3.33-20.83,0C112.37,154.5,110.94,152.33,110.94,150.16Z"/><path class="cls-10" d="M115.29,144.09c-5.77,3.33-5.8,8.74-.07,12.07s15.06,3.33,20.83,0,5.8-8.73.07-12.07S121.06,140.75,115.29,144.09Z"/><path class="cls-9" d="M110.94,142.51v4.9c0,2.17,1.43,4.34,4.28,6,5.73,3.33,15.06,3.33,20.83,0,2.9-1.68,4.35-3.88,4.35-6.08v-4.9c0,2.2-1.44,4.4-4.35,6.08-5.77,3.33-15.1,3.33-20.83,0C112.37,146.85,110.94,144.68,110.94,142.51Z"/><path class="cls-10" d="M115.29,136.44c-5.77,3.33-5.8,8.74-.07,12.07s15.06,3.33,20.83,0,5.8-8.73.07-12.07S121.06,133.1,115.29,136.44Z"/><path class="cls-9" d="M110.94,134.86v4.9c0,2.17,1.43,4.34,4.28,6,5.73,3.33,15.06,3.33,20.83,0,2.9-1.68,4.35-3.88,4.35-6.08v-4.9c0,2.2-1.44,4.4-4.35,6.08-5.77,3.33-15.1,3.33-20.83,0C112.37,139.2,110.94,137,110.94,134.86Z"/><path class="cls-10" d="M115.29,128.79c-5.77,3.33-5.8,8.74-.07,12.07s15.06,3.33,20.83,0,5.8-8.73.07-12.07S121.06,125.45,115.29,128.79Z"/><g class="cls-1"><path class="cls-9" d="M110.94,127.21v4.9c0,2.17,1.43,4.34,4.28,6,5.73,3.33,15.06,3.33,20.83,0,2.9-1.68,4.35-3.88,4.35-6.08v-4.9c0,2.2-1.44,4.4-4.35,6.08-5.77,3.33-15.1,3.33-20.83,0C112.37,131.55,110.94,129.38,110.94,127.21Z"/><path class="cls-10" d="M115.29,121.13c-5.77,3.33-5.8,8.74-.07,12.07s15.06,3.33,20.83,0,5.8-8.73.07-12.07S121.06,117.8,115.29,121.13Z"/></g><g class="cls-1"><path class="cls-11" d="M46.65,156.93v4.9c0,2.17,1.43,4.34,4.28,6,5.73,3.33,15.06,3.33,20.83,0,2.9-1.68,4.35-3.88,4.35-6.08v-4.9c0,2.2-1.44,4.4-4.35,6.08-5.77,3.33-15.1,3.33-20.83,0C48.08,161.27,46.65,159.1,46.65,156.93Z"/><path class="cls-12" d="M51,150.86c-5.77,3.33-5.8,8.74-.07,12.07s15.06,3.33,20.83,0,5.8-8.73.07-12.07S56.77,147.52,51,150.86Z"/></g><path class="cls-11" d="M46.65,149.28v4.9c0,2.17,1.43,4.34,4.28,6,5.73,3.33,15.06,3.33,20.83,0,2.9-1.68,4.35-3.88,4.35-6.08v-4.9c0,2.2-1.44,4.4-4.35,6.08-5.77,3.33-15.1,3.33-20.83,0C48.08,153.62,46.65,151.45,46.65,149.28Z"/><path class="cls-12" d="M51,143.2c-5.77,3.33-5.8,8.74-.07,12.07s15.06,3.33,20.83,0,5.8-8.73.07-12.07S56.77,139.87,51,143.2Z"/><path class="cls-11" d="M46.65,141.63v4.9c0,2.17,1.43,4.34,4.28,6,5.73,3.33,15.06,3.33,20.83,0,2.9-1.68,4.35-3.88,4.35-6.08v-4.9c0,2.2-1.44,4.4-4.35,6.08-5.77,3.33-15.1,3.33-20.83,0C48.08,146,46.65,143.8,46.65,141.63Z"/><path class="cls-12" d="M51,135.55c-5.77,3.33-5.8,8.74-.07,12.07s15.06,3.33,20.83,0,5.8-8.73.07-12.07S56.77,132.22,51,135.55Z"/><path class="cls-11" d="M46.65,134v4.9c0,2.17,1.43,4.34,4.28,6,5.73,3.33,15.06,3.33,20.83,0,2.9-1.68,4.35-3.88,4.35-6.08v-4.9c0,2.2-1.44,4.4-4.35,6.08-5.77,3.33-15.1,3.33-20.83,0C48.08,138.32,46.65,136.15,46.65,134Z"/><path class="cls-12" d="M51,127.9c-5.77,3.33-5.8,8.74-.07,12.07S66,143.3,71.76,140s5.8-8.73.07-12.07S56.77,124.57,51,127.9Z"/><g class="cls-1"><path class="cls-11" d="M46.65,126.33v4.9c0,2.17,1.43,4.34,4.28,6,5.73,3.33,15.06,3.33,20.83,0,2.9-1.68,4.35-3.88,4.35-6.08v-4.9c0,2.2-1.44,4.4-4.35,6.08-5.77,3.33-15.1,3.33-20.83,0C48.08,130.66,46.65,128.5,46.65,126.33Z"/><path class="cls-12" d="M51,120.25c-5.77,3.33-5.8,8.74-.07,12.07s15.06,3.33,20.83,0,5.8-8.73.07-12.07S56.77,116.92,51,120.25Z"/></g></g></g></svg>