<?xml version="1.0" encoding="utf-8"?>
<!-- Generator: Adobe Illustrator 21.0.0, SVG Export Plug-In . SVG Version: 6.00 Build 0)  -->
<svg version="1.1" id="Layer_1" xmlns="http://www.w3.org/2000/svg" xmlns:xlink="http://www.w3.org/1999/xlink" x="0px" y="0px"
	 viewBox="0 0 206 207" style="enable-background:new 0 0 206 207;" xml:space="preserve">
<style type="text/css">
	.st0{fill:#1C89C0;}
	.st1{fill:#FFFFFF;}
</style>
<g>
	<g>
		<path class="st0" d="M90,20.7c16.7-3.2,34.6,0,49.2,8.7c17.2,10.2,29.7,28,33.2,47.7c4.4,22.4-3.1,46.4-19,62.6
			c-15.7,15.6-31.2,31.3-46.9,46.9c-1.7,2.1-5.1,2.1-6.8,0c-15.5-15.4-30.8-30.8-46.3-46.2c-13.2-12.9-21.1-31.2-21-49.7
			C32,72.3,39.4,54,52.3,40.9C62.3,30.5,75.7,23.3,90,20.7z M60,84.8c-2.1,14,3.6,28.4,13.9,38c1.9-1.6,3.7-3.2,5.4-5
			C69,108.6,64.1,93.6,68.4,80.2c4.4-15.8,20.7-27.1,37.1-25.7c16,0.9,30.2,13.6,33,29.4c2.5,12.4-2.4,25.6-11.8,34
			c1.7,1.7,3.5,3.4,5.2,5.1c13.7-11.9,18.4-32.7,11.1-49.3c-7.2-17.6-26.8-28.9-45.6-26.1C78.3,49.6,62.1,65.8,60,84.8z M74.6,89.5
			c-0.6,8.7,3.5,17.3,10.1,22.9c1.4-1.9,4.2-3.2,4.6-5.6c-1.9-2.3-4.3-4.5-5.5-7.3c-3.8-7.6-2.2-17.2,3.6-23.3
			c5.8-6.5,15.8-8.7,23.8-5.2c8.1,3.3,13.5,12.1,12.9,20.8c-0.3,6-3.4,11.5-7.9,15.3c1.7,1.8,3.4,3.6,5.2,5.3
			c8.3-7.2,12.2-19.1,9-29.8c-3.3-12.2-15.6-21.4-28.4-20.5C87.5,62.1,74.6,75.1,74.6,89.5z M101.2,109.4
			c-6.3,5.9-12.3,12.1-18.3,18.2c-1.9,1.6-0.6,3.9,1,5.1c6.1,5.9,11.8,12.2,18.1,17.8c0.5,0,1.6-0.1,2.2-0.1
			c6.3-6,12.4-12.3,18.5-18.4c1.4-1,1.8-3.2,0.4-4.3c-5.8-5.9-11.7-11.7-17.6-17.6C104.5,108.8,102.5,107.8,101.2,109.4z"/>
	</g>
</g>
<g>
	<path class="st1" d="M60,84.8c2.1-19,18.3-35.2,37.3-37.3c18.8-2.9,38.5,8.5,45.6,26.1c7.3,16.6,2.6,37.4-11.1,49.3
		c-1.7-1.7-3.4-3.4-5.2-5.1c9.4-8.4,14.3-21.5,11.8-34c-2.7-15.7-17-28.4-33-29.4c-16.4-1.4-32.6,9.9-37.1,25.7
		c-4.3,13.3,0.6,28.3,10.8,37.7c-1.7,1.8-3.5,3.4-5.4,5C63.6,113.3,58,98.9,60,84.8z"/>
	<path class="st1" d="M74.7,89.5c0-14.4,12.9-27.4,27.3-27.3c12.8-0.9,25.1,8.3,28.4,20.5c3.2,10.6-0.7,22.6-9,29.8
		c-1.8-1.7-3.5-3.5-5.2-5.3c4.5-3.8,7.7-9.3,7.9-15.3c0.7-8.7-4.8-17.4-12.9-20.8c-8-3.6-18-1.3-23.8,5.2
		c-5.8,6.1-7.4,15.8-3.6,23.3c1.2,2.9,3.5,5,5.5,7.3c-0.4,2.4-3.2,3.7-4.6,5.6C78.2,106.8,74.1,98.2,74.7,89.5z"/>
	<path class="st1" d="M101.3,109.4c1.3-1.6,3.2-0.6,4.3,0.7c5.9,5.9,11.8,11.7,17.6,17.6c1.4,1.2,1,3.3-0.4,4.3
		c-6.2,6.1-12.2,12.4-18.5,18.4c-0.5,0-1.6,0.1-2.2,0.1c-6.3-5.6-12-11.9-18.1-17.8c-1.5-1.2-2.8-3.6-1-5.1
		C89,121.5,95,115.3,101.3,109.4z"/>
</g>
</svg>
