<svg xmlns="http://www.w3.org/2000/svg" viewBox="0 0 135.65 181.5"><defs><style>.cls-1{fill:#231f20;}.cls-2{fill:#fff;}.cls-3{fill:#dda357;}.cls-4{fill:#f4cfa2;}.cls-5{fill:#eab575;}</style></defs><title>Asset 3</title><g id="Layer_2" data-name="Layer 2"><g id="Layer_1-2" data-name="Layer 1"><g id="_Group_" data-name="&lt;Group&gt;"><g id="_Group_2" data-name="&lt;Group&gt;"><g id="_Group_3" data-name="&lt;Group&gt;"><path id="_Compound_Path_" data-name="&lt;Compound Path&gt;" class="cls-1" d="M84.18,143.95H74.23L99.82,74.72h4.28c11.36,0,25.82,3.25,29.21,12.41l0,.13c.3.9,7.22,22.2-4.52,38.75-8.23,11.6-23.24,17.63-44.63,17.94Zm21.76-60.39-19,51.52c16.87-.69,28.55-5.43,34.73-14.11,8.87-12.44,3.8-29.58,3.4-30.85s-2.35-2.88-6.25-4.3A42.67,42.67,0,0,0,105.93,83.55Z"/></g><g id="_Group_4" data-name="&lt;Group&gt;"><g id="_Group_5" data-name="&lt;Group&gt;"><path id="_Path_" data-name="&lt;Path&gt;" class="cls-2" d="M103,56.26H7.23S-8.62,161.44,34.78,177.1H75.47C118.87,161.44,103,56.26,103,56.26Z"/></g><g id="_Group_6" data-name="&lt;Group&gt;"><path id="_Compound_Path_2" data-name="&lt;Compound Path&gt;" class="cls-1" d="M76.24,181.5H34l-.72-.26c-11.16-4-19.65-13.47-25.23-28.06C3.81,142.08,1.21,127.9.33,111A308.78,308.78,0,0,1,2.88,55.61l.56-3.74H106.81l.56,3.74A308.78,308.78,0,0,1,109.92,111c-.87,16.86-3.47,31-7.72,42.15-5.58,14.59-14.07,24-25.23,28.06Zm-40.66-8.8H74.67c11-4.35,24.22-18.75,26.46-62.12a305.85,305.85,0,0,0-2-49.92H11.08a306.12,306.12,0,0,0-2,50C10.39,134.82,16,165,35.58,172.7Z"/></g></g><g id="_Group_7" data-name="&lt;Group&gt;"><path id="_Path_2" data-name="&lt;Path&gt;" class="cls-3" d="M13.4,110.36c.8,15.49,3.12,28.33,6.88,38.15,3.92,10.24,9.35,16.93,16.16,19.91H73.81c6.79-3,12.21-9.63,16.13-19.82,3.76-9.78,6.08-22.57,6.9-38,.2-3.84.3-7.64.32-11.36H13.09C13.11,102.87,13.2,106.6,13.4,110.36Z"/></g><g id="_Group_8" data-name="&lt;Group&gt;"><path id="_Path_3" data-name="&lt;Path&gt;" class="cls-4" d="M95.35,64.95H14.9c-.45,4.21-1,10-1.35,16.68H96.7C96.33,74.93,95.8,69.16,95.35,64.95Z"/></g><g id="_Group_9" data-name="&lt;Group&gt;"><path id="_Path_4" data-name="&lt;Path&gt;" class="cls-5" d="M96.7,81.63H13.55c-.3,5.38-.49,11.36-.46,17.61H97.16C97.19,93,97,87,96.7,81.63Z"/></g><g id="_Group_10" data-name="&lt;Group&gt;"><path id="_Compound_Path_3" data-name="&lt;Compound Path&gt;" class="cls-1" d="M103.73,60.65h-96v-4.4c0-17,9.47-19.66,17.83-22,1.06-.3,2.16-.6,3.26-.94,6.24-1.91,15.09-15.79,14.78-25.71L43.36,0l6.72,3.59A45.46,45.46,0,0,1,67.45,22.46a17.34,17.34,0,0,1,4.81-.68c8.3,0,15.52,6.16,17.63,14.68a24.75,24.75,0,0,1,13.4,19.4Zm-86.9-8.8H93.22a17.19,17.19,0,0,0-8.95-8.34l-2.33-1L81.62,40c-.67-5.3-4.78-9.44-9.36-9.44A9.72,9.72,0,0,0,67.38,32l-4.49,2.61L61,29.76a37.66,37.66,0,0,0-9.63-14.25C48.54,27,39.79,39.17,31.41,41.74c-1.2.37-2.36.69-3.48,1C21.21,44.61,17.78,45.57,16.83,51.85Z"/></g></g></g></g></g></svg>