<svg xmlns="http://www.w3.org/2000/svg" viewBox="0 0 153.24 170.81"><defs><style>.cls-1{fill:#231f20;}.cls-2{fill:#dda357;}.cls-3{fill:#fff;}</style></defs><title>Asset 2</title><g id="Layer_2" data-name="Layer 2"><g id="Layer_1-2" data-name="Layer 1"><g id="_Group_" data-name="&lt;Group&gt;"><g id="_Group_2" data-name="&lt;Group&gt;"><g id="_Group_3" data-name="&lt;Group&gt;"><path id="_Compound_Path_" data-name="&lt;Compound Path&gt;" class="cls-1" d="M12.53,170.81A8.9,8.9,0,0,1,7,169c-5.56-4.36-4.33-14.25,2.92-23.52q.5-.64,1-1.25c-7-12.43-11-32.56-10.93-56.1,0-23,4-44.51,10.53-58.53l-.62-.77C2.65,19.54,1.42,9.65,7,5.29a8.9,8.9,0,0,1,5.55-1.83c4.53,0,9.89,2.95,14.47,7.85C39.56,4.19,58.95,0,80,0c18.69,0,35.29,3.44,46.38,9.54,4.55-4.81,9.84-7.69,14.32-7.69a8.9,8.9,0,0,1,5.55,1.83c5.56,4.36,4.33,14.25-2.93,23.52l-.57.7c6.33,14,10.23,35.48,10.5,58.39.29,23.74-3.31,44.45-9.93,57.58,7.25,9.26,8.47,19.15,2.91,23.5a8.9,8.9,0,0,1-5.55,1.83h0c-4.62,0-10.1-3.07-14.75-8.16-11.26,5.59-27.28,8.63-45.68,8.63-19.36,0-38-3.48-50.94-9.41l-.19.24C24.13,166.86,17.78,170.81,12.53,170.81Zm-.11-8.8h.11c1.63,0,5.69-1.88,9.64-6.94a27.52,27.52,0,0,0,1.89-2.73l2.17-3.6,3.69,2c11.5,6.24,30.78,10.12,50.3,10.12,18.47,0,34.69-3.36,44.52-9.21l3.42-2,2.37,3.21.48.64c4,5,8,6.93,9.64,6.93h.1c.42-1.17-.23-5.79-4.4-11.12-.49-.63-1-1.25-1.58-1.85l-2.24-2.4,1.67-2.83c6.69-11.35,10.51-32.21,10.23-55.79-.28-22.84-4.44-44.76-10.86-57.23l-1.46-2.83,2.23-2.27a27.65,27.65,0,0,0,2-2.31c4.17-5.33,4.83-10,4.4-11.12h-.11c-1.63,0-5.69,1.88-9.64,6.94l-2.76,3.64-3.45-2.33C115.3,12.48,99,8.8,80,8.8c-21,0-40.69,4.56-51.39,11.9l-3.48,2.39-2.53-3.38-.39-.5c-4-5.05-8-6.94-9.64-6.94h-.11c-.42,1.17.23,5.79,4.4,11.12a27.61,27.61,0,0,0,2.1,2.39l2.28,2.31-1.53,2.86C13,43.39,8.85,65.3,8.8,88.14,8.75,111.62,13,131.87,20.08,142.3l2.11,3.09L19.48,148a27.25,27.25,0,0,0-2.65,2.93C12.66,156.22,12,160.84,12.43,162Z"/></g><g id="_Group_4" data-name="&lt;Group&gt;"><g id="_Group_5" data-name="&lt;Group&gt;"><circle id="_Path_" data-name="&lt;Path&gt;" class="cls-2" cx="76.62" cy="85.41" r="36.75"/></g><g id="_Group_6" data-name="&lt;Group&gt;"><g id="_Group_7" data-name="&lt;Group&gt;"><path id="_Path_2" data-name="&lt;Path&gt;" class="cls-3" d="M90.63,103.7c-4.31-3.45-9.24-9.23-16.06-17.48-7.18-8.68-12.36-13.14-16-15.35-3.68,6.35-.61,17.07,7.53,25.21C74,104,84.26,107,90.63,103.7Z"/></g><g id="_Group_8" data-name="&lt;Group&gt;"><path id="_Path_3" data-name="&lt;Path&gt;" class="cls-3" d="M93.87,101c4.84-6.12,2.07-17.52-6.58-26.17-8.46-8.46-19.71-11.45-25.93-7.07C66,70.78,71.42,76,77.68,83.6,85.23,92.73,90.1,98.16,93.87,101Z"/></g></g></g></g></g></g></g></svg>