<svg xmlns="http://www.w3.org/2000/svg" viewBox="0 0 119.65 119.62"><defs><style>.cls-1{fill:#dda357;}.cls-2{fill:#231f20;}</style></defs><title>Asset 5</title><g id="Layer_2" data-name="Layer 2"><g id="Layer_1-2" data-name="Layer 1"><g id="_Group_" data-name="&lt;Group&gt;"><g id="_Group_2" data-name="&lt;Group&gt;"><g id="_Group_3" data-name="&lt;Group&gt;"><ellipse id="_Path_" data-name="&lt;Path&gt;" class="cls-1" cx="59.83" cy="59.81" rx="43.89" ry="64.91" transform="translate(-24.77 59.82) rotate(-45)"/></g><g id="_Group_4" data-name="&lt;Group&gt;"><path id="_Compound_Path_" data-name="&lt;Compound Path&gt;" class="cls-2" d="M80.51,119.62h0C62.24,119.62,41.75,110,25.68,94,12.8,81.09,4.08,65.52,1.1,50.14c-3.09-16,.36-30,9.71-39.34C17.88,3.74,27.68,0,39.14,0,57.41,0,77.9,9.59,94,25.66c12.87,12.87,21.6,28.44,24.57,43.82,3.09,16-.36,30-9.71,39.34C101.77,115.89,92,119.62,80.51,119.62ZM39.14,8.8C30.06,8.8,22.42,11.64,17,17,9.81,24.25,7.22,35.42,9.74,48.47,12.39,62.15,20.25,76.09,31.9,87.74c14.46,14.45,32.63,23.09,48.61,23.09,9.08,0,16.72-2.84,22.1-8.23,7.23-7.23,9.82-18.39,7.29-31.44C107.26,57.48,99.4,43.53,87.75,31.89,73.3,17.43,55.12,8.8,39.14,8.8Z"/></g><g id="_Group_5" data-name="&lt;Group&gt;"><path id="_Path_2" data-name="&lt;Path&gt;" class="cls-2" d="M99.06,110.51C90.11,70.25,70.59,64.87,51.72,59.68c-3.11-.86-6-1.67-8.95-2.63-22.21-7.4-32.62-40.43-33-41.83l8.41-2.59-4.2,1.3,4.2-1.3c.09.3,9.52,30.11,27.42,36.08,2.68.89,5.5,1.67,8.5,2.49,19.38,5.34,43.5,12,53.6,57.41Z"/></g></g></g></g></g></svg>