<svg xmlns="http://www.w3.org/2000/svg" viewBox="0 0 120.33 174.43"><defs><style>.cls-1{fill:#dda357;}.cls-2{fill:#fff;}.cls-3{fill:#231f20;}</style></defs><title>Asset 1</title><g id="Layer_2" data-name="Layer 2"><g id="Layer_1-2" data-name="Layer 1"><g id="_Group_" data-name="&lt;Group&gt;"><g id="_Group_2" data-name="&lt;Group&gt;"><g id="_Group_3" data-name="&lt;Group&gt;"><polygon id="_Path_" data-name="&lt;Path&gt;" class="cls-1" points="15.06 84.03 21.16 137.64 99.17 137.64 105.27 84.03 15.06 84.03"/></g><g id="_Group_4" data-name="&lt;Group&gt;"><g id="_Group_5" data-name="&lt;Group&gt;"><path id="_Path_2" data-name="&lt;Path&gt;" class="cls-2" d="M115.93,52.4a8.87,8.87,0,0,0-9-8.76H13.36a8.87,8.87,0,0,0-9,8.76h0a8.87,8.87,0,0,0,9,8.76H107a8.87,8.87,0,0,0,9-8.76Z"/></g><g id="_Group_6" data-name="&lt;Group&gt;"><path id="_Compound_Path_" data-name="&lt;Compound Path&gt;" class="cls-3" d="M107,65.57H13.36a13.17,13.17,0,1,1,0-26.33H107a13.17,13.17,0,1,1,0,26.33ZM13.36,48a4.37,4.37,0,1,0,0,8.73H107A4.37,4.37,0,1,0,107,48Z"/></g></g><g id="_Group_7" data-name="&lt;Group&gt;"><g id="_Group_8" data-name="&lt;Group&gt;"><polygon id="_Path_3" data-name="&lt;Path&gt;" class="cls-2" points="107.92 60.76 12.41 60.76 15.06 84.03 105.27 84.03 107.92 60.76"/></g><g id="_Group_9" data-name="&lt;Group&gt;"><path id="_Compound_Path_2" data-name="&lt;Compound Path&gt;" class="cls-3" d="M109.2,88.43H11.13L7.48,56.36H112.85ZM19,79.63h82.36L103,65.16H17.34Z"/></g></g><g id="_Group_10" data-name="&lt;Group&gt;"><g id="_Group_11" data-name="&lt;Group&gt;"><polygon id="_Path_4" data-name="&lt;Path&gt;" class="cls-2" points="24.85 170.03 95.48 170.03 99.17 137.64 21.16 137.64 24.85 170.03"/></g><g id="_Group_12" data-name="&lt;Group&gt;"><path id="_Compound_Path_3" data-name="&lt;Compound Path&gt;" class="cls-3" d="M99.41,174.43H20.93l-4.69-41.19H104.1Zm-70.63-8.8H91.55L94.24,142H26.09Z"/></g></g><g id="_Group_13" data-name="&lt;Group&gt;"><path id="_Compound_Path_4" data-name="&lt;Compound Path&gt;" class="cls-3" d="M103.1,142H17.24L10.13,79.63H110.2Zm-78-8.8H95.24l5.1-44.81H20Z"/></g><g id="_Group_14" data-name="&lt;Group&gt;"><circle id="_Path_5" data-name="&lt;Path&gt;" class="cls-2" cx="60.17" cy="111.2" r="16.94"/></g><g id="_Group_15" data-name="&lt;Group&gt;"><g id="_Group_16" data-name="&lt;Group&gt;"><path id="_Path_6" data-name="&lt;Path&gt;" class="cls-1" d="M58.75,121.84c-.28-2.56,0-6.08.47-11,.49-5.22.26-8.4-.22-10.33-3.3.88-5.82,5.42-5.82,10.78S55.57,120.83,58.75,121.84Z"/></g><g id="_Group_17" data-name="&lt;Group&gt;"><path id="_Path_7" data-name="&lt;Path&gt;" class="cls-1" d="M60.7,122c3.61-.42,6.45-5.09,6.45-10.78S64.43,101,60.94,100.37A36.2,36.2,0,0,1,61.11,111C60.59,116.45,60.4,119.84,60.7,122Z"/></g></g><g id="_Group_18" data-name="&lt;Group&gt;"><g id="_Group_19" data-name="&lt;Group&gt;"><path id="_Path_8" data-name="&lt;Path&gt;" class="cls-2" d="M107.8,43.4c-.65-21.63-21.93-39-48.08-39S12.3,21.77,11.65,43.4Z"/></g><g id="_Group_20" data-name="&lt;Group&gt;"><path id="_Compound_Path_5" data-name="&lt;Compound Path&gt;" class="cls-3" d="M112.33,47.8H7.11l.14-4.53c.36-11.77,6.07-22.74,16.1-30.89C33.17,4.39,46.08,0,59.72,0S86.28,4.39,96.1,12.37c10,8.15,15.74,19.12,16.1,30.89ZM16.54,39h86.38c-1.4-7.46-5.69-14.37-12.36-19.8C82.29,12.49,71.35,8.8,59.72,8.8S37.15,12.49,28.9,19.2C22.22,24.63,17.94,31.54,16.54,39Z"/></g></g></g></g></g></g></svg>