<svg xmlns="http://www.w3.org/2000/svg" viewBox="0 0 131.4 163.46"><defs><style>.cls-1{fill:#dda357;}.cls-2{fill:#fff;}.cls-3{fill:#231f20;}</style></defs><title>Asset 4</title><g id="Layer_2" data-name="Layer 2"><g id="Layer_1-2" data-name="Layer 1"><g id="_Group_" data-name="&lt;Group&gt;"><g id="_Group_2" data-name="&lt;Group&gt;"><g id="_Group_3" data-name="&lt;Group&gt;"><g id="_Group_4" data-name="&lt;Group&gt;"><circle id="_Path_" data-name="&lt;Path&gt;" class="cls-1" cx="66.99" cy="106.92" r="35.17"/></g><g id="_Group_5" data-name="&lt;Group&gt;"><g id="_Group_6" data-name="&lt;Group&gt;"><path id="_Path_2" data-name="&lt;Path&gt;" class="cls-2" d="M80.4,124.43c-4.13-3.3-8.84-8.83-15.37-16.73C58.16,99.39,53.2,95.12,49.7,93c-3.52,6.07-.58,16.33,7.21,24.12C64.5,124.72,74.31,127.58,80.4,124.43Z"/></g><g id="_Group_7" data-name="&lt;Group&gt;"><path id="_Path_3" data-name="&lt;Path&gt;" class="cls-2" d="M83.49,121.87c4.63-5.85,2-16.76-6.29-25-8.09-8.09-18.86-11-24.82-6.76C56.83,92.92,62,97.94,68,105.18,75.23,113.92,79.89,119.12,83.49,121.87Z"/></g></g></g><g id="_Group_8" data-name="&lt;Group&gt;"><path id="_Compound_Path_" data-name="&lt;Compound Path&gt;" class="cls-3" d="M131.41,163.46H0V0H131.41ZM8.8,154.66H122.61V8.8H8.8Z"/></g><g id="_Group_9" data-name="&lt;Group&gt;"><path id="_Compound_Path_2" data-name="&lt;Compound Path&gt;" class="cls-3" d="M94.74,59.81l-12-6.76-8,4.16L65.94,53,58.1,57.24,49.31,53,36.67,59.53V0H94.74Zm-29-16.7,8.85,4.26,8.31-4.32,3.07,1.72V8.8H45.47V45.05l3.7-1.92,8.71,4.22Z"/></g><g id="_Group_10" data-name="&lt;Group&gt;"><rect id="_Path_4" data-name="&lt;Path&gt;" class="cls-3" x="2.94" y="14.37" width="38.79" height="8.8"/></g><g id="_Group_11" data-name="&lt;Group&gt;"><rect id="_Path_5" data-name="&lt;Path&gt;" class="cls-3" x="89.62" y="14.37" width="38.79" height="8.8"/></g></g></g></g></g></svg>