<svg xmlns="http://www.w3.org/2000/svg" viewBox="0 0 458.22 479.85"><defs><style>.cls-1{isolation:isolate;}.cls-2{fill:#937963;}.cls-3{fill:#c7b29e;}.cls-4{fill:#e5d3bd;}.cls-5{fill:#bdc5ce;}.cls-6{fill:#dce5f0;}.cls-7{fill:#8a9db3;}.cls-8{fill:#627181;}.cls-9{fill:#4f5c69;}.cls-10{fill:#8e9da3;}.cls-11{fill:#7b7c88;}.cls-12{fill:#6e687a;}.cls-13{fill:#95abbf;}.cls-14{fill:#8093a4;}.cls-15{fill:#d0d9e3;}.cls-16{fill:#aab0ba;}.cls-17{fill:#ffbab2;}.cls-18{fill:#666172;}.cls-19{fill:#43505a;}.cls-20{fill:#576875;}.cls-21{fill:#fae6cc;}.cls-22{fill:#45525d;}.cls-23{fill:#5b6c7a;}.cls-24{fill:#37404a;}.cls-25{fill:#647280;}.cls-26{fill:#3a4052;}.cls-27{fill:#3d414a;}.cls-28{fill:#5d5e61;}.cls-29{fill:#ca974d;}.cls-30{fill:#805228;}.cls-31{fill:#ce6f75;}.cls-32{fill:#ebc17d;}.cls-33{fill:#622444;}.cls-34{fill:#3d162a;}.cls-35{fill:#8c3461;}.cls-36{fill:#531746;}.cls-37{fill:#ac9aac;}.cls-38{fill:#c3bec1;}.cls-39{fill:#a79da6;}.cls-40{fill:#e7e0d4;}</style></defs><title>Asset 1</title><g id="Layer_2" data-name="Layer 2"><g id="OBJECTS"><g id="_Group_" data-name="&lt;Group&gt;"><g id="_Group_2" data-name="&lt;Group&gt;"><g id="_Group_3" data-name="&lt;Group&gt;"><g id="_Group_4" data-name="&lt;Group&gt;" class="cls-1"><g id="_Group_5" data-name="&lt;Group&gt;"><polygon id="_Path_" data-name="&lt;Path&gt;" class="cls-2" points="208.14 278.25 208.12 285.59 104.4 345.87 104.42 338.53 208.14 278.25"/></g><g id="_Group_6" data-name="&lt;Group&gt;"><polygon id="_Path_2" data-name="&lt;Path&gt;" class="cls-3" points="104.42 338.53 104.4 345.87 0 285.59 0.02 278.26 104.42 338.53"/></g><g id="_Group_7" data-name="&lt;Group&gt;"><polygon id="_Path_3" data-name="&lt;Path&gt;" class="cls-4" points="208.14 278.25 104.42 338.53 0.02 278.26 103.74 217.98 208.14 278.25"/></g></g></g><g id="_Group_8" data-name="&lt;Group&gt;"><g id="_Group_9" data-name="&lt;Group&gt;"><g id="_Group_10" data-name="&lt;Group&gt;"><g id="_Group_11" data-name="&lt;Group&gt;"><g id="_Group_12" data-name="&lt;Group&gt;"><g id="_Group_13" data-name="&lt;Group&gt;" class="cls-1"><g id="_Group_14" data-name="&lt;Group&gt;"><polygon id="_Path_4" data-name="&lt;Path&gt;" class="cls-5" points="33.14 197.12 20.07 189.52 20.12 196.34 33.19 203.93 33.14 197.12"/></g><g id="_Group_15" data-name="&lt;Group&gt;"><polygon id="_Path_5" data-name="&lt;Path&gt;" class="cls-6" points="48.04 188.52 34.97 180.92 20.07 189.52 33.14 197.12 48.04 188.52"/></g><g id="_Group_16" data-name="&lt;Group&gt;"><polygon id="_Path_6" data-name="&lt;Path&gt;" class="cls-7" points="33.14 197.12 33.19 203.93 48.09 195.33 48.04 188.52 33.14 197.12"/></g></g></g></g><g id="_Group_17" data-name="&lt;Group&gt;"><polygon id="_Path_7" data-name="&lt;Path&gt;" class="cls-8" points="33.69 193.24 26.75 189.21 26.74 170.94 33.69 174.93 33.69 193.24"/><polygon id="_Path_8" data-name="&lt;Path&gt;" class="cls-9" points="33.69 174.93 39.26 171.72 39.28 190.02 33.69 193.24 33.69 174.93"/></g><g id="_Group_18" data-name="&lt;Group&gt;"><g id="_Group_19" data-name="&lt;Group&gt;"><g id="_Group_20" data-name="&lt;Group&gt;" class="cls-1"><g id="_Group_21" data-name="&lt;Group&gt;"><polygon id="_Path_9" data-name="&lt;Path&gt;" class="cls-10" points="48.09 155.72 35.02 148.12 35.07 167.36 48.14 174.96 48.09 155.72"/></g><g id="_Group_22" data-name="&lt;Group&gt;"><polygon id="_Path_10" data-name="&lt;Path&gt;" class="cls-11" points="80.85 136.81 67.78 129.21 35.02 148.12 48.09 155.72 80.85 136.81"/></g><g id="_Group_23" data-name="&lt;Group&gt;"><polygon id="_Path_11" data-name="&lt;Path&gt;" class="cls-12" points="48.09 155.72 48.14 174.96 80.9 156.04 80.85 136.81 48.09 155.72"/></g></g></g></g><g id="_Group_24" data-name="&lt;Group&gt;"><g id="_Group_25" data-name="&lt;Group&gt;"><g id="_Group_26" data-name="&lt;Group&gt;" class="cls-1"><g id="_Group_27" data-name="&lt;Group&gt;"><polygon id="_Path_12" data-name="&lt;Path&gt;" class="cls-5" points="33.14 164.35 20.07 156.75 20.12 175.99 33.19 183.59 33.14 164.35"/></g><g id="_Group_28" data-name="&lt;Group&gt;"><polygon id="_Path_13" data-name="&lt;Path&gt;" class="cls-6" points="48.04 155.75 34.97 148.15 20.07 156.75 33.14 164.35 48.04 155.75"/></g><g id="_Group_29" data-name="&lt;Group&gt;"><polygon id="_Path_14" data-name="&lt;Path&gt;" class="cls-7" points="33.14 164.35 33.19 183.59 48.09 174.99 48.04 155.75 33.14 164.35"/></g></g></g></g><g id="_Group_30" data-name="&lt;Group&gt;"><g id="_Group_31" data-name="&lt;Group&gt;" class="cls-1"><g id="_Group_32" data-name="&lt;Group&gt;"><polygon id="_Path_15" data-name="&lt;Path&gt;" class="cls-13" points="34.01 144.88 38.96 142.03 55.57 151.55 50.62 154.4 34.01 144.88"/></g><g id="_Group_33" data-name="&lt;Group&gt;"><polygon id="_Path_16" data-name="&lt;Path&gt;" class="cls-14" points="50.62 154.4 55.57 151.55 55.57 176.6 50.62 179.45 50.62 154.4"/></g><g id="_Group_34" data-name="&lt;Group&gt;"><polygon id="_Path_17" data-name="&lt;Path&gt;" class="cls-14" points="34.01 144.88 50.62 154.4 50.62 179.45 45.49 176.51 48.14 174.96 48.09 155.72 34.96 148.15 34.01 148.71 34.01 144.88"/></g></g></g><g id="_Group_35" data-name="&lt;Group&gt;"><g id="_Group_36" data-name="&lt;Group&gt;"><polygon id="_Path_18" data-name="&lt;Path&gt;" class="cls-8" points="33.69 160.9 26.75 156.87 26.74 134.61 33.69 138.6 33.69 160.9"/><polygon id="_Path_19" data-name="&lt;Path&gt;" class="cls-9" points="33.69 138.6 39.26 135.39 39.28 157.68 33.69 160.9 33.69 138.6"/></g><g id="_Group_37" data-name="&lt;Group&gt;"><g id="_Group_38" data-name="&lt;Group&gt;"><g id="_Group_39" data-name="&lt;Group&gt;" class="cls-1"><g id="_Group_40" data-name="&lt;Group&gt;"><polygon id="_Path_20" data-name="&lt;Path&gt;" class="cls-5" points="19.63 150.91 6.56 143.31 6.61 151.79 19.68 159.39 19.63 150.91"/></g><g id="_Group_41" data-name="&lt;Group&gt;"><polygon id="_Path_21" data-name="&lt;Path&gt;" class="cls-6" points="59.77 127.73 46.7 120.13 6.56 143.31 19.63 150.91 59.77 127.73"/></g><g id="_Group_42" data-name="&lt;Group&gt;"><polygon id="_Path_22" data-name="&lt;Path&gt;" class="cls-7" points="19.63 150.91 19.68 159.39 59.82 136.21 59.77 127.73 19.63 150.91"/></g></g></g></g><g id="_Group_43" data-name="&lt;Group&gt;"><g id="_Group_44" data-name="&lt;Group&gt;"><g id="_Group_45" data-name="&lt;Group&gt;" class="cls-1"><g id="_Group_46" data-name="&lt;Group&gt;"><polygon id="_Path_23" data-name="&lt;Path&gt;" class="cls-15" points="26.18 142.65 21.29 139.81 21.09 19.8 25.98 22.64 26.18 142.65"/></g><g id="_Group_47" data-name="&lt;Group&gt;"><polygon id="_Path_24" data-name="&lt;Path&gt;" class="cls-6" points="25.98 22.64 21.09 19.8 29.86 0 34.75 2.84 25.98 22.64"/></g><g id="_Group_48" data-name="&lt;Group&gt;"><polygon id="_Path_25" data-name="&lt;Path&gt;" class="cls-5" points="34.75 2.84 43.6 12.46 43.81 132.47 26.18 142.65 25.98 22.64 34.75 2.84"/></g></g></g><polygon id="_Path_26" data-name="&lt;Path&gt;" class="cls-16" points="34.75 2.84 34.75 137.71 43.81 132.47 43.6 12.46 34.75 2.84"/></g></g></g><g id="_Group_49" data-name="&lt;Group&gt;"><g id="_Group_50" data-name="&lt;Group&gt;"><g id="_Group_51" data-name="&lt;Group&gt;" class="cls-1"><g id="_Group_52" data-name="&lt;Group&gt;"><polygon id="_Path_27" data-name="&lt;Path&gt;" class="cls-5" points="102.4 290.26 102.44 299 126.06 312.73 126.02 303.99 102.4 290.26"/></g><g id="_Group_53" data-name="&lt;Group&gt;"><polygon id="_Path_28" data-name="&lt;Path&gt;" class="cls-7" points="126.02 303.99 126.06 312.73 167.45 288.83 167.41 280.09 126.02 303.99"/></g><g id="_Group_54" data-name="&lt;Group&gt;"><polygon id="_Path_29" data-name="&lt;Path&gt;" class="cls-6" points="102.4 290.26 126.02 303.99 167.41 280.09 143.79 266.37 102.4 290.26"/></g></g></g><g id="_Group_55" data-name="&lt;Group&gt;"><g id="_Group_56" data-name="&lt;Group&gt;" class="cls-1"><g id="_Group_57" data-name="&lt;Group&gt;"><polygon id="_Path_30" data-name="&lt;Path&gt;" class="cls-9" points="146.96 202.91 164.46 192.75 164.39 279.59 146.9 289.76 146.96 202.91"/></g><g id="_Group_58" data-name="&lt;Group&gt;"><polygon id="_Path_31" data-name="&lt;Path&gt;" class="cls-17" points="127.03 191.4 144.52 181.24 164.46 192.75 146.96 202.91 127.03 191.4"/></g><g id="_Group_59" data-name="&lt;Group&gt;"><polygon id="_Path_32" data-name="&lt;Path&gt;" class="cls-8" points="146.96 202.91 146.9 289.76 126.96 278.25 127.03 191.4 146.96 202.91"/></g></g></g></g><g id="_Group_60" data-name="&lt;Group&gt;"><g id="_Group_61" data-name="&lt;Group&gt;"><g id="_Group_62" data-name="&lt;Group&gt;" class="cls-1"><g id="_Group_63" data-name="&lt;Group&gt;"><polygon id="_Path_33" data-name="&lt;Path&gt;" class="cls-5" points="49.71 259.84 49.76 268.58 73.37 282.31 73.33 273.56 49.71 259.84"/></g><g id="_Group_64" data-name="&lt;Group&gt;"><polygon id="_Path_34" data-name="&lt;Path&gt;" class="cls-7" points="73.33 273.56 73.37 282.31 114.76 258.41 114.72 249.67 73.33 273.56"/></g><g id="_Group_65" data-name="&lt;Group&gt;"><polygon id="_Path_35" data-name="&lt;Path&gt;" class="cls-6" points="49.71 259.84 73.33 273.56 114.72 249.67 91.1 235.94 49.71 259.84"/></g></g></g><g id="_Group_66" data-name="&lt;Group&gt;"><g id="_Group_67" data-name="&lt;Group&gt;" class="cls-1"><g id="_Group_68" data-name="&lt;Group&gt;"><polygon id="_Path_36" data-name="&lt;Path&gt;" class="cls-18" points="94.45 172.6 111.95 162.43 111.89 249.28 94.39 259.45 94.45 172.6"/></g><g id="_Group_69" data-name="&lt;Group&gt;"><polygon id="_Path_37" data-name="&lt;Path&gt;" class="cls-17" points="74.52 161.09 92.02 150.92 111.95 162.43 94.45 172.6 74.52 161.09"/></g><g id="_Group_70" data-name="&lt;Group&gt;"><polygon id="_Path_38" data-name="&lt;Path&gt;" class="cls-10" points="94.45 172.6 94.39 259.45 74.45 247.94 74.52 161.09 94.45 172.6"/></g></g></g></g><g id="_Group_71" data-name="&lt;Group&gt;"><g id="_Group_72" data-name="&lt;Group&gt;" class="cls-1"><g id="_Group_73" data-name="&lt;Group&gt;"><polygon id="_Path_39" data-name="&lt;Path&gt;" class="cls-9" points="117.49 196.81 181.07 159.86 180.84 243.11 117.26 280.06 117.49 196.81"/></g><g id="_Group_74" data-name="&lt;Group&gt;"><polygon id="_Path_40" data-name="&lt;Path&gt;" class="cls-17" points="45.05 154.98 108.63 118.03 181.07 159.86 117.49 196.81 45.05 154.98"/></g><g id="_Group_75" data-name="&lt;Group&gt;"><polygon id="_Path_41" data-name="&lt;Path&gt;" class="cls-8" points="117.49 196.81 117.26 280.06 44.81 238.23 45.05 154.98 117.49 196.81"/></g></g></g><g id="_Group_76" data-name="&lt;Group&gt;"><g id="_Group_77" data-name="&lt;Group&gt;" class="cls-1"><g id="_Group_78" data-name="&lt;Group&gt;"><polygon id="_Path_42" data-name="&lt;Path&gt;" class="cls-19" points="117.73 113.56 181.31 76.61 181.07 159.86 117.49 196.81 117.73 113.56"/></g><g id="_Group_79" data-name="&lt;Group&gt;"><polygon id="_Path_43" data-name="&lt;Path&gt;" class="cls-20" points="45.28 71.74 108.86 34.79 181.31 76.61 117.73 113.56 45.28 71.74"/></g><g id="_Group_80" data-name="&lt;Group&gt;"><polygon id="_Path_44" data-name="&lt;Path&gt;" class="cls-21" points="117.73 113.56 117.49 196.81 45.05 154.98 45.28 71.74 117.73 113.56"/></g></g></g><g id="_Group_81" data-name="&lt;Group&gt;"><g id="_Group_82" data-name="&lt;Group&gt;"><g id="_Group_83" data-name="&lt;Group&gt;" class="cls-1"><g id="_Group_84" data-name="&lt;Group&gt;"><polygon id="_Path_45" data-name="&lt;Path&gt;" class="cls-5" points="153.08 244.16 140.01 236.56 140.06 249.23 153.13 256.83 153.08 244.16"/></g><g id="_Group_85" data-name="&lt;Group&gt;"><polygon id="_Path_46" data-name="&lt;Path&gt;" class="cls-21" points="167.98 235.56 154.9 227.96 140.01 236.56 153.08 244.16 167.98 235.56"/></g><g id="_Group_86" data-name="&lt;Group&gt;"><polygon id="_Path_47" data-name="&lt;Path&gt;" class="cls-7" points="153.08 244.16 153.13 256.83 168.03 248.23 167.98 235.56 153.08 244.16"/></g></g></g><g id="_Group_87" data-name="&lt;Group&gt;"><g id="_Group_88" data-name="&lt;Group&gt;" class="cls-1"><g id="_Group_89" data-name="&lt;Group&gt;"><polygon id="_Path_48" data-name="&lt;Path&gt;" class="cls-22" points="153.08 195.33 140.01 187.74 140.06 236.56 153.13 244.16 153.08 195.33"/></g><g id="_Group_90" data-name="&lt;Group&gt;"><polygon id="_Path_49" data-name="&lt;Path&gt;" class="cls-23" points="167.98 186.73 154.9 179.14 140.01 187.74 153.08 195.33 167.98 186.73"/></g><g id="_Group_91" data-name="&lt;Group&gt;"><polygon id="_Path_50" data-name="&lt;Path&gt;" class="cls-24" points="153.08 195.33 153.13 244.16 168.03 235.56 167.98 186.73 153.08 195.33"/></g></g></g><g id="_Group_92" data-name="&lt;Group&gt;"><g id="_Group_93" data-name="&lt;Group&gt;" class="cls-1"><g id="_Group_94" data-name="&lt;Group&gt;"><polygon id="_Path_51" data-name="&lt;Path&gt;" class="cls-25" points="171.34 227.91 171.33 233.62 153.18 244.16 153.19 238.45 171.34 227.91"/></g><g id="_Group_95" data-name="&lt;Group&gt;"><polygon id="_Path_52" data-name="&lt;Path&gt;" class="cls-14" points="153.19 238.45 153.18 244.16 134.92 233.62 134.93 227.91 153.19 238.45"/></g><g id="_Group_96" data-name="&lt;Group&gt;"><polygon id="_Path_53" data-name="&lt;Path&gt;" class="cls-13" points="171.34 227.91 153.19 238.45 134.93 227.91 140.04 224.93 140.06 228.1 153.13 235.69 168.03 227.09 168.02 225.99 171.34 227.91"/></g></g></g><g id="_Group_97" data-name="&lt;Group&gt;"><g id="_Group_98" data-name="&lt;Group&gt;"><g id="_Group_99" data-name="&lt;Group&gt;" class="cls-1"><g id="_Group_100" data-name="&lt;Group&gt;"><polygon id="_Path_54" data-name="&lt;Path&gt;" class="cls-7" points="177.03 180.92 177.02 195.92 153.2 209.76 153.21 194.76 177.03 180.92"/></g><g id="_Group_101" data-name="&lt;Group&gt;"><polygon id="_Path_55" data-name="&lt;Path&gt;" class="cls-5" points="153.21 194.76 153.2 209.76 129.23 195.92 129.24 180.92 153.21 194.76"/></g><g id="_Group_102" data-name="&lt;Group&gt;"><polygon id="_Path_56" data-name="&lt;Path&gt;" class="cls-6" points="177.03 180.92 153.21 194.76 129.24 180.92 153.06 167.08 177.03 180.92"/></g></g></g><g id="_Group_103" data-name="&lt;Group&gt;"><g id="_Group_104" data-name="&lt;Group&gt;" class="cls-1"><g id="_Group_105" data-name="&lt;Group&gt;"><polygon id="_Path_57" data-name="&lt;Path&gt;" class="cls-7" points="169.68 171.26 169.67 181.64 153.18 191.23 153.19 180.84 169.68 171.26"/></g><g id="_Group_106" data-name="&lt;Group&gt;"><polygon id="_Path_58" data-name="&lt;Path&gt;" class="cls-5" points="153.19 180.84 153.18 191.23 136.58 181.64 136.59 171.26 153.19 180.84"/></g><g id="_Group_107" data-name="&lt;Group&gt;"><polygon id="_Path_59" data-name="&lt;Path&gt;" class="cls-6" points="169.68 171.26 153.19 180.84 136.59 171.26 153.08 161.67 169.68 171.26"/></g></g></g></g></g><g id="_Group_108" data-name="&lt;Group&gt;"><g id="_Group_109" data-name="&lt;Group&gt;" class="cls-1"><g id="_Group_110" data-name="&lt;Group&gt;"><polygon id="_Path_60" data-name="&lt;Path&gt;" class="cls-7" points="101.61 117.67 117.78 108.07 117.53 170.78 101.35 180.37 101.61 117.67"/></g><g id="_Group_111" data-name="&lt;Group&gt;"><polygon id="_Path_61" data-name="&lt;Path&gt;" class="cls-6" points="23.6 72.64 39.78 63.04 117.78 108.07 101.61 117.67 23.6 72.64"/></g><g id="_Group_112" data-name="&lt;Group&gt;"><polygon id="_Path_62" data-name="&lt;Path&gt;" class="cls-5" points="101.61 117.67 101.35 180.37 23.35 135.34 23.6 72.64 101.61 117.67"/></g></g><g id="_Group_113" data-name="&lt;Group&gt;"><g id="_Group_114" data-name="&lt;Group&gt;"><polygon id="_Path_63" data-name="&lt;Path&gt;" class="cls-7" points="41.77 95.44 41.52 135.69 34.59 131.7 34.85 91.44 41.77 95.44"/></g><polygon id="_Path_64" data-name="&lt;Path&gt;" class="cls-6" points="34.59 131.7 41.57 127.67 41.52 135.69 34.59 131.7"/></g><g id="_Group_115" data-name="&lt;Group&gt;"><g id="_Group_116" data-name="&lt;Group&gt;"><polygon id="_Path_65" data-name="&lt;Path&gt;" class="cls-7" points="53.35 102.12 53.09 142.38 46.17 138.38 46.43 98.13 53.35 102.12"/></g><polygon id="_Path_66" data-name="&lt;Path&gt;" class="cls-6" points="46.17 138.38 53.14 134.36 53.09 142.38 46.17 138.38"/></g><g id="_Group_117" data-name="&lt;Group&gt;"><g id="_Group_118" data-name="&lt;Group&gt;"><polygon id="_Path_67" data-name="&lt;Path&gt;" class="cls-7" points="64.92 108.81 64.67 149.06 57.75 145.07 58 104.81 64.92 108.81"/></g><polygon id="_Path_68" data-name="&lt;Path&gt;" class="cls-6" points="57.75 145.07 64.72 141.04 64.67 149.06 57.75 145.07"/></g><g id="_Group_119" data-name="&lt;Group&gt;"><g id="_Group_120" data-name="&lt;Group&gt;"><polygon id="_Path_69" data-name="&lt;Path&gt;" class="cls-7" points="76.5 115.49 76.25 155.75 69.33 151.75 69.58 111.5 76.5 115.49"/></g><polygon id="_Path_70" data-name="&lt;Path&gt;" class="cls-6" points="69.33 151.75 76.3 147.73 76.25 155.75 69.33 151.75"/></g><g id="_Group_121" data-name="&lt;Group&gt;"><g id="_Group_122" data-name="&lt;Group&gt;"><polygon id="_Path_71" data-name="&lt;Path&gt;" class="cls-7" points="88.08 122.18 87.83 162.43 80.91 158.44 81.16 118.18 88.08 122.18"/></g><polygon id="_Path_72" data-name="&lt;Path&gt;" class="cls-6" points="80.91 158.44 87.88 154.41 87.83 162.43 80.91 158.44"/></g></g><g id="_Group_123" data-name="&lt;Group&gt;" class="cls-1"><g id="_Group_124" data-name="&lt;Group&gt;"><polygon id="_Path_73" data-name="&lt;Path&gt;" class="cls-7" points="99.57 230.73 104.89 227.39 104.64 251.76 99.32 255.1 99.57 230.73"/></g><g id="_Group_125" data-name="&lt;Group&gt;"><polygon id="_Path_74" data-name="&lt;Path&gt;" class="cls-6" points="52.38 203.48 57.7 200.15 104.89 227.39 99.57 230.73 52.38 203.48"/></g><g id="_Group_126" data-name="&lt;Group&gt;"><polygon id="_Path_75" data-name="&lt;Path&gt;" class="cls-5" points="99.57 230.73 99.32 255.1 52.13 227.85 52.38 203.48 99.57 230.73"/></g></g><g id="_Group_127" data-name="&lt;Group&gt;" class="cls-1"><g id="_Group_128" data-name="&lt;Group&gt;"><polygon id="_Path_76" data-name="&lt;Path&gt;" class="cls-7" points="107.82 197.64 113.14 194.3 112.89 228.8 107.57 232.13 107.82 197.64"/></g><g id="_Group_129" data-name="&lt;Group&gt;"><polygon id="_Path_77" data-name="&lt;Path&gt;" class="cls-6" points="45.15 161.45 50.47 158.12 113.14 194.3 107.82 197.64 45.15 161.45"/></g><g id="_Group_130" data-name="&lt;Group&gt;"><polygon id="_Path_78" data-name="&lt;Path&gt;" class="cls-5" points="107.82 197.64 107.57 232.13 44.89 195.95 45.15 161.45 107.82 197.64"/></g></g></g><g id="_Group_131" data-name="&lt;Group&gt;" class="cls-1"><g id="_Group_132" data-name="&lt;Group&gt;"><polygon id="_Path_79" data-name="&lt;Path&gt;" class="cls-5" points="109.03 132.59 103.71 129.26 103.96 163.75 109.29 167.09 109.03 132.59"/></g><g id="_Group_133" data-name="&lt;Group&gt;"><polygon id="_Path_80" data-name="&lt;Path&gt;" class="cls-6" points="161.5 102.3 156.18 98.97 103.71 129.26 109.03 132.59 161.5 102.3"/></g><g id="_Group_134" data-name="&lt;Group&gt;"><polygon id="_Path_81" data-name="&lt;Path&gt;" class="cls-7" points="109.03 132.59 109.29 167.09 161.75 136.79 161.5 102.3 109.03 132.59"/></g></g><g id="_Group_135" data-name="&lt;Group&gt;"><g id="_Group_136" data-name="&lt;Group&gt;" class="cls-1"><path id="_Path_82" data-name="&lt;Path&gt;" class="cls-5" d="M153.36,114.32c-1.69-1-4-.84-6.61.65-5.13,3-9.27,10.14-9.25,16,0,2.93,1,5,2.71,6l4.89,2.84c-1.67-1-2.7-3-2.71-6,0-5.89,4.13-13.07,9.25-16,2.58-1.49,4.92-1.63,6.61-.65Z"/><g id="_Group_137" data-name="&lt;Group&gt;"><path id="_Path_83" data-name="&lt;Path&gt;" class="cls-25" d="M151.65,117.81c5.13-3,9.3-.58,9.32,5.31s-4.13,13.07-9.26,16-9.3.58-9.31-5.31S146.52,120.77,151.65,117.81Z"/></g></g><g id="_Group_138" data-name="&lt;Group&gt;"><path id="_Path_84" data-name="&lt;Path&gt;" class="cls-13" d="M151.66,122.87c2.7-1.56,4.89-.31,4.9,2.79a10.73,10.73,0,0,1-4.87,8.43c-2.7,1.56-4.89.3-4.9-2.79A10.73,10.73,0,0,1,151.66,122.87Z"/></g></g></g></g><g id="_Group_139" data-name="&lt;Group&gt;"><g id="_Group_140" data-name="&lt;Group&gt;"><g id="_Group_141" data-name="&lt;Group&gt;" class="cls-1"><g id="_Group_142" data-name="&lt;Group&gt;"><polygon id="_Path_85" data-name="&lt;Path&gt;" class="cls-26" points="440.21 412.24 440.19 419.57 336.46 479.85 336.49 472.51 440.21 412.24"/></g><g id="_Group_143" data-name="&lt;Group&gt;"><polygon id="_Path_86" data-name="&lt;Path&gt;" class="cls-27" points="336.49 472.51 336.46 479.85 232.07 419.58 232.09 412.24 336.49 472.51"/></g><g id="_Group_144" data-name="&lt;Group&gt;"><polygon id="_Path_87" data-name="&lt;Path&gt;" class="cls-28" points="440.21 412.24 336.49 472.51 232.09 412.24 335.81 351.96 440.21 412.24"/></g></g></g><g id="_Group_145" data-name="&lt;Group&gt;"><g id="_Group_146" data-name="&lt;Group&gt;"><polygon id="_Path_88" data-name="&lt;Path&gt;" class="cls-29" points="263.63 395.15 256.69 391.12 256.68 307.75 263.63 311.75 263.63 395.15"/><polygon id="_Path_89" data-name="&lt;Path&gt;" class="cls-30" points="263.63 311.75 269.19 308.53 269.21 391.93 263.63 395.15 263.63 311.75"/></g><g id="_Group_147" data-name="&lt;Group&gt;"><g id="_Group_148" data-name="&lt;Group&gt;"><g id="_Group_149" data-name="&lt;Group&gt;"><g id="_Group_150" data-name="&lt;Group&gt;" class="cls-1"><g id="_Group_151" data-name="&lt;Group&gt;"><polygon id="_Path_90" data-name="&lt;Path&gt;" class="cls-10" points="277.55 287.82 264.47 280.22 264.52 299.46 277.59 307.06 277.55 287.82"/></g><g id="_Group_152" data-name="&lt;Group&gt;"><polygon id="_Path_91" data-name="&lt;Path&gt;" class="cls-11" points="310.3 268.91 297.23 261.31 264.47 280.22 277.55 287.82 310.3 268.91"/></g><g id="_Group_153" data-name="&lt;Group&gt;"><polygon id="_Path_92" data-name="&lt;Path&gt;" class="cls-12" points="277.55 287.82 277.59 307.06 310.35 288.14 310.3 268.91 277.55 287.82"/></g></g></g></g><g id="_Group_154" data-name="&lt;Group&gt;"><g id="_Group_155" data-name="&lt;Group&gt;"><g id="_Group_156" data-name="&lt;Group&gt;" class="cls-1"><g id="_Group_157" data-name="&lt;Group&gt;"><polygon id="_Path_93" data-name="&lt;Path&gt;" class="cls-21" points="262.6 296.45 249.52 288.85 249.57 308.09 262.64 315.69 262.6 296.45"/></g><g id="_Group_158" data-name="&lt;Group&gt;"><polygon id="_Path_94" data-name="&lt;Path&gt;" class="cls-17" points="277.49 287.85 264.42 280.25 249.52 288.85 262.6 296.45 277.49 287.85"/></g><g id="_Group_159" data-name="&lt;Group&gt;"><polygon id="_Path_95" data-name="&lt;Path&gt;" class="cls-31" points="262.6 296.45 262.64 315.69 277.54 307.09 277.49 287.85 262.6 296.45"/></g></g></g></g></g><g id="_Group_160" data-name="&lt;Group&gt;"><g id="_Group_161" data-name="&lt;Group&gt;" class="cls-1"><g id="_Group_162" data-name="&lt;Group&gt;"><polygon id="_Path_96" data-name="&lt;Path&gt;" class="cls-29" points="263.63 292.83 256.69 288.8 256.48 146.37 263.42 150.4 263.63 292.83"/></g><g id="_Group_163" data-name="&lt;Group&gt;"><polygon id="_Path_97" data-name="&lt;Path&gt;" class="cls-32" points="263.42 150.4 256.48 146.37 278.82 133.47 285.75 137.5 263.42 150.4"/></g><g id="_Group_164" data-name="&lt;Group&gt;"><polygon id="_Path_98" data-name="&lt;Path&gt;" class="cls-29" points="285.75 137.5 278.82 133.47 278.7 92.66 285.64 96.69 285.75 137.5"/></g><g id="_Group_165" data-name="&lt;Group&gt;"><polygon id="_Path_99" data-name="&lt;Path&gt;" class="cls-29" points="269.98 132.74 263.05 128.71 263.01 115.72 269.95 119.75 269.98 132.74"/></g><g id="_Group_166" data-name="&lt;Group&gt;"><polygon id="_Path_100" data-name="&lt;Path&gt;" class="cls-32" points="250.2 144.16 243.26 140.13 263.05 128.71 269.98 132.74 250.2 144.16"/></g><g id="_Group_167" data-name="&lt;Group&gt;"><polygon id="_Path_101" data-name="&lt;Path&gt;" class="cls-29" points="263.1 123.7 256.17 119.67 256.15 113.26 263.09 117.29 263.1 123.7"/></g><g id="_Group_168" data-name="&lt;Group&gt;"><polygon id="_Path_102" data-name="&lt;Path&gt;" class="cls-32" points="263.09 117.29 256.15 113.26 268.58 106.08 275.51 110.11 263.09 117.29"/></g><g id="_Group_169" data-name="&lt;Group&gt;"><polygon id="_Path_103" data-name="&lt;Path&gt;" class="cls-30" points="291.21 87.05 291.36 140.69 269.02 153.59 269.21 289.61 263.63 292.83 263.42 150.4 285.75 137.5 285.64 96.69 250.13 117.2 250.2 144.16 269.98 132.74 269.95 119.75 263.1 123.7 263.09 117.29 275.51 110.11 275.59 135.93 244.63 153.8 244.52 114 291.21 87.05"/></g><g id="_Group_170" data-name="&lt;Group&gt;"><polygon id="_Path_104" data-name="&lt;Path&gt;" class="cls-29" points="244.63 153.8 237.7 149.77 237.59 109.97 244.52 114 244.63 153.8"/></g><g id="_Group_171" data-name="&lt;Group&gt;"><polygon id="_Path_105" data-name="&lt;Path&gt;" class="cls-32" points="244.52 114 237.59 109.97 284.27 83.02 291.21 87.05 244.52 114"/></g></g></g><g id="_Group_172" data-name="&lt;Group&gt;"><g id="_Group_173" data-name="&lt;Group&gt;"><g id="_Group_174" data-name="&lt;Group&gt;" class="cls-1"><g id="_Group_175" data-name="&lt;Group&gt;"><polygon id="_Path_106" data-name="&lt;Path&gt;" class="cls-33" points="331.85 422.36 331.9 431.1 355.51 444.83 355.47 436.09 331.85 422.36"/></g><g id="_Group_176" data-name="&lt;Group&gt;"><polygon id="_Path_107" data-name="&lt;Path&gt;" class="cls-34" points="355.47 436.09 355.51 444.83 396.9 420.93 396.86 412.19 355.47 436.09"/></g><g id="_Group_177" data-name="&lt;Group&gt;"><polygon id="_Path_108" data-name="&lt;Path&gt;" class="cls-35" points="331.85 422.36 355.47 436.09 396.86 412.19 373.24 398.47 331.85 422.36"/></g></g></g><g id="_Group_178" data-name="&lt;Group&gt;"><g id="_Group_179" data-name="&lt;Group&gt;" class="cls-1"><g id="_Group_180" data-name="&lt;Group&gt;"><polygon id="_Path_109" data-name="&lt;Path&gt;" class="cls-36" points="376.41 335.01 393.91 324.85 393.84 411.69 376.35 421.86 376.41 335.01"/></g><g id="_Group_181" data-name="&lt;Group&gt;"><polygon id="_Path_110" data-name="&lt;Path&gt;" class="cls-17" points="356.48 323.5 373.97 313.34 393.91 324.85 376.41 335.01 356.48 323.5"/></g><g id="_Group_182" data-name="&lt;Group&gt;"><polygon id="_Path_111" data-name="&lt;Path&gt;" class="cls-33" points="376.41 335.01 376.35 421.86 356.41 410.35 356.48 323.5 376.41 335.01"/></g></g></g></g><g id="_Group_183" data-name="&lt;Group&gt;"><g id="_Group_184" data-name="&lt;Group&gt;"><g id="_Group_185" data-name="&lt;Group&gt;" class="cls-1"><g id="_Group_186" data-name="&lt;Group&gt;"><polygon id="_Path_112" data-name="&lt;Path&gt;" class="cls-33" points="279.16 391.94 279.21 400.68 302.82 414.41 302.78 405.67 279.16 391.94"/></g><g id="_Group_187" data-name="&lt;Group&gt;"><polygon id="_Path_113" data-name="&lt;Path&gt;" class="cls-34" points="302.78 405.67 302.82 414.41 344.21 390.51 344.17 381.77 302.78 405.67"/></g><g id="_Group_188" data-name="&lt;Group&gt;"><polygon id="_Path_114" data-name="&lt;Path&gt;" class="cls-35" points="279.16 391.94 302.78 405.67 344.17 381.77 320.55 368.05 279.16 391.94"/></g></g></g><g id="_Group_189" data-name="&lt;Group&gt;"><g id="_Group_190" data-name="&lt;Group&gt;" class="cls-1"><g id="_Group_191" data-name="&lt;Group&gt;"><polygon id="_Path_115" data-name="&lt;Path&gt;" class="cls-18" points="323.91 304.7 341.4 294.53 341.34 381.38 323.84 391.55 323.91 304.7"/></g><g id="_Group_192" data-name="&lt;Group&gt;"><polygon id="_Path_116" data-name="&lt;Path&gt;" class="cls-17" points="303.97 293.19 321.47 283.02 341.4 294.53 323.91 304.7 303.97 293.19"/></g><g id="_Group_193" data-name="&lt;Group&gt;"><polygon id="_Path_117" data-name="&lt;Path&gt;" class="cls-10" points="323.91 304.7 323.84 391.55 303.91 380.04 303.97 293.19 323.91 304.7"/></g></g></g></g><g id="_Group_194" data-name="&lt;Group&gt;"><g id="_Group_195" data-name="&lt;Group&gt;" class="cls-1"><g id="_Group_196" data-name="&lt;Group&gt;"><polygon id="_Path_118" data-name="&lt;Path&gt;" class="cls-34" points="346.94 328.91 410.52 291.96 410.29 375.21 346.71 412.16 346.94 328.91"/></g><g id="_Group_197" data-name="&lt;Group&gt;"><polygon id="_Path_119" data-name="&lt;Path&gt;" class="cls-17" points="274.5 287.08 338.08 250.13 410.52 291.96 346.94 328.91 274.5 287.08"/></g><g id="_Group_198" data-name="&lt;Group&gt;"><polygon id="_Path_120" data-name="&lt;Path&gt;" class="cls-33" points="346.94 328.91 346.97 412 346.71 412.16 274.26 370.33 274.5 287.08 346.94 328.91"/></g></g></g><g id="_Group_199" data-name="&lt;Group&gt;"><g id="_Group_200" data-name="&lt;Group&gt;" class="cls-1"><g id="_Group_201" data-name="&lt;Group&gt;"><polygon id="_Path_121" data-name="&lt;Path&gt;" class="cls-37" points="347.18 245.66 410.76 208.72 410.52 291.96 346.94 328.91 347.18 245.66"/></g><g id="_Group_202" data-name="&lt;Group&gt;"><polygon id="_Path_122" data-name="&lt;Path&gt;" class="cls-17" points="274.73 203.84 338.31 166.89 410.76 208.72 347.18 245.66 274.73 203.84"/></g><g id="_Group_203" data-name="&lt;Group&gt;"><polygon id="_Path_123" data-name="&lt;Path&gt;" class="cls-21" points="347.18 245.66 346.94 328.91 274.5 287.08 274.73 203.84 347.18 245.66"/></g></g><polygon id="_Path_124" data-name="&lt;Path&gt;" class="cls-31" points="347.13 263.42 375.97 246.77 375.97 272.96 364.23 279.74 364.23 318.79 346.94 328.91 347.13 263.42"/></g><g id="_Group_204" data-name="&lt;Group&gt;"><g id="_Group_205" data-name="&lt;Group&gt;" class="cls-1"><g id="_Group_206" data-name="&lt;Group&gt;"><polygon id="_Path_125" data-name="&lt;Path&gt;" class="cls-38" points="275.52 299.93 281.39 296.52 290.68 301.88 284.81 305.3 275.52 299.93"/></g><g id="_Group_207" data-name="&lt;Group&gt;"><polygon id="_Path_126" data-name="&lt;Path&gt;" class="cls-38" points="324.47 328.19 330.34 324.78 339.63 330.15 333.77 333.56 324.47 328.19"/></g><g id="_Group_208" data-name="&lt;Group&gt;"><polygon id="_Path_127" data-name="&lt;Path&gt;" class="cls-39" points="333.77 333.56 339.63 330.15 339.51 372.43 333.65 375.84 333.77 333.56"/></g><g id="_Group_209" data-name="&lt;Group&gt;"><polygon id="_Path_128" data-name="&lt;Path&gt;" class="cls-39" points="324.57 292.83 330.44 289.43 330.34 324.78 324.47 328.19 324.57 292.83"/></g><g id="_Group_210" data-name="&lt;Group&gt;"><polygon id="_Path_129" data-name="&lt;Path&gt;" class="cls-38" points="284.92 269.94 290.78 266.53 330.44 289.43 324.57 292.83 284.92 269.94"/></g><g id="_Group_211" data-name="&lt;Group&gt;"><polygon id="_Path_130" data-name="&lt;Path&gt;" class="cls-40" points="324.57 292.83 324.47 328.19 333.77 333.56 333.65 375.84 275.4 342.21 275.52 299.93 284.81 305.3 284.92 269.94 324.57 292.83"/></g></g></g><g id="_Group_212" data-name="&lt;Group&gt;"><g id="_Group_213" data-name="&lt;Group&gt;" class="cls-1"><g id="_Group_214" data-name="&lt;Group&gt;"><polygon id="_Path_131" data-name="&lt;Path&gt;" class="cls-34" points="458.22 201.91 458.18 215.52 347.29 279.96 347.33 266.36 458.22 201.91"/></g><g id="_Group_215" data-name="&lt;Group&gt;"><polygon id="_Path_132" data-name="&lt;Path&gt;" class="cls-33" points="347.33 266.36 347.29 279.96 235.67 215.52 235.71 201.91 347.33 266.36"/></g><g id="_Group_216" data-name="&lt;Group&gt;"><polygon id="_Path_133" data-name="&lt;Path&gt;" class="cls-35" points="458.22 201.91 347.33 266.36 235.71 201.91 346.6 137.47 458.22 201.91"/></g></g></g><g id="_Group_217" data-name="&lt;Group&gt;"><g id="_Group_218" data-name="&lt;Group&gt;" class="cls-1"><g id="_Group_219" data-name="&lt;Group&gt;"><polygon id="_Path_134" data-name="&lt;Path&gt;" class="cls-34" points="343.96 119.75 361.3 109.67 410.52 203.99 346.94 240.94 343.96 119.75"/></g><g id="_Group_220" data-name="&lt;Group&gt;"><polygon id="_Path_135" data-name="&lt;Path&gt;" class="cls-35" points="324.19 108.34 341.54 98.27 361.3 109.67 343.96 119.75 324.19 108.34"/></g><g id="_Group_221" data-name="&lt;Group&gt;"><polygon id="_Path_136" data-name="&lt;Path&gt;" class="cls-33" points="343.96 119.75 346.94 240.94 274.5 199.11 324.19 108.34 343.96 119.75"/></g></g></g><g id="_Group_222" data-name="&lt;Group&gt;"><g id="_Group_223" data-name="&lt;Group&gt;"><g id="_Group_224" data-name="&lt;Group&gt;" class="cls-1"><g id="_Group_225" data-name="&lt;Group&gt;"><polygon id="_Path_137" data-name="&lt;Path&gt;" class="cls-21" points="382.53 376.26 369.46 368.67 369.51 381.33 382.58 388.93 382.53 376.26"/></g><g id="_Group_226" data-name="&lt;Group&gt;"><polygon id="_Path_138" data-name="&lt;Path&gt;" class="cls-21" points="397.43 367.66 384.36 360.06 369.46 368.67 382.53 376.26 397.43 367.66"/></g><g id="_Group_227" data-name="&lt;Group&gt;"><polygon id="_Path_139" data-name="&lt;Path&gt;" class="cls-31" points="382.53 376.26 382.58 388.93 397.48 380.33 397.43 367.66 382.53 376.26"/></g></g></g><g id="_Group_228" data-name="&lt;Group&gt;"><g id="_Group_229" data-name="&lt;Group&gt;" class="cls-1"><g id="_Group_230" data-name="&lt;Group&gt;"><polygon id="_Path_140" data-name="&lt;Path&gt;" class="cls-33" points="382.53 327.44 369.46 319.84 369.51 368.67 382.58 376.26 382.53 327.44"/></g><g id="_Group_231" data-name="&lt;Group&gt;"><polygon id="_Path_141" data-name="&lt;Path&gt;" class="cls-35" points="397.43 318.83 384.36 311.24 369.46 319.84 382.53 327.44 397.43 318.83"/></g><g id="_Group_232" data-name="&lt;Group&gt;"><polygon id="_Path_142" data-name="&lt;Path&gt;" class="cls-34" points="382.53 327.44 382.58 376.26 397.48 367.66 397.43 318.83 382.53 327.44"/></g></g></g></g></g></g></g></g></g></svg>