<svg xmlns="http://www.w3.org/2000/svg" xmlns:xlink="http://www.w3.org/1999/xlink" viewBox="0 0 458.22 479.85"><defs><style>.cls-1{isolation:isolate;}.cls-2{fill:url(#linear-gradient);}.cls-3{mix-blend-mode:luminosity;}.cls-4{fill:#3a4052;}.cls-5{fill:#3d414a;}.cls-6{fill:#5d5e61;}.cls-7{fill:#ca974d;}.cls-8{fill:#805228;}.cls-9{fill:#8e9da3;}.cls-10{fill:#7b7c88;}.cls-11{fill:#fae6cc;}.cls-12{fill:#ffbab2;}.cls-13{fill:#ce6f75;}.cls-14{fill:#ebc17d;}.cls-15{fill:#622444;}.cls-16{fill:#3d162a;}.cls-17{fill:#8c3461;}.cls-18{fill:#531746;}.cls-19{fill:#ac9aac;}.cls-20{fill:#c3bec1;}.cls-21{fill:#a79da6;}.cls-22{fill:#e7e0d4;}.cls-23{fill:#937963;}.cls-24{fill:#c7b29e;}.cls-25{fill:#e5d3bd;}.cls-26{fill:#bdc5ce;}.cls-27{fill:#dce5f0;}.cls-28{fill:#8a9db3;}.cls-29{fill:#627181;}.cls-30{fill:#4f5c69;}.cls-31{fill:#95abbf;}.cls-32{fill:#8093a4;}.cls-33{fill:#d0d9e3;}.cls-34{fill:#aab0ba;}.cls-35{fill:#43505a;}.cls-36{fill:#576875;}.cls-37{fill:#45525d;}.cls-38{fill:#37404a;}.cls-39{fill:#647280;}</style><linearGradient id="linear-gradient" x1="79.61" y1="365.2" x2="350.56" y2="94.25" gradientUnits="userSpaceOnUse"><stop offset="0" stop-color="#7d3899"/><stop offset="0.7" stop-color="#a5a3ff"/></linearGradient></defs><title>hero</title><g class="cls-1"><g id="Layer_3" data-name="Layer 3"><path class="cls-2" d="M440.21,412.24l0,7.33L336.46,479.85l0-7.34,103.72-60.27m-208.12,0,0,7.34,104.39,60.27,0-7.34-104.4-60.27m123.42,32.59,0-8.74-23.62-13.73.05,8.74,23.61,13.73m0,0,41.39-23.9,0-8.74-41.39,23.9,0,8.74m-52.69-30.42,0-8.74-23.62-13.73,0,8.74,23.61,13.73M289.28,379l6.15,3.55-16.27,9.39,23.62,13.73,16.34-9.44-16.34,9.44,0,8.74,23.89-13.8,20,11.55,9.7-5.64v1.66l-24.56,14.18,23.62,13.73,41.39-23.9-3-1.75,0-25,46.35,26.76L336.49,472.51l-104.4-60.27,30.47-17.71,1.07.62v0l5.58-3.22v-1.26L289.28,379m-26.65-67.83v4.52l-6-3.47v78.9l5.87,3.41,1.07.62v-80l-1,.57v-4.52m6.56.73-5.56,3.21v80l5.58-3.22v-1.26l0-78.76m0-28.94V283l5.3,3.08V286L269.2,283m5.33-8.56-5.34,3.08V283l5.3,3.08,0-11.64m-25,14.44.05,19.24,7.11,4.13,6,3.47v-4.52l0-14.72-13.08-7.6m14.09-8.13h0l0,12.11-6.94-4v-4.09l-7.16,4.14,13.08,7.6,11.89-6.87v-3.47L269.2,283v6.58l-5.58,3.22,0-12.11m10.88,8.86-11.89,6.87,0,14.72v4.52l1-.57,5.56-3.21,5.25-3,.06-19.3m-17.89-62,6.94,4,.07,49.11,0,12.11-6.94-4v-4.09l-.08-57.11m.39-80.94,6.43,3.73.05,35.38-6.93,4L256.48,147l.51-.29m21.83-13.2-3.23,1.87v.59L257,146.67l6.43,3.73,22.33-12.9-6.93-4m6.82-36.78-6.92,4,.1,32.79,6.93,4-.11-40.81M263,117.25h0l.08,0v6.41l-.07,0,0,5,6.93,4,0-13-6.85,4v-6.41l-.08,0m0,11.46h0l-12.87,7.43,0,8L270,132.74l-6.93-4m-6.5-15.22-.4.23,0,5.95,6.86,4,.07,0v-6.41l-.08,0-6.46-3.75M269,106.31l-12.43,7.18,6.46,3.75.08,0,12.42-7.18-6.53-3.8m-5.44,125.3,5.59,3.23.06,42.65v12.12l-5.58,3.22,0-12.11-.07-49.11M291.21,87l.15,53.64L269,153.59l0,28.94-5.59,3.25-.05-35.38,22.33-12.9-.11-40.81-6.92,4L269,106.31l-12.43,7.18-.4.23-6,3.48,0,18.94,0,8L270,132.74l0-13-6.85,4v-6.41l12.42-7.18.08,25.23v.59L257,146.67l-.51.29-11.85,6.84-.11-39.8,46.69-27M237.59,110l.11,39.8,6.93,4-.11-39.8-6.93-4m46.68-27-46.68,27,6.93,4,46.69-27-6.94-4m47.58,339.34.05,8.74,23.61,13.73,0-8.74-23.62-13.73m65-10.17-41.39,23.9,0,8.74,41.39-23.9,0-8.74m-20.5-11.91,0,21.58-19.94-11.51v-2.17l-24.56,14.18,23.62,13.73,41.39-23.9-3-1.75v1.25l-17.49,10.17,0-21.58m17.5-15.53-17.49,10.17v5.36l0,21.58,17.49-10.17v-1.25l0-25v-.72m-17.49,10.17-20,11.6v3.83l19.94,11.51,0-21.58v-5.36m-97.21-3,0,8.74,23.61,13.73,0-8.74-23.62-13.73m40,4.29-16.34,9.44,0,8.74,23.89-13.8-7.59-4.38m-23.7-13.68-16.27,9.39,23.62,13.73,16.34-9.44-23.7-13.68m87.15,6.38,0-12.67-13.07-7.59,0,12.66,13.07,7.6m0-61.49,0,33.66,0-33.66-13.07-7.6,0,48.8,0,0,13.07,7.59,0,12.67,14.9-8.6-.05-12.64.05,0-.05-48.83-13.07-7.59-14.9,8.6,13.07,7.6m28-35.48-.23,83.25-16.43,9.55-17.49,10.17-20,11.6-9.7,5.64L347,412l0-83.09,63.58-37m-136-4.88v2.5l-.06,19.3-.18,61.45,15,8.67,6.15,3.55,23.7,13.68,7.59,4.38,20,11.55L347,412l0-83.09-16.59-9.58,0,5.45-5.87,3.41,5.87-3.41,9.29,5.37-.12,42.28-5.86,3.41.12-42.28-.12,42.28L275.4,342.21l.12-42.28,5.87-3.41,3.44,2,0-5.45-10.35-6m72.58-7.24h0l-.14,49.07.14-49.07m63.58-36.71L410.52,292l-63.58,37,17.29-10.12v-39L376,273v-9.67l34.69-20.16m-136-5.12-.1,36.39,0,11.64v1l10.35,6,.07-23.11,5.86-3.41,39.66,22.9-5.87,3.4L324.5,316l.07-23.12,5.87-3.4-.09,29.9,16.59,9.58.14-49.07L274.64,238M376,249.71l-28.64,16.65-.21-.12.21.12,0,13.6-.21-.12-.14,49.07,17.29-10.12v-39L376,273v-9.67L347.29,280l0-13.6L376,249.71m-94.58,46.8-5.87,3.41,9.29,5.37,0-6.79-3.44-2m49,28.26-5.87,3.41,9.3,5.37,5.86-3.41-9.29-5.37m9.29,5.37h0l-5.86,3.41-.12,42.28,5.86-3.41.12-42.28m-9.19-40.72-5.87,3.4L324.5,316l0,12.24,5.87-3.41,0-5.45.09-29.9m-39.66-22.9-5.86,3.41,39.65,22.89,5.87-3.4-39.66-22.9m-5.86,3.41-.07,23.11,0,5.45,0,6.79-9.29-5.37-.12,42.28,58.25,33.63.12-42.28-9.3-5.37,0-12.24.07-23.12-39.65-22.89m173.3-68L376,249.71l-28.64,16.65,0,13.6L376,263.29l34.69-20.16,47.52-27.61,0-13.61m-222.51,0,0,13.61L256.6,227.6l6.94,4,5.59,3.23,5.5,3.18,72.45,41.82h0l.21.12,0-13.6-.21-.12L235.71,201.91M388.4,161.6,410.52,204l-63.58,36.95L274.5,199.11l15.85-29-21.29,12.37-5.59,3.25-6.93,4-20.83,12.11,111.41,64.33.21.12L376,249.71l82.25-47.8L388.4,161.6m-27.1-51.93L344,119.75l3,121.19L410.52,204,388.4,161.6l-27.1-51.93m-19.76-11.4-17.35,10.07L344,119.75l17.34-10.08-19.76-11.4m-17.35,10.07-33.84,61.82-15.85,29,72.44,41.83-3-121.19-19.77-11.41m45.27,260.33,0,12.66,13.07,7.6,0-12.67-13.07-7.59m0,0,0,0,13.07,7.59h0l-13-7.58v0m27.92-1-14.85,8.57v0h0l0,12.67,14.9-8.6-.05-12.64m-28-47.85,0,48.8v0l13,7.58h0v0l0-15.13,0-33.66-13.07-7.6m14.9-8.6-14.9,8.6,13.07,7.6,14.9-8.61-13.07-7.59m13.07,7.59h0l-14.9,8.61,0,33.66,0,15.13v0l14.85-8.57.05,0-.05-48.83M208.14,278.25,104.42,338.53l0,7.34,103.72-60.28,0-7.34M0,278.26l0,7.33,104.4,60.28,0-7.34L0,278.26m126,34.47,0-8.74L102.4,290.26l0,8.74,23.62,13.73m0,0,41.39-23.9,0-8.74L126,304l0,8.74M73.37,282.31l0-8.75L49.71,259.84l0,8.74,23.61,13.73m44-56.44-.15,54.19,9.7-5.64v1.66L102.4,290.26,126,304l41.39-23.9-3-1.75,0-25.33,43.73,25.24L104.42,338.53,0,278.26l56.87-33.05L66,250.45l-16.26,9.39,23.62,13.72,16.34-9.43-16.34,9.43,0,8.75,23.89-13.8,20,11.55.15-54.19M20.07,189.52l.05,6.82,13.07,7.59,0-6.81-13.07-7.6m13.62-6.22h0v9.94l-6.94-4v-3.54l-6.68,3.85,13.07,7.6,11.79-6.81L45,187v-.26l-5.69-3.31V190l-5.59,3.22V183.3m11.24,7-11.79,6.81,0,6.81,11.74-6.78V196l0,0,0-5.64M33.17,174.63l0,9-6.44-3.75v9.37l6.94,4V183.3l-.5.29,0-9m6.1,5.45-5.58,3.22v9.94L39.28,190v-9.94m0-29.44v0L45.05,154v0l-5.78-3.33M22.15,158l-2.08,1.2,0,16.83,6.62,3.85,6.44,3.75,0-9,0-10.28-11-6.39m17.12-7.31v7l-5.59,3.22v0l-6.94-4v-1.56L22.15,158l11,6.39L45,157.48V154l-5.78-3.36M45,157.48l-11.9,6.87,0,10.28,0,9,.5-.29,5.58-3.22,5.72-3.3.06-19.3m-2.7-11.18L39.43,148l5.63,3.23v-3.33l-2.73-1.58M39.43,148l-.16.09v2.56L45.05,154v-2.76L39.43,148m-5.74,3.31-6.94,4v1.56l6.94,4v-9.6m5.58-3.22-5.58,3.22v9.6l5.59-3.22v-9.6M6.56,143.31l0,8.48,13.07,7.6-.05-8.48-13.07-7.6m14.72-8.5-14.72,8.5,13.07,7.6L35,142l-3.88-2.24-4.92,2.84v0l-4.89-2.84v-5M35,142l-15.34,8.86.05,8.48.4-.23,2.08-1.2,4.6-2.65,6.94-4,5.58-3.22.16-.09,2.91-1.68L35,142M21.09,19.8l.19,115v5l4.89,2.84V137l-2.82-1.63.25-62.7,2.46-1.46L26,22.64,21.09,19.8M29.86,0,21.09,19.8,26,22.64l8.77-19.8L29.86,0M26.17,137l4.93,2.84-4.92,2.84V137M34.75,2.84V66l-8.69,5.16L26,22.64l8.77-19.8h0m0,0h0V66l5-3,3.91,2.26L43.6,12.46,34.75,2.84M102.4,290.26l0,8.74,23.62,13.73,0-8.74L102.4,290.26m65-10.17L126,304l0,8.74,41.39-23.9,0-8.74m-20.5-11.9v21.57L127,278.25v-2.17L102.4,290.26,126,304l41.39-23.9-3-1.75v1.25L146.9,289.76V268.19m17.5-15.53-17.49,10.17v26.94l17.49-10.17v-1.25l0-25.33v-.35m-17.49,10.17-20,11.6v3.83l19.94,11.51V262.82m-97.21-3,0,8.74,23.61,13.73,0-8.75L49.71,259.84m40,4.29-16.34,9.43,0,8.75,23.89-13.8-7.59-4.38M66,250.45l-16.26,9.39,23.62,13.72,16.34-9.43L66,250.45m87.16,6.38,0-12.67L140,236.56l.05,12.67,13.07,7.6m27.94-97-.23,83.25-16.43,9.55-17.49,10.17-20,11.6-9.7,5.64.15-54.19.08-29.06L129.23,190v5.93L140,202.15l0,24.29v-1.52l-5.11,3,5.12,3-5.12-3v5.71l5.09,2.94h0l13.07,7.6,0,12.67,14.9-8.6,0-12.64,0,0v0l3.3-1.92v-5.71L168,229.84l3.32-1.93L168,226v1.1h0l0-25.93,9-5.24v-15l-9.53,5.53,9.53-5.53-7.36-4.25v-5.41L165,174l4.68-2.72-4.13-2.38,15.51-9m-73.5,72.27,5.32-3.33.25-34.5-5.32,3.34-.25,34.49M45,155l72.44,41.83-.08,29.06-.15,54.19-20-11.55-7.59-4.38L66,250.45l-9.08-5.24-12.08-7,.12-41.08V196L55,201.81l-2.67,1.67-.25,24.37L99.32,255.1l.25-24.37,2.67-1.68-2.67,1.68-.25,24.37,5.32-3.34.22-21.2,2.71,1.57.25-34.49,5.32-3.34L50.47,158.12l-5.32,3.33L45,187v-.26l0-9.95.06-19.3V155M181.31,76.61l-63.55,36.93,0,7.62L156.18,99l5.32,3.33.25,34.49L117.59,162.3l-.1,34.51L129.23,190v-9.07l7.82,4.52-7.82-4.52,7.34-4.27v-5.39l4.65,2.69-4.65-2.69,16.49-9.59,12.47,7.21,15.51-9,.24-83.25M108.86,34.79,50,69l67.73,39.1-4.71,2.8,4.71-2.8,0,5.47,63.55-36.93L108.86,34.79m4.21,76.08-11.46,6.8-.26,62.7L45.07,147.88V155l72.44,41.83.1-34.51,0,0,0,8.47-16.18,9.59.26-62.7,11.46-6.8M140,236.56l.05,12.67,13.07,7.6,0-12.67L140,236.56m0,0h0l13.07,7.6h0l-6.75-3.92L140,236.56m28-1-6.57,3.8-8.22,4.78v0h-.05v0h0l0,12.67,14.9-8.6,0-12.64m-21.62,4.63,6.77,3.91h0v0h0l-6.75-3.92M140,202.15l13.07,7.55,0,26-13.06-7.58v-1.65l0-24.29m13.11,42h0v0h0m14.9-8.59v0l0,0-6.57,3.8,6.62-3.85m-14.82-40.28v14.5l14.79-8.6,0,25.93-14.89,8.6h0l0-26,.11.06v-14.5h0m18.13,32.65L168,229.84l-14.83,8.61v5.71l8.22-4.78,6.62-3.85,3.3-1.92v-5.71m-36.41,0v5.71l5.09,2.94,6.35,3.66,6.77,3.91h.05v-5.71l-13.14-7.58-5.12-3m5.11-3-5.11,3,5.12,3,13.14,7.58L168,229.84l3.32-1.93L168,226v1.1h0l-14.89,8.6h0l-13.06-7.58v-3.17m37-44-9.53,5.53-14.29,8.31v15l14.79-8.6,9-5.24v-15m-47.79,0v15L140,202.15l13.07,7.55.11.06v-15l-16.15-9.32-7.82-4.52m12-7h0l11.95,6.89v10.39l-16.6-9.59v-5l-7.34,4.27,7.82,4.52,16.15,9.32,14.29-8.31,9.53-5.53-7.36-4.25v5l-16.49,9.59V180.84L165,174l-11.81,6.86-11.95-6.89m28.44-2.69L165,174l-11.81,6.86v10.39l16.49-9.59V171.26m-33.09,0v10.38l16.6,9.59V180.84l-11.95-6.89-4.65-2.69m16.49-9.59-16.49,9.59,4.65,2.69,11.95,6.89L165,174l4.68-2.72-4.13-2.38-12.47-7.21m-43.79,5.42-.26-34.5-5.32-3.33.25,34.49,5.33,3.34m8.49-59,0,5.47,0,7.62-14,8.09,5.32,3.33.26,34.5,8.27-4.78,0,8.47-16.18,9.59.26-62.7,11.46-6.8,4.71-2.8m-78-45-5,3-8.69,5.16L23.6,72.64l78,45,11.46-6.8,4.71-2.8L50,69,43.69,65.3,39.78,63m41.13,95.4,6.92,4,0-8h0l.2-32.23-6.92-4-.25,40.26m-11.58-6.69,6.92,4,0-8h0l.2-32.24-6.92-4-.25,40.25m-11.58-6.68,6.92,4,.05-8h0l.2-32.23-6.92-4-.25,40.26m-11.58-6.69,6.92,4,.26-40.26-6.92-4-.26,40.25M34.59,131.7l6.93,4,.25-40.25-6.92-4-.26,40.26m-11-59.06,78,45-.26,62.7L45.07,147.88l-2.73-1.58L35,142l-3.88-2.24L26.17,137l-2.82-1.63.25-62.7m11.25,18.8-.26,40.26,7-4,0,8-6.93-4,6.93,4,.25-40.25-6.92-4m6.72,36.23-7,4,6.93,4,0-8m4.86-29.54-.26,40.25,7-4-.05,8-6.92-4,6.92,4,.26-40.26-6.92-4m6.71,36.23-7,4,6.92,4,.05-8M58,104.81l-.25,40.26,7-4,.2-32.23-6.92-4M64.72,141h0l-7,4,6.92,4,.05-8m4.86-29.54-.25,40.25,7-4,.2-32.24-6.92-4m6.72,36.23h0l-7,4,6.92,4,0-8m4.86-29.55-.25,40.26,7-4,.2-32.23-6.92-4m6.72,36.23h0l-7,4,6.92,4,0-8m14.36,74.64-2.67,1.68-.25,24.37,5.32-3.34.22-21.2-2.62-1.51M55,201.81l-2.67,1.67,47.19,27.25,2.67-1.68L55,201.81m-2.67,1.67-.25,24.37L99.32,255.1l.25-24.37L52.38,203.48m60.76-9.18-5.32,3.34-.25,34.49,5.32-3.33.25-34.5M50.47,158.12l-5.32,3.33,62.67,36.19,5.32-3.34L50.47,158.12m-5.32,3.33L45,187l0,3.32,0,5.64,0,0L55,201.81l47.2,27.24,2.62,1.51,2.71,1.57.25-34.49L45.15,161.45m58.56-32.19.25,34.49,5.33,3.34-.26-34.5-5.32-3.33M156.18,99l-38.45,22.2-14,8.09,5.32,3.33L161.5,102.3,156.18,99M145.1,139.81c-1.67-1-2.7-3-2.71-6,0-5.89,4.13-13.07,9.25-16q.37-.21.73-.39-.36.18-.72.39c-5.13,3-9.26,10.11-9.25,16,0,4.17,2.1,6.57,5.15,6.57a8.52,8.52,0,0,0,4.16-1.26c5.13-2.93,9.28-10.11,9.26-16,0-3.11-1.17-5.25-3-6.14l-4.59-2.66a4.69,4.69,0,0,0-2.42-.63,8.59,8.59,0,0,0-4.19,1.28c-5.13,3-9.27,10.14-9.25,16,0,2.93,1,5,2.71,6l4.89,2.84m16.4-37.51.25,34.49L117.59,162.3l.07-23.56-.07,23.56,0,0-8.27,4.78-.26-34.5L161.5,102.3h0m-10.56,11.39a8.59,8.59,0,0,0-4.19,1.28c-5.13,3-9.27,10.14-9.25,16,0,2.93,1,5,2.71,6l4.89,2.84c-1.67-1-2.7-3-2.71-6,0-5.89,4.13-13.07,9.25-16q.37-.21.73-.39a7.84,7.84,0,0,1,3.45-.9,4.86,4.86,0,0,1,2.13.46l-4.59-2.66a4.69,4.69,0,0,0-2.42-.63m-1.44,21.07a4.44,4.44,0,0,0,2.19-.67,10.73,10.73,0,0,0,4.87-8.43c0-2.19-1.11-3.46-2.71-3.46a4.45,4.45,0,0,0-2.19.67,10.73,10.73,0,0,0-4.87,8.43c0,2.19,1.11,3.46,2.71,3.46m6.32-18.24a4.86,4.86,0,0,1,2.13.46c1.85.89,3,3,3,6.14,0,5.89-4.13,13.07-9.26,16a8.52,8.52,0,0,1-4.16,1.26c-3,0-5.14-2.4-5.15-6.57,0-5.89,4.12-13,9.25-16q.37-.21.72-.39a7.84,7.84,0,0,1,3.45-.9m-2,5.68a4.45,4.45,0,0,0-2.19.67,10.73,10.73,0,0,0-4.87,8.43c0,2.19,1.11,3.46,2.71,3.46a4.44,4.44,0,0,0,2.19-.67,10.73,10.73,0,0,0,4.87-8.43c0-2.19-1.11-3.46-2.71-3.46" transform="translate(0 0)"/></g><g id="Characters" class="cls-3"><polyline class="cls-4" points="440.21 412.24 336.49 472.51 336.46 479.85 440.19 419.57 440.21 412.24"/><polyline class="cls-5" points="232.09 412.24 232.07 419.58 336.46 479.85 336.49 472.51 232.09 412.24"/><path class="cls-6" d="M355.51,444.83,331.9,431.1l-.05-8.74,23.62,13.73,0,8.74m0,0,0-8.74,41.39-23.9,0,8.74-41.39,23.9m-52.69-30.42-23.61-13.73,0-8.74,23.62,13.73,0,8.74M289.28,379l-20.07,11.66v1.26l-5.58,3.22v0l-1.07-.62-30.47,17.71,104.4,60.27,103.72-60.27-46.35-26.76,0,25,3,1.75-41.39,23.9-23.62-13.73,24.56-14.18v-1.66l-9.7,5.64-20-11.55-23.89,13.8,0-8.74,16.34-9.44-16.34,9.44-23.62-13.73,16.27-9.39L289.28,379" transform="translate(0 0)"/><polyline class="cls-7" points="262.63 311.18 262.64 315.69 256.68 312.23 256.69 391.12 262.56 394.53 263.63 395.15 263.63 393.91 263.63 315.12 262.64 315.69 262.63 311.18"/><polyline class="cls-8" points="269.19 311.91 263.63 315.12 263.63 393.91 263.63 395.15 269.21 391.93 269.21 390.67 269.19 311.91"/><polyline class="cls-9" points="269.2 282.97 269.2 283.03 274.5 286.11 274.5 286.05 269.2 282.97"/><polyline class="cls-10" points="274.54 274.41 269.19 277.49 269.2 282.97 274.5 286.05 274.54 274.41"/><polyline class="cls-11" points="249.52 288.85 249.57 308.09 256.68 312.23 262.64 315.69 262.63 311.18 262.6 296.45 249.52 288.85"/><polyline class="cls-12" points="263.61 280.72 263.61 280.72 263.63 292.83 256.69 288.8 256.68 284.71 249.52 288.85 262.6 296.45 274.49 289.58 274.5 287.08 274.5 286.11 269.2 283.03 269.21 289.61 263.63 292.83 263.61 280.72"/><polyline class="cls-13" points="274.49 289.58 262.6 296.45 262.63 311.18 262.64 315.69 263.63 315.12 269.19 311.91 274.44 308.88 274.49 289.58"/><path class="cls-7" d="M256.6,227.6l.08,57.11v4.09l6.94,4,0-12.11-.07-49.11-6.94-4m.39-80.94-.51.29.06,42.84,6.93-4-.05-35.38L257,146.67" transform="translate(0 0)"/><polyline class="cls-14" points="278.82 133.47 275.59 135.34 275.59 135.93 256.99 146.67 263.42 150.4 285.75 137.5 278.82 133.47"/><polyline class="cls-7" points="285.64 96.69 278.72 100.69 278.82 133.47 285.75 137.5 285.64 96.69"/><polyline class="cls-7" points="263.01 117.25 263.01 117.25 263.09 117.29 263.1 123.7 263.03 123.66 263.05 128.71 269.98 132.74 269.95 119.75 263.1 123.7 263.09 117.29 263.01 117.25"/><polyline class="cls-14" points="263.05 128.71 263.05 128.71 250.18 136.14 250.2 144.16 269.98 132.74 263.05 128.71"/><polyline class="cls-7" points="256.55 113.49 256.15 113.72 256.17 119.67 263.03 123.66 263.1 123.7 263.09 117.29 263.01 117.25 256.55 113.49"/><polyline class="cls-14" points="268.98 106.31 256.55 113.49 263.01 117.25 263.09 117.29 275.51 110.11 268.98 106.31"/><path class="cls-8" d="M263.54,231.61l.07,49.11,0,12.11,5.58-3.22V277.49l-.06-42.65-5.59-3.23M291.21,87l-46.69,27,.11,39.8L256.48,147l.51-.29,18.6-10.74v-.59l-.08-25.23-12.42,7.18v6.41l6.85-4,0,13L250.2,144.16l0-8,0-18.94,6-3.48.4-.23L269,106.31l9.74-5.63,6.92-4,.11,40.81-22.33,12.9.05,35.38,5.59-3.25,0-28.94,22.34-12.9L291.21,87" transform="translate(0 0)"/><polyline class="cls-7" points="237.59 109.97 237.7 149.77 244.63 153.8 244.52 114 237.59 109.97"/><polyline class="cls-14" points="284.27 83.02 237.59 109.97 244.52 114 291.21 87.05 284.27 83.02"/><polyline class="cls-15" points="331.85 422.36 331.9 431.1 355.51 444.83 355.47 436.09 331.85 422.36"/><polyline class="cls-16" points="396.86 412.19 355.47 436.09 355.51 444.83 396.9 420.93 396.86 412.19"/><polyline class="cls-17" points="376.37 400.29 376.35 421.86 356.41 410.35 356.41 408.18 331.85 422.36 355.47 436.09 396.86 412.19 393.84 410.44 393.84 411.69 376.35 421.86 376.37 400.29"/><polyline class="cls-18" points="393.86 384.76 376.37 394.92 376.37 400.29 376.35 421.86 393.84 411.69 393.84 410.44 393.86 385.48 393.86 384.76"/><polyline class="cls-15" points="376.37 394.92 356.41 406.52 356.41 408.18 356.41 410.35 376.35 421.86 376.37 400.29 376.37 394.92"/><polyline class="cls-15" points="279.16 391.94 279.21 400.68 302.82 414.41 302.78 405.67 279.16 391.94"/><polyline class="cls-16" points="319.12 396.23 302.78 405.67 302.82 414.41 326.71 400.61 319.12 396.23"/><polyline class="cls-17" points="295.43 382.55 279.16 391.94 302.78 405.67 319.12 396.23 295.43 382.55"/><path class="cls-16" d="M382.58,388.93l-13.07-7.6,0-12.66,13.07,7.59,0,12.67m0-61.49-13.07-7.6,14.9-8.6,13.07,7.59.05,48.83-.05,0,.05,12.64-14.9,8.6,0-12.67-13.07-7.59,0,0,0-48.8,13.07,7.6,0,33.66,0-33.66m28-35.48-63.58,37L347,412l-.26.16,9.7-5.64,20-11.6,17.49-10.17,16.43-9.55.23-83.25" transform="translate(0 0)"/><polyline class="cls-15" points="274.5 287.08 274.49 289.58 274.44 308.88 274.26 370.33 289.28 379 295.43 382.55 319.12 396.23 326.71 400.61 346.71 412.16 346.97 412 346.94 328.91 330.36 319.33 330.34 324.78 324.47 328.19 330.34 324.78 339.63 330.15 339.51 372.43 333.65 375.84 333.77 333.56 333.65 375.84 275.4 342.21 275.52 299.93 281.39 296.52 284.83 298.5 284.85 293.06 274.5 287.08"/><path class="cls-19" d="M347.08,279.84l-.14,49.07.14-49.07h0m63.58-36.71L376,263.29V273l-11.74,6.78v39l-17.29,10.12,63.58-37,.14-48.83" transform="translate(0 0)"/><polyline class="cls-11" points="274.64 238.02 274.54 274.41 274.5 286.05 274.5 286.11 274.5 287.08 284.85 293.06 284.92 269.94 290.78 266.53 330.44 289.43 324.57 292.83 324.5 315.95 324.57 292.83 330.44 289.43 330.36 319.33 346.94 328.91 347.08 279.84 274.64 238.02"/><polyline class="cls-13" points="375.97 249.72 347.33 266.36 347.12 266.24 347.33 266.36 347.29 279.96 347.08 279.84 346.94 328.91 364.23 318.79 364.23 279.74 375.97 272.96 375.97 263.29 347.29 279.96 347.33 266.36 375.97 249.72"/><polyline class="cls-20" points="281.39 296.52 275.52 299.93 284.81 305.3 284.83 298.5 281.39 296.52"/><polyline class="cls-20" points="330.34 324.78 324.47 328.19 333.77 333.56 339.63 330.15 330.34 324.78"/><polyline class="cls-21" points="339.63 330.15 339.63 330.15 333.77 333.56 333.65 375.84 339.51 372.43 339.63 330.15"/><polyline class="cls-21" points="330.44 289.43 324.57 292.83 324.5 315.95 324.47 328.19 330.34 324.78 330.36 319.33 330.44 289.43"/><polyline class="cls-20" points="290.78 266.53 284.92 269.94 324.57 292.83 330.44 289.43 290.78 266.53"/><polyline class="cls-22" points="284.92 269.94 284.85 293.06 284.83 298.5 284.81 305.3 275.52 299.93 275.4 342.21 333.65 375.84 333.77 333.56 324.47 328.19 324.5 315.95 324.57 292.83 284.92 269.94"/><polyline class="cls-16" points="458.22 201.91 375.97 249.72 347.33 266.36 347.29 279.96 375.97 263.29 410.66 243.13 458.18 215.52 458.22 201.91"/><polyline class="cls-15" points="235.71 201.91 235.67 215.52 256.6 227.6 263.54 231.61 269.13 234.84 274.64 238.02 347.08 279.84 347.08 279.84 347.29 279.96 347.33 266.36 347.12 266.24 235.71 201.91"/><polyline class="cls-17" points="388.4 161.6 410.52 203.99 346.94 240.94 274.5 199.11 290.35 170.16 269.06 182.53 263.47 185.78 256.54 189.8 235.71 201.91 347.12 266.24 347.33 266.36 375.97 249.72 458.22 201.91 388.4 161.6"/><polyline class="cls-16" points="361.3 109.67 343.96 119.75 346.94 240.94 410.52 203.99 388.4 161.6 361.3 109.67"/><polyline class="cls-17" points="341.54 98.27 324.19 108.34 343.96 119.75 361.3 109.67 341.54 98.27"/><polyline class="cls-15" points="324.19 108.34 290.35 170.16 274.5 199.11 346.94 240.94 343.96 119.75 324.19 108.34"/><polyline class="cls-11" points="369.46 368.67 369.51 381.33 382.58 388.93 382.53 376.26 369.46 368.67"/><polyline class="cls-11" points="369.51 368.64 369.46 368.67 382.53 376.26 382.56 376.25 369.51 368.67 369.51 368.64"/><polyline class="cls-13" points="397.43 367.69 382.58 376.26 382.58 376.23 382.58 376.26 382.56 376.25 382.53 376.26 382.58 388.93 397.48 380.33 397.43 367.69"/><polyline class="cls-15" points="369.46 319.84 369.51 368.64 369.51 368.67 382.56 376.25 382.58 376.26 382.58 376.23 382.56 361.1 382.53 327.44 369.46 319.84"/><polyline class="cls-17" points="384.36 311.24 369.46 319.84 382.53 327.44 397.43 318.83 384.36 311.24"/><polyline class="cls-16" points="397.43 318.83 397.43 318.83 382.53 327.44 382.56 361.1 382.58 376.23 382.58 376.26 397.43 367.69 397.48 367.66 397.43 318.83"/><polyline class="cls-23" points="208.14 278.25 104.42 338.53 104.4 345.87 208.12 285.59 208.14 278.25"/><polyline class="cls-24" points="0.02 278.26 0 285.59 104.4 345.87 104.42 338.53 0.02 278.26"/><path class="cls-25" d="M126.06,312.73,102.44,299l0-8.74L126,304l0,8.74m0,0,0-8.74,41.39-23.9,0,8.74-41.39,23.9M73.37,282.31,49.76,268.58l0-8.74,23.62,13.72,0,8.75m44-56.44-.15,54.19-20-11.55-23.89,13.8,0-8.75,16.34-9.43-16.34,9.43L49.71,259.84,66,250.45l-9.08-5.24L0,278.26l104.4,60.27,103.72-60.28L164.41,253l0,25.33,3,1.75L126,304,102.4,290.26,127,276.08v-1.66l-9.7,5.64.15-54.19" transform="translate(0 0)"/><polyline class="cls-26" points="20.07 189.52 20.12 196.34 33.19 203.93 33.14 197.12 20.07 189.52"/><polyline class="cls-27" points="33.69 183.3 33.69 183.3 33.69 193.24 26.75 189.21 26.75 185.66 20.07 189.52 33.14 197.12 44.93 190.31 44.96 186.99 44.96 186.73 39.27 183.42 39.28 190.02 33.69 193.24 33.69 183.3"/><polyline class="cls-28" points="44.93 190.31 33.14 197.12 33.19 203.93 44.93 197.16 44.93 195.97 44.89 195.95 44.93 190.31"/><polyline class="cls-29" points="33.17 174.63 33.19 183.59 26.75 179.84 26.75 185.66 26.75 189.21 33.69 193.24 33.69 183.3 33.19 183.59 33.17 174.63"/><polyline class="cls-30" points="39.27 180.08 33.69 183.3 33.69 193.24 39.28 190.02 39.27 183.42 39.27 180.08"/><polyline class="cls-9" points="39.27 150.64 39.27 150.65 45.05 154.01 45.05 153.97 39.27 150.64"/><polyline class="cls-26" points="22.15 157.96 20.08 159.16 20.12 175.99 26.75 179.84 33.19 183.59 33.17 174.63 33.14 164.35 22.15 157.96"/><polyline class="cls-27" points="39.27 150.65 39.28 157.68 33.69 160.9 33.69 151.3 33.69 160.9 26.75 156.87 26.75 155.31 22.15 157.96 33.14 164.35 45.04 157.48 45.05 154.98 45.05 154.01 39.27 150.65"/><polyline class="cls-28" points="45.04 157.48 33.14 164.35 33.17 174.63 33.19 183.59 33.69 183.3 39.27 180.08 44.99 176.78 45.04 157.48"/><polyline class="cls-31" points="42.34 146.3 39.43 147.99 45.06 151.21 45.07 147.88 42.34 146.3"/><polyline class="cls-32" points="39.43 147.99 39.27 148.08 39.27 150.64 45.05 153.97 45.06 151.21 39.43 147.99"/><polyline class="cls-29" points="33.69 151.3 26.75 155.31 26.75 156.87 33.69 160.9 33.69 151.3"/><polyline class="cls-30" points="39.27 148.08 33.69 151.3 33.69 160.9 39.28 157.68 39.27 150.65 39.27 150.64 39.27 148.08"/><polyline class="cls-26" points="6.56 143.31 6.61 151.79 19.68 159.39 19.63 150.91 6.56 143.31"/><polyline class="cls-27" points="21.28 134.81 6.56 143.31 19.63 150.91 34.97 142.05 31.1 139.81 26.18 142.65 26.17 136.97 26.18 142.65 21.29 139.81 21.28 134.81"/><polyline class="cls-28" points="34.97 142.05 19.63 150.91 19.68 159.39 20.08 159.16 22.15 157.96 26.75 155.31 33.69 151.3 39.27 148.08 39.43 147.99 42.34 146.3 34.97 142.05"/><polyline class="cls-33" points="21.09 19.8 21.28 134.81 21.29 139.81 26.18 142.65 26.17 136.97 23.35 135.34 23.6 72.64 26.06 71.18 25.98 22.64 21.09 19.8"/><polyline class="cls-27" points="29.86 0 21.09 19.8 25.98 22.64 34.75 2.84 29.86 0"/><path class="cls-26" d="M26.17,137v5.68l4.92-2.84L26.17,137M34.75,2.84h0L26,22.64l.08,48.54L34.75,66V2.84" transform="translate(0 0)"/><polyline class="cls-34" points="34.75 2.84 34.75 2.84 34.75 66.02 39.78 63.04 43.69 65.3 43.6 12.46 34.75 2.84"/><polyline class="cls-26" points="102.4 290.26 102.44 299 126.06 312.73 126.02 303.99 102.4 290.26"/><polyline class="cls-28" points="167.41 280.09 126.02 303.99 126.06 312.73 167.45 288.83 167.41 280.09"/><polyline class="cls-27" points="146.91 268.19 146.9 289.76 126.96 278.25 126.96 276.08 102.4 290.26 126.02 303.99 167.41 280.09 164.39 278.34 164.39 279.59 146.9 289.76 146.91 268.19"/><polyline class="cls-30" points="164.41 252.66 146.92 262.82 146.91 268.19 146.9 289.76 164.39 279.59 164.39 278.34 164.41 253 164.41 252.66"/><polyline class="cls-29" points="146.92 262.82 126.96 274.42 126.96 276.08 126.96 278.25 146.9 289.76 146.91 268.19 146.92 262.82"/><polyline class="cls-26" points="49.71 259.84 49.76 268.58 73.37 282.31 73.33 273.56 49.71 259.84"/><polyline class="cls-28" points="89.67 264.13 73.33 273.56 73.37 282.31 97.26 268.51 89.67 264.13"/><polyline class="cls-27" points="65.97 250.45 49.71 259.84 73.33 273.56 89.67 264.13 65.97 250.45"/><path class="cls-30" d="M153.13,256.83l-13.07-7.6L140,236.56l13.07,7.6,0,12.67m27.94-97-15.51,9,4.13,2.38L165,174l4.68-2.72v5.41l7.36,4.25-9.53,5.53,9.53-5.53v15l-9,5.24,0,25.93h0V226l3.32,1.92L168,229.84l3.32-1.93v5.71l-3.3,1.92v0l0,0,0,12.64-14.9,8.6,0-12.67L140,236.56h0l-5.09-2.94v-5.71l5.12,3-5.12-3,5.11-3v1.52l0-24.29-10.79-6.23V190l-11.74,6.83-.08,29.06-.15,54.19,9.7-5.64,20-11.6,17.49-10.17,16.43-9.55.23-83.25" transform="translate(0 0)"/><path class="cls-29" d="M107.57,232.13l.25-34.49,5.32-3.34-.25,34.5-5.32,3.33M45,155v2.5L45,176.78l0,9.95V187l.19-25.54,5.32-3.33,62.67,36.18-5.32,3.34-.25,34.49-2.71-1.57-.22,21.2-5.32,3.34.25-24.37,2.67-1.68-2.67,1.68-.25,24.37L52.13,227.85l.25-24.37L55,201.81,44.93,196v1.18l-.12,41.08,12.08,7L66,250.45l23.69,13.68,7.59,4.38,20,11.55.15-54.19.08-29.06L45,155" transform="translate(0 0)"/><polyline class="cls-35" points="181.31 76.61 117.76 113.54 117.73 121.17 156.18 98.97 161.5 102.3 161.75 136.79 117.59 162.3 117.49 196.81 129.23 189.99 129.24 180.92 137.06 185.44 129.24 180.92 136.59 176.65 136.59 171.26 141.24 173.95 136.59 171.26 153.08 161.67 165.56 168.88 181.07 159.86 181.31 76.61"/><polyline class="cls-36" points="108.86 34.79 50.05 68.97 117.78 108.07 113.07 110.87 117.78 108.07 117.76 113.54 181.31 76.61 108.86 34.79"/><polyline class="cls-11" points="113.07 110.87 101.61 117.67 101.35 180.37 45.07 147.88 45.06 151.21 45.05 153.97 45.05 154.01 45.05 154.98 117.49 196.81 117.59 162.3 117.56 162.31 117.53 170.78 101.35 180.37 101.61 117.67 113.07 110.87"/><polyline class="cls-26" points="140.01 236.56 140.06 249.23 153.13 256.83 153.08 244.16 140.01 236.56"/><polyline class="cls-11" points="140.01 236.56 140.01 236.56 153.08 244.16 153.1 244.15 146.36 240.22 140.01 236.56"/><polyline class="cls-28" points="167.98 235.59 161.41 239.38 153.18 244.16 153.18 244.13 153.18 244.16 153.16 244.15 153.13 244.16 153.13 244.13 153.13 244.16 153.1 244.15 153.08 244.16 153.13 256.83 168.03 248.23 167.98 235.59"/><path class="cls-37" d="M146.36,240.22l6.75,3.92h0v0h0l-6.77-3.91M140,202.15l0,24.29v1.65l13.06,7.58,0-26L140,202.15" transform="translate(0 0)"/><path class="cls-38" d="M153.13,244.13h0v0h0m14.9-8.59-6.62,3.85,6.57-3.8,0,0v0m-14.82-40.28h0v14.5l-.11-.06,0,26h0l14.89-8.6,0-25.93-14.79,8.6v-14.5" transform="translate(0 0)"/><polyline class="cls-39" points="171.34 227.91 168.02 229.84 153.19 238.45 153.18 244.13 153.18 244.16 161.41 239.38 168.03 235.54 171.33 233.62 171.34 227.91"/><polyline class="cls-32" points="134.93 227.91 134.92 233.62 140.01 236.56 146.36 240.22 153.13 244.13 153.16 244.15 153.18 244.16 153.18 244.13 153.19 238.45 140.05 230.87 134.93 227.91"/><polyline class="cls-31" points="140.04 224.93 134.93 227.91 140.05 230.87 153.19 238.45 168.02 229.84 171.34 227.91 168.02 225.99 168.03 227.09 168.02 227.09 153.13 235.69 153.12 235.69 140.06 228.1 140.05 226.45 140.04 224.93"/><polyline class="cls-28" points="177.03 180.92 167.5 186.45 153.21 194.76 153.21 195.25 153.2 209.76 168 201.16 177.02 195.92 177.03 180.92"/><polyline class="cls-26" points="129.24 180.92 129.23 189.99 129.23 195.92 140.03 202.15 153.09 209.7 153.2 209.76 153.21 195.25 153.21 194.76 137.06 185.44 129.24 180.92"/><polyline class="cls-27" points="141.24 173.95 141.24 173.95 153.19 180.84 153.18 191.23 136.58 181.64 136.59 176.65 129.24 180.92 137.06 185.44 153.21 194.76 167.5 186.45 177.03 180.92 169.68 176.67 169.67 181.64 153.18 191.23 153.19 180.84 165 173.98 153.19 180.84 141.24 173.95"/><polyline class="cls-28" points="169.68 171.26 165 173.98 153.19 180.84 153.18 191.23 169.67 181.64 169.68 176.67 169.68 171.26"/><polyline class="cls-26" points="136.59 171.26 136.59 176.65 136.58 181.64 153.18 191.23 153.19 180.84 141.24 173.95 136.59 171.26"/><polyline class="cls-27" points="153.08 161.67 136.59 171.26 141.24 173.95 153.19 180.84 165 173.98 169.68 171.26 165.56 168.88 153.08 161.67"/><path class="cls-28" d="M109.29,167.09,104,163.75l-.25-34.49,5.32,3.33.26,34.5m8.49-59-4.71,2.8-11.46,6.8-.26,62.7,16.18-9.59,0-8.47-8.27,4.78-.26-34.5-5.32-3.33,14-8.09,0-7.62,0-5.47" transform="translate(0 0)"/><polyline class="cls-27" points="39.78 63.04 34.75 66.02 26.06 71.18 23.6 72.64 101.61 117.67 113.07 110.87 117.78 108.07 50.05 68.97 43.69 65.3 39.78 63.04"/><path class="cls-26" d="M80.91,158.44l.25-40.26,6.92,4-.2,32.23h0l0,8-6.92-4m-11.58-6.69.25-40.25,6.92,4-.2,32.24h0l0,8-6.92-4m-11.58-6.68L58,104.81l6.92,4L64.72,141h0l-.05,8-6.92-4m-11.58-6.69.26-40.25,6.92,4-.26,40.26-6.92-4M34.59,131.7l.26-40.26,6.92,4-.25,40.25-6.93-4m-11-59.06-.25,62.7L26.17,137l4.93,2.84L35,142l7.37,4.25,2.73,1.58,56.28,32.49.26-62.7-78-45" transform="translate(0 0)"/><polyline class="cls-28" points="34.85 91.44 34.59 131.7 41.57 127.67 41.52 135.69 34.59 131.7 41.52 135.69 41.77 95.44 34.85 91.44"/><polyline class="cls-27" points="41.57 127.67 34.59 131.7 41.52 135.69 41.57 127.67"/><polyline class="cls-28" points="46.43 98.13 46.17 138.38 53.14 134.36 53.09 142.38 46.17 138.38 53.09 142.38 53.35 102.12 46.43 98.13"/><polyline class="cls-27" points="53.14 134.36 46.17 138.38 53.09 142.38 53.14 134.36"/><polyline class="cls-28" points="58 104.81 57.75 145.07 64.72 141.04 64.92 108.81 58 104.81"/><polyline class="cls-27" points="64.72 141.04 64.72 141.04 57.75 145.07 64.67 149.06 64.72 141.04"/><polyline class="cls-28" points="69.58 111.5 69.33 151.75 76.3 147.73 76.5 115.49 69.58 111.5"/><polyline class="cls-27" points="76.3 147.73 76.3 147.73 69.33 151.75 76.25 155.75 76.3 147.73"/><polyline class="cls-28" points="81.16 118.18 80.91 158.44 87.88 154.41 88.08 122.18 81.16 118.18"/><polyline class="cls-27" points="87.88 154.41 87.88 154.41 80.91 158.44 87.83 162.43 87.88 154.41"/><polyline class="cls-28" points="102.24 229.05 99.57 230.73 99.32 255.1 104.64 251.76 104.86 230.56 102.24 229.05"/><polyline class="cls-27" points="55.05 201.81 52.38 203.48 99.57 230.73 102.24 229.05 55.05 201.81"/><polyline class="cls-26" points="52.38 203.48 52.13 227.85 99.32 255.1 99.57 230.73 52.38 203.48"/><polyline class="cls-28" points="113.14 194.3 107.82 197.64 107.57 232.13 112.89 228.8 113.14 194.3"/><polyline class="cls-27" points="50.47 158.12 45.15 161.45 107.82 197.64 113.14 194.3 50.47 158.12"/><polyline class="cls-26" points="45.15 161.45 44.96 186.99 44.93 190.31 44.89 195.95 44.93 195.97 55.05 201.81 102.24 229.05 104.86 230.56 107.57 232.13 107.82 197.64 45.15 161.45"/><polyline class="cls-26" points="103.71 129.26 103.96 163.75 109.29 167.09 109.03 132.59 103.71 129.26"/><polyline class="cls-27" points="156.18 98.97 117.73 121.17 103.71 129.26 109.03 132.59 161.5 102.3 156.18 98.97"/><path class="cls-28" d="M145.1,139.81,140.21,137c-1.71-1-2.71-3.07-2.71-6,0-5.86,4.12-13,9.25-16a8.59,8.59,0,0,1,4.19-1.28,4.69,4.69,0,0,1,2.42.63l4.59,2.66c1.85.89,3,3,3,6.14,0,5.89-4.13,13.07-9.26,16a8.52,8.52,0,0,1-4.16,1.26c-3,0-5.14-2.4-5.15-6.57,0-5.89,4.12-13,9.25-16q.37-.21.72-.39-.36.18-.73.39c-5.12,2.93-9.25,10.11-9.25,16,0,3,1,5,2.71,6m16.4-37.51h0L109,132.59l.26,34.5,8.27-4.78,0,0,.07-23.56-.07,23.56,44.16-25.51-.25-34.49" transform="translate(0 0)"/><path class="cls-26" d="M150.94,113.69a8.59,8.59,0,0,0-4.19,1.28c-5.13,3-9.27,10.14-9.25,16,0,2.93,1,5,2.71,6l4.89,2.84c-1.67-1-2.7-3-2.71-6,0-5.89,4.13-13.07,9.25-16q.37-.21.73-.39a7.84,7.84,0,0,1,3.45-.9,4.86,4.86,0,0,1,2.13.46l-4.59-2.66a4.69,4.69,0,0,0-2.42-.63" transform="translate(0 0)"/><path class="cls-39" d="M149.5,134.76c-1.6,0-2.7-1.27-2.71-3.46a10.73,10.73,0,0,1,4.87-8.43,4.45,4.45,0,0,1,2.19-.67c1.6,0,2.7,1.27,2.71,3.46a10.73,10.73,0,0,1-4.87,8.43,4.44,4.44,0,0,1-2.19.67m6.32-18.24a7.84,7.84,0,0,0-3.45.9q-.36.18-.72.39c-5.13,3-9.26,10.11-9.25,16,0,4.17,2.1,6.57,5.15,6.57a8.52,8.52,0,0,0,4.16-1.26c5.13-2.93,9.28-10.11,9.26-16,0-3.11-1.17-5.25-3-6.14a4.86,4.86,0,0,0-2.13-.46" transform="translate(0 0)"/><path class="cls-31" d="M153.85,122.2a4.45,4.45,0,0,0-2.19.67,10.73,10.73,0,0,0-4.87,8.43c0,2.19,1.11,3.46,2.71,3.46a4.44,4.44,0,0,0,2.19-.67,10.73,10.73,0,0,0,4.87-8.43c0-2.19-1.11-3.46-2.71-3.46" transform="translate(0 0)"/></g></g></svg>