<svg xmlns="http://www.w3.org/2000/svg" xmlns:xlink="http://www.w3.org/1999/xlink" viewBox="0 0 514.1 427.62"><defs><style>.cls-1,.cls-27,.cls-28{fill:none;}.cls-2{fill:#e0e0e0;}.cls-3{clip-path:url(#clip-path);}.cls-4{fill:#37474f;}.cls-5{fill:#546e7a;}.cls-6{fill:#eee;}.cls-7{fill:#fff;}.cls-8{fill:#f1f8f7;}.cls-9{fill:#aed581;}.cls-10{isolation:isolate;}.cls-11{fill:#bdbdbd;}.cls-12{fill:#616161;}.cls-13{fill:#424242;}.cls-14{fill:#757575;}.cls-15{fill:#297079;}.cls-16{fill:#4dd0e1;}.cls-17{fill:#80deea;}.cls-18{fill:#00acc1;}.cls-19{fill:#444;}.cls-20{fill:#6e6e6e;}.cls-21{fill:#636363;}.cls-22{fill:#454545;}.cls-23{fill:#929292;}.cls-24{fill:#656565;}.cls-25{fill:#a3a3a3;}.cls-26{fill:#66bb6a;}.cls-27,.cls-28{stroke:#8d6e63;stroke-linecap:round;stroke-linejoin:round;}.cls-27{stroke-width:4px;}.cls-28{stroke-width:3px;}.cls-29{fill:#43a047;}.cls-30{fill:#4b4b4b;}.cls-31{fill:#343434;}.cls-32{fill:#545454;}.cls-33{fill:#7b7b7b;}.cls-34{fill:#c6c6c6;}.cls-35{fill:#b2b2b2;}.cls-36{clip-path:url(#clip-path-2);}.cls-37{fill:#4a8188;}.cls-38{fill:#4d858c;}.cls-39{fill:#4f8a91;}.cls-40{fill:#528e96;}.cls-41{fill:#54939a;}.cls-42{fill:#57979f;}.cls-43{fill:#5a9ba4;}.cls-44{fill:#5ca0a8;}.cls-45{fill:#487c83;}.cls-46{fill:#45787e;}.cls-47{fill:#43737a;}.cls-48{fill:#26c6da;}.cls-49{fill:#f5f5f5;}.cls-50{clip-path:url(#clip-path-3);}.cls-51{fill:#857f52;}.cls-52{fill:#8a8455;}.cls-53{fill:#8f8958;}.cls-54{fill:#948e5b;}.cls-55{fill:#99935e;}.cls-56{fill:#9e9861;}.cls-57{fill:#a39d64;}.cls-58{fill:#a8a268;}.cls-59{fill:#b3ab6e;}.cls-60{fill:#b8b071;}.cls-61{clip-path:url(#clip-path-4);}.cls-62{fill:#296580;}.cls-63{clip-path:url(#clip-path-5);}.cls-64{fill:#317999;}.cls-65{fill:#337d9e;}.cls-66{fill:#3481a3;}.cls-67{fill:#3685a8;}.cls-68{fill:#3788ad;}.cls-69{fill:#398cb2;}.cls-70{fill:#2f7594;}.cls-71{fill:#2e718f;}.cls-72{fill:#2c6d8a;}.cls-73{fill:#2b6985;}.cls-74{clip-path:url(#clip-path-6);}.cls-75{clip-path:url(#clip-path-7);}.cls-76{clip-path:url(#clip-path-8);}.cls-77{clip-path:url(#clip-path-9);}</style><clipPath id="clip-path" transform="translate(-119.9 -240.64)"><rect class="cls-1" width="800" height="800"/></clipPath><clipPath id="clip-path-2" transform="translate(-119.9 -240.64)"><path class="cls-1" d="M371.2,560.88v3.81c0,3.7-2.44,7.4-7.3,10.22-9.79,5.69-25.7,5.69-35.55,0-5-2.86-7.43-6.62-7.42-10.37v-3.81c0,3.75,2.46,7.51,7.42,10.37,9.85,5.68,25.76,5.69,35.55,0C368.76,568.28,371.19,564.59,371.2,560.88Z"/></clipPath><clipPath id="clip-path-3" transform="translate(-119.9 -240.64)"><path class="cls-1" d="M353,556.21l0,9.58a3.48,3.48,0,0,0-2-2.87,10.85,10.85,0,0,0-9.83,0,3.45,3.45,0,0,0-2,2.83l0-9.58a3.45,3.45,0,0,1,2-2.83,10.85,10.85,0,0,1,9.83,0A3.48,3.48,0,0,1,353,556.21Z"/></clipPath><clipPath id="clip-path-4" transform="translate(-119.9 -240.64)"><path class="cls-1" d="M338,565.77v0l1-9.58v0A31.27,31.27,0,0,1,338,565.77Z"/></clipPath><clipPath id="clip-path-5" transform="translate(-119.9 -240.64)"><path class="cls-1" d="M341.15,568.61a3.49,3.49,0,0,1-2-2.85q0-4.79,0-9.58a3.49,3.49,0,0,0,2,2.85,10.85,10.85,0,0,0,9.83,0,3.83,3.83,0,0,0,1.94-2.24q0,4.79,0,9.58a3.83,3.83,0,0,1-1.94,2.24A10.85,10.85,0,0,1,341.15,568.61Z"/></clipPath><clipPath id="clip-path-6" transform="translate(-119.9 -240.64)"><path class="cls-2" d="M355.1,556.21l0,9.58c0,1.33-.88,2.66-2.62,3.67a14.08,14.08,0,0,1-12.77,0c-1.78-1-2.66-2.37-2.66-3.72l0-9.58c0,1.35.88,2.7,2.66,3.72a14.08,14.08,0,0,0,12.76,0C354.22,558.87,355.1,557.54,355.1,556.21Z"/></clipPath><clipPath id="clip-path-7" transform="translate(-119.9 -240.64)"><path class="cls-1" d="M349,550.86v4.05a1.47,1.47,0,0,0-.86-1.21,4.6,4.6,0,0,0-4.16,0,1.46,1.46,0,0,0-.85,1.2v-4.05a1.46,1.46,0,0,1,.85-1.19,4.6,4.6,0,0,1,4.16,0A1.47,1.47,0,0,1,349,550.86Z"/></clipPath><clipPath id="clip-path-8" transform="translate(-119.9 -240.64)"><path class="cls-1" d="M348.14,556.11q0-2,0-4.05a1.46,1.46,0,0,0,.85-1.2v4.05A1.46,1.46,0,0,1,348.14,556.11Z"/></clipPath><clipPath id="clip-path-9" transform="translate(-119.9 -240.64)"><path class="cls-1" d="M344,556.11a1.47,1.47,0,0,1-.87-1.21v-4.05a1.47,1.47,0,0,0,.87,1.21q0,2,0,4.05c0-1.35,0-2.7,0-4.05a4.59,4.59,0,0,0,4.16,0q0,2,0,4.05h0A4.59,4.59,0,0,1,344,556.11Z"/></clipPath></defs><title>Asset 1</title><g id="Layer_2" data-name="Layer 2"><g id="_ARTBOARD_1" data-name=" ARTBOARD 1"><g class="cls-3"><path class="cls-4" d="M634,453.6c0,.23,0,.45-.08.68s-.09.37-.14.55-.11.43-.19.64-.15.35-.22.53-.2.45-.32.67-.19.32-.29.48-.32.51-.51.76-.37.48-.57.71l-.14.17c-.28.3-.59.6-.91.89s-.44.37-.66.55-.39.32-.6.48-.52.35-.78.52-.53.36-.82.53L321.25,639.87a22.8,22.8,0,0,1-2,1l-.62.26q-.83.35-1.71.65l-.62.21c-.37.12-.74.22-1.12.32l-.85.23c-.4.1-.8.18-1.21.26l-.8.16c-.81.14-1.63.26-2.46.34l-.78.07c-.48,0-1,.08-1.44.1l-.94,0H305.5l-1,0-1.09-.06-1-.08-1.07-.12-1-.14-1.14-.2-.9-.18c-.45-.1-.89-.21-1.33-.33l-.75-.2c-.79-.23-1.57-.49-2.32-.78-.37-.15-.73-.3-1.09-.46l-.55-.24c-.55-.26-1.08-.53-1.59-.83L126.36,545a13.56,13.56,0,0,1-5.49-5.33,7.8,7.8,0,0,1-.89-3.59h0l-.07,24.73c0,3.23,2.12,6.46,6.38,8.92l164.34,94.88c.51.29,1,.57,1.59.83l.56.24c.32.14.64.29,1,.42l.12,0c.75.29,1.52.55,2.32.78l.18.06.56.14c.44.12.89.23,1.34.33l.35.09.54.09,1.14.2.45.08.51.06,1.08.12.51.06.49,0,1.09.06.54,0h2.21l.36,0c.49,0,1-.06,1.45-.1l.59,0,.19,0c.83-.09,1.65-.2,2.46-.34l.11,0,.7-.15c.4-.08.81-.16,1.2-.26l.85-.23c.38-.1.75-.2,1.12-.32l.23-.07.38-.14q.88-.3,1.71-.65l.61-.26a22.3,22.3,0,0,0,2-1L627.65,486.5l.26-.16c.2-.12.37-.25.56-.37s.54-.34.78-.52.41-.32.61-.48.46-.36.66-.55l.14-.11c.28-.26.53-.52.78-.78l.14-.16c.15-.17.29-.33.43-.5s.09-.15.15-.22c.19-.25.35-.5.51-.76s.15-.21.21-.32,0-.11.08-.16c.12-.22.22-.45.31-.67s.13-.26.18-.39,0-.09,0-.13c.08-.21.13-.43.19-.64s.1-.29.13-.44,0-.08,0-.12c0-.22.06-.45.08-.68s0-.3.05-.45,0-.13,0-.19L634,453C634,453.18,634,453.39,634,453.6Z" transform="translate(-119.9 -240.64)"/><path class="cls-5" d="M627.63,444.07c8.47,4.89,8.5,12.81.08,17.7L321.25,639.87c-8.41,4.89-22.09,4.9-30.56,0L126.36,545c-8.47-4.89-8.51-12.82-.1-17.71l306.46-178.1c8.41-4.89,22.1-4.89,30.57,0Z" transform="translate(-119.9 -240.64)"/><polygon class="cls-6" points="493.31 213.72 205.96 380.72 31.82 280.18 319.18 113.19 493.31 213.72"/><path class="cls-5" d="M235,575.61c6,3.44,6,9,.07,12.42s-15.5,3.44-21.45,0-6-9-.07-12.42S229.1,572.18,235,575.61Z" transform="translate(-119.9 -240.64)"/><path class="cls-4" d="M210.64,582.07c0-.12.06-.23.09-.35s.07-.28.12-.42.09-.22.14-.34.13-.29.2-.43.12-.21.19-.31.21-.32.32-.48l.22-.28a8,8,0,0,1,.58-.63l.23-.22.42-.35.39-.31.49-.33c.17-.11.34-.23.53-.34a14.71,14.71,0,0,1,1.92-.91l.53-.2c.42-.15.85-.27,1.29-.39s.91-.25,1.38-.34,1.11-.22,1.68-.29l.41-.06c.77-.08,1.54-.12,2.32-.13h.37c.77,0,1.53,0,2.29.13l.34,0a22,22,0,0,1,2.22.38l.39.1a18.87,18.87,0,0,1,1.91.58l.35.12a15,15,0,0,1,2.1,1c2.37,1.37,3.7,3.11,4,4.91a4.77,4.77,0,0,1,.06.77v-2.25c0-2.06-1.34-4.11-4.05-5.68a14.86,14.86,0,0,0-2-1l-.12,0-.35-.12c-.4-.14-.79-.29-1.21-.41l-.7-.17-.39-.1-.35-.08q-.68-.14-1.37-.24l-.51-.06-.34,0-.49-.05q-.68-.06-1.36-.07H223.5q-.77,0-1.54.1l-.17,0-.41.06c-.4,0-.79.09-1.18.16-.17,0-.33.09-.5.12-.47.1-.93.22-1.39.34-.24.07-.5.11-.73.18s-.37.14-.56.21l-.54.2a14.82,14.82,0,0,0-1.92.91l-.17.1-.36.24-.49.33-.39.3-.42.35-.08.07-.14.15a8,8,0,0,0-.59.63l-.13.14-.1.14c-.12.16-.22.32-.32.48s-.1.13-.14.2l0,.11c-.08.14-.14.29-.2.43s-.08.16-.12.25l0,.09c0,.14-.08.28-.12.41s-.06.18-.08.28,0,.05,0,.08,0,.29-.05.44,0,.19,0,.28,0,.08,0,.12h0v2.25c0-.13,0-.27,0-.4S210.62,582.21,210.64,582.07Z" transform="translate(-119.9 -240.64)"/><path class="cls-4" d="M240.85,581.22c0,.17,0,.35-.06.52s-.07.28-.11.43-.08.33-.14.49-.11.27-.17.4-.15.35-.24.52-.15.25-.22.37-.25.39-.39.58l-.27.34a9.59,9.59,0,0,1-.7.76l-.27.27c-.16.14-.34.28-.51.42s-.3.25-.46.37-.39.27-.59.4-.41.27-.63.4a17.21,17.21,0,0,1-1.56.79l-.47.2q-.63.27-1.3.49l-.48.16-.86.24-.65.17-.92.2-.62.13c-.62.11-1.25.2-1.88.26l-.59,0-1.12.07-.71,0H224l-.75,0-.84,0-.76-.06-.83-.09-.74-.1-.87-.15-.69-.14-1-.25-.57-.15c-.61-.18-1.2-.37-1.77-.6l-.24-.1a17.86,17.86,0,0,1-2.22-1.07c-3.26-1.88-4.89-4.36-4.88-6.83v2.25c0,2.47,1.62,4.95,4.88,6.83a17.85,17.85,0,0,0,2.22,1.07l.15.07.09,0c.57.22,1.16.42,1.77.6l.14,0,.42.1,1,.25.27.07.42.07.88.15.34.06.39,0,.83.09.39,0,.38,0,.84,0,.42,0h1.7l.27,0,1.12-.07.45,0,.14,0c.63-.07,1.26-.15,1.88-.26h.09l.53-.11.92-.2.65-.17.86-.25.18-.05.29-.11q.67-.23,1.3-.49l.47-.2a17.19,17.19,0,0,0,1.56-.79l.2-.12c.15-.09.28-.19.43-.29s.41-.26.59-.4.31-.24.46-.37.35-.28.51-.42l.1-.08.17-.19a9.57,9.57,0,0,0,.7-.75l.15-.16.11-.17c.14-.19.27-.38.39-.58s.12-.16.16-.24l.06-.13c.09-.17.17-.34.24-.52s.1-.2.14-.3,0-.07,0-.11.1-.33.14-.5.07-.22.1-.33,0-.06,0-.09,0-.35.06-.52,0-.23,0-.34,0-.1,0-.15v-2.25C240.89,580.89,240.87,581.05,240.85,581.22Z" transform="translate(-119.9 -240.64)"/><path class="cls-7" d="M236,573.92c6.46,3.73,6.5,9.81.06,13.55s-16.93,3.74-23.4,0-6.51-9.82-.08-13.56S229.55,570.17,236,573.92Zm-21.4,12.43c5.39,3.11,14.15,3.1,19.5,0s5.34-8.18,0-11.29-14.16-3.11-19.52,0-5.34,8.18.06,11.3" transform="translate(-119.9 -240.64)"/><polygon class="cls-4" points="426.64 163.15 421.44 166.17 381.66 143.21 386.86 140.19 426.64 163.15"/><polygon class="cls-8" points="451.84 261.32 413.46 284.15 413.58 291.65 451.84 268.89 451.84 261.32"/><polygon class="cls-9" points="409.66 175.35 342.9 214.15 251.93 161.03 318.69 122.23 409.66 175.35"/><polygon class="cls-9" points="341.11 223.19 242.49 280.5 143.23 223.19 241.84 165.88 341.11 223.19"/><polygon class="cls-9" points="233 286.89 150.98 334.48 51.29 276.38 132.86 228.98 233 286.89"/><polygon class="cls-9" points="394.05 261.5 299.81 315.77 249.78 286.38 344.37 231.47 394.05 261.5"/><polygon class="cls-9" points="240.13 291.03 161.45 339.08 211.48 368.47 290.88 320.33 240.13 291.03"/><polygon class="cls-9" points="415.69 182.47 346.52 222.98 403.54 256.37 473.44 215.77 415.69 182.47"/><g class="cls-10"><polygon class="cls-2" points="366.7 97.01 366.51 162.13 318.36 190.12 318.55 124.99 366.7 97.01"/><polygon class="cls-11" points="318.55 124.99 318.36 190.12 276.66 166.04 276.84 100.91 318.55 124.99"/><polygon class="cls-6" points="366.7 97.01 318.55 124.99 276.84 100.91 324.99 72.93 366.7 97.01"/></g><g class="cls-10"><polygon class="cls-12" points="368.97 96.31 368.96 99.31 318.39 128.7 318.39 125.71 368.97 96.31"/><polygon class="cls-13" points="318.39 125.71 318.39 128.7 274.57 103.4 274.58 100.41 318.39 125.71"/><polygon class="cls-14" points="368.97 96.31 318.39 125.71 274.58 100.41 325.16 71.02 368.97 96.31"/></g><g class="cls-10"><polygon class="cls-2" points="358.75 46.58 358.61 96.73 319.06 119.72 319.2 69.57 358.75 46.58"/><polygon class="cls-11" points="319.2 69.57 319.06 119.72 284.79 99.94 284.94 49.79 319.2 69.57"/><polygon class="cls-6" points="358.75 46.58 319.2 69.57 284.94 49.79 324.49 26.8 358.75 46.58"/></g><g class="cls-10"><polygon class="cls-12" points="361.14 47.45 361.13 49.94 318.95 74.46 318.95 71.96 361.14 47.45"/><polygon class="cls-13" points="318.95 71.96 318.95 74.46 282.41 53.36 282.42 50.87 318.95 71.96"/><polygon class="cls-14" points="361.14 47.45 318.95 71.96 282.42 50.87 324.6 26.35 361.14 47.45"/></g><g class="cls-10"><polygon class="cls-2" points="354.1 21.64 354.03 44.38 319.54 64.43 319.61 41.69 354.1 21.64"/><polygon class="cls-11" points="319.61 41.69 319.54 64.43 289.67 47.18 289.73 24.44 319.61 41.69"/><polygon class="cls-6" points="354.1 21.64 319.61 41.69 289.73 24.44 324.22 4.39 354.1 21.64"/></g><polygon class="cls-15" points="295.91 66.07 295.89 74.82 289.38 71.06 289.41 62.32 295.91 66.07"/><polygon class="cls-15" points="305.08 71.45 305.06 80.19 298.55 76.44 298.58 67.69 305.08 71.45"/><polygon class="cls-15" points="314.25 76.82 314.22 85.57 307.72 81.81 307.75 73.07 314.25 76.82"/><g class="cls-10"><polygon class="cls-16" points="295.58 66.26 296.24 65.88 296.21 74.63 295.56 75.01 295.58 66.26"/><polygon class="cls-17" points="289.08 62.51 289.73 62.13 296.24 65.88 295.58 66.26 289.08 62.51"/><polygon class="cls-18" points="295.58 66.26 295.56 75.01 289.05 71.25 289.08 62.51 295.58 66.26"/></g><g class="cls-10"><polygon class="cls-16" points="304.75 71.64 305.41 71.26 305.38 80 304.73 80.38 304.75 71.64"/><polygon class="cls-17" points="298.25 67.88 298.9 67.5 305.41 71.26 304.75 71.64 298.25 67.88"/><polygon class="cls-18" points="304.75 71.64 304.73 80.38 298.22 76.63 298.25 67.88 304.75 71.64"/></g><g class="cls-10"><polygon class="cls-16" points="313.92 77.01 314.57 76.63 314.55 85.38 313.89 85.76 313.92 77.01"/><polygon class="cls-17" points="307.42 73.26 308.07 72.88 314.57 76.63 313.92 77.01 307.42 73.26"/><polygon class="cls-18" points="313.92 77.01 313.89 85.76 307.39 82 307.42 73.26 313.92 77.01"/></g><polygon class="cls-15" points="295.91 79.16 295.89 87.9 289.38 84.14 289.41 75.4 295.91 79.16"/><polygon class="cls-15" points="305.08 84.53 305.06 93.28 298.55 89.52 298.58 80.78 305.08 84.53"/><polygon class="cls-15" points="314.25 89.91 314.22 98.65 307.72 94.9 307.75 86.15 314.25 89.91"/><g class="cls-10"><polygon class="cls-16" points="295.58 79.35 296.24 78.97 296.21 87.71 295.56 88.09 295.58 79.35"/><polygon class="cls-17" points="289.08 75.59 289.73 75.21 296.24 78.97 295.58 79.35 289.08 75.59"/><polygon class="cls-18" points="295.58 79.35 295.56 88.09 289.05 84.33 289.08 75.59 295.58 79.35"/></g><g class="cls-10"><polygon class="cls-16" points="304.75 84.72 305.41 84.34 305.38 93.08 304.73 93.47 304.75 84.72"/><polygon class="cls-17" points="298.25 80.97 298.9 80.58 305.41 84.34 304.75 84.72 298.25 80.97"/><polygon class="cls-18" points="304.75 84.72 304.73 93.47 298.22 89.71 298.25 80.97 304.75 84.72"/></g><g class="cls-10"><polygon class="cls-16" points="313.92 90.1 314.57 89.72 314.55 98.46 313.89 98.84 313.92 90.1"/><polygon class="cls-17" points="307.42 86.34 308.07 85.96 314.57 89.72 313.92 90.1 307.42 86.34"/><polygon class="cls-18" points="313.92 90.1 313.89 98.84 307.39 95.09 307.42 86.34 313.92 90.1"/></g><polygon class="cls-15" points="295.91 92.24 295.89 100.98 289.38 97.23 289.41 88.48 295.91 92.24"/><polygon class="cls-15" points="305.08 97.61 305.06 106.36 298.55 102.6 298.58 93.86 305.08 97.61"/><polygon class="cls-15" points="314.25 102.99 314.22 111.73 307.72 107.98 307.75 99.24 314.25 102.99"/><g class="cls-10"><polygon class="cls-16" points="295.58 92.43 296.24 92.05 296.21 100.79 295.56 101.17 295.58 92.43"/><polygon class="cls-17" points="289.08 88.67 289.73 88.29 296.24 92.05 295.58 92.43 289.08 88.67"/><polygon class="cls-18" points="295.58 92.43 295.56 101.17 289.05 97.42 289.08 88.67 295.58 92.43"/></g><g class="cls-10"><polygon class="cls-16" points="304.75 97.81 305.41 97.42 305.38 106.17 304.73 106.55 304.75 97.81"/><polygon class="cls-17" points="298.25 94.05 298.9 93.67 305.41 97.42 304.75 97.81 298.25 94.05"/><polygon class="cls-18" points="304.75 97.81 304.73 106.55 298.22 102.79 298.25 94.05 304.75 97.81"/></g><g class="cls-10"><polygon class="cls-16" points="313.92 103.18 314.57 102.8 314.55 111.54 313.89 111.92 313.92 103.18"/><polygon class="cls-17" points="307.42 99.43 308.07 99.05 314.57 102.8 313.92 103.18 307.42 99.43"/><polygon class="cls-18" points="313.92 103.18 313.89 111.92 307.39 108.17 307.42 99.43 313.92 103.18"/></g><g class="cls-10"><polygon class="cls-13" points="352.03 18.43 352.02 22.2 324.19 6.13 324.2 2.37 352.03 18.43"/><polygon class="cls-12" points="324.2 2.37 324.19 6.13 291.74 24.99 291.75 21.23 324.2 2.37"/><polygon class="cls-13" points="319.59 39.66 319.58 43.42 287.65 24.99 287.66 21.23 319.59 39.66"/><polygon class="cls-12" points="356.11 18.43 356.1 22.2 319.58 43.42 319.59 39.66 356.11 18.43"/><path class="cls-14" d="M444.09,240.64,476,259.07l-36.53,21.23-31.92-18.43Zm-4.62,37.29,32.46-18.86L444.11,243l-32.46,18.86,27.83,16.07" transform="translate(-119.9 -240.64)"/></g><g class="cls-10"><polygon class="cls-19" points="325.42 144.02 324.24 143.34 324.22 135.91 325.4 136.59 325.42 144.02"/><polygon class="cls-20" points="325.4 136.59 324.22 135.91 359.38 115.61 360.56 116.29 325.4 136.59"/><polygon class="cls-21" points="360.56 116.29 360.58 123.72 325.42 144.02 325.4 136.59 360.56 116.29"/></g><g class="cls-10"><polygon class="cls-19" points="325.42 158.65 324.24 157.97 324.22 150.54 325.4 151.22 325.42 158.65"/><polygon class="cls-20" points="325.4 151.22 324.22 150.54 359.38 130.24 360.56 130.92 325.4 151.22"/><polygon class="cls-21" points="360.56 130.92 360.58 138.35 325.42 158.65 325.4 151.22 360.56 130.92"/></g><g class="cls-10"><polygon class="cls-19" points="325.42 173.28 324.24 172.6 324.22 165.17 325.4 165.85 325.42 173.28"/><polygon class="cls-20" points="325.4 165.85 324.22 165.17 359.38 144.87 360.56 145.55 325.4 165.85"/><polygon class="cls-21" points="360.56 145.55 360.58 152.98 325.42 173.28 325.4 165.85 360.56 145.55"/></g><g class="cls-10"><polygon class="cls-16" points="292.96 120.79 293.88 120.25 293.81 146.84 292.88 147.38 292.96 120.79"/><polygon class="cls-17" points="282.65 114.84 283.58 114.3 293.88 120.25 292.96 120.79 282.65 114.84"/><polygon class="cls-18" points="292.96 120.79 292.88 147.38 282.58 141.43 282.65 114.84 292.96 120.79"/></g><g class="cls-10"><polygon class="cls-16" points="310.19 130.87 311.12 130.33 311.04 156.92 310.12 157.46 310.19 130.87"/><polygon class="cls-17" points="299.89 124.92 300.81 124.38 311.12 130.33 310.19 130.87 299.89 124.92"/><polygon class="cls-18" points="310.19 130.87 310.12 157.46 299.81 151.51 299.89 124.92 310.19 130.87"/></g><g class="cls-10"><polygon class="cls-16" points="298.17 34.84 298.82 34.46 298.81 39.47 298.15 39.85 298.17 34.84"/><polygon class="cls-17" points="291.91 31.23 292.56 30.84 298.82 34.46 298.17 34.84 291.91 31.23"/><polygon class="cls-18" points="298.17 34.84 298.15 39.85 291.9 36.23 291.91 31.23 298.17 34.84"/></g><g class="cls-10"><polygon class="cls-16" points="307.47 40.23 308.12 39.85 308.11 44.86 307.46 45.24 307.47 40.23"/><polygon class="cls-17" points="301.21 36.62 301.87 36.24 308.12 39.85 307.47 40.23 301.21 36.62"/><polygon class="cls-18" points="307.47 40.23 307.46 45.24 301.2 41.63 301.21 36.62 307.47 40.23"/></g><g class="cls-10"><polygon class="cls-16" points="316.71 45.65 317.37 45.27 317.36 50.28 316.7 50.66 316.71 45.65"/><polygon class="cls-17" points="310.46 42.04 311.11 41.66 317.37 45.27 316.71 45.65 310.46 42.04"/><polygon class="cls-18" points="316.71 45.65 316.7 50.66 310.44 47.05 310.46 42.04 316.71 45.65"/></g><g class="cls-10"><polygon class="cls-16" points="298.17 44.24 298.82 43.87 298.81 48.87 298.15 49.25 298.17 44.24"/><polygon class="cls-17" points="291.91 40.63 292.56 40.25 298.82 43.87 298.17 44.24 291.91 40.63"/><polygon class="cls-18" points="298.17 44.24 298.15 49.25 291.9 45.64 291.91 40.63 298.17 44.24"/></g><g class="cls-10"><polygon class="cls-16" points="307.47 49.64 308.12 49.26 308.11 54.27 307.46 54.65 307.47 49.64"/><polygon class="cls-17" points="301.21 46.03 301.87 45.65 308.12 49.26 307.47 49.64 301.21 46.03"/><polygon class="cls-18" points="307.47 49.64 307.46 54.65 301.2 51.04 301.21 46.03 307.47 49.64"/></g><g class="cls-10"><polygon class="cls-16" points="316.71 54.64 317.37 54.26 317.35 59.16 316.7 59.54 316.71 54.64"/><polygon class="cls-17" points="310.59 51.11 311.25 50.73 317.37 54.26 316.71 54.64 310.59 51.11"/><polygon class="cls-18" points="316.71 54.64 316.7 59.54 310.58 56.01 310.59 51.11 316.71 54.64"/></g><g class="cls-10"><polygon class="cls-18" points="416.37 199.69 415.61 199.25 415.59 195.07 416.36 195.51 416.37 199.69"/><polygon class="cls-17" points="416.36 195.51 415.59 195.07 444.69 178.27 445.45 178.71 416.36 195.51"/><polygon class="cls-16" points="445.45 178.71 445.46 182.89 416.37 199.69 416.36 195.51 445.45 178.71"/></g><g class="cls-10"><polygon class="cls-21" points="448.07 207.75 448.01 226.08 412.54 246.7 412.59 228.37 448.07 207.75"/><polygon class="cls-22" points="412.59 228.37 412.54 246.7 377.39 226.41 377.44 208.08 412.59 228.37"/><polygon class="cls-20" points="448.07 207.75 412.59 228.37 377.44 208.08 412.92 187.46 448.07 207.75"/></g><g class="cls-10"><polygon class="cls-23" points="448.18 118.14 447.91 211.86 412.43 232.48 412.69 138.76 448.18 118.14"/><polygon class="cls-24" points="412.69 138.76 412.43 232.48 377.28 212.19 377.55 118.47 412.69 138.76"/><polygon class="cls-25" points="448.18 118.14 412.69 138.76 377.55 118.47 413.03 97.85 448.18 118.14"/></g><g class="cls-10"><polygon class="cls-18" points="426.35 146.24 425.79 145.91 425.77 140.19 426.34 140.52 426.35 146.24"/><polygon class="cls-17" points="426.34 140.52 425.77 140.19 429.83 137.85 430.4 138.17 426.34 140.52"/><polygon class="cls-16" points="430.4 138.17 430.41 143.9 426.35 146.24 426.34 140.52 430.4 138.17"/></g><g class="cls-10"><polygon class="cls-18" points="433.51 141.87 432.94 141.54 432.93 135.82 433.49 136.14 433.51 141.87"/><polygon class="cls-17" points="433.49 136.14 432.93 135.82 436.99 133.47 437.55 133.8 433.49 136.14"/><polygon class="cls-16" points="437.55 133.8 437.57 139.53 433.51 141.87 433.49 136.14 437.55 133.8"/></g><g class="cls-10"><polygon class="cls-18" points="426.35 160.6 425.79 160.27 425.77 154.55 426.34 154.88 426.35 160.6"/><polygon class="cls-17" points="426.34 154.88 425.77 154.55 429.83 152.21 430.4 152.53 426.34 154.88"/><polygon class="cls-16" points="430.4 152.53 430.41 158.26 426.35 160.6 426.34 154.88 430.4 152.53"/></g><g class="cls-10"><polygon class="cls-18" points="433.51 156.23 432.94 155.9 432.93 150.18 433.49 150.5 433.51 156.23"/><polygon class="cls-17" points="433.49 150.5 432.93 150.18 436.99 147.83 437.55 148.16 433.49 150.5"/><polygon class="cls-16" points="437.55 148.16 437.57 153.88 433.51 156.23 433.49 150.5 437.55 148.16"/></g><g class="cls-10"><polygon class="cls-18" points="426.35 174.45 425.79 174.13 425.77 168.4 426.34 168.73 426.35 174.45"/><polygon class="cls-17" points="426.34 168.73 425.77 168.4 429.83 166.06 430.4 166.38 426.34 168.73"/><polygon class="cls-16" points="430.4 166.38 430.41 172.11 426.35 174.45 426.34 168.73 430.4 166.38"/></g><g class="cls-10"><polygon class="cls-18" points="433.51 170.08 432.94 169.75 432.93 164.03 433.49 164.35 433.51 170.08"/><polygon class="cls-17" points="433.49 164.35 432.93 164.03 436.99 161.68 437.55 162.01 433.49 164.35"/><polygon class="cls-16" points="437.55 162.01 437.57 167.74 433.51 170.08 433.49 164.35 437.55 162.01"/></g><g class="cls-10"><polygon class="cls-18" points="426.35 188.29 425.79 187.97 425.77 182.25 426.34 182.58 426.35 188.29"/><polygon class="cls-17" points="426.34 182.58 425.77 182.25 429.83 179.91 430.4 180.23 426.34 182.58"/><polygon class="cls-16" points="430.4 180.23 430.41 185.95 426.35 188.29 426.34 182.58 430.4 180.23"/></g><g class="cls-10"><polygon class="cls-18" points="433.51 183.92 432.94 183.6 432.93 177.88 433.49 178.2 433.51 183.92"/><polygon class="cls-17" points="433.49 178.2 432.93 177.88 436.99 175.53 437.55 175.86 433.49 178.2"/><polygon class="cls-16" points="437.55 175.86 437.57 181.58 433.51 183.92 433.49 178.2 437.55 175.86"/></g><g class="cls-10"><polygon class="cls-18" points="426.35 202.15 425.79 201.82 425.77 196.1 426.34 196.43 426.35 202.15"/><polygon class="cls-17" points="426.34 196.43 425.77 196.1 429.83 193.75 430.4 194.08 426.34 196.43"/><polygon class="cls-16" points="430.4 194.08 430.41 199.8 426.35 202.15 426.34 196.43 430.4 194.08"/></g><g class="cls-10"><polygon class="cls-18" points="433.51 197.77 432.94 197.45 432.93 191.73 433.49 192.05 433.51 197.77"/><polygon class="cls-17" points="433.49 192.05 432.93 191.73 436.99 189.38 437.55 189.71 433.49 192.05"/><polygon class="cls-16" points="437.55 189.71 437.57 195.43 433.51 197.77 433.49 192.05 437.55 189.71"/></g><g class="cls-10"><polygon class="cls-18" points="426.35 216 425.79 215.67 425.77 209.94 426.34 210.27 426.35 216"/><polygon class="cls-17" points="426.34 210.27 425.77 209.94 429.83 207.6 430.4 207.93 426.34 210.27"/><polygon class="cls-16" points="430.4 207.93 430.41 213.65 426.35 216 426.34 210.27 430.4 207.93"/></g><g class="cls-10"><polygon class="cls-18" points="433.51 211.62 432.94 211.3 432.93 205.58 433.49 205.91 433.51 211.62"/><polygon class="cls-17" points="433.49 205.91 432.93 205.58 436.99 203.23 437.55 203.56 433.49 205.91"/><polygon class="cls-16" points="437.55 203.56 437.57 209.28 433.51 211.62 433.49 205.91 437.55 203.56"/></g><g class="cls-10"><polygon class="cls-18" points="419.31 154.81 418.54 154.37 418.51 143.8 419.28 144.25 419.31 154.81"/><polygon class="cls-17" points="419.28 144.25 418.51 143.8 422.57 141.46 423.34 141.9 419.28 144.25"/><polygon class="cls-16" points="423.34 141.9 423.37 152.47 419.31 154.81 419.28 144.25 423.34 141.9"/></g><g class="cls-10"><polygon class="cls-18" points="440.77 142.26 440.01 141.81 439.98 131.24 440.75 131.69 440.77 142.26"/><polygon class="cls-17" points="440.75 131.69 439.98 131.24 444.04 128.9 444.8 129.35 440.75 131.69"/><polygon class="cls-16" points="444.8 129.35 444.83 139.91 440.77 142.26 440.75 131.69 444.8 129.35"/></g><g class="cls-10"><polygon class="cls-18" points="419.31 168.78 418.54 168.34 418.51 157.77 419.28 158.21 419.31 168.78"/><polygon class="cls-17" points="419.28 158.21 418.51 157.77 422.57 155.43 423.34 155.87 419.28 158.21"/><polygon class="cls-16" points="423.34 155.87 423.37 166.44 419.31 168.78 419.28 158.21 423.34 155.87"/></g><g class="cls-10"><polygon class="cls-18" points="440.77 156.22 440.01 155.78 439.98 145.2 440.75 145.65 440.77 156.22"/><polygon class="cls-17" points="440.75 145.65 439.98 145.2 444.04 142.86 444.8 143.31 440.75 145.65"/><polygon class="cls-16" points="444.8 143.31 444.83 153.88 440.77 156.22 440.75 145.65 444.8 143.31"/></g><g class="cls-10"><polygon class="cls-18" points="419.31 182.75 418.54 182.31 418.51 171.74 419.28 172.18 419.31 182.75"/><polygon class="cls-17" points="419.28 172.18 418.51 171.74 422.57 169.39 423.34 169.84 419.28 172.18"/><polygon class="cls-16" points="423.34 169.84 423.37 180.41 419.31 182.75 419.28 172.18 423.34 169.84"/></g><g class="cls-10"><polygon class="cls-18" points="440.77 170.19 440.01 169.75 439.98 159.17 440.75 159.62 440.77 170.19"/><polygon class="cls-17" points="440.75 159.62 439.98 159.17 444.04 156.83 444.8 157.27 440.75 159.62"/><polygon class="cls-16" points="444.8 157.27 444.83 167.85 440.77 170.19 440.75 159.62 444.8 157.27"/></g><g class="cls-10"><polygon class="cls-18" points="419.31 196.72 418.54 196.27 418.51 185.7 419.28 186.15 419.31 196.72"/><polygon class="cls-17" points="419.28 186.15 418.51 185.7 422.57 183.36 423.34 183.8 419.28 186.15"/><polygon class="cls-16" points="423.34 183.8 423.37 194.37 419.31 196.72 419.28 186.15 423.34 183.8"/></g><g class="cls-10"><polygon class="cls-18" points="440.77 184.15 440.01 183.71 439.98 173.14 440.75 173.58 440.77 184.15"/><polygon class="cls-17" points="440.75 173.58 439.98 173.14 444.04 170.8 444.8 171.24 440.75 173.58"/><polygon class="cls-16" points="444.8 171.24 444.83 181.81 440.77 184.15 440.75 173.58 444.8 171.24"/></g><g class="cls-10"><polygon class="cls-18" points="419.31 210.68 418.54 210.24 418.51 199.67 419.28 200.11 419.31 210.68"/><polygon class="cls-17" points="419.28 200.11 418.51 199.67 422.57 197.33 423.34 197.77 419.28 200.11"/><polygon class="cls-16" points="423.34 197.77 423.37 208.34 419.31 210.68 419.28 200.11 423.34 197.77"/></g><g class="cls-10"><polygon class="cls-18" points="440.77 198.12 440.01 197.67 439.98 187.1 440.75 187.55 440.77 198.12"/><polygon class="cls-17" points="440.75 187.55 439.98 187.1 444.04 184.76 444.8 185.21 440.75 187.55"/><polygon class="cls-16" points="444.8 185.21 444.83 195.78 440.77 198.12 440.75 187.55 444.8 185.21"/></g><g class="cls-10"><polygon class="cls-18" points="419.31 224.65 418.54 224.21 418.51 213.63 419.28 214.07 419.31 224.65"/><polygon class="cls-17" points="419.28 214.07 418.51 213.63 422.57 211.29 423.34 211.73 419.28 214.07"/><polygon class="cls-16" points="423.34 211.73 423.37 222.3 419.31 224.65 419.28 214.07 423.34 211.73"/></g><g class="cls-10"><polygon class="cls-18" points="440.77 212.08 440.01 211.64 439.98 201.07 440.75 201.51 440.77 212.08"/><polygon class="cls-17" points="440.75 201.51 439.98 201.07 444.04 198.73 444.8 199.17 440.75 201.51"/><polygon class="cls-16" points="444.8 199.17 444.83 209.74 440.77 212.08 440.75 201.51 444.8 199.17"/></g><g class="cls-10"><polygon class="cls-21" points="408.61 143.61 409.43 143.13 409.42 147.61 408.59 148.09 408.61 143.61"/><polygon class="cls-20" points="379.81 126.99 380.64 126.51 409.43 143.13 408.61 143.61 379.81 126.99"/><polygon class="cls-22" points="408.61 143.61 408.59 148.09 379.8 131.47 379.81 126.99 408.61 143.61"/></g><g class="cls-10"><polygon class="cls-21" points="408.61 152.28 409.43 151.8 409.42 156.28 408.59 156.76 408.61 152.28"/><polygon class="cls-20" points="379.81 135.66 380.64 135.18 409.43 151.8 408.61 152.28 379.81 135.66"/><polygon class="cls-22" points="408.61 152.28 408.59 156.76 379.8 140.13 379.81 135.66 408.61 152.28"/></g><g class="cls-10"><polygon class="cls-21" points="408.61 160.96 409.43 160.48 409.42 164.95 408.59 165.43 408.61 160.96"/><polygon class="cls-20" points="379.81 144.33 380.64 143.85 409.43 160.48 408.61 160.96 379.81 144.33"/><polygon class="cls-22" points="408.61 160.96 408.59 165.43 379.8 148.81 379.81 144.33 408.61 160.96"/></g><g class="cls-10"><polygon class="cls-21" points="408.61 169.62 409.43 169.14 409.42 173.62 408.59 174.1 408.61 169.62"/><polygon class="cls-20" points="379.81 153 380.64 152.51 409.43 169.14 408.61 169.62 379.81 153"/><polygon class="cls-22" points="408.61 169.62 408.59 174.1 379.8 157.47 379.81 153 408.61 169.62"/></g><g class="cls-10"><polygon class="cls-21" points="408.61 178.29 409.43 177.81 409.42 182.29 408.59 182.77 408.61 178.29"/><polygon class="cls-20" points="379.81 161.67 380.64 161.19 409.43 177.81 408.61 178.29 379.81 161.67"/><polygon class="cls-22" points="408.61 178.29 408.59 182.77 379.8 166.14 379.81 161.67 408.61 178.29"/></g><g class="cls-10"><polygon class="cls-21" points="408.61 186.97 409.43 186.49 409.42 190.96 408.59 191.44 408.61 186.97"/><polygon class="cls-20" points="379.81 170.34 380.64 169.86 409.43 186.49 408.61 186.97 379.81 170.34"/><polygon class="cls-22" points="408.61 186.97 408.59 191.44 379.8 174.81 379.81 170.34 408.61 186.97"/></g><g class="cls-10"><polygon class="cls-21" points="408.61 195.63 409.43 195.15 409.42 199.63 408.59 200.11 408.61 195.63"/><polygon class="cls-20" points="379.81 179 380.64 178.52 409.43 195.15 408.61 195.63 379.81 179"/><polygon class="cls-22" points="408.61 195.63 408.59 200.11 379.8 183.48 379.81 179 408.61 195.63"/></g><g class="cls-10"><polygon class="cls-21" points="408.61 204.3 409.43 203.82 409.42 208.3 408.59 208.78 408.61 204.3"/><polygon class="cls-20" points="379.81 187.68 380.64 187.2 409.43 203.82 408.61 204.3 379.81 187.68"/><polygon class="cls-22" points="408.61 204.3 408.59 208.78 379.8 192.15 379.81 187.68 408.61 204.3"/></g><g class="cls-10"><polygon class="cls-21" points="408.61 212.97 409.43 212.49 409.42 216.97 408.59 217.45 408.61 212.97"/><polygon class="cls-20" points="379.81 196.34 380.64 195.86 409.43 212.49 408.61 212.97 379.81 196.34"/><polygon class="cls-22" points="408.61 212.97 408.59 217.45 379.8 200.82 379.81 196.34 408.61 212.97"/></g><g class="cls-10"><polygon class="cls-21" points="408.61 221.64 409.43 221.16 409.42 225.63 408.59 226.12 408.61 221.64"/><polygon class="cls-20" points="379.81 205.01 380.64 204.53 409.43 221.16 408.61 221.64 379.81 205.01"/><polygon class="cls-22" points="408.61 221.64 408.59 226.12 379.8 209.49 379.81 205.01 408.61 221.64"/></g><g class="cls-10"><polygon class="cls-23" points="438.63 97.51 438.57 118.76 413.99 133.04 414.05 111.79 438.63 97.51"/><polygon class="cls-24" points="414.05 111.79 413.99 133.04 386.83 117.36 386.89 96.11 414.05 111.79"/><polygon class="cls-25" points="438.63 97.51 414.05 111.79 386.89 96.11 411.47 81.83 438.63 97.51"/></g><g class="cls-10"><polygon class="cls-21" points="430.33 81 430.29 95.44 413.58 105.15 413.63 90.71 430.33 81"/><polygon class="cls-22" points="413.63 90.71 413.58 105.15 395.12 94.5 395.17 80.05 413.63 90.71"/><polygon class="cls-20" points="430.33 81 413.63 90.71 395.17 80.05 411.87 70.34 430.33 81"/></g><g class="cls-10"><polygon class="cls-19" points="418.25 123.08 417.48 122.64 417.47 117.13 418.23 117.57 418.25 123.08"/><polygon class="cls-20" points="418.23 117.57 417.47 117.13 435.72 106.59 436.49 107.03 418.23 117.57"/><polygon class="cls-21" points="436.49 107.03 436.5 112.54 418.25 123.08 418.23 117.57 436.49 107.03"/></g><path class="cls-26" d="M412.22,418.92c0,9.33-6.12,13.17-13.67,13.17s-13.67-3.83-13.67-13.17,6.12-29.34,13.67-29.34S412.22,409.58,412.22,418.92Z" transform="translate(-119.9 -240.64)"/><line class="cls-27" x1="278.1" y1="167.36" x2="278.1" y2="208.36"/><path class="cls-26" d="M490,398.63c0,8.92-5.85,12.59-13.07,12.59s-13.07-3.66-13.07-12.59,5.85-28,13.07-28S490,389.7,490,398.63Z" transform="translate(-119.9 -240.64)"/><line class="cls-28" x1="356.6" y1="147.36" x2="356.6" y2="186.36"/><path class="cls-29" d="M493.82,484c0,8.74-5.73,12.33-12.8,12.33s-12.8-3.59-12.8-12.33,5.73-27.47,12.8-27.47S493.82,475.3,493.82,484Z" transform="translate(-119.9 -240.64)"/><line class="cls-28" x1="360.6" y1="233.36" x2="360.6" y2="271.36"/><path class="cls-29" d="M394.21,442.32c0,9.33-6.12,13.17-13.67,13.17s-13.67-3.83-13.67-13.17S373,413,380.54,413,394.21,433,394.21,442.32Z" transform="translate(-119.9 -240.64)"/><line class="cls-27" x1="260.1" y1="190.36" x2="260.1" y2="231.36"/><g class="cls-10"><polygon class="cls-21" points="254.97 225.68 254.92 240.3 216.02 262.91 216.06 248.29 254.97 225.68"/><polygon class="cls-22" points="216.06 248.29 216.02 262.91 177.48 240.66 177.52 226.04 216.06 248.29"/><polygon class="cls-20" points="254.97 225.68 216.06 248.29 177.52 226.04 216.43 203.44 254.97 225.68"/></g><g class="cls-10"><polygon class="cls-23" points="251 123.89 250.71 225.19 215.91 245.41 216.2 144.11 251 123.89"/><polygon class="cls-24" points="216.2 144.11 215.91 245.41 181.45 225.51 181.74 124.22 216.2 144.11"/><polygon class="cls-25" points="251 123.89 216.2 144.11 181.74 124.22 216.53 104 251 123.89"/></g><g class="cls-10"><polygon class="cls-23" points="241.65 78.72 241.53 122.76 217.43 136.76 217.55 92.72 241.65 78.72"/><polygon class="cls-24" points="217.55 92.72 217.43 136.76 190.79 121.39 190.92 77.35 217.55 92.72"/><polygon class="cls-25" points="241.65 78.72 217.55 92.72 190.92 77.35 215.02 63.34 241.65 78.72"/></g><g class="cls-10"><polygon class="cls-30" points="214.96 63.62 214.96 66.07 192.63 79.05 192.63 76.59 214.96 63.62"/><polygon class="cls-31" points="239.82 77.97 239.81 80.42 214.96 66.07 214.96 63.62 239.82 77.97"/><polygon class="cls-31" points="217.5 93 217.49 95.45 189.08 79.04 189.09 76.59 217.5 93"/><polygon class="cls-30" points="243.36 77.97 243.35 80.42 217.49 95.45 217.5 93 243.36 77.97"/><path class="cls-32" d="M334.86,302.2l28.41,16.4-25.86,15L309,317.23Zm2.53,29.38,22.33-13-24.85-14.35-22.33,13,24.85,14.35" transform="translate(-119.9 -240.64)"/></g><g class="cls-10"><polygon class="cls-18" points="219.79 156.78 219.04 156.35 219.03 152.24 219.78 152.68 219.79 156.78"/><polygon class="cls-17" points="219.78 152.68 219.03 152.24 247.56 135.77 248.31 136.2 219.78 152.68"/><polygon class="cls-16" points="248.31 136.2 248.32 140.31 219.79 156.78 219.78 152.68 248.31 136.2"/></g><g class="cls-10"><polygon class="cls-18" points="219.79 167.14 219.04 166.7 219.03 162.6 219.78 163.03 219.79 167.14"/><polygon class="cls-17" points="219.78 163.03 219.03 162.6 247.56 146.12 248.31 146.56 219.78 163.03"/><polygon class="cls-16" points="248.31 146.56 248.32 150.66 219.79 167.14 219.78 163.03 248.31 146.56"/></g><g class="cls-10"><polygon class="cls-18" points="219.79 177.49 219.04 177.06 219.03 172.96 219.78 173.39 219.79 177.49"/><polygon class="cls-17" points="219.78 173.39 219.03 172.96 247.56 156.49 248.31 156.92 219.78 173.39"/><polygon class="cls-16" points="248.31 156.92 248.32 161.02 219.79 177.49 219.78 173.39 248.31 156.92"/></g><g class="cls-10"><polygon class="cls-18" points="219.79 187.85 219.04 187.41 219.03 183.31 219.78 183.75 219.79 187.85"/><polygon class="cls-17" points="219.78 183.75 219.03 183.31 247.56 166.84 248.31 167.28 219.78 183.75"/><polygon class="cls-16" points="248.31 167.28 248.32 171.38 219.79 187.85 219.78 183.75 248.31 167.28"/></g><g class="cls-10"><polygon class="cls-18" points="219.79 198.2 219.04 197.77 219.03 193.67 219.78 194.1 219.79 198.2"/><polygon class="cls-17" points="219.78 194.1 219.03 193.67 247.56 177.2 248.31 177.63 219.78 194.1"/><polygon class="cls-16" points="248.31 177.63 248.32 181.73 219.79 198.2 219.78 194.1 248.31 177.63"/></g><g class="cls-10"><polygon class="cls-18" points="219.79 208.56 219.04 208.13 219.03 204.03 219.78 204.46 219.79 208.56"/><polygon class="cls-17" points="219.78 204.46 219.03 204.03 247.56 187.55 248.31 187.99 219.78 204.46"/><polygon class="cls-16" points="248.31 187.99 248.32 192.09 219.79 208.56 219.78 204.46 248.31 187.99"/></g><g class="cls-10"><polygon class="cls-18" points="219.79 218.92 219.04 218.48 219.03 214.38 219.78 214.82 219.79 218.92"/><polygon class="cls-17" points="219.78 214.82 219.03 214.38 247.56 197.91 248.31 198.34 219.78 214.82"/><polygon class="cls-16" points="248.31 198.34 248.32 202.44 219.79 218.92 219.78 214.82 248.31 198.34"/></g><g class="cls-10"><polygon class="cls-18" points="219.79 229.27 219.04 228.84 219.03 224.74 219.78 225.17 219.79 229.27"/><polygon class="cls-17" points="219.78 225.17 219.03 224.74 247.56 208.26 248.31 208.7 219.78 225.17"/><polygon class="cls-16" points="248.31 208.7 248.32 212.8 219.79 229.27 219.78 225.17 248.31 208.7"/></g><g class="cls-10"><polygon class="cls-21" points="188.18 139.69 189.37 139 189.15 216.22 187.96 216.91 188.18 139.69"/><polygon class="cls-20" points="184.71 137.69 185.9 137 189.37 139 188.18 139.69 184.71 137.69"/><polygon class="cls-22" points="188.18 139.69 187.96 216.91 184.49 214.91 184.71 137.69 188.18 139.69"/></g><g class="cls-10"><polygon class="cls-21" points="195.53 144.02 196.72 143.32 196.5 220.54 195.31 221.23 195.53 144.02"/><polygon class="cls-20" points="192.06 142.01 193.25 141.32 196.72 143.32 195.53 144.02 192.06 142.01"/><polygon class="cls-22" points="195.53 144.02 195.31 221.23 191.84 219.23 192.06 142.01 195.53 144.02"/></g><g class="cls-10"><polygon class="cls-21" points="202.88 147.85 204.07 147.16 203.85 224.37 202.66 225.06 202.88 147.85"/><polygon class="cls-20" points="199.41 145.84 200.6 145.15 204.07 147.16 202.88 147.85 199.41 145.84"/><polygon class="cls-22" points="202.88 147.85 202.66 225.06 199.19 223.05 199.41 145.84 202.88 147.85"/></g><g class="cls-10"><polygon class="cls-21" points="210.22 152.17 211.41 151.48 211.2 228.69 210 229.38 210.22 152.17"/><polygon class="cls-20" points="206.76 150.17 207.95 149.48 211.41 151.48 210.22 152.17 206.76 150.17"/><polygon class="cls-22" points="210.22 152.17 210 229.38 206.54 227.38 206.76 150.17 210.22 152.17"/></g><polygon class="cls-22" points="212 94.83 212 97.3 195.15 87.58 195.15 85.1 212 94.83"/><polygon class="cls-22" points="212 99.81 212 102.28 195.15 92.55 195.15 90.08 212 99.81"/><polygon class="cls-22" points="212 104.79 212 107.26 195.15 97.53 195.15 95.06 212 104.79"/><polygon class="cls-22" points="212 116.38 212 118.86 195.15 109.13 195.15 106.65 212 116.38"/><polygon class="cls-22" points="212 121.36 212 123.83 195.15 114.11 195.15 111.63 212 121.36"/><polygon class="cls-22" points="212 126.34 212 128.81 195.15 119.08 195.15 116.61 212 126.34"/><path class="cls-26" d="M353.25,494c0,10.37-6.8,14.63-15.19,14.63s-15.19-4.26-15.19-14.63,6.8-32.6,15.19-32.6S353.25,483.65,353.25,494Z" transform="translate(-119.9 -240.64)"/><line class="cls-27" x1="218.1" y1="241.36" x2="218.1" y2="286.36"/><path class="cls-26" d="M398.52,535c0,9.44-6.19,13.31-13.83,13.31s-13.83-3.88-13.83-13.31,6.19-29.67,13.83-29.67S398.52,525.55,398.52,535Z" transform="translate(-119.9 -240.64)"/><line class="cls-27" x1="265.1" y1="283.36" x2="265.1" y2="324.36"/><g class="cls-10"><polygon class="cls-14" points="211.45 255.24 211.36 287.51 154.81 320.38 154.9 288.11 211.45 255.24"/><polygon class="cls-12" points="154.9 288.11 154.81 320.38 72.84 273.05 72.93 240.78 154.9 288.11"/><polygon class="cls-20" points="211.45 255.24 154.9 288.11 72.93 240.78 129.48 207.92 211.45 255.24"/></g><g class="cls-10"><polygon class="cls-2" points="211.45 250.61 211.36 282.88 154.81 315.74 154.9 283.47 211.45 250.61"/><polygon class="cls-11" points="154.9 283.47 154.81 315.74 72.84 268.41 72.93 236.15 154.9 283.47"/><polygon class="cls-6" points="211.45 250.61 154.9 283.47 72.93 236.15 129.48 203.28 211.45 250.61"/></g><g class="cls-10"><polygon class="cls-16" points="198.89 245.69 198.88 250.22 152.55 277.14 152.56 272.62 198.89 245.69"/><polygon class="cls-18" points="152.56 272.62 152.55 277.14 85.4 238.38 85.41 233.85 152.56 272.62"/><polygon class="cls-17" points="198.89 245.69 152.56 272.62 85.41 233.85 131.74 206.93 198.89 245.69"/></g><g class="cls-10"><polygon class="cls-2" points="131.74 207.88 131.73 212.41 87.05 238.38 87.06 233.85 131.74 207.88"/><polygon class="cls-11" points="197.24 245.7 197.23 250.22 131.73 212.41 131.74 207.88 197.24 245.7"/><polygon class="cls-11" points="152.57 273.58 152.55 278.11 83.74 238.38 83.75 233.85 152.57 273.58"/><polygon class="cls-2" points="200.54 245.7 200.53 250.22 152.55 278.11 152.57 273.58 200.54 245.7"/><path class="cls-6" d="M251.64,446.61l68.81,39.73-48,27.88-68.81-39.73Zm20.82,65.7,44.68-26-65.5-37.81-44.68,26,65.5,37.81" transform="translate(-119.9 -240.64)"/></g><g class="cls-10"><polygon class="cls-14" points="145.88 231.41 145.86 236.35 129.02 246.14 129.04 241.2 145.88 231.41"/><polygon class="cls-12" points="129.04 241.2 129.02 246.14 113.14 236.97 113.16 232.03 129.04 241.2"/><polygon class="cls-20" points="145.88 231.41 129.04 241.2 113.16 232.03 130 222.24 145.88 231.41"/></g><g class="cls-10"><polygon class="cls-18" points="169.19 289.89 168 289.2 167.98 281.72 169.17 282.42 169.19 289.89"/><polygon class="cls-17" points="169.17 282.42 167.98 281.72 203.67 261.12 204.86 261.81 169.17 282.42"/><polygon class="cls-16" points="204.86 261.81 204.88 269.29 169.19 289.89 169.17 282.42 204.86 261.81"/></g><g class="cls-10"><polygon class="cls-33" points="197.88 301.72 192.1 298.36 192.05 280.95 197.83 284.31 197.88 301.72"/><polygon class="cls-34" points="180.81 311.57 175.03 308.21 192.1 298.36 197.88 301.72 180.81 311.57"/><polygon class="cls-20" points="180.76 294.16 174.98 290.8 192.05 280.95 197.83 284.31 180.76 294.16"/><polygon class="cls-19" points="180.81 311.57 175.03 308.21 174.98 290.8 180.76 294.16 180.81 311.57"/><polygon class="cls-14" points="197.83 284.31 197.88 301.72 180.81 311.57 180.76 294.16 197.83 284.31"/><polygon class="cls-33" points="180.05 312.88 174.27 309.52 174.22 290.37 180 293.73 180.05 312.88"/><polygon class="cls-34" points="180 293.73 174.22 290.37 192.8 279.64 198.58 283 180 293.73"/><path class="cls-35" d="M299.9,534.36l18.59-10.73.05,19.16L300,553.52Zm17.88,8,0-17.41-17.07,9.85,0,17.41,17.07-9.85" transform="translate(-119.9 -240.64)"/></g><g class="cls-10"><polygon class="cls-14" points="147.59 286.64 148.61 286.04 148.61 288.82 147.58 289.42 147.59 286.64"/><polygon class="cls-20" points="75.97 245.29 77 244.69 148.61 286.04 147.59 286.64 75.97 245.29"/><polygon class="cls-12" points="147.59 286.64 147.58 289.42 75.96 248.07 75.97 245.29 147.59 286.64"/></g><g class="cls-10"><polygon class="cls-14" points="147.59 293.25 148.61 292.65 148.61 295.44 147.58 296.04 147.59 293.25"/><polygon class="cls-20" points="75.97 251.9 77 251.31 148.61 292.65 147.59 293.25 75.97 251.9"/><polygon class="cls-12" points="147.59 293.25 147.58 296.04 75.96 254.69 75.97 251.9 147.59 293.25"/></g><g class="cls-10"><polygon class="cls-14" points="147.59 299.87 148.61 299.27 148.61 302.06 147.58 302.65 147.59 299.87"/><polygon class="cls-20" points="75.97 258.52 77 257.92 148.61 299.27 147.59 299.87 75.97 258.52"/><polygon class="cls-12" points="147.59 299.87 147.58 302.65 75.96 261.31 75.97 258.52 147.59 299.87"/></g><g class="cls-10"><polygon class="cls-14" points="353.95 268.41 353.93 276.46 312.46 300.56 312.49 292.51 353.95 268.41"/><polygon class="cls-12" points="312.49 292.51 312.46 300.56 277.61 280.43 277.63 272.39 312.49 292.51"/><polygon class="cls-20" points="353.95 268.41 312.49 292.51 277.63 272.39 319.1 248.29 353.95 268.41"/></g><g class="cls-10"><polygon class="cls-2" points="353.99 229.5 353.88 268.64 312.42 292.74 312.53 253.59 353.99 229.5"/><polygon class="cls-11" points="312.53 253.59 312.42 292.74 277.57 272.62 277.68 233.47 312.53 253.59"/><polygon class="cls-6" points="353.99 229.5 312.53 253.59 277.68 233.47 319.14 209.38 353.99 229.5"/></g><g class="cls-10"><polygon class="cls-30" points="356.13 226.17 356.12 228.73 312.29 254.2 312.29 251.65 356.13 226.17"/><polygon class="cls-31" points="312.29 251.65 312.29 254.2 275.44 232.93 275.45 230.38 312.29 251.65"/><polygon class="cls-32" points="356.13 226.17 312.29 251.65 275.45 230.38 319.28 204.9 356.13 226.17"/></g><g class="cls-10"><polygon class="cls-11" points="353.97 205.97 353.91 225.76 312.45 249.85 312.5 230.07 353.97 205.97"/><polygon class="cls-14" points="312.5 230.07 312.45 249.85 277.59 229.73 277.65 209.95 312.5 230.07"/><polygon class="cls-2" points="353.97 205.97 312.5 230.07 277.65 209.95 319.11 185.85 353.97 205.97"/></g><g class="cls-10"><polygon class="cls-31" points="352.13 204.53 352.12 206.36 318.55 186.98 318.56 185.15 352.13 204.53"/><polygon class="cls-30" points="318.56 185.15 318.55 186.98 279.44 209.71 279.45 207.88 318.56 185.15"/><polygon class="cls-31" points="313.03 229.82 313.02 231.65 275.03 209.71 275.03 207.88 313.03 229.82"/><polygon class="cls-30" points="356.54 204.53 356.54 206.36 313.02 231.65 313.03 229.82 356.54 204.53"/><path class="cls-32" d="M438.45,423.23l38,21.94-43.51,25.29-38-21.94Zm-5.53,44.66L472,445.17l-33.57-19.38-39.11,22.73,33.57,19.38" transform="translate(-119.9 -240.64)"/></g><g class="cls-10"><polygon class="cls-18" points="319.36 240.61 318.89 240.34 318.87 232.73 319.33 233 319.36 240.61"/><polygon class="cls-17" points="319.33 233 318.87 232.73 324.84 229.29 325.3 229.56 319.33 233"/><polygon class="cls-16" points="325.3 229.56 325.32 237.16 319.36 240.61 319.33 233 325.3 229.56"/></g><g class="cls-10"><polygon class="cls-18" points="327.98 235.57 327.51 235.3 327.49 227.69 327.96 227.96 327.98 235.57"/><polygon class="cls-17" points="327.96 227.96 327.49 227.69 333.46 224.25 333.92 224.52 327.96 227.96"/><polygon class="cls-16" points="333.92 224.52 333.95 232.13 327.98 235.57 327.96 227.96 333.92 224.52"/></g><g class="cls-10"><polygon class="cls-18" points="336.6 230.68 336.13 230.41 336.11 222.8 336.57 223.07 336.6 230.68"/><polygon class="cls-17" points="336.57 223.07 336.11 222.8 342.08 219.36 342.54 219.63 336.57 223.07"/><polygon class="cls-16" points="342.54 219.63 342.57 227.24 336.6 230.68 336.57 223.07 342.54 219.63"/></g><g class="cls-10"><polygon class="cls-18" points="345.22 225.52 344.75 225.25 344.73 217.64 345.19 217.91 345.22 225.52"/><polygon class="cls-17" points="345.19 217.91 344.73 217.64 350.7 214.19 351.16 214.46 345.19 217.91"/><polygon class="cls-16" points="351.16 214.46 351.18 222.07 345.22 225.52 345.19 217.91 351.16 214.46"/></g><g class="cls-10"><polygon class="cls-18" points="319.8 262.31 318.91 261.8 318.9 256.43 319.78 256.94 319.8 262.31"/><polygon class="cls-17" points="319.78 256.94 318.9 256.43 349.38 238.83 350.26 239.34 319.78 256.94"/><polygon class="cls-16" points="350.26 239.34 350.28 244.71 319.8 262.31 319.78 256.94 350.26 239.34"/></g><g class="cls-10"><polygon class="cls-18" points="319.8 271.64 318.91 271.13 318.9 265.76 319.78 266.28 319.8 271.64"/><polygon class="cls-17" points="319.78 266.28 318.9 265.76 349.38 248.16 350.26 248.68 319.78 266.28"/><polygon class="cls-16" points="350.26 248.68 350.28 254.04 319.8 271.64 319.78 266.28 350.26 248.68"/></g><g class="cls-10"><polygon class="cls-18" points="319.8 280.98 318.91 280.46 318.9 275.09 319.78 275.61 319.8 280.98"/><polygon class="cls-17" points="319.78 275.61 318.9 275.09 349.38 257.49 350.26 258.01 319.78 275.61"/><polygon class="cls-16" points="350.26 258.01 350.28 263.38 319.8 280.98 319.78 275.61 350.26 258.01"/></g><g class="cls-10"><polygon class="cls-14" points="314.57 208.33 314.56 211.03 305.35 216.39 305.36 213.68 314.57 208.33"/><polygon class="cls-12" points="305.36 213.68 305.35 216.39 296.66 211.37 296.67 208.67 305.36 213.68"/><polygon class="cls-20" points="314.57 208.33 305.36 213.68 296.67 208.67 305.88 203.31 314.57 208.33"/></g><g class="cls-10"><polygon class="cls-14" points="331.21 198.68 331.2 201.39 321.99 206.74 322 204.04 331.21 198.68"/><polygon class="cls-12" points="322 204.04 321.99 206.74 313.3 201.73 313.31 199.02 322 204.04"/><polygon class="cls-20" points="331.21 198.68 322 204.04 313.31 199.02 322.52 193.67 331.21 198.68"/></g><path class="cls-29" d="M431.47,517.21c0,8.74-5.73,12.33-12.8,12.33s-12.8-3.59-12.8-12.33,5.73-27.47,12.8-27.47S431.47,508.48,431.47,517.21Z" transform="translate(-119.9 -240.64)"/><line class="cls-28" x1="298.6" y1="266.36" x2="298.6" y2="304.36"/><g class="cls-10"><g class="cls-36"><g class="cls-10"><path class="cls-37" d="M371.2,560.88v3.81c0,.07,0,.15,0,.22v-3.81c0-.07,0-.15,0-.22" transform="translate(-119.9 -240.64)"/><path class="cls-38" d="M371.2,561.11v3.81a8.56,8.56,0,0,1-.17,1.44v-3.81a8.55,8.55,0,0,0,.16-1.44" transform="translate(-119.9 -240.64)"/><path class="cls-39" d="M371,562.55v3.81a9.16,9.16,0,0,1-.41,1.42V564a9.14,9.14,0,0,0,.41-1.42" transform="translate(-119.9 -240.64)"/><path class="cls-40" d="M370.63,564v3.81a10.15,10.15,0,0,1-.67,1.43v-3.81a10.15,10.15,0,0,0,.67-1.43" transform="translate(-119.9 -240.64)"/><path class="cls-41" d="M370,565.39v3.81a11.83,11.83,0,0,1-1,1.5v-3.81a11.83,11.83,0,0,0,1-1.5" transform="translate(-119.9 -240.64)"/><path class="cls-42" d="M368.95,566.89v3.81a14.45,14.45,0,0,1-1.56,1.68v-3.81a14.47,14.47,0,0,0,1.56-1.68" transform="translate(-119.9 -240.64)"/><path class="cls-43" d="M367.39,568.57v3.81a19.46,19.46,0,0,1-3.18,2.36v-3.81a19.49,19.49,0,0,0,3.18-2.36" transform="translate(-119.9 -240.64)"/><path class="cls-44" d="M364.21,570.93v3.81l-.31.18a28.35,28.35,0,0,1-5.51,2.42v-3.81a28.47,28.47,0,0,0,5.51-2.42l.31-.18" transform="translate(-119.9 -240.64)"/><path class="cls-43" d="M358.39,573.53v3.81a36.21,36.21,0,0,1-4.76,1.18v-3.81a36.39,36.39,0,0,0,4.76-1.18" transform="translate(-119.9 -240.64)"/><path class="cls-42" d="M353.63,574.71v3.81c-1.05.19-2.12.34-3.21.45v-3.81c1.08-.11,2.15-.26,3.21-.45" transform="translate(-119.9 -240.64)"/><path class="cls-41" d="M350.43,575.16V579c-.92.09-1.85.15-2.79.19v-3.81q1.4,0,2.79-.19" transform="translate(-119.9 -240.64)"/><path class="cls-40" d="M347.64,575.35v3.81q-1.29,0-2.57,0v-3.81q1.29,0,2.57,0" transform="translate(-119.9 -240.64)"/><path class="cls-39" d="M345.07,575.36v3.81q-1.24,0-2.48-.13v-3.81c.82.07,1.65.11,2.48.13" transform="translate(-119.9 -240.64)"/><path class="cls-38" d="M342.59,575.23V579q-1.23-.1-2.44-.27V575q1.21.17,2.44.27" transform="translate(-119.9 -240.64)"/><path class="cls-37" d="M340.15,575v3.81q-1.26-.18-2.49-.43v-3.81q1.23.25,2.49.43" transform="translate(-119.9 -240.64)"/><path class="cls-45" d="M337.66,574.52v3.81q-1.33-.28-2.62-.64v-3.81q1.29.37,2.62.64" transform="translate(-119.9 -240.64)"/><path class="cls-46" d="M335,573.88v3.81c-1-.3-2.07-.64-3.05-1v-3.81c1,.39,2,.73,3.05,1" transform="translate(-119.9 -240.64)"/><path class="cls-47" d="M332,572.85v3.81a27.24,27.24,0,0,1-3.63-1.74c-5-2.86-7.43-6.62-7.42-10.37v-3.81c0,3.75,2.46,7.51,7.42,10.37a27.36,27.36,0,0,0,3.63,1.74" transform="translate(-119.9 -240.64)"/></g></g></g><path class="cls-48" d="M363.78,550.52c9.85,5.69,9.9,14.9.12,20.59s-25.7,5.68-35.55,0-9.9-14.9-.12-20.59S353.94,544.83,363.78,550.52Z" transform="translate(-119.9 -240.64)"/><path class="cls-14" d="M363.84,554.71l-.91-.5-.31-.16-.63-.31-.38-.17-.59-.26-.42-.17-.4-.16-.13,0c-.44-.17-.88-.33-1.33-.49l-.2-.06-1.2-.37-.2-.06-.24-.06-.76-.2-.47-.12-.84-.19-.32-.07-.09,0-.77-.15-.44-.08-1-.15-.24,0h0l-1.21-.15h-.13l-1.09-.11h0l-.4,0-.8-.05-.49,0-.73,0h-2.65l-.34,0-.85,0-.51,0-.81.07-.29,0-.19,0-1.27.15-.19,0-1.43.23-.14,0-.37.07-.66.13-.53.12-.64.15-.53.13-.63.17-.52.15-.61.19-.27.08-.19.07-1.1.39-.22.08c-.43.16-.84.33-1.25.51l-.32.15-.93.44-.34.17c-.39.2-.78.41-1.16.63l-.31.18-.28.18-.45.29-.4.27-.42.3-.38.28-.39.31-.35.29-.36.32-.15.13-.13.13q-.3.28-.57.57l-.19.2c-.23.25-.45.51-.65.76l0,0-.13.17c-.13.17-.25.33-.36.5l-.17.27-.28.45-.07.12-.1.19-.2.38-.15.32-.16.38-.07.17-.05.16-.12.37-.1.33c0,.12-.06.25-.09.37s0,.13,0,.2,0,.09,0,.14,0,.25-.06.38,0,.22,0,.33,0,.25,0,.38,0,.15,0,.22,0,.15,0,.22v4.14c0-.15,0-.29,0-.44s0-.26,0-.38,0-.22,0-.33,0-.25.06-.38,0-.22.07-.33.06-.25.09-.37l.1-.33.12-.37.12-.32.16-.38.15-.32.2-.38.17-.3.28-.45.17-.27c.11-.17.24-.33.36-.5l.15-.2c.2-.26.42-.51.65-.76l.19-.2q.27-.29.57-.56l.27-.25.36-.32.35-.29.39-.31.38-.28.42-.3.4-.27.46-.29.58-.36c.38-.22.76-.43,1.16-.63l.34-.17.93-.44.32-.15c.41-.18.83-.35,1.25-.51l.22-.08,1.1-.39.46-.15.62-.19.52-.15.63-.17.53-.13.64-.15.53-.12.66-.13.51-.09L340,555l.18,0,1.28-.15.48,0,.81-.07.51,0,.85,0,.48,0h2.51l.73,0,.5,0,.8.05.42,0,1.09.11h.13L352,555l.26,0,1,.15.44.08.77.15.41.09.84.19.47.12.76.2.43.12,1.2.37.2.06c.45.15.89.32,1.33.49l.53.21.42.17.59.26.38.17.63.31.31.16.91.5a19.51,19.51,0,0,1,3.92,2.92,14.18,14.18,0,0,1,1.16,1.28,12.09,12.09,0,0,1,.93,1.33,9.33,9.33,0,0,1,1.41,4.87V565.1C371.28,561.34,368.81,557.57,363.84,554.71Z" transform="translate(-119.9 -240.64)"/><path class="cls-14" d="M375.43,565.63c0,.15,0,.3,0,.45s0,.26,0,.38,0,.3-.07.44-.05.26-.08.39-.07.29-.1.43-.07.26-.11.39-.09.29-.14.43l-.14.38-.19.45-.17.37-.23.44-.2.36c-.1.18-.21.35-.32.52l-.2.31c-.13.19-.28.39-.42.58l-.19.25-.09.11-.48.57-.14.16c-.2.22-.4.43-.61.64l-.11.1-.51.48-.42.37L370,575l-.46.36-.44.33-.49.35-.47.32-.53.34-.68.42c-.44.25-.89.5-1.35.73l-.4.2-1.08.51-.38.17q-.72.31-1.46.6l-.25.09-1.29.45-.53.17-.72.22-.61.17-.73.2-.62.16-.75.17-.62.14-.77.15-.59.11c-.55.1-1.11.19-1.67.27l-.21,0-1.49.18-.56.05-1,.08-.59,0-1,0-.56,0-.86,0h-2.06l-.86,0-.57,0-.93-.06-.49,0-1.22-.12-.19,0-1.41-.18-.28,0-1.14-.18-.51-.09-.9-.17-.48-.1-1-.22-.55-.14-.89-.24-.5-.14-1.4-.44-.23-.07c-.53-.18-1-.37-1.55-.57l-.62-.25-.48-.2-.68-.31-.44-.2-.73-.36-.36-.18-1.06-.58a23.86,23.86,0,0,1-3.8-2.69,18.23,18.23,0,0,1-1.49-1.46q-.34-.37-.64-.75a13.22,13.22,0,0,1-1.89-3.14q-.17-.4-.3-.81a10.24,10.24,0,0,1-.53-3.28v4.14c0,4.39,2.88,8.78,8.66,12.13.35.2.7.39,1.06.58l.37.18.73.36.45.2.68.3.49.2.46.19.15.06c.51.2,1,.39,1.55.57l.23.07q.69.23,1.4.44l.23.07.28.07.89.24.55.14,1,.22.38.09.11,0,.89.17.51.1,1.13.18.28,0h0l1.41.18.19,0L342,586h0l.47,0,.93.06.58,0,.85,0h2.07l.86,0h.16l.4,0,1,0,.6,0,.95-.08.34,0,.23,0,1.49-.18.21,0c.56-.08,1.11-.17,1.67-.27l.16,0,.43-.08.77-.15.62-.14.75-.17.62-.16.73-.2.61-.17.72-.22.32-.1.22-.08,1.28-.45.25-.09q.74-.28,1.46-.6l.38-.17,1.08-.51.4-.2c.46-.24.91-.48,1.35-.73l.36-.21.32-.2.53-.34.47-.32.49-.35.44-.33.46-.36.41-.34.42-.37.17-.15.34-.33.11-.11c.21-.21.42-.42.61-.64l.14-.15.48-.57.09-.11,0,0,.15-.2c.15-.19.29-.38.42-.58l.2-.31c.11-.17.22-.35.32-.52l.09-.14.11-.22.23-.44.17-.37.19-.45.08-.2.06-.18c.05-.14.1-.28.14-.43s.08-.26.11-.39.07-.29.11-.43,0-.15.06-.23,0-.11,0-.16,0-.3.07-.44,0-.26,0-.39,0-.3,0-.45,0-.17,0-.26,0-.17,0-.26v-4.14C375.45,565.29,375.44,565.46,375.43,565.63Z" transform="translate(-119.9 -240.64)"/><path class="cls-11" d="M366.79,553c11.5,6.64,11.56,17.44.14,24.08s-30.07,6.64-41.57,0-11.56-17.44-.14-24.08S355.29,546.35,366.79,553ZM328.3,575.36c9.86,5.7,25.86,5.69,35.66,0s9.75-15-.11-20.66-25.86-5.7-35.66,0-9.75,15,.12,20.66" transform="translate(-119.9 -240.64)"/><path class="cls-2" d="M322.9,563.8c0-.1,0-.2,0-.3s0-.23.05-.35,0-.2.06-.31.05-.23.08-.34l.09-.31.11-.34.11-.3.15-.35.14-.29.18-.35.16-.28.26-.41.16-.25.33-.46L325,559c.19-.24.39-.47.6-.7l.17-.18.52-.52.25-.23.33-.29.32-.27.36-.28.35-.26.39-.27.37-.25.42-.26.54-.33c.35-.2.7-.39,1.06-.58l.32-.16.86-.4.3-.13c.38-.16.76-.32,1.15-.47l.2-.07,1-.36.42-.14.57-.17.48-.14.58-.16.49-.12.59-.14.49-.11.61-.12.47-.09,1.31-.21.17,0,1.17-.14.44,0,.75-.06.47,0,.78,0,.44,0H347l.69,0,.44,0,.75.05.37,0,1,.1h.09l1.11.14.24,0,.88.14.4.08.71.13.38.08.77.17.43.11.7.19.4.11,1.11.34.18.06c.42.14.82.29,1.23.45l.49.2.38.16.54.24.35.16.58.29.29.14.83.46a15.78,15.78,0,0,1,5.14,4.48,10.36,10.36,0,0,1,.75,1.24,9.09,9.09,0,0,1,.53,1.27,8.1,8.1,0,0,1,.42,2.59v-3.81c0-3.47-2.27-6.94-6.84-9.57l-.83-.46-.28-.14-.58-.29-.35-.16-.54-.24-.39-.16-.36-.15-.12,0q-.6-.24-1.23-.45l-.18-.06-1.11-.34-.18-.06-.22-.06-.7-.19-.43-.11-.77-.17-.29-.07-.09,0-.71-.13-.4-.08-.88-.14-.23,0h0l-1.11-.14h-.09l-1-.1h0l-.35,0-.76-.05-.46,0-.67,0h-2.44l-.31,0-.78,0-.47,0-.75.06-.26,0-.18,0-1.17.14-.17,0-1.31.21-.13,0-.34.07-.61.12-.49.11-.59.14-.49.12-.58.15-.48.14-.56.17-.25.08-.17.06-1,.35-.2.07q-.59.22-1.15.47l-.3.13-.85.4-.32.16c-.36.19-.72.38-1.06.58l-.28.17-.26.16-.42.27-.37.25-.39.27-.35.26-.36.28-.32.27-.33.29-.13.12-.12.12-.52.52-.17.18c-.21.23-.41.46-.6.7l0,0-.12.16-.33.46-.16.25-.26.41-.07.11-.09.17-.18.35-.14.29-.15.35-.07.16,0,.14-.11.34-.09.31c0,.11-.06.23-.08.34s0,.12,0,.18,0,.08,0,.13,0,.23-.05.35,0,.2,0,.31,0,.23,0,.35,0,.14,0,.21,0,.14,0,.2v3.81c0-.14,0-.27,0-.41S322.89,563.91,322.9,563.8Z" transform="translate(-119.9 -240.64)"/><path class="cls-2" d="M373.09,561.37c0,.14,0,.27,0,.41s0,.24,0,.36,0,.27-.06.41,0,.24-.07.36-.06.26-.1.4-.07.24-.1.36-.08.26-.13.39l-.13.35-.17.41-.16.34-.21.41-.18.33-.3.48-.19.29c-.12.18-.25.36-.39.53l-.18.24-.09.11-.44.52-.13.14q-.27.3-.57.59l-.1.1-.47.44-.39.34-.37.31-.42.33-.4.3-.45.32-.43.29-.49.31-.63.38c-.4.23-.82.46-1.24.67l-.37.18-1,.47-.35.16q-.66.29-1.35.55l-.24.09-1.18.41-.49.16-.66.2-.56.16-.67.18-.57.14-.69.16-.58.13-.7.14-.55.1-1.53.24-.21,0-1.36.16-.52.05-.87.07-.55,0-.91,0-.51,0-.79,0h-1.9l-.79,0-.53,0-.87-.06-.45,0-1.18-.12H341l-1.29-.16-.28,0-1-.16-.48-.09-.82-.16-.45-.1-.9-.2-.51-.13-.82-.22-.46-.13-1.29-.4-.21-.07q-.73-.25-1.43-.52l-.57-.23-.44-.18-.63-.28-.41-.19-.67-.33-.33-.17-1-.53c-5.33-3.08-8-7.12-8-11.16v3.81c0,4,2.65,8.09,8,11.16l1,.53.33.17.68.34.41.19.63.28.45.19.42.18.14.05c.47.18.94.36,1.43.52l.21.07,1.29.4.21.07.25.07.82.22.5.13.9.2.34.08.1,0,.83.16.47.09,1,.16.26,0h0L341,580H341l1.24.12h0l.41,0,.89.06.52,0,.79,0h1.9l.8,0h.14l.36,0,.92,0,.55,0,.87-.07.31,0,.21,0,1.37-.16.2,0c.51-.07,1-.15,1.53-.24l.15,0,.4-.08.71-.14.57-.12.69-.16.57-.14.68-.18.56-.16.66-.2.29-.09.2-.07,1.18-.41.23-.08q.69-.26,1.35-.55l.35-.16,1-.47.37-.18c.42-.22.84-.44,1.24-.67l.33-.19.3-.19.49-.31.43-.29.45-.32.4-.3.42-.33.37-.31.39-.34L369,573l.31-.3.1-.1q.29-.29.56-.59l.13-.14.44-.52.09-.11,0,0,.14-.19c.13-.18.27-.35.39-.53l.19-.29c.1-.16.2-.32.3-.48l.08-.13.1-.2.21-.41.16-.34.17-.41.08-.18.06-.17.13-.39c0-.12.07-.24.1-.36s.07-.26.1-.4,0-.14.05-.21,0-.1,0-.15,0-.27.06-.41,0-.24,0-.36,0-.27,0-.41,0-.16,0-.24,0-.16,0-.24v-3.81C373.12,561.05,373.1,561.21,373.09,561.37Z" transform="translate(-119.9 -240.64)"/><path class="cls-49" d="M365.14,549.73c10.59,6.11,10.64,16.05.12,22.16s-27.68,6.11-38.27,0-10.64-16.06-.12-22.17S354.55,543.62,365.14,549.73Zm-35.43,20.59c9.08,5.24,23.8,5.24,32.83,0s9-13.77-.11-19-23.81-5.24-32.83,0-9,13.77.11,19" transform="translate(-119.9 -240.64)"/><g class="cls-10"><g class="cls-50"><g class="cls-10"><path class="cls-51" d="M353,556.21l0,9.58a3.48,3.48,0,0,0-2-2.87,7.58,7.58,0,0,0-1-.48l0-9.58a7.45,7.45,0,0,1,1,.48,3.48,3.48,0,0,1,2,2.87" transform="translate(-119.9 -240.64)"/><path class="cls-52" d="M350,552.86l0,9.58c-.27-.11-.55-.2-.84-.29l0-9.58c.29.08.57.18.84.29" transform="translate(-119.9 -240.64)"/><path class="cls-53" d="M349.13,552.58l0,9.58-.73-.18,0-9.58.73.18" transform="translate(-119.9 -240.64)"/><path class="cls-54" d="M348.41,552.4l0,9.58-.69-.12,0-9.58.69.12" transform="translate(-119.9 -240.64)"/><path class="cls-55" d="M347.72,552.28l0,9.58-.68-.08,0-9.58.68.08" transform="translate(-119.9 -240.64)"/><path class="cls-56" d="M347,552.21l0,9.58-.69,0,0-9.58.69,0" transform="translate(-119.9 -240.64)"/><path class="cls-57" d="M346.35,552.17l0,9.58h-.71l0-9.58h.71" transform="translate(-119.9 -240.64)"/><path class="cls-58" d="M345.64,552.17l0,9.58-.77.05,0-9.58.77-.05" transform="translate(-119.9 -240.64)"/><path class="cls-2" d="M344.87,552.22l0,9.58c-.3,0-.6.07-.89.12l0-9.58c.29-.05.59-.09.89-.12" transform="translate(-119.9 -240.64)"/><path class="cls-59" d="M344,552.35l0,9.58a10.09,10.09,0,0,0-1.31.33l0-9.58a9.91,9.91,0,0,1,1.31-.33" transform="translate(-119.9 -240.64)"/><path class="cls-60" d="M342.66,552.67l0,9.58a7.81,7.81,0,0,0-1.52.67l-.08,0,0-9.58.08-.05a7.81,7.81,0,0,1,1.52-.67" transform="translate(-119.9 -240.64)"/><path class="cls-59" d="M341.06,553.39l0,9.58a5.32,5.32,0,0,0-.88.65l0-9.58a5.36,5.36,0,0,1,.88-.65" transform="translate(-119.9 -240.64)"/><path class="cls-2" d="M340.19,554l0,9.58a4,4,0,0,0-.43.46l0-9.58a4,4,0,0,1,.43-.46" transform="translate(-119.9 -240.64)"/><path class="cls-58" d="M339.75,554.5l0,9.58a3.24,3.24,0,0,0-.28.41l0-9.58a3.28,3.28,0,0,1,.28-.42" transform="translate(-119.9 -240.64)"/><path class="cls-57" d="M339.48,554.92l0,9.58a2.8,2.8,0,0,0-.19.4l0-9.58a2.84,2.84,0,0,1,.19-.4" transform="translate(-119.9 -240.64)"/><path class="cls-56" d="M339.29,555.31l0,9.58a2.54,2.54,0,0,0-.11.39l0-9.58a2.52,2.52,0,0,1,.11-.39" transform="translate(-119.9 -240.64)"/><path class="cls-55" d="M339.18,555.71l0,9.58a2.41,2.41,0,0,0,0,.4l0-9.58a2.38,2.38,0,0,1,0-.4" transform="translate(-119.9 -240.64)"/><path class="cls-54" d="M339,556v0" transform="translate(-119.9 -240.64)"/></g></g></g><g class="cls-10"><g class="cls-61"><g class="cls-10"><path class="cls-62" d="M342.18,559.51l0,9.58a7.45,7.45,0,0,1-1-.48,3.48,3.48,0,0,1-2-2.87l0-9.58a3.48,3.48,0,0,0,2,2.87,7.58,7.58,0,0,0,1,.48" transform="translate(-119.9 -240.64)"/></g></g></g><g class="cls-10"><g class="cls-63"><g class="cls-10"><path class="cls-64" d="M353,556.67l0,9.58a2.55,2.55,0,0,1-.11.39l0-9.58a2.52,2.52,0,0,0,.11-.39" transform="translate(-119.9 -240.64)"/><path class="cls-65" d="M352.86,557.06l0,9.58a2.84,2.84,0,0,1-.19.4l0-9.58a2.82,2.82,0,0,0,.19-.4" transform="translate(-119.9 -240.64)"/><path class="cls-66" d="M352.68,557.46l0,9.58a3.24,3.24,0,0,1-.28.42l0-9.58a3.28,3.28,0,0,0,.28-.42" transform="translate(-119.9 -240.64)"/><path class="cls-67" d="M352.4,557.87l0,9.58a4.1,4.1,0,0,1-.43.46l0-9.58a4,4,0,0,0,.43-.46" transform="translate(-119.9 -240.64)"/><path class="cls-68" d="M352,558.34l0,9.58a5.39,5.39,0,0,1-.88.65l0-9.58a5.39,5.39,0,0,0,.88-.65" transform="translate(-119.9 -240.64)"/><path class="cls-69" d="M351.09,559l0,9.58-.08,0a7.78,7.78,0,0,1-1.52.67l0-9.58A7.85,7.85,0,0,0,351,559l.08,0" transform="translate(-119.9 -240.64)"/><path class="cls-68" d="M349.49,559.7l0,9.58a10.13,10.13,0,0,1-1.32.33l0-9.58a10.09,10.09,0,0,0,1.32-.33" transform="translate(-119.9 -240.64)"/><path class="cls-67" d="M348.17,560l0,9.58c-.29.05-.59.09-.89.12l0-9.58q.45,0,.89-.12" transform="translate(-119.9 -240.64)"/><path class="cls-66" d="M347.29,560.15l0,9.58-.77.05,0-9.58.77-.05" transform="translate(-119.9 -240.64)"/><path class="cls-65" d="M346.51,560.2l0,9.58h-.71l0-9.58h.71" transform="translate(-119.9 -240.64)"/><path class="cls-64" d="M345.8,560.21l0,9.58-.69,0,0-9.58.69,0" transform="translate(-119.9 -240.64)"/><path class="cls-70" d="M345.11,560.17l0,9.58-.68-.08,0-9.58.68.08" transform="translate(-119.9 -240.64)"/><path class="cls-71" d="M344.44,560.09l0,9.58-.69-.12,0-9.58.69.12" transform="translate(-119.9 -240.64)"/><path class="cls-72" d="M343.75,560l0,9.58-.73-.18,0-9.58c.24.07.48.13.72.18" transform="translate(-119.9 -240.64)"/><path class="cls-73" d="M343,559.8l0,9.58c-.29-.08-.57-.18-.84-.29l0-9.58a8.82,8.82,0,0,0,.84.28" transform="translate(-119.9 -240.64)"/><path class="cls-62" d="M342.18,559.51l0,9.58a7.45,7.45,0,0,1-1-.48,3.48,3.48,0,0,1-2-2.87l0-9.58a3.48,3.48,0,0,0,2,2.87,7.58,7.58,0,0,0,1,.48" transform="translate(-119.9 -240.64)"/></g></g></g><path class="cls-2" d="M355.1,556.21l0,9.58c0,1.33-.88,2.66-2.62,3.67a14.08,14.08,0,0,1-12.77,0c-1.78-1-2.66-2.37-2.66-3.72l0-9.58c0,1.35.88,2.7,2.66,3.72a14.08,14.08,0,0,0,12.76,0C354.22,558.87,355.1,557.54,355.1,556.21Z" transform="translate(-119.9 -240.64)"/><g class="cls-74"><g class="cls-10"><path class="cls-2" d="M355,556.21l0,9.58s0,.05,0,.08V556" transform="translate(-119.9 -240.64)"/><path class="cls-2" d="M355.1,556.29l0,9.58a3.11,3.11,0,0,1-.06.52l0-9.58a3.12,3.12,0,0,0,.06-.52" transform="translate(-119.9 -240.64)"/><path class="cls-2" d="M355,556.81l0,9.58a3.32,3.32,0,0,1-.15.51l0-9.58a3.33,3.33,0,0,0,.15-.51" transform="translate(-119.9 -240.64)"/><path class="cls-2" d="M354.89,557.32l0,9.58a3.7,3.7,0,0,1-.24.51l0-9.58a3.71,3.71,0,0,0,.24-.51" transform="translate(-119.9 -240.64)"/><path class="cls-2" d="M354.65,557.84l0,9.58a4.34,4.34,0,0,1-.36.54l0-9.58a4.2,4.2,0,0,0,.36-.54" transform="translate(-119.9 -240.64)"/><path class="cls-2" d="M354.29,558.38l0,9.58a5.19,5.19,0,0,1-.56.6l0-9.58a5.26,5.26,0,0,0,.56-.6" transform="translate(-119.9 -240.64)"/><path class="cls-2" d="M353.73,559l0,9.58a7,7,0,0,1-1.14.84l0-9.58a7,7,0,0,0,1.14-.84" transform="translate(-119.9 -240.64)"/><path class="cls-2" d="M352.59,559.82l0,9.58-.11.06a10.18,10.18,0,0,1-2,.87l0-9.58a10.19,10.19,0,0,0,2-.87l.11-.06" transform="translate(-119.9 -240.64)"/><path class="cls-2" d="M350.51,560.75l0,9.58a13.1,13.1,0,0,1-1.71.43l0-9.58a13.1,13.1,0,0,0,1.71-.43" transform="translate(-119.9 -240.64)"/><path class="cls-2" d="M348.8,561.18l0,9.58q-.57.1-1.15.16l0-9.58c.39,0,.77-.09,1.15-.16" transform="translate(-119.9 -240.64)"/><path class="cls-2" d="M347.65,561.34l0,9.58c-.33,0-.67.06-1,.07l0-9.58q.5,0,1-.07" transform="translate(-119.9 -240.64)"/><path class="cls-2" d="M346.64,561.4l0,9.58h-.93l0-9.58h.93" transform="translate(-119.9 -240.64)"/><path class="cls-2" d="M345.72,561.41l0,9.58-.89,0,0-9.58.89,0" transform="translate(-119.9 -240.64)"/><path class="cls-2" d="M344.83,561.36l0,9.58-.88-.1,0-9.58.88.1" transform="translate(-119.9 -240.64)"/><path class="cls-2" d="M343.95,561.26l0,9.58c-.3,0-.6-.09-.9-.16l0-9.58q.44.09.9.16" transform="translate(-119.9 -240.64)"/><path class="cls-2" d="M343.05,561.11l0,9.58c-.32-.07-.63-.14-.94-.23l0-9.58c.31.09.62.16.94.23" transform="translate(-119.9 -240.64)"/><path class="cls-2" d="M342.11,560.88l0,9.58c-.38-.11-.74-.23-1.09-.37l0-9.58c.35.14.72.26,1.09.37" transform="translate(-119.9 -240.64)"/><path class="cls-2" d="M341,560.51l0,9.58a9.67,9.67,0,0,1-1.3-.62c-1.78-1-2.66-2.37-2.66-3.72l0-9.58c0,1.35.88,2.7,2.66,3.72a9.65,9.65,0,0,0,1.3.62" transform="translate(-119.9 -240.64)"/></g></g><path class="cls-49" d="M352.44,552.49c3.53,2,3.55,5.36,0,7.39a14.08,14.08,0,0,1-12.76,0c-3.53-2-3.55-5.35,0-7.39A14.09,14.09,0,0,1,352.44,552.49ZM341.18,559a10.85,10.85,0,0,0,9.83,0c2.7-1.57,2.68-4.12,0-5.69a10.85,10.85,0,0,0-9.83,0c-2.7,1.57-2.69,4.12,0,5.69" transform="translate(-119.9 -240.64)"/><path class="cls-48" d="M351,553.34c2.72,1.57,2.73,4.12,0,5.69a10.85,10.85,0,0,1-9.83,0c-2.72-1.57-2.73-4.12,0-5.69A10.85,10.85,0,0,1,351,553.34Z" transform="translate(-119.9 -240.64)"/><g class="cls-10"><g class="cls-75"><g class="cls-10"><path class="cls-51" d="M349,550.86v4.05a1.47,1.47,0,0,0-.86-1.21,3.16,3.16,0,0,0-.42-.2v-4.05a3.16,3.16,0,0,1,.42.2,1.47,1.47,0,0,1,.86,1.21" transform="translate(-119.9 -240.64)"/><path class="cls-52" d="M347.72,549.44v4.05l-.36-.12v-4.05l.36.12" transform="translate(-119.9 -240.64)"/><path class="cls-53" d="M347.37,549.32v4.05l-.31-.08v-4.05l.31.08" transform="translate(-119.9 -240.64)"/><path class="cls-54" d="M347.06,549.25v4.05l-.29-.05V549.2l.29.05" transform="translate(-119.9 -240.64)"/><path class="cls-55" d="M346.77,549.2v4.05l-.29,0v-4.05l.29,0" transform="translate(-119.9 -240.64)"/><path class="cls-56" d="M346.48,549.16v4.05l-.29,0v-4.05l.29,0" transform="translate(-119.9 -240.64)"/><path class="cls-57" d="M346.19,549.15v4.05h-.3v-4.05h.3" transform="translate(-119.9 -240.64)"/><path class="cls-58" d="M345.89,549.15v4.05l-.33,0v-4.05l.33,0" transform="translate(-119.9 -240.64)"/><path class="cls-2" d="M345.56,549.17v4.05l-.38.05v-4.05l.38-.05" transform="translate(-119.9 -240.64)"/><path class="cls-59" d="M345.18,549.22v4.05a4.11,4.11,0,0,0-.56.14v-4.05a4.38,4.38,0,0,1,.56-.14" transform="translate(-119.9 -240.64)"/><path class="cls-60" d="M344.62,549.36v4.05a3.28,3.28,0,0,0-.64.28l0,0v-4.05l0,0a3.35,3.35,0,0,1,.64-.28" transform="translate(-119.9 -240.64)"/><path class="cls-59" d="M343.95,549.67v4.05a2.24,2.24,0,0,0-.37.27v-4.05a2.25,2.25,0,0,1,.37-.27" transform="translate(-119.9 -240.64)"/><path class="cls-2" d="M343.58,549.94V554a1.73,1.73,0,0,0-.18.2v-4.05a1.77,1.77,0,0,1,.18-.2" transform="translate(-119.9 -240.64)"/><path class="cls-58" d="M343.39,550.13v4.05l-.12.18v-4.05a1.33,1.33,0,0,1,.12-.18" transform="translate(-119.9 -240.64)"/><path class="cls-57" d="M343.28,550.31v4.05a1.24,1.24,0,0,0-.08.17v-4.05a1.17,1.17,0,0,1,.08-.17" transform="translate(-119.9 -240.64)"/><path class="cls-56" d="M343.2,550.48v4.05a1.07,1.07,0,0,0,0,.17v-4.05a1.13,1.13,0,0,1,0-.17" transform="translate(-119.9 -240.64)"/><path class="cls-55" d="M343.15,550.64v4.05a1,1,0,0,0,0,.17v-4.05a1,1,0,0,1,0-.17" transform="translate(-119.9 -240.64)"/><path class="cls-54" d="M342,551v0" transform="translate(-119.9 -240.64)"/></g></g></g><g class="cls-10"><g class="cls-76"><g class="cls-10"><path class="cls-71" d="M349,551v0" transform="translate(-119.9 -240.64)"/><path class="cls-70" d="M349,550.88v4.05a1,1,0,0,1,0,.17v-4.05a1,1,0,0,0,0-.17" transform="translate(-119.9 -240.64)"/><path class="cls-64" d="M349,551.05v4.05a1.13,1.13,0,0,1,0,.17v-4.05a1.08,1.08,0,0,0,0-.17" transform="translate(-119.9 -240.64)"/><path class="cls-65" d="M348.94,551.22v4.05a1.18,1.18,0,0,1-.08.17v-4.05a1.2,1.2,0,0,0,.08-.17" transform="translate(-119.9 -240.64)"/><path class="cls-66" d="M348.86,551.38v4.05a1.34,1.34,0,0,1-.12.18v-4.05l.12-.18" transform="translate(-119.9 -240.64)"/><path class="cls-67" d="M348.75,551.56v4.05a1.66,1.66,0,0,1-.18.2v-4.05a1.79,1.79,0,0,0,.18-.2" transform="translate(-119.9 -240.64)"/><path class="cls-68" d="M348.56,551.76v4.05a2.23,2.23,0,0,1-.37.27V552a2.27,2.27,0,0,0,.37-.27" transform="translate(-119.9 -240.64)"/><path class="cls-69" d="M348.19,552v4.05l0,0a3.35,3.35,0,0,1-.64.28v-4.05a3.35,3.35,0,0,0,.64-.28l0,0" transform="translate(-119.9 -240.64)"/></g></g></g><g class="cls-10"><g class="cls-77"><g class="cls-10"><path class="cls-69" d="M348.19,552v4.05l0,0a3.35,3.35,0,0,1-.64.28v-4.05a3.35,3.35,0,0,0,.64-.28l0,0" transform="translate(-119.9 -240.64)"/><path class="cls-68" d="M347.51,552.34v4.05a4.36,4.36,0,0,1-.56.14v-4.05a4.36,4.36,0,0,0,.56-.14" transform="translate(-119.9 -240.64)"/><path class="cls-67" d="M347,552.47v4.05l-.38.05v-4.05l.38-.05" transform="translate(-119.9 -240.64)"/><path class="cls-66" d="M346.58,552.53v4.05l-.33,0v-4.05l.33,0" transform="translate(-119.9 -240.64)"/><path class="cls-65" d="M346.25,552.55v4.05h-.3v-4.05h.3" transform="translate(-119.9 -240.64)"/><path class="cls-64" d="M346,552.55v4.05l-.29,0v-4.05l.29,0" transform="translate(-119.9 -240.64)"/><path class="cls-70" d="M345.66,552.53v4.05l-.29,0V552.5l.29,0" transform="translate(-119.9 -240.64)"/><path class="cls-71" d="M345.38,552.5v4.05l-.29-.05v-4.05l.29.05" transform="translate(-119.9 -240.64)"/><path class="cls-72" d="M345.08,552.45v4.05l-.31-.08v-4.05l.31.08" transform="translate(-119.9 -240.64)"/><path class="cls-73" d="M344.78,552.38v4.05l-.36-.12v-4.05l.36.12" transform="translate(-119.9 -240.64)"/><path class="cls-62" d="M344.42,552.26v4.05a3.15,3.15,0,0,1-.42-.2,1.47,1.47,0,0,1-.87-1.21v-4.05a1.47,1.47,0,0,0,.87,1.22,3.18,3.18,0,0,0,.42.2" transform="translate(-119.9 -240.64)"/></g></g></g><path class="cls-48" d="M348.15,549.64a1.27,1.27,0,0,1,0,2.41,4.59,4.59,0,0,1-4.16,0,1.27,1.27,0,0,1,0-2.41A4.6,4.6,0,0,1,348.15,549.64Z" transform="translate(-119.9 -240.64)"/><path class="cls-2" d="M349.88,551s0,.08,0,.12l0,.1,0,.11,0,.09-.06.12-.05.08-.09.13-.06.08-.16.17-.06.06-.12.1-.11.08-.14.09-.14.09a4,4,0,0,1-.53.25l-.15.06-.36.11-.38.1-.47.08h-.11a6.16,6.16,0,0,1-.64,0H346a6.24,6.24,0,0,1-.63,0h-.1c-.21,0-.41-.05-.61-.1l-.11,0a5.33,5.33,0,0,1-.53-.16l-.1,0a4.26,4.26,0,0,1-.58-.27,1.91,1.91,0,0,1-1.12-1.58v4.05a1.91,1.91,0,0,0,1.12,1.58,4.18,4.18,0,0,0,.55.26h0l.1,0,.33.11.19,0,.11,0,.1,0,.38.07.14,0h.23c.13,0,.25,0,.38,0s.08-.06.12-.06h.1c.06,0,.11.06.17.05s.28,0,.43,0h.16l.33,0,.14,0,.38-.09.2,0,.15-.06.15-.06a3.94,3.94,0,0,0,.53-.25l0,0,.1-.07.14-.09.11-.08.12-.1,0,0,0,0,.16-.17,0,0,0,0,.09-.13,0-.06v0l.06-.12,0-.07v0l0-.11,0-.08v0s-.43-.08-.42-.12-.43-.05-.43-.08v0l.45-4.05S349.88,550.93,349.88,551Z" transform="translate(-119.9 -240.64)"/><path class="cls-49" d="M348.76,549.28c1.49.86,1.5,2.27,0,3.13a6,6,0,0,1-5.4,0c-1.49-.86-1.5-2.27,0-3.13A6,6,0,0,1,348.76,549.28ZM344,552.05a4.59,4.59,0,0,0,4.16,0,1.27,1.27,0,0,0,0-2.41,4.6,4.6,0,0,0-4.16,0,1.27,1.27,0,0,0,0,2.41" transform="translate(-119.9 -240.64)"/><path class="cls-29" d="M330.52,565c0,9.44-6.19,13.31-13.83,13.31s-13.83-3.88-13.83-13.31,6.19-29.67,13.83-29.67S330.52,555.55,330.52,565Z" transform="translate(-119.9 -240.64)"/><line class="cls-27" x1="197.1" y1="313.36" x2="197.1" y2="354.36"/></g></g></g></svg>