<?xml version="1.0" encoding="utf-8"?>
<!-- Generator: Adobe Illustrator 21.1.0, SVG Export Plug-In . SVG Version: 6.00 Build 0)  -->
<svg version="1.1" id="Layer_1" xmlns="http://www.w3.org/2000/svg" xmlns:xlink="http://www.w3.org/1999/xlink" x="0px" y="0px"
	 viewBox="0 0 800 800" style="enable-background:new 0 0 800 800;" xml:space="preserve">
<style type="text/css">
	.st0{fill:#1B75BC;}
	.st1{fill:#27AAE1;}
	.st2{fill:#FFFFFF;}
	.st3{fill:none;stroke:#1B75BC;stroke-width:4;stroke-linecap:round;stroke-linejoin:round;stroke-miterlimit:10;}
	.st4{fill:none;stroke:#1B75BC;stroke-width:3;stroke-linecap:round;stroke-linejoin:round;stroke-miterlimit:10;}
	.st5{fill:#27AAE1;stroke:#1B75BC;stroke-width:4;stroke-linecap:round;stroke-linejoin:round;stroke-miterlimit:10;}
	.st6{fill:#FFFFFF;stroke:#1B75BC;stroke-width:4;stroke-linecap:round;stroke-linejoin:round;stroke-miterlimit:10;}
	.st7{fill:#1B75BC;stroke:#1B75BC;stroke-width:4;stroke-linecap:round;stroke-linejoin:round;stroke-miterlimit:10;}
	.st8{fill:#27AAE1;stroke:#1B75BC;stroke-miterlimit:10;}
	.st9{fill:#FFFFFF;stroke:#1B75BC;stroke-miterlimit:10;}
	.st10{fill:#27AAE1;stroke:#1B75BC;stroke-width:3;stroke-linecap:round;stroke-linejoin:round;stroke-miterlimit:10;}
	.st11{fill:#1B75BC;stroke:#1B75BC;stroke-width:3;stroke-linecap:round;stroke-linejoin:round;stroke-miterlimit:10;}
	.st12{fill:#FFFFFF;stroke:#1B75BC;stroke-width:3;stroke-linecap:round;stroke-linejoin:round;stroke-miterlimit:10;}
	
		.st13{fill:none;stroke:#1B75BC;stroke-width:3;stroke-linecap:round;stroke-linejoin:round;stroke-miterlimit:10;stroke-dasharray:8;}
</style>
<g id="OBJECTS">
	<g>
		<g>
			<g>
				<g>
					<g id="XMLID_1_">
						<g>
							<path class="st0" d="M738,527.6L738,527.6c0,5.8-4.2,12-12.5,16.7L360.3,755.2c-15.1,8.7-38.1,9.7-51.1,2.1l-190.7-110
								c-5.9-3.4-8.8-8-8.8-12.8v-34.4c0,4.8,2.9,9.4,8.8,12.8l6,3.5L309.2,723c13.1,7.5,36.1,6.6,51.1-2.1l362.9-209.5l2.4-1.4
								c8.1-4.7,12.3-10.6,12.5-16.3L738,527.6z"/>
							<path class="st1" d="M738,492.9v0.7c-0.2,5.7-4.4,11.7-12.5,16.3l-2.4,1.4L360.3,720.8c-15.1,8.7-38.1,9.6-51.1,2.1
								L124.6,616.4l-6-3.5c-5.9-3.4-8.8-8-8.8-12.8c0-5.8,4.2-12,12.5-16.7l365.2-210.9c15.1-8.7,38.1-9.7,51.2-2.1l190.6,110.1
								C735,483.8,737.9,488.2,738,492.9z M381,682.5l306.6-177L505.8,400.6l-10.6-6.1L286.1,515.2l-97.4,56.2l6.8,4l6.5,3.7
								L381,682.5z M647.6,466.3l12.4-7.2l-84.6-48.9l-12.4,7.2L647.6,466.3z M263.7,654.8c9-5.2,9-13.7,0-18.9
								c-9.1-5.2-23.7-5.2-32.8,0s-9.1,13.7,0,18.9C240,660,254.7,660,263.7,654.8z"/>
							<polygon class="st2" points="687.5,505.5 381,682.5 202,579.2 195.5,575.4 188.7,571.5 286.1,515.2 495.3,394.5 505.8,400.6 
															"/>
							<polygon class="st2" points="660.1,459.2 647.6,466.3 563,417.5 575.5,410.3 							"/>
							<path class="st2" d="M263.7,635.9c9,5.2,9,13.7,0,18.9c-9.1,5.2-23.7,5.2-32.8,0s-9.1-13.7,0-18.9
								C240,630.7,254.7,630.7,263.7,635.9z"/>
						</g>
						<g>
							<path class="st3" d="M109.8,600.1v34.4c0,4.8,2.9,9.4,8.8,12.8l190.6,110.1c13.1,7.5,36.1,6.6,51.1-2.1l365.2-210.8
								c8.2-4.8,12.5-10.9,12.5-16.7l0,0v-34"/>
							<path class="st3" d="M109.8,600.1c0,4.8,2.9,9.4,8.8,12.8l6,3.5L309.2,723c13.1,7.5,36.1,6.6,51.1-2.1l362.9-209.5l2.4-1.4
								c8.1-4.7,12.3-10.6,12.5-16.3V493c-0.1-4.7-3-9.1-8.8-12.5L538.6,370.4c-13.1-7.5-36.1-6.6-51.2,2.1L122.2,583.4
								C114,588.1,109.8,594.3,109.8,600.1z"/>
							<polygon class="st3" points="660.1,459.2 647.6,466.3 563,417.5 575.5,410.3 							"/>
							<polygon class="st3" points="202,579.2 195.5,575.4 188.7,571.5 286.1,515.2 495.3,394.5 505.8,400.6 687.5,505.5 381,682.5 
															"/>
							<path class="st3" d="M263.7,654.8c9-5.2,9-13.7,0-18.9c-9.1-5.2-23.7-5.2-32.8,0s-9.1,13.7,0,18.9
								C240,660,254.7,660,263.7,654.8z"/>
						</g>
					</g>
				</g>
				<g>
					<g>
						<g id="XMLID_5_">
							<g>
								<polygon class="st2" points="630.5,325.2 597.8,344.1 495.6,285.1 528.6,265.8 								"/>
								<polygon class="st2" points="651.9,364.9 604.8,392.1 474.1,316.7 495.6,304 495.6,318.8 597.8,377.8 630.5,358.9 
									630.5,352.5 								"/>
								<polygon class="st1" points="597.8,344.1 597.8,377.8 495.6,318.8 495.6,304 495.6,285.1 								"/>
								<polygon class="st1" points="474.6,329.5 474.6,340 474.1,340 474.1,316.7 604.8,392.1 604.8,392.1 604.8,404.7 								"/>
								<polygon class="st1" points="474.6,353.9 474.6,364.4 474.1,364.4 474.1,340 474.6,340 604.8,415.1 604.8,415.2 
									604.8,429.1 								"/>
								<polygon class="st1" points="474.6,378.3 474.6,388.8 474.1,388.8 474.1,364.4 474.6,364.4 604.8,439.6 604.8,439.6 
									604.8,453.5 								"/>
								<polygon class="st1" points="474.6,402.7 474.6,413.2 474.1,413.2 474.1,388.8 474.6,388.8 604.8,464 604.8,464 
									604.8,477.9 								"/>
								<polygon class="st1" points="474.6,427.2 474.6,437.6 474.1,437.6 474.1,413.2 474.6,413.2 604.8,488.4 604.8,488.4 
									604.8,502.3 								"/>
								<polygon class="st1" points="604.8,512.8 604.8,533.2 474.1,457.8 474.1,437.6 474.6,437.6 								"/>
								<polygon class="st2" points="604.8,502.4 604.8,512.8 474.6,437.6 474.6,427.2 604.8,502.3 								"/>
								<polygon class="st2" points="651.9,475.1 651.9,485.6 604.8,512.8 604.8,512.8 604.8,502.3 								"/>
								<polygon class="st2" points="651.9,450.7 651.9,461.2 604.8,488.4 604.8,477.9 								"/>
								<polygon class="st2" points="604.8,477.9 604.8,488.4 474.6,413.2 474.6,402.7 								"/>
								<polygon class="st2" points="604.8,453.5 604.8,464 474.6,388.8 474.6,378.3 								"/>
								<polygon class="st2" points="651.9,426.3 651.9,436.8 604.8,464 604.8,453.5 								"/>
								<polygon class="st2" points="651.9,401.9 651.9,412.4 604.8,439.6 604.8,429.1 								"/>
								<polygon class="st2" points="604.8,429.1 604.8,439.6 474.6,364.4 474.6,353.9 								"/>
								<polygon class="st2" points="651.9,377.5 651.9,387.9 604.8,415.2 604.8,415.2 604.8,404.7 								"/>
								<polygon class="st2" points="604.8,404.7 604.8,415.1 474.6,340 474.6,329.5 								"/>
								<polygon class="st0" points="630.5,352.5 630.5,358.9 597.8,377.8 597.8,344.1 630.5,325.2 								"/>
								<polygon class="st0" points="604.8,512.8 651.9,485.6 651.9,506 604.8,533.2 								"/>
								<polygon class="st0" points="651.9,461.2 651.9,475.1 604.8,502.3 604.8,488.4 								"/>
								<polygon class="st0" points="651.9,436.8 651.9,450.7 604.8,477.9 604.8,464 								"/>
								<polygon class="st0" points="651.9,412.4 651.9,426.3 604.8,453.5 604.8,453.5 604.8,439.6 								"/>
								<polygon class="st0" points="604.8,415.2 651.9,387.9 651.9,401.9 604.8,429.1 								"/>
								<polygon class="st0" points="651.9,364.9 651.9,377.5 604.8,404.7 604.8,392.1 								"/>
							</g>
							<g>
								<polyline class="st4" points="597.8,377.8 495.6,318.8 495.6,304 495.6,285.1 597.8,344.1 								"/>
								<polygon class="st4" points="597.8,344.1 630.5,325.2 630.5,352.5 630.5,358.9 597.8,377.8 								"/>
								<line class="st4" x1="630.5" y1="325.2" x2="528.6" y2="265.8"/>
								<line class="st4" x1="495.6" y1="285.1" x2="528.6" y2="265.8"/>
								<polyline class="st4" points="604.8,512.8 604.8,533.2 604.8,533.2 604.8,533.2 651.9,506 651.9,485.6 								"/>
								<polyline class="st4" points="604.8,488.4 604.8,502.3 604.8,502.4 								"/>
								<polyline class="st4" points="604.8,464 604.8,477.9 604.8,477.9 								"/>
								<polyline class="st4" points="604.8,439.6 604.8,453.5 604.8,453.5 								"/>
								<polyline class="st4" points="604.8,415.2 604.8,429.1 604.8,429.1 								"/>
								<polyline class="st4" points="651.9,377.5 651.9,364.9 604.8,392.1 604.8,392.1 604.8,404.7 604.8,404.7 								"/>
								<line class="st4" x1="651.9" y1="401.9" x2="651.9" y2="387.9"/>
								<line class="st4" x1="651.9" y1="426.3" x2="651.9" y2="412.4"/>
								<line class="st4" x1="651.9" y1="450.7" x2="651.9" y2="436.8"/>
								<line class="st4" x1="651.9" y1="475.1" x2="651.9" y2="461.2"/>
								<polygon class="st4" points="604.8,415.2 604.8,415.2 651.9,387.9 651.9,377.5 604.8,404.7 604.8,404.7 604.8,415.1 
																	"/>
								<polygon class="st4" points="604.8,439.6 604.8,439.6 651.9,412.4 651.9,401.9 604.8,429.1 604.8,429.1 								"/>
								<polygon class="st4" points="604.8,464 604.8,464 651.9,436.8 651.9,426.3 604.8,453.5 604.8,453.5 								"/>
								<polygon class="st4" points="604.8,488.4 604.8,488.4 651.9,461.2 651.9,450.7 604.8,477.9 604.8,477.9 								"/>
								<polygon class="st4" points="604.8,512.8 604.8,512.8 651.9,485.6 651.9,475.1 604.8,502.3 604.8,502.4 								"/>
								<polyline class="st4" points="604.8,404.7 604.8,392.1 474.1,316.7 474.1,340 474.1,364.4 474.1,388.8 474.1,413.2 
									474.1,437.6 474.1,457.8 604.8,533.2 604.8,533.2 604.8,512.8 604.8,512.8 								"/>
								<polyline class="st4" points="604.8,429.1 604.8,415.2 604.8,415.2 								"/>
								<line class="st4" x1="604.8" y1="453.5" x2="604.8" y2="439.6"/>
								<line class="st4" x1="604.8" y1="477.9" x2="604.8" y2="464"/>
								<line class="st4" x1="604.8" y1="502.3" x2="604.8" y2="488.4"/>
								<polygon class="st4" points="474.6,340 604.8,415.1 604.8,415.2 604.8,404.7 604.8,404.7 474.6,329.5 								"/>
								<polygon class="st4" points="474.6,364.4 604.8,439.6 604.8,439.6 604.8,429.1 604.8,429.1 474.6,353.9 								"/>
								<polygon class="st4" points="474.6,388.8 604.8,464 604.8,464 604.8,453.5 604.8,453.5 604.8,453.5 474.6,378.3 								"/>
								<polygon class="st4" points="474.6,413.2 604.8,488.4 604.8,488.4 604.8,477.9 604.8,477.9 474.6,402.7 								"/>
								<polygon class="st4" points="474.6,437.6 604.8,512.8 604.8,512.8 604.8,502.3 604.8,502.3 474.6,427.2 								"/>
								<line class="st4" x1="651.9" y1="364.9" x2="630.5" y2="352.5"/>
								<line class="st4" x1="474.1" y1="316.7" x2="495.6" y2="304"/>
							</g>
						</g>
					</g>
				</g>
				<path class="st5" d="M309.4,110.8c-10.6,0-20.3,4.3-27.2,11.2c-3.4-1.4-7.2-2.2-11.2-2.2c-16.2,0-29.3,13-29.3,29
					c0,4.2,3.5,7.6,7.7,7.6H340c4.2,0,7.7-3.4,7.7-7.6C347.8,127.8,330.6,110.8,309.4,110.8z"/>
				<path class="st6" d="M626.6,195.8c14.6,0,27.2,8,33.7,19.8c3.5-2.2,7.6-3.6,12-3.6c12.1,0,21.9,9.7,21.9,21.7
					c0,4.2-3.5,7.6-7.7,7.6h-90.6c-4.2,0-7.7-3.4-7.7-7.6C588.2,212.8,605.4,195.8,626.6,195.8z"/>
				<path class="st7" d="M147.8,338.1c-8.5-10.3-21.4-16.9-35.8-16.9c-14.5,0-27.4,6.6-35.8,16.9c-0.8-0.1-1.7-0.1-2.6-0.1
					c-16.2,0-29.3,13-29.3,29c0,4.2,3.5,7.6,7.7,7.6h115.5c4.2,0,7.7-3.4,7.7-7.6C175.2,351.6,163.1,339.1,147.8,338.1z"/>
				<g>
					<g>
						<g id="XMLID_3_">
							<g>
								<path class="st0" d="M477.1,280.6v204.6l-39,22.5V303.1L477.1,280.6z M470.7,470.2v-84.4l-9.8,5.7v84.4L470.7,470.2z
									 M470.7,377.9v-84.4l-9.8,5.7v84.4L470.7,377.9z M454.4,479.6v-84.4l-9.8,5.7v84.4L454.4,479.6z M454.4,387.3v-84.4
									l-9.8,5.7V393L454.4,387.3z"/>
								<polygon class="st2" points="477.1,280.6 438.1,303.1 399.2,280.6 414.1,271.9 414.1,280.3 438.1,294.2 462.2,280.3 
									462.2,271.9 								"/>
								<polygon class="st2" points="470.7,385.8 470.7,470.2 460.8,475.9 460.8,391.5 								"/>
								<polygon class="st2" points="470.7,293.5 470.7,377.9 460.8,383.6 460.8,299.2 								"/>
								<polygon class="st0" points="462.2,271.9 462.2,280.3 438.1,294.2 438.1,232.7 462.2,218.8 								"/>
								<polygon class="st2" points="462.2,218.8 438.1,232.7 414.1,218.8 438.1,204.6 								"/>
								<polygon class="st2" points="454.4,395.2 454.4,479.6 444.5,485.3 444.5,400.9 								"/>
								<polygon class="st2" points="454.4,302.9 454.4,387.3 444.5,393 444.5,308.6 								"/>
								<path class="st1" d="M438.1,303.1v204.6l-39-22.5V280.6L438.1,303.1z M431.7,485.3v-84.4l-9.8-5.7v84.4L431.7,485.3z
									 M431.7,393v-84.4l-9.8-5.7v84.4L431.7,393z M415.4,475.9v-84.4l-9.8-5.7v84.4L415.4,475.9z M415.4,383.6v-84.4l-9.8-5.7
									v84.4L415.4,383.6z"/>
								<polygon class="st1" points="438.1,232.7 438.1,294.2 414.1,280.3 414.1,271.9 414.1,218.8 								"/>
								<polygon class="st2" points="431.7,400.9 431.7,485.3 421.9,479.6 421.9,395.2 								"/>
								<polygon class="st2" points="431.7,308.6 431.7,393 421.9,387.3 421.9,302.9 								"/>
								<polygon class="st2" points="415.4,391.5 415.4,475.9 405.6,470.2 405.6,385.8 								"/>
								<polygon class="st2" points="415.4,299.2 415.4,383.6 405.6,377.9 405.6,293.5 								"/>
							</g>
							<g>
								<polyline class="st4" points="438.1,507.8 399.2,485.3 399.2,280.6 438.1,303.1 								"/>
								<polygon class="st4" points="431.7,393 421.9,387.3 421.9,302.9 431.7,308.6 								"/>
								<polygon class="st4" points="415.4,383.6 405.6,377.9 405.6,293.5 415.4,299.2 								"/>
								<polygon class="st4" points="431.7,485.3 421.9,479.6 421.9,395.2 431.7,400.9 								"/>
								<polygon class="st4" points="415.4,475.9 405.6,470.2 405.6,385.8 415.4,391.5 								"/>
								<polygon class="st4" points="477.1,280.6 477.1,485.3 438.1,507.8 438.1,303.1 								"/>
								<polygon class="st4" points="470.7,377.9 460.8,383.6 460.8,299.2 470.7,293.5 								"/>
								<polygon class="st4" points="454.4,387.3 444.5,393 444.5,308.6 454.4,302.9 								"/>
								<polygon class="st4" points="470.7,470.2 460.8,475.9 460.8,391.5 470.7,385.8 								"/>
								<polygon class="st4" points="454.4,479.6 444.5,485.3 444.5,400.9 454.4,395.2 								"/>
								<line class="st4" x1="462.2" y1="271.9" x2="477.1" y2="280.6"/>
								<line class="st4" x1="399.2" y1="280.6" x2="414.1" y2="271.9"/>
								<polyline class="st4" points="438.1,232.7 414.1,218.8 414.1,271.9 414.1,280.3 438.1,294.2 								"/>
								<polygon class="st4" points="462.2,218.8 438.1,232.7 438.1,294.2 462.2,280.3 462.2,271.9 								"/>
								<polyline class="st4" points="414.1,218.8 438.1,204.6 462.2,218.8 								"/>
							</g>
						</g>
					</g>
					<polygon class="st0" points="446.1,216.7 446.1,220.1 436.5,225.7 436.5,167.7 446.1,162.1 					"/>
					<polygon class="st2" points="446.1,162.1 436.5,167.7 426.8,162.1 436.5,156.4 					"/>
					<polygon class="st1" points="436.5,167.7 436.5,225.7 426.8,220.1 426.8,216.7 426.8,162.1 					"/>
					<polyline class="st4" points="436.5,167.7 426.8,162.1 426.8,216.7 426.8,220.1 436.5,225.7 					"/>
					<polygon class="st4" points="446.1,162.1 436.5,167.7 436.5,225.7 446.1,220.1 446.1,216.7 					"/>
					<polyline class="st4" points="426.8,162.1 436.5,156.4 446.1,162.1 					"/>
				</g>
				<g>
					<g>
						<g id="XMLID_7_">
							<g>
								<polygon class="st2" points="245.6,392.5 278.3,411.4 380.5,352.4 347.5,333.2 								"/>
								<polygon class="st2" points="224.2,432.2 271.3,459.4 402,384 380.5,371.4 380.5,386.1 278.3,445.1 245.6,426.2 
									245.6,419.8 								"/>
								<polygon class="st0" points="278.3,411.4 278.3,445.1 380.5,386.1 380.5,371.4 380.5,352.4 								"/>
								<polygon class="st0" points="401.6,396.8 401.6,407.3 402,407.3 402,384 271.3,459.4 271.4,459.4 271.4,472 								"/>
								<polygon class="st0" points="401.6,421.3 401.6,431.7 402,431.7 402,407.3 401.6,407.3 271.4,482.5 271.4,482.5 
									271.4,496.4 								"/>
								<polygon class="st0" points="401.6,445.7 401.6,456.1 402,456.1 402,431.7 401.6,431.7 271.4,506.9 271.4,506.9 
									271.4,520.8 								"/>
								<polygon class="st0" points="401.6,470.1 401.6,480.5 402,480.5 402,456.1 401.6,456.1 271.4,531.3 271.4,531.3 
									271.4,545.2 								"/>
								<polygon class="st0" points="401.6,494.5 401.6,505 402,505 402,480.5 401.6,480.5 271.4,555.7 271.4,555.7 271.4,569.7 
																	"/>
								<polygon class="st0" points="271.4,580.1 271.4,600.5 402,525.1 402,505 401.6,505 								"/>
								<polygon class="st2" points="271.4,569.7 271.4,580.1 401.6,505 401.6,494.5 								"/>
								<polygon class="st2" points="224.2,542.5 224.2,552.9 271.3,580.1 271.3,580.1 271.3,569.7 								"/>
								<polygon class="st2" points="224.2,518 224.2,528.5 271.3,555.7 271.3,545.3 								"/>
								<polygon class="st2" points="271.4,545.3 271.4,555.7 401.6,480.5 401.6,470.1 271.4,545.2 								"/>
								<polygon class="st2" points="271.4,520.9 271.4,531.3 401.6,456.1 401.6,445.7 271.4,520.8 								"/>
								<polygon class="st2" points="224.2,493.6 224.2,504.1 271.3,531.3 271.3,520.9 								"/>
								<polygon class="st2" points="224.2,469.2 224.2,479.7 271.3,506.9 271.3,496.4 								"/>
								<polygon class="st2" points="271.4,496.5 271.4,506.9 401.6,431.7 401.6,421.3 271.4,496.4 								"/>
								<polygon class="st2" points="224.2,444.8 224.2,455.3 271.3,482.5 271.3,482.5 271.3,472 								"/>
								<polygon class="st2" points="271.4,472 271.4,482.5 401.6,407.3 401.6,396.8 								"/>
								<polygon class="st1" points="245.6,419.8 245.6,426.2 278.3,445.1 278.3,411.4 245.6,392.5 								"/>
								<polygon class="st1" points="271.3,580.1 224.2,552.9 224.2,573.3 271.3,600.5 								"/>
								<polygon class="st1" points="224.2,528.5 224.2,542.5 271.3,569.7 271.3,555.7 								"/>
								<polygon class="st1" points="224.2,504.1 224.2,518 271.3,545.3 271.3,531.3 								"/>
								<polygon class="st1" points="224.2,479.7 224.2,493.6 271.3,520.9 271.3,520.8 271.3,506.9 								"/>
								<polygon class="st1" points="271.3,482.5 224.2,455.3 224.2,469.2 271.3,496.4 								"/>
								<polygon class="st1" points="224.2,432.2 224.2,444.8 271.3,472 271.3,459.4 								"/>
							</g>
							<g>
								<polyline class="st4" points="278.3,445.1 380.5,386.1 380.5,371.4 380.5,352.4 278.3,411.4 								"/>
								<polygon class="st4" points="278.3,411.4 245.6,392.5 245.6,419.8 245.6,426.2 278.3,445.1 								"/>
								<line class="st4" x1="245.6" y1="392.5" x2="347.5" y2="333.2"/>
								<line class="st4" x1="380.5" y1="352.4" x2="347.5" y2="333.2"/>
								<polyline class="st4" points="271.4,580.1 271.4,600.5 271.4,600.6 271.3,600.5 224.2,573.3 224.2,552.9 								"/>
								<polyline class="st4" points="271.4,555.7 271.4,569.7 271.4,569.7 								"/>
								<polyline class="st4" points="271.4,531.3 271.4,545.2 271.4,545.3 								"/>
								<polyline class="st4" points="271.4,506.9 271.4,520.8 271.4,520.9 								"/>
								<polyline class="st4" points="271.4,482.5 271.4,496.4 271.4,496.5 								"/>
								<polyline class="st4" points="224.2,444.8 224.2,432.2 271.3,459.4 271.4,459.4 271.4,472 271.4,472 								"/>
								<line class="st4" x1="224.2" y1="469.2" x2="224.2" y2="455.3"/>
								<line class="st4" x1="224.2" y1="493.6" x2="224.2" y2="479.7"/>
								<line class="st4" x1="224.2" y1="518" x2="224.2" y2="504.1"/>
								<line class="st4" x1="224.2" y1="542.5" x2="224.2" y2="528.5"/>
								<polygon class="st4" points="271.4,482.5 271.3,482.5 224.2,455.3 224.2,444.8 271.3,472 271.4,472 								"/>
								<polygon class="st4" points="271.4,506.9 271.3,506.9 224.2,479.7 224.2,469.2 271.3,496.4 271.4,496.5 								"/>
								<polygon class="st4" points="271.4,531.3 271.3,531.3 224.2,504.1 224.2,493.6 271.3,520.9 271.4,520.9 								"/>
								<polygon class="st4" points="271.4,555.7 271.3,555.7 224.2,528.5 224.2,518 271.3,545.3 271.4,545.3 								"/>
								<polygon class="st4" points="271.4,580.1 271.3,580.1 224.2,552.9 224.2,542.5 271.3,569.7 271.4,569.7 								"/>
								<polyline class="st4" points="271.3,472 271.3,459.4 402,384 402,407.3 402,431.7 402,456.1 402,480.5 402,505 402,525.1 
									271.4,600.5 271.3,600.5 271.3,580.1 271.3,580.1 								"/>
								<polyline class="st4" points="271.3,496.4 271.3,482.5 271.3,482.5 								"/>
								<line class="st4" x1="271.3" y1="520.8" x2="271.3" y2="506.9"/>
								<line class="st4" x1="271.3" y1="545.3" x2="271.3" y2="531.3"/>
								<line class="st4" x1="271.3" y1="569.7" x2="271.3" y2="555.7"/>
								<polygon class="st4" points="401.6,407.3 271.4,482.5 271.3,482.5 271.3,472 271.4,472 401.6,396.8 								"/>
								<polygon class="st4" points="401.6,431.7 271.4,506.9 271.3,506.9 271.3,496.4 271.4,496.4 401.6,421.3 								"/>
								<polygon class="st4" points="401.6,456.1 271.4,531.3 271.3,531.3 271.3,520.9 271.3,520.8 271.4,520.8 401.6,445.7 
																	"/>
								<polygon class="st4" points="401.6,480.5 271.4,555.7 271.3,555.7 271.3,545.3 271.4,545.2 401.6,470.1 								"/>
								<polygon class="st4" points="401.6,505 271.4,580.1 271.3,580.1 271.3,569.7 271.4,569.7 401.6,494.5 								"/>
								<line class="st4" x1="224.2" y1="432.2" x2="245.6" y2="419.8"/>
								<line class="st4" x1="402" y1="384" x2="380.5" y2="371.4"/>
							</g>
						</g>
					</g>
				</g>
				<g>
					<g>
						<g id="XMLID_4_">
							<g>
								<polygon class="st1" points="474.1,433.8 474.1,448.7 432.1,424.5 432.1,415.6 432.1,409.5 								"/>
								<polygon class="st2" points="516.1,409.5 474.1,433.8 432.1,409.5 474.1,385.2 								"/>
								<polygon class="st2" points="534.9,426.6 474.1,461.7 413.3,426.6 432.1,415.6 432.1,424.5 474.1,448.7 516.1,424.5 
									516.1,415.6 								"/>
								<polygon class="st0" points="516.1,415.6 516.1,424.5 474.1,448.7 474.1,433.8 516.1,409.5 								"/>
								<polygon class="st2" points="430.3,470.7 430.3,481.3 421.1,476 421.1,465.3 								"/>
								<polygon class="st2" points="448.3,501.9 448.3,512.5 439.1,507.2 439.1,496.6 								"/>
								<polygon class="st2" points="466.3,491.5 466.3,502.1 457.1,496.8 457.1,486.2 								"/>
								<polygon class="st2" points="466.3,553.9 466.3,564.5 457.1,559.2 457.1,548.6 								"/>
								<polygon class="st2" points="430.3,512.3 430.3,522.9 421.1,517.6 421.1,507 								"/>
								<polygon class="st2" points="430.3,533.1 430.3,543.7 421.1,538.4 421.1,527.8 								"/>
								<polygon class="st2" points="430.3,553.9 430.3,564.5 421.1,559.2 421.1,548.6 								"/>
								<polygon class="st2" points="466.3,533.1 466.3,543.7 457.1,538.4 457.1,527.8 								"/>
								<polygon class="st2" points="430.3,491.5 430.3,502.1 421.1,496.8 421.1,486.2 								"/>
								<polygon class="st2" points="448.3,543.5 448.3,554.1 439.1,548.8 439.1,538.2 								"/>
								<polygon class="st2" points="466.3,574.7 466.3,585.4 457.1,580 457.1,569.4 								"/>
								<polygon class="st2" points="448.3,460.3 448.3,470.9 439.1,465.6 439.1,454.9 								"/>
								<polygon class="st2" points="466.3,512.3 466.3,522.9 457.1,517.6 457.1,507 								"/>
								<polygon class="st2" points="448.3,481.1 448.3,491.7 439.1,486.4 439.1,475.8 								"/>
								<path class="st1" d="M474.1,461.7v143l-60.8-35.1v-143L474.1,461.7z M466.3,585.4v-10.6l-9.2-5.3V580L466.3,585.4z
									 M466.3,564.5v-10.6l-9.2-5.3v10.6L466.3,564.5z M466.3,543.7v-10.6l-9.2-5.3v10.6L466.3,543.7z M466.3,522.9v-10.6
									l-9.2-5.3v10.6L466.3,522.9z M466.3,502.1v-10.6l-9.2-5.3v10.6L466.3,502.1z M466.3,481.3v-10.6l-9.2-5.3V476L466.3,481.3z
									 M448.3,574.9v-10.6l-9.2-5.3v10.6L448.3,574.9z M448.3,554.1v-10.6l-9.2-5.3v10.6L448.3,554.1z M448.3,533.3v-10.6
									l-9.2-5.3V528L448.3,533.3z M448.3,512.5v-10.6l-9.2-5.3v10.6L448.3,512.5z M448.3,491.7v-10.6l-9.2-5.3v10.6L448.3,491.7z
									 M448.3,470.9v-10.6l-9.2-5.3v10.6L448.3,470.9z M430.3,564.5v-10.6l-9.2-5.3v10.6L430.3,564.5z M430.3,543.7v-10.6
									l-9.2-5.3v10.6L430.3,543.7z M430.3,522.9v-10.6l-9.2-5.3v10.6L430.3,522.9z M430.3,502.1v-10.6l-9.2-5.3v10.6L430.3,502.1z
									 M430.3,481.3v-10.6l-9.2-5.3V476L430.3,481.3z M430.3,460.5v-10.6l-9.2-5.3v10.6L430.3,460.5z"/>
								<polygon class="st2" points="448.3,564.3 448.3,574.9 439.1,569.6 439.1,559 								"/>
								<polygon class="st2" points="430.3,449.9 430.3,460.5 421.1,455.2 421.1,444.5 								"/>
								<polygon class="st2" points="466.3,470.7 466.3,481.3 457.1,476 457.1,465.4 								"/>
								<polygon class="st2" points="448.3,522.7 448.3,533.3 439.1,528 439.1,517.4 								"/>
								<path class="st0" d="M534.9,426.6v143l-60.8,35.1v-143L534.9,426.6z M527.2,559.2v-10.6l-9.2,5.3v10.6L527.2,559.2z
									 M527.2,538.4v-10.6l-9.2,5.3v10.6L527.2,538.4z M527.2,517.6V507l-9.2,5.3v10.6L527.2,517.6z M527.2,496.8v-10.6l-9.2,5.3
									v10.6L527.2,496.8z M527.2,476v-10.6l-9.2,5.3v10.6L527.2,476z M527.2,455.2v-10.6l-9.2,5.3v10.6L527.2,455.2z M509.1,569.6
									V559l-9.2,5.3v10.6L509.1,569.6z M509.1,548.8v-10.6l-9.2,5.3v10.6L509.1,548.8z M509.1,528v-10.6l-9.2,5.3v10.6L509.1,528z
									 M509.1,507.2v-10.6l-9.2,5.3v10.6L509.1,507.2z M509.1,486.4v-10.6l-9.2,5.3v10.6L509.1,486.4z M509.1,465.6V455l-9.2,5.3
									v10.6L509.1,465.6z M491.1,580v-10.6l-9.2,5.3v10.6L491.1,580z M491.1,559.2v-10.6l-9.2,5.3v10.6L491.1,559.2z M491.1,538.4
									v-10.6l-9.2,5.3v10.6L491.1,538.4z M491.1,517.6V507l-9.2,5.3v10.6L491.1,517.6z M491.1,496.8v-10.6l-9.2,5.3v10.6
									L491.1,496.8z M491.1,476v-10.6l-9.2,5.3v10.6L491.1,476z"/>
								<polygon class="st2" points="527.2,507 527.2,517.6 517.9,522.9 517.9,512.3 								"/>
								<polygon class="st2" points="527.2,548.6 527.2,559.2 517.9,564.5 517.9,553.9 								"/>
								<polygon class="st2" points="527.2,465.3 527.2,476 517.9,481.3 517.9,470.7 								"/>
								<polygon class="st2" points="527.2,444.5 527.2,455.2 517.9,460.5 517.9,449.9 								"/>
								<polygon class="st2" points="491.1,569.4 491.1,580 481.9,585.4 481.9,574.7 								"/>
								<polygon class="st2" points="509.1,559 509.1,569.6 499.9,574.9 499.9,564.3 								"/>
								<polygon class="st2" points="509.1,517.4 509.1,528 499.9,533.3 499.9,522.7 								"/>
								<polygon class="st2" points="491.1,527.8 491.1,538.4 481.9,543.7 481.9,533.1 								"/>
								<polygon class="st2" points="491.1,507 491.1,517.6 481.9,522.9 481.9,512.3 								"/>
								<polygon class="st2" points="509.1,538.2 509.1,548.8 499.9,554.1 499.9,543.5 								"/>
								<polygon class="st2" points="509.1,475.8 509.1,486.4 499.9,491.7 499.9,481.1 								"/>
								<polygon class="st2" points="527.2,527.8 527.2,538.4 517.9,543.7 517.9,533.1 								"/>
								<polygon class="st2" points="509.1,454.9 509.1,465.6 499.9,470.9 499.9,460.3 								"/>
								<polygon class="st2" points="527.2,486.2 527.2,496.8 517.9,502.1 517.9,491.5 								"/>
								<polygon class="st2" points="491.1,486.2 491.1,496.8 481.9,502.1 481.9,491.5 								"/>
								<polygon class="st2" points="491.1,548.6 491.1,559.2 481.9,564.5 481.9,553.9 								"/>
								<polygon class="st2" points="509.1,496.6 509.1,507.2 499.9,512.5 499.9,501.9 								"/>
								<polygon class="st2" points="491.1,465.4 491.1,476 481.9,481.3 481.9,470.7 								"/>
							</g>
							<g>
								<polyline class="st4" points="474.1,604.7 413.3,569.6 413.3,426.6 474.1,461.7 								"/>
								<polygon class="st4" points="448.3,470.9 439.1,465.6 439.1,454.9 448.3,460.3 								"/>
								<polygon class="st4" points="430.3,460.5 421.1,455.2 421.1,444.5 430.3,449.9 								"/>
								<polygon class="st4" points="466.3,481.3 457.1,476 457.1,465.4 466.3,470.7 								"/>
								<polygon class="st4" points="448.3,491.7 439.1,486.4 439.1,475.8 448.3,481.1 								"/>
								<polygon class="st4" points="430.3,481.3 421.1,476 421.1,465.3 430.3,470.7 								"/>
								<polygon class="st4" points="466.3,502.1 457.1,496.8 457.1,486.2 466.3,491.5 								"/>
								<polygon class="st4" points="448.3,512.5 439.1,507.2 439.1,496.6 448.3,501.9 								"/>
								<polygon class="st4" points="430.3,502.1 421.1,496.8 421.1,486.2 430.3,491.5 								"/>
								<polygon class="st4" points="466.3,522.9 457.1,517.6 457.1,507 466.3,512.3 								"/>
								<polygon class="st4" points="448.3,533.3 439.1,528 439.1,517.4 448.3,522.7 								"/>
								<polygon class="st4" points="430.3,522.9 421.1,517.6 421.1,507 430.3,512.3 								"/>
								<polygon class="st4" points="466.3,543.7 457.1,538.4 457.1,527.8 466.3,533.1 								"/>
								<polygon class="st4" points="448.3,554.1 439.1,548.8 439.1,538.2 448.3,543.5 								"/>
								<polygon class="st4" points="430.3,543.7 421.1,538.4 421.1,527.8 430.3,533.1 								"/>
								<polygon class="st4" points="466.3,564.5 457.1,559.2 457.1,548.6 466.3,553.9 								"/>
								<polygon class="st4" points="448.3,574.9 439.1,569.6 439.1,559 448.3,564.3 								"/>
								<polygon class="st4" points="430.3,564.5 421.1,559.2 421.1,548.6 430.3,553.9 								"/>
								<polygon class="st4" points="466.3,585.4 457.1,580 457.1,569.4 466.3,574.7 								"/>
								<polygon class="st4" points="474.1,461.7 534.9,426.6 534.9,569.6 474.1,604.7 								"/>
								<polygon class="st4" points="509.1,465.6 499.9,470.9 499.9,460.3 509.1,454.9 								"/>
								<polygon class="st4" points="491.1,476 481.9,481.3 481.9,470.7 491.1,465.4 								"/>
								<polygon class="st4" points="527.2,455.2 517.9,460.5 517.9,449.9 527.2,444.5 								"/>
								<polygon class="st4" points="509.1,486.4 499.9,491.7 499.9,481.1 509.1,475.8 								"/>
								<polygon class="st4" points="491.1,496.8 481.9,502.1 481.9,491.5 491.1,486.2 								"/>
								<polygon class="st4" points="527.2,476 517.9,481.3 517.9,470.7 527.2,465.3 								"/>
								<polygon class="st4" points="509.1,507.2 499.9,512.5 499.9,501.9 509.1,496.6 								"/>
								<polygon class="st4" points="491.1,517.6 481.9,522.9 481.9,512.3 491.1,507 								"/>
								<polygon class="st4" points="527.2,496.8 517.9,502.1 517.9,491.5 527.2,486.2 								"/>
								<polygon class="st4" points="509.1,528 499.9,533.3 499.9,522.7 509.1,517.4 								"/>
								<polygon class="st4" points="491.1,538.4 481.9,543.7 481.9,533.1 491.1,527.8 								"/>
								<polygon class="st4" points="527.2,517.6 517.9,522.9 517.9,512.3 527.2,507 								"/>
								<polygon class="st4" points="509.1,548.8 499.9,554.1 499.9,543.5 509.1,538.2 								"/>
								<polygon class="st4" points="491.1,559.2 481.9,564.5 481.9,553.9 491.1,548.6 								"/>
								<polygon class="st4" points="527.2,538.4 517.9,543.7 517.9,533.1 527.2,527.8 								"/>
								<polygon class="st4" points="509.1,569.6 499.9,574.9 499.9,564.3 509.1,559 								"/>
								<polygon class="st4" points="491.1,580 481.9,585.4 481.9,574.7 491.1,569.4 								"/>
								<polygon class="st4" points="527.2,559.2 517.9,564.5 517.9,553.9 527.2,548.6 								"/>
								<line class="st4" x1="516.1" y1="415.6" x2="534.9" y2="426.6"/>
								<line class="st4" x1="413.3" y1="426.6" x2="432.1" y2="415.6"/>
								<polyline class="st4" points="474.1,448.7 516.1,424.5 516.1,415.6 516.1,409.5 474.1,433.8 								"/>
								<polygon class="st4" points="474.1,433.8 432.1,409.5 432.1,415.6 432.1,424.5 474.1,448.7 								"/>
								<polyline class="st4" points="432.1,409.5 474.1,385.2 516.1,409.5 								"/>
							</g>
						</g>
					</g>
				</g>
				<g>
					<g>
						<g id="XMLID_8_">
							<g>
								<path class="st0" d="M413.8,427.5v204.6l-39,22.5V450L413.8,427.5z M407.3,617.1v-84.4l-9.8,5.7v84.4L407.3,617.1z
									 M407.3,524.8v-84.4l-9.8,5.7v84.4L407.3,524.8z M391.1,626.5v-84.4l-9.8,5.7v84.4L391.1,626.5z M391.1,534.2v-84.4
									l-9.8,5.7v84.4L391.1,534.2z"/>
								<polygon class="st2" points="413.8,427.5 374.8,450 335.8,427.5 350.8,418.8 350.8,427.2 374.8,441.1 398.8,427.2 
									398.8,418.8 								"/>
								<polygon class="st2" points="407.3,532.7 407.3,617.1 397.5,622.8 397.5,538.4 								"/>
								<polygon class="st2" points="407.3,440.4 407.3,524.8 397.5,530.5 397.5,446.1 								"/>
								<polygon class="st0" points="398.8,418.8 398.8,427.2 374.8,441.1 374.8,379.6 398.8,365.7 								"/>
								<polygon class="st2" points="398.8,365.7 374.8,379.6 350.8,365.7 374.8,351.5 								"/>
								<polygon class="st2" points="391.1,542.1 391.1,626.5 381.2,632.2 381.2,547.8 								"/>
								<polygon class="st2" points="391.1,449.8 391.1,534.2 381.2,539.9 381.2,455.5 								"/>
								<path class="st1" d="M374.8,450v204.6l-39-22.5V427.5L374.8,450z M368.4,632.2v-84.4l-9.8-5.7v84.4L368.4,632.2z
									 M368.4,539.9v-84.4l-9.8-5.7v84.4L368.4,539.9z M352.1,622.8v-84.4l-9.8-5.7v84.4L352.1,622.8z M352.1,530.5v-84.4
									l-9.8-5.7v84.4L352.1,530.5z"/>
								<polygon class="st1" points="374.8,379.6 374.8,441.1 350.8,427.2 350.8,418.8 350.8,365.7 								"/>
								<polygon class="st2" points="368.4,547.8 368.4,632.2 358.5,626.5 358.5,542.1 								"/>
								<polygon class="st2" points="368.4,455.5 368.4,539.9 358.5,534.2 358.5,449.8 								"/>
								<polygon class="st2" points="352.1,538.4 352.1,622.8 342.2,617.1 342.2,532.7 								"/>
								<polygon class="st2" points="352.1,446.1 352.1,530.5 342.2,524.8 342.2,440.4 								"/>
							</g>
							<g>
								<polyline class="st4" points="374.8,654.7 335.8,632.2 335.8,427.5 374.8,450 								"/>
								<polygon class="st4" points="368.4,539.9 358.5,534.2 358.5,449.8 368.4,455.5 								"/>
								<polygon class="st4" points="352.1,530.5 342.2,524.8 342.2,440.4 352.1,446.1 								"/>
								<polygon class="st4" points="368.4,632.2 358.5,626.5 358.5,542.1 368.4,547.8 								"/>
								<polygon class="st4" points="352.1,622.8 342.2,617.1 342.2,532.7 352.1,538.4 								"/>
								<polygon class="st4" points="413.8,427.5 413.8,632.2 374.8,654.7 374.8,450 								"/>
								<polygon class="st4" points="407.3,524.8 397.5,530.5 397.5,446.1 407.3,440.4 								"/>
								<polygon class="st4" points="391.1,534.2 381.2,539.9 381.2,455.5 391.1,449.8 								"/>
								<polygon class="st4" points="407.3,617.1 397.5,622.8 397.5,538.4 407.3,532.7 								"/>
								<polygon class="st4" points="391.1,626.5 381.2,632.2 381.2,547.8 391.1,542.1 								"/>
								<line class="st4" x1="398.8" y1="418.8" x2="413.8" y2="427.5"/>
								<line class="st4" x1="335.8" y1="427.5" x2="350.8" y2="418.8"/>
								<polyline class="st4" points="374.8,379.6 350.8,365.7 350.8,418.8 350.8,427.2 374.8,441.1 								"/>
								<polygon class="st4" points="398.8,365.7 374.8,379.6 374.8,441.1 398.8,427.2 398.8,418.8 								"/>
								<polyline class="st4" points="350.8,365.7 374.8,351.5 398.8,365.7 								"/>
							</g>
						</g>
					</g>
				</g>
				<g>
					<g id="XMLID_27_">
						<g>
							<path class="st8" d="M288.1,579c0,0.2,0,0.4,0,0.6c-1.4,1.1-3.1,1.7-4.9,1.7h-4.5h-4.9c-4.5,0-8.1-3.7-8.1-8.1v-21.8
								c0-4.5,3.7-8.1,8.1-8.1h9.4c1.8,0,3.5,0.6,4.9,1.6V579z"/>
							<path class="st8" d="M344.2,542.6v21.8c0,4.5-3.7,8.1-8.1,8.1h-4.7h-4.7c-1.8,0-3.5-0.6-4.9-1.7c-2-1.5-3.2-3.8-3.2-6.5
								v-21.8c0-2.6,1.3-5,3.2-6.5c1.4-1,3.1-1.7,4.9-1.7h9.4C340.5,534.5,344.2,538.2,344.2,542.6z"/>
							<path class="st9" d="M304.9,587.1h-8.7c-4.3,0-7.8-3.4-8.1-7.6c0-0.2,0-0.4,0-0.6v-34.2v-21.1c0-4.5,3.7-8.1,8.1-8.1h17.4
								c4.5,0,8.1,3.7,8.1,8.1v12.5c-2,1.5-3.2,3.8-3.2,6.5v21.8c0,2.6,1.3,5,3.2,6.5v8.1c0,4.5-3.7,8.1-8.1,8.1H304.9z"/>
						</g>
						<g>
							<polyline class="st4" points="304.9,613.5 304.9,597.6 304.9,592.1 304.9,587.1 304.9,576.7 304.9,568.3 304.9,560.2 
								304.9,551.8 304.9,539.8 							"/>
							<line class="st4" x1="304.9" y1="551.8" x2="295.2" y2="542"/>
							<line class="st4" x1="304.9" y1="560.2" x2="314.7" y2="550.4"/>
							<line class="st4" x1="304.9" y1="568.3" x2="295.2" y2="558.5"/>
							<line class="st4" x1="304.9" y1="576.7" x2="314.7" y2="566.9"/>
							<path class="st4" d="M321.8,536.2v-12.5c0-4.5-3.7-8.1-8.1-8.1h-17.4c-4.5,0-8.1,3.7-8.1,8.1v21.1V579c0,0.2,0,0.4,0,0.6
								c0.3,4.2,3.8,7.6,8.1,7.6h8.7h8.7c4.5,0,8.1-3.7,8.1-8.1V571"/>
							<path class="st4" d="M288.1,544.8L288.1,544.8c-1.4-1-3.1-1.7-4.9-1.7h-9.4c-4.5,0-8.1,3.7-8.1,8.1V573
								c0,4.5,3.7,8.1,8.1,8.1h4.9h4.5c1.8,0,3.6-0.6,4.9-1.7c0.1-0.1,0.2-0.1,0.3-0.2"/>
							<path class="st4" d="M321.8,570.9c1.4,1,3.1,1.7,4.9,1.7h4.7h4.7c4.5,0,8.1-3.7,8.1-8.1v-21.8c0-4.5-3.7-8.1-8.1-8.1h-9.4
								c-1.8,0-3.5,0.6-4.9,1.7c-2,1.5-3.2,3.8-3.2,6.5v21.8C318.5,567.1,319.8,569.4,321.8,570.9z"/>
							<path class="st4" d="M278.7,581.2v9.1c0,4,3.3,7.3,7.3,7.3h18.9"/>
							<path class="st4" d="M304.9,592.1c0-0.1,11.2-0.1,19.1,0c4.1,0,7.3-3.3,7.3-7.3v-12.2"/>
						</g>
					</g>
				</g>
				<g>
					<circle class="st10" cx="530" cy="137.3" r="5.7"/>
					<path class="st4" d="M516.6,128.3c2.9-4.3,7.9-7.2,13.5-7.2s10.5,2.8,13.4,7.1"/>
					<path class="st4" d="M506.5,121.5c5.1-7.5,13.7-12.5,23.5-12.5c9.7,0,18.3,4.9,23.5,12.4"/>
					<path class="st4" d="M497,115c7.2-10.6,19.3-17.6,33.1-17.6c13.7,0,25.8,6.9,33,17.5"/>
				</g>
				<path class="st11" d="M447.3,52c-3.1-2.6-7.1-4.1-11.5-4.1c-3.8,0-7.3,1.2-10.2,3.1c-6.5,4.4-8.7,13-5.9,20.3l16.1,42.5
					l16.1-42.6C454.5,64.5,452.9,56.6,447.3,52z M435.8,74.4c-4.3,0-7.7-3.5-7.7-7.7c0-4.3,3.5-7.7,7.7-7.7s7.7,3.5,7.7,7.7
					C443.6,71,440.1,74.4,435.8,74.4z"/>
				<path class="st10" d="M160.5,139.2l-3.8-1.1c-0.6-0.2-1-0.6-1.2-1.2c-0.1-0.3-0.2-0.7-0.3-1c-0.2-0.6,0-1.2,0.4-1.7l2.8-2.8
					c0.5-0.5,0.6-1.4,0.3-2l-2.2-3.9c-0.4-0.7-1.1-1-1.9-0.8l-3.9,1c-0.6,0.2-1.2,0-1.6-0.5c-0.2-0.2-0.5-0.5-0.7-0.7
					c-0.4-0.4-0.6-1-0.5-1.6l1-3.9c0.2-0.7-0.1-1.5-0.8-1.9l-3.9-2.2c-0.7-0.4-1.5-0.3-2,0.3l-2.8,2.8c-0.4,0.4-1.1,0.6-1.7,0.4
					c-0.3-0.1-0.7-0.2-1-0.3c-0.6-0.1-1.1-0.6-1.2-1.2l-1.1-3.8c-0.2-0.7-0.9-1.2-1.6-1.2h-4.5c-0.8,0-1.4,0.5-1.6,1.2l-1.1,3.8
					c-0.2,0.6-0.6,1-1.2,1.2c-0.3,0.1-0.7,0.2-1,0.3c-0.6,0.2-1.2,0-1.7-0.4l-2.8-2.8c-0.5-0.5-1.4-0.6-2-0.3l-3.9,2.2
					c-0.7,0.4-1,1.1-0.8,1.9l1,3.9c0.2,0.6,0,1.2-0.5,1.6c-0.2,0.2-0.5,0.5-0.7,0.7c-0.4,0.4-1,0.6-1.6,0.5l-3.9-1
					c-0.7-0.2-1.5,0.1-1.9,0.8l-2.2,3.9c-0.4,0.7-0.3,1.5,0.3,2l2.8,2.8c0.4,0.4,0.6,1.1,0.4,1.7c-0.1,0.3-0.2,0.7-0.3,1
					c-0.1,0.6-0.6,1.1-1.2,1.2l-3.8,1.1c-0.7,0.2-1.2,0.9-1.2,1.6v4.5c0,0.8,0.5,1.4,1.2,1.6l3.8,1.1c0.6,0.2,1,0.6,1.2,1.2
					c0.1,0.3,0.2,0.7,0.3,1c0.2,0.6,0,1.2-0.4,1.7l-2.8,2.8c-0.5,0.5-0.6,1.4-0.3,2l2.2,3.9c0.4,0.7,1.1,1,1.9,0.8l3.9-1
					c0.6-0.2,1.2,0,1.6,0.5c0.2,0.2,0.5,0.5,0.7,0.7c0.4,0.4,0.6,1,0.5,1.6l-1,3.9c-0.2,0.7,0.1,1.5,0.8,1.9l3.9,2.2
					c0.7,0.4,1.5,0.3,2-0.3l2.8-2.8c0.4-0.4,1.1-0.6,1.7-0.4c0.3,0.1,0.7,0.2,1,0.3c0.6,0.1,1.1,0.6,1.2,1.2l1.1,3.8
					c0.2,0.7,0.9,1.2,1.6,1.2h4.5c0.8,0,1.4-0.5,1.6-1.2l1.1-3.8c0.2-0.6,0.6-1,1.2-1.2c0.3-0.1,0.7-0.2,1-0.3
					c0.6-0.2,1.2,0,1.7,0.4l2.8,2.8c0.5,0.5,1.4,0.6,2,0.3l3.9-2.2c0.7-0.4,1-1.1,0.8-1.9l-1-3.9c-0.2-0.6,0-1.2,0.5-1.6
					c0.2-0.2,0.5-0.5,0.7-0.7c0.4-0.4,1-0.6,1.6-0.5l3.9,1c0.7,0.2,1.5-0.1,1.9-0.8l2.2-3.9c0.4-0.7,0.3-1.5-0.3-2l-2.8-2.8
					c-0.4-0.4-0.6-1.1-0.4-1.7c0.1-0.3,0.2-0.7,0.3-1c0.1-0.6,0.6-1.1,1.2-1.2l3.8-1.1c0.7-0.2,1.2-0.9,1.2-1.6v-4.5
					C161.7,140.1,161.2,139.4,160.5,139.2z M130.6,153.7c-5.9,0-10.7-4.8-10.7-10.7s4.8-10.7,10.7-10.7s10.7,4.8,10.7,10.7
					C141.3,149,136.5,153.7,130.6,153.7z"/>
				<g>
					<g id="XMLID_14_">
						<g>
							<polygon class="st2" points="106.5,228.5 106.5,261 52.6,261 52.6,228.5 79.5,244.7 							"/>
							<polygon class="st1" points="106.5,228.5 79.5,244.7 52.6,228.5 							"/>
						</g>
						<g>
							<rect x="52.6" y="228.5" class="st4" width="54" height="32.5"/>
							<polyline class="st4" points="52.6,228.5 79.5,244.7 106.5,228.5 							"/>
						</g>
					</g>
				</g>
				<g>
					<path class="st10" d="M743.2,75.7h-64.6c-4,0-7.3,3.3-7.3,7.3v33.2c0,4,3.3,7.3,7.3,7.3h6.6l5.9,15.3c1.7,4.4,7.9,4.4,9.6,0
						l5.9-15.3h36.6c4,0,7.3-3.3,7.3-7.3V83.1C750.5,79,747.2,75.7,743.2,75.7z"/>
					<g>
						<rect x="686" y="94.8" class="st12" width="9.7" height="9.7"/>
						<rect x="706.1" y="94.8" class="st12" width="9.7" height="9.7"/>
						<rect x="726.2" y="94.8" class="st12" width="9.7" height="9.7"/>
					</g>
				</g>
				<g>
					<g id="XMLID_10_">
						<g>
							<path class="st1" d="M671.3,395.7L671.3,395.7c-0.1,3.5-2.8,6.2-6.2,6.2s-6.2-2.8-6.2-6.2c0-3.4,2.8-6.2,6.2-6.2
								C668.6,389.5,671.3,392.3,671.3,395.7z"/>
							<path class="st2" d="M683.7,388.5l50.5,16c-0.4,2.1-2.4,3.4-4.5,3l-58.4-11.7l2.7-4C676.2,388.7,680.1,387.3,683.7,388.5z"/>
							<path class="st2" d="M665.2,330v59.5l-4.5-1.9c-3.5-1.5-5.6-5-5.2-8.8l5.8-52.6C663.4,326.2,665.2,327.9,665.2,330z"/>
							<path class="st2" d="M659,395.7l-1.2,4.7c-1,3.6-4.2,6.2-7.9,6.4l-52.9,1.9c-0.3-2.1,1.1-4,3.2-4.3L659,395.7z"/>
						</g>
						<g>
							<line class="st4" x1="665.2" y1="505.1" x2="665.2" y2="401.9"/>
							<path class="st4" d="M665.2,389.5c3.4,0,6.2,2.8,6.2,6.2v0.1c-0.1,3.4-2.8,6.1-6.2,6.1s-6.2-2.8-6.2-6.2
								S661.7,389.5,665.2,389.5z"/>
							<path class="st4" d="M659,395.7l-58.9,8.7c-2.1,0.3-3.5,2.2-3.2,4.3l52.9-1.9c3.8-0.1,7-2.7,7.9-6.4L659,395.7z"/>
							<path class="st4" d="M665.2,389.5V330c0-2.1-1.7-3.8-3.8-3.8l-5.8,52.6c-0.4,3.7,1.7,7.3,5.2,8.8L665.2,389.5z"/>
							<path class="st4" d="M671.3,395.8l58.4,11.7c2.1,0.4,4.1-0.9,4.5-3l-50.5-16c-3.6-1.1-7.5,0.2-9.6,3.3L671.3,395.8z"/>
						</g>
					</g>
				</g>
				<g>
					<g id="XMLID_13_">
						<g>
							<path class="st1" d="M212.6,465.4L212.6,465.4c-0.1,3.5-2.8,6.2-6.2,6.2s-6.2-2.8-6.2-6.2c0-3.4,2.8-6.2,6.2-6.2
								C209.9,459.2,212.6,462,212.6,465.4z"/>
							<path class="st2" d="M225,458.1l50.5,16c-0.4,2.1-2.4,3.4-4.5,3l-58.4-11.7l2.7-4C217.5,458.4,221.4,457,225,458.1z"/>
							<path class="st2" d="M206.4,399.7v59.5l-4.5-1.9c-3.5-1.5-5.6-5-5.2-8.8l5.8-52.6C204.7,395.9,206.4,397.6,206.4,399.7z"/>
							<path class="st2" d="M200.3,465.4l-1.2,4.7c-1,3.6-4.2,6.2-7.9,6.4l-52.9,1.9c-0.3-2.1,1.1-4,3.2-4.3L200.3,465.4z"/>
						</g>
						<g>
							<line class="st4" x1="206.4" y1="574.7" x2="206.4" y2="471.5"/>
							<path class="st4" d="M206.4,459.2c3.4,0,6.2,2.8,6.2,6.2v0.1c-0.1,3.4-2.8,6.1-6.2,6.1s-6.2-2.8-6.2-6.2
								C200.3,462,203,459.2,206.4,459.2z"/>
							<path class="st4" d="M200.3,465.4l-58.9,8.7c-2.1,0.3-3.5,2.2-3.2,4.3l52.9-1.9c3.8-0.1,7-2.7,7.9-6.4L200.3,465.4z"/>
							<path class="st4" d="M206.4,459.2v-59.5c0-2.1-1.7-3.8-3.8-3.8l-5.8,52.6c-0.4,3.7,1.7,7.3,5.2,8.8L206.4,459.2z"/>
							<path class="st4" d="M212.6,465.5l58.4,11.7c2.1,0.4,4.1-0.9,4.5-3l-50.5-16c-3.6-1.1-7.5,0.2-9.6,3.3L212.6,465.5z"/>
						</g>
					</g>
				</g>
				<g>
					<g id="XMLID_11_">
						<g>
							<path class="st1" d="M339.5,252.4L339.5,252.4c-0.1,3.5-2.8,6.2-6.2,6.2c-3.4,0-6.2-2.8-6.2-6.2s2.8-6.2,6.2-6.2
								S339.5,249,339.5,252.4z"/>
							<path class="st2" d="M351.9,245.1l50.5,16c-0.4,2.1-2.4,3.4-4.5,3l-58.4-11.7l2.7-4C344.4,245.4,348.3,244,351.9,245.1z"/>
							<path class="st2" d="M333.4,186.7v59.5l-4.5-1.9c-3.5-1.5-5.6-5-5.2-8.8l5.8-52.6C331.7,182.9,333.4,184.6,333.4,186.7z"/>
							<path class="st2" d="M327.2,252.4L326,257c-1,3.6-4.2,6.2-7.9,6.4l-52.9,1.9c-0.3-2.1,1.1-4,3.2-4.3L327.2,252.4z"/>
						</g>
						<g>
							<line class="st4" x1="333.4" y1="361.7" x2="333.4" y2="258.5"/>
							<path class="st4" d="M333.4,246.2c3.4,0,6.2,2.8,6.2,6.2v0.1c-0.1,3.4-2.8,6.1-6.2,6.1c-3.4,0-6.2-2.8-6.2-6.2
								C327.2,249,330,246.2,333.4,246.2z"/>
							<path class="st4" d="M327.2,252.4l-58.9,8.7c-2.1,0.3-3.5,2.2-3.2,4.3l52.9-1.9c3.8-0.1,7-2.7,7.9-6.4L327.2,252.4z"/>
							<path class="st4" d="M333.4,246.2v-59.5c0-2.1-1.7-3.8-3.8-3.8l-5.8,52.6c-0.4,3.7,1.7,7.3,5.2,8.8L333.4,246.2z"/>
							<path class="st4" d="M339.5,252.5l58.4,11.7c2.1,0.4,4.1-0.9,4.5-3l-50.5-16c-3.6-1.1-7.5,0.2-9.6,3.3L339.5,252.5z"/>
						</g>
					</g>
				</g>
				<g>
					<g id="XMLID_12_">
						<g>
							<path class="st1" d="M288.5,275.6L288.5,275.6c-0.1,3.5-2.8,6.2-6.2,6.2c-3.4,0-6.2-2.8-6.2-6.2c0-3.4,2.8-6.2,6.2-6.2
								C285.8,269.4,288.5,272.2,288.5,275.6z"/>
							<path class="st2" d="M300.9,268.3l50.5,16c-0.4,2.1-2.4,3.4-4.5,3l-58.4-11.7l2.7-4C293.4,268.6,297.3,267.2,300.9,268.3z"/>
							<path class="st2" d="M282.4,209.9v59.5l-4.5-1.9c-3.5-1.5-5.6-5-5.2-8.8l5.8-52.6C280.7,206.1,282.4,207.8,282.4,209.9z"/>
							<path class="st2" d="M276.2,275.6l-1.2,4.7c-1,3.6-4.2,6.2-7.9,6.4l-52.9,1.9c-0.3-2.1,1.1-4,3.2-4.3L276.2,275.6z"/>
						</g>
						<g>
							<line class="st4" x1="282.4" y1="384.9" x2="282.4" y2="281.7"/>
							<path class="st4" d="M282.4,269.4c3.4,0,6.2,2.8,6.2,6.2v0.1c-0.1,3.4-2.8,6.1-6.2,6.1c-3.4,0-6.2-2.8-6.2-6.2
								C276.2,272.2,279,269.4,282.4,269.4z"/>
							<path class="st4" d="M276.2,275.6l-58.9,8.7c-2.1,0.3-3.5,2.2-3.2,4.3l52.9-1.9c3.8-0.1,7-2.7,7.9-6.4L276.2,275.6z"/>
							<path class="st4" d="M282.4,269.4v-59.5c0-2.1-1.7-3.8-3.8-3.8l-5.8,52.6c-0.4,3.7,1.7,7.3,5.2,8.8L282.4,269.4z"/>
							<path class="st4" d="M288.5,275.7l58.4,11.7c2.1,0.4,4.1-0.9,4.5-3l-50.5-16c-3.6-1.1-7.5,0.2-9.6,3.3L288.5,275.7z"/>
						</g>
					</g>
				</g>
				<g>
					<g id="XMLID_6_">
						<g>
							<path class="st8" d="M606.3,487.2v5.3c0,4.5-3.7,8.1-8.1,8.1h-2.7V479h2.7C602.7,479.1,606.3,482.7,606.3,487.2z"/>
							<path class="st8" d="M559.8,502.9v5.3c0,4.5-3.7,8.1-8.1,8.1H549h-2.7c-4.5,0-8.1-3.6-8.1-8.1v-5.3c0-4.1,3.1-7.5,7.1-8
								c0.4-0.1,0.7-0.1,1.1-0.1h5.3C556.1,494.8,559.8,498.4,559.8,502.9z"/>
							<path class="st9" d="M570.4,516.7H550l-0.9-0.4h2.7c4.5,0,8.1-3.6,8.1-8.1v-5.3c0-4.5-3.7-8.1-8.1-8.1h-5.3
								c-0.4,0-0.7,0-1.1,0.1l0,0v-17.6c0-5.9,4.8-10.7,10.7-10.7h28.8c5.9,0,10.7,4.8,10.7,10.7v1.8v21.6v5.4
								c0,5.9-4.8,10.7-10.7,10.7h-2.5L570.4,516.7L570.4,516.7z"/>
						</g>
						<g>
							<polyline class="st4" points="570.4,547.3 570.4,532.3 570.4,525.9 570.4,516.7 570.4,510.4 570.4,502 570.4,489.9 							
								"/>
							<line class="st4" x1="570.4" y1="502" x2="560.6" y2="492.3"/>
							<line class="st4" x1="570.4" y1="510.4" x2="580.2" y2="500.7"/>
							<path class="st4" d="M545.3,494.8v-17.6c0-5.9,4.8-10.7,10.7-10.7h28.8c5.9,0,10.7,4.8,10.7,10.7v1.8v21.6v5.4
								c0,5.9-4.8,10.7-10.7,10.7h-2.5h-11.9H550"/>
							<polyline class="st4" points="570.4,525.9 550,516.7 549,516.3 							"/>
							<path class="st4" d="M545.3,494.9c0.4-0.1,0.7-0.1,1.1-0.1h5.3c4.5,0,8.1,3.7,8.1,8.1v5.3c0,4.5-3.7,8.1-8.1,8.1H549h-2.7
								c-4.5,0-8.1-3.6-8.1-8.1v-5.3C538.2,498.8,541.3,495.4,545.3,494.9z"/>
							<path class="st4" d="M595.5,479.1h2.7c4.5,0,8.1,3.7,8.1,8.1v5.3c0,4.5-3.7,8.1-8.1,8.1h-2.7"/>
							<line class="st4" x1="570.4" y1="532.3" x2="582.3" y2="517.3"/>
						</g>
					</g>
				</g>
				<g>
					<g id="XMLID_9_">
						<g>
							<path class="st8" d="M482.4,565.7v5.3c0,4.5-3.7,8.1-8.1,8.1h-2.7v-21.6h2.7C478.7,557.5,482.4,561.2,482.4,565.7z"/>
							<path class="st8" d="M435.8,581.4v5.3c0,4.5-3.7,8.1-8.1,8.1H425h-2.7c-4.5,0-8.1-3.6-8.1-8.1v-5.3c0-4.1,3.1-7.5,7.1-8
								c0.4-0.1,0.7-0.1,1.1-0.1h5.3C432.2,573.2,435.8,576.9,435.8,581.4z"/>
							<path class="st9" d="M446.5,595.2H426l-0.9-0.4h2.7c4.5,0,8.1-3.6,8.1-8.1v-5.3c0-4.5-3.7-8.1-8.1-8.1h-5.3
								c-0.4,0-0.7,0-1.1,0.1l0,0v-17.6c0-5.9,4.8-10.7,10.7-10.7h28.8c5.9,0,10.7,4.8,10.7,10.7v1.8v21.6v5.4
								c0,5.9-4.8,10.7-10.7,10.7h-2.5h-11.9V595.2z"/>
						</g>
						<g>
							<polyline class="st4" points="446.5,625.7 446.5,610.8 446.5,604.3 446.5,595.2 446.5,588.9 446.5,580.5 446.5,568.3 							
								"/>
							<line class="st4" x1="446.5" y1="580.5" x2="436.7" y2="570.7"/>
							<line class="st4" x1="446.5" y1="588.9" x2="456.2" y2="579.1"/>
							<path class="st4" d="M421.3,573.3v-17.6c0-5.9,4.8-10.7,10.7-10.7h28.8c5.9,0,10.7,4.8,10.7,10.7v1.8v21.6v5.4
								c0,5.9-4.8,10.7-10.7,10.7h-2.5h-11.9H426"/>
							<polyline class="st4" points="446.5,604.3 426,595.2 425.1,594.8 							"/>
							<path class="st4" d="M421.3,573.3c0.4-0.1,0.7-0.1,1.1-0.1h5.3c4.5,0,8.1,3.7,8.1,8.1v5.3c0,4.5-3.7,8.1-8.1,8.1H425h-2.7
								c-4.5,0-8.1-3.6-8.1-8.1v-5.3C414.3,577.3,417.4,573.8,421.3,573.3z"/>
							<path class="st4" d="M471.6,557.5h2.7c4.5,0,8.1,3.7,8.1,8.1v5.3c0,4.5-3.7,8.1-8.1,8.1h-2.7"/>
							<line class="st4" x1="446.5" y1="610.8" x2="458.4" y2="595.8"/>
						</g>
					</g>
				</g>
				<polyline class="st13" points="530,162.1 530,232.7 553.5,232.7 553.5,264.2 				"/>
				<polyline class="st13" points="695.7,156.4 695.7,195.8 738,195.8 738,271.9 606.3,271.9 606.3,295.5 				"/>
				<polyline class="st13" points="79.5,271.9 79.5,293.5 182.4,293.5 182.4,342.8 250.3,342.8 250.3,372.3 				"/>
				<polyline class="st13" points="130.6,193.9 130.6,232.7 244,232.7 244,261 				"/>
			</g>
		</g>
	</g>
</g>
<g id="DESIGNED_BY_FREEPIK">
</g>
</svg>
