<svg xmlns="http://www.w3.org/2000/svg" viewBox="0 0 824.9 773.78"><defs><style>.cls-1{fill:#3d4046;opacity:0.24;}.cls-2{fill:#eae3e0;}.cls-3{fill:#d8d1cf;}.cls-4{fill:#9d9996;}.cls-20,.cls-5{fill:#c3bebb;}.cls-6{fill:#aca8a5;}.cls-7{fill:#b2adaa;}.cls-8{fill:#232b38;}.cls-9{opacity:0.41;}.cls-10,.cls-11{fill:#354154;}.cls-11{opacity:0.75;}.cls-12{opacity:0.08;}.cls-13{fill:#fff;}.cls-14{fill:#898583;}.cls-15{opacity:0.44;}.cls-16{opacity:0.42;}.cls-17{fill:#fbf4f1;}.cls-18{opacity:0.17;}.cls-19{fill:#5c5c5c;}.cls-20{opacity:0.58;}.cls-21{fill:#95928f;}.cls-22{opacity:0.2;}.cls-23{fill:#f1ebe7;}.cls-24{fill:#989592;}.cls-25{opacity:0.43;}.cls-26,.cls-27{fill:#baaba2;}.cls-26{opacity:0.87;}.cls-28{fill:#ddd7d4;}.cls-29{opacity:0.7;}.cls-30{fill:#ece6e3;}</style></defs><title>Asset 1</title><g id="Layer_2" data-name="Layer 2"><g id="objects_copy" data-name="objects copy"><path class="cls-1" d="M398.45,245.39l-390.2,178A14.11,14.11,0,0,0,8.2,449L261.83,565.84a19.33,19.33,0,0,0,16.11,0L673.07,385.64a9.57,9.57,0,0,0,0-17.4L406.43,245.41A9.57,9.57,0,0,0,398.45,245.39Z"/><path class="cls-2" d="M479.4,464.05,403,498.92a7.57,7.57,0,0,0-1.46,12.9l81,62A27.07,27.07,0,0,0,510.22,577l116.33-53.06c6.27-2.86,7.27-15.54.72-17.68L484.9,463.75A7.57,7.57,0,0,0,479.4,464.05Z"/><path class="cls-3" d="M484.9,463.75a7.57,7.57,0,0,0-5.5.31L403,498.92a7.57,7.57,0,0,0-1.46,12.9l81,62A27.06,27.06,0,0,0,506,578.52V470Z"/><path class="cls-4" d="M484.9,463.75a7.57,7.57,0,0,0-5.5.31L403,498.92a7.57,7.57,0,0,0-1.46,12.9l81,62a27.08,27.08,0,0,0,3,2V464Z"/><path class="cls-5" d="M479.4,458.8,403,493.67a7.57,7.57,0,0,0-1.46,12.9l81,62a27.07,27.07,0,0,0,27.69,3.14L626.55,518.7a7.57,7.57,0,0,0-.79-14.08L484.9,458.5A7.57,7.57,0,0,0,479.4,458.8Z"/><path class="cls-6" d="M493.19,461.34a7.57,7.57,0,0,0-5.5.31l-76.45,34.87c-5.2,2.37-8,12.43-3.47,15.9l49.28,37,106.42-65Z"/><path class="cls-5" d="M277,215.19v351c0,10.61,16.8,23.15,26.45,18.75L713.61,387.84a14.58,14.58,0,0,0,8.53-13.26l8.38-360.94c0-10.61-19.35-16.58-29-12.18L293.62,189.34A28.4,28.4,0,0,0,277,215.19Z"/><path class="cls-7" d="M293.29,189.5A28.4,28.4,0,0,0,277,215.19v351c0,10.61,16.8,23.15,26.45,18.75l40.75-19.58v-368Z"/><path class="cls-8" d="M287.42,221.56v351A14.58,14.58,0,0,0,308,585.79L724,394.22A14.58,14.58,0,0,0,732.57,381V21.1A14.58,14.58,0,0,0,711.94,7.84L304,195.72A28.4,28.4,0,0,0,287.42,221.56Z"/><path class="cls-2" d="M287.42,572.53A14.58,14.58,0,0,0,308,585.79L724,394.22A14.58,14.58,0,0,0,732.57,381V333.65L287.42,538.52Z"/><g class="cls-9"><path class="cls-6" d="M724,389,308,580.53a14.58,14.58,0,0,1-20.63-13.26v5.26A14.58,14.58,0,0,0,308,585.79L724,394.22A14.58,14.58,0,0,0,732.57,381V375.7A14.58,14.58,0,0,1,724,389Z"/></g><path class="cls-10" d="M306.8,220.41V501.78a6.09,6.09,0,0,0,8.61,5.54L711.53,326.64a6.09,6.09,0,0,0,3.56-5.54V39.73a6.09,6.09,0,0,0-8.61-5.54L310.36,214.87A6.09,6.09,0,0,0,306.8,220.41Z"/><path class="cls-11" d="M513.67,454.14v8.77a4.88,4.88,0,0,0,6.91,4.44l6.68-3a4.88,4.88,0,0,0,2.86-4.44v-8.77a4.88,4.88,0,0,0-6.91-4.44l-6.68,3A4.88,4.88,0,0,0,513.67,454.14Z"/><g class="cls-12"><path class="cls-13" d="M732.57,21.1A14.58,14.58,0,0,0,711.94,7.84L557.28,79.07,498.66,441.3,732.57,333.65Z"/></g><path class="cls-13" d="M287.86,237.66s.12,17.18.29,42.94l.15,44c0,16.1,0,33.28.06,50.46s0,34.35-.07,50.46l-.16,44-.28,42.94a.44.44,0,0,1-.87,0l-.28-42.94c0-12.88-.1-27.91-.16-44s0-33.28-.07-50.46,0-34.35.06-50.46l.16-44c.17-25.77.29-42.94.29-42.94a.44.44,0,0,1,.87,0Z"/><path class="cls-13" d="M667.48,28.43l-54.7,25.51L556.64,80l-64.39,29.73L427.81,139.3,371.55,165l-54.94,25a.44.44,0,0,1-.37-.79l54.7-25.51,56.13-26L491.46,108l64.44-29.61,56.26-25.74,54.94-25a.44.44,0,0,1,.37.79Z"/><path class="cls-1" d="M818.9,597.08a6.67,6.67,0,0,0-2.44-5.61h0c-.79-.65-1.59-1.28-2.38-1.9l-.52-.41q-1.18-.91-2.35-1.79l-.28-.21q-1.12-.83-2.24-1.62l-.34-.24q-1.22-.86-2.43-1.68l-.27-.18q-2.53-1.7-5-3.23l-.14-.09a137.62,137.62,0,0,0-40.71-16.76h0a98.56,98.56,0,0,0-16.87-2.54h-1c-.47,0-1.27,0-2.36.08-.91.07-2,.18-3.31.38-.77.12-1.61.26-2.5.45a56.44,56.44,0,0,0-6,1.58c-1.47.47-3,1-4.63,1.7s-3.3,1.44-5,2.33a73.9,73.9,0,0,0-11.79,7.32l-.68.54q-.65.53-1.19,1l-.51.46-.46.44a1.84,1.84,0,0,0-.57,1.41,1.91,1.91,0,0,0,.18.72,2.71,2.71,0,0,0,.29,1.55,2.59,2.59,0,0,0,1.2,2.9c6,3.38,73.18,33.86,77.4,34.68s13.2,1,27.11-6.49c9.41-5.09,10.39-9.78,10-12.29A6.1,6.1,0,0,0,818.9,597.08Z"/><path class="cls-14" d="M710.28,585.22c6,3.38,73.18,33.86,77.4,34.68s13.2,1,27.11-6.49,9.4-14.19,9.4-14.19l-37.6-15.89-62.79-9.4s-9.26,2.4-13.18,5.78C708.76,581.34,708.34,584.13,710.28,585.22Z"/><path class="cls-5" d="M710.28,583.53c6,3.38,72.28,33.47,77.4,34.68s13.2,1,27.11-6.49,9.4-14.19,9.4-14.19l-37.6-15.89-62.79-9.4s-9.48,2.6-13.51,5.93C708.26,579.86,708.26,582.39,710.28,583.53Z"/><path class="cls-2" d="M822.63,603a6.66,6.66,0,0,0-.39-10c-36.13-29.51-72.52-30.61-74.11-30.67,0,0-10.4-.64-24.31,6.51-7.88,4-12.29,7.52-14.63,9.77a1.87,1.87,0,0,0,1,3.19c11.38,1.86,41.34,5.49,72.38,31.79a10.33,10.33,0,0,0,7.59,2.43,66,66,0,0,0,20.31-5.45A41.84,41.84,0,0,0,822.63,603Z"/><g class="cls-15"><path class="cls-5" d="M730.68,570.84c14.68-7.54,25.64-6.86,25.64-6.86a80.6,80.6,0,0,1,9.21.94,94.87,94.87,0,0,0-17.41-2.56s-10.4-.64-24.31,6.51c-7.88,4-12.29,7.52-14.63,9.77a1.87,1.87,0,0,0,1,3.19l4.46.71a1.93,1.93,0,0,1,.6-1.4C717.72,578.77,722.37,575.11,730.68,570.84Z"/></g><g class="cls-16"><path class="cls-17" d="M822.24,593a143.73,143.73,0,0,0-21.11-14.33,36.9,36.9,0,0,1-14.34,10.52c-10.48,4.44-21.79,6.33-29.75,7.14a139.59,139.59,0,0,1,25.52,17.27,10.33,10.33,0,0,0,7.59,2.43,66,66,0,0,0,20.31-5.45A41.84,41.84,0,0,0,822.63,603,6.66,6.66,0,0,0,822.24,593Z"/></g><g class="cls-18"><path class="cls-19" d="M824.46,602.45l-.16.34a6.93,6.93,0,0,1-1.07,1.57c-.2.23-.44.44-.67.66-.48.46-1.06,1-1.73,1.5a41.12,41.12,0,0,1-5.1,3.45,58.11,58.11,0,0,1-7.17,3.47,72,72,0,0,1-8.94,3c-1.62.43-3.3.81-5,1.12-.87.16-1.75.29-2.64.4a24.64,24.64,0,0,1-2.78.23,11.11,11.11,0,0,1-5.64-1.59,10.86,10.86,0,0,1-1.24-.86l-1.1-.89-2.2-1.79c-3-2.3-6.08-4.55-9.28-6.67s-6.47-4.13-9.76-6-6.59-3.57-9.84-5.12-6.43-3-9.51-4.11a79.57,79.57,0,0,0-8.87-2.67c-5.6-1.39-10.31-2.43-13.6-3.13l-5.19-1.07h0a.39.39,0,0,1,.15-.77l5.23.92c3.32.63,8.08,1.47,13.73,2.79a81,81,0,0,1,9.06,2.57c3.15,1.13,6.4,2.49,9.68,4s6.63,3.27,10,5.12,6.64,3.88,9.89,6,6.36,4.44,9.38,6.81l2.19,1.8,1.08.89a9.23,9.23,0,0,0,1.06.74,9.52,9.52,0,0,0,4.83,1.39,23.49,23.49,0,0,0,2.58-.21c.87-.11,1.73-.23,2.58-.37,1.7-.28,3.34-.62,4.94-1a70.71,70.71,0,0,0,8.8-2.81,64.57,64.57,0,0,0,7.11-3.25,40.07,40.07,0,0,0,5.06-3.23,16.77,16.77,0,0,0,2.82-2.53,6,6,0,0,0,.53-.81l.15-.3h0a.39.39,0,0,1,.7.34Z"/></g><path class="cls-13" d="M824.46,601.11l-.16.34a6.93,6.93,0,0,1-1.07,1.57c-.2.23-.44.44-.67.66-.48.46-1.06,1-1.73,1.5a41.12,41.12,0,0,1-5.1,3.45,58.11,58.11,0,0,1-7.17,3.47,72,72,0,0,1-8.94,3c-1.62.43-3.3.81-5,1.12-.87.16-1.75.29-2.64.4a24.58,24.58,0,0,1-2.78.23,11.11,11.11,0,0,1-5.64-1.59,10.85,10.85,0,0,1-1.24-.86l-1.1-.89-2.2-1.79c-3-2.3-6.08-4.55-9.28-6.67s-6.47-4.13-9.76-6-6.59-3.57-9.84-5.12-6.43-3-9.51-4.11a79.57,79.57,0,0,0-8.87-2.67c-5.6-1.4-10.31-2.43-13.6-3.13L712.94,583h0a.39.39,0,0,1,.15-.77l5.23.92c3.32.63,8.08,1.47,13.73,2.79a80.93,80.93,0,0,1,9.06,2.57c3.15,1.13,6.4,2.49,9.68,4s6.63,3.27,10,5.12,6.64,3.88,9.89,6,6.36,4.44,9.38,6.81l2.19,1.8,1.08.89a9.26,9.26,0,0,0,1.06.74,9.52,9.52,0,0,0,4.83,1.39,23.51,23.51,0,0,0,2.58-.21c.87-.11,1.73-.23,2.58-.37,1.7-.28,3.34-.62,4.94-1a70.71,70.71,0,0,0,8.8-2.81,64.57,64.57,0,0,0,7.11-3.25,40.07,40.07,0,0,0,5.06-3.23,16.77,16.77,0,0,0,2.82-2.53,6,6,0,0,0,.53-.81l.15-.3h0a.39.39,0,0,1,.7.34Z"/><path class="cls-20" d="M797.42,593,793,594.91a2.21,2.21,0,0,0-.51,3.72l3.38,2.79a4.08,4.08,0,0,0,4.27.58l3.32-1.49a2.21,2.21,0,0,0,.5-3.72l-4.26-3.52A2.21,2.21,0,0,0,797.42,593Z"/><path class="cls-1" d="M610.31,601.8l-241,109.92a4.39,4.39,0,0,0,0,8l116.53,53.67a4.39,4.39,0,0,0,3.66,0l241-109.92a4.39,4.39,0,0,0,0-8L614,601.81A4.39,4.39,0,0,0,610.31,601.8Z"/><polygon class="cls-21" points="434.66 706.76 395.85 724.46 402.84 731.88 441.65 714.18 434.66 706.76"/><path class="cls-2" d="M642.37,596.47,391.9,708.42c-1.68.76-1.68,5.44,0,6.21l92.26,58.22a9.08,9.08,0,0,0,7.56,0L740.28,659.49c1.68-.77,2-5.25.33-6l-94.46-57A4.55,4.55,0,0,0,642.37,596.47Z"/><path class="cls-5" d="M408.74,720.08c1.06,7-3.54,12.67-10.27,12.68s-13-5.64-14.09-12.64,3.54-12.67,10.27-12.68S407.69,713.09,408.74,720.08Z"/><path class="cls-5" d="M642.37,593.41,391.89,707.65a2.15,2.15,0,0,0,0,3.91l92.26,58.22a9.08,9.08,0,0,0,7.56,0L740.28,656.43a2.16,2.16,0,0,0,0-3.93l-94.13-59.08A4.55,4.55,0,0,0,642.37,593.41Z"/><g class="cls-22"><path class="cls-23" d="M740.29,652.5,691,621.55,421.78,730.43l62.37,39.36a9.07,9.07,0,0,0,7.56,0L740.28,656.43A2.16,2.16,0,0,0,740.29,652.5Z"/></g><path class="cls-24" d="M644.46,693.05l-75.73,34.53a5.57,5.57,0,0,1-4.71-.17l-9.16-5.75a1.62,1.62,0,0,1-.69-.77c-.44.59-.3,1.29.52,1.8l9.16,5.75a5.57,5.57,0,0,0,4.71.17l75.73-34.53c1-.45,1.35-1.12,1.11-1.74A2.37,2.37,0,0,1,644.46,693.05Z"/><path class="cls-24" d="M684.35,674.86,675.23,679a5.57,5.57,0,0,1-4.71-.17l-9.16-5.75a1.62,1.62,0,0,1-.69-.77c-.44.59-.3,1.29.52,1.8l9.16,5.75a5.57,5.57,0,0,0,4.71.17l9.12-4.16c1-.45,1.35-1.12,1.11-1.74A2.37,2.37,0,0,1,684.35,674.86Z"/><path class="cls-24" d="M559.36,731.86l-11.59,5.29a5.57,5.57,0,0,1-4.71-.17l-9.16-5.75a1.62,1.62,0,0,1-.69-.77c-.44.59-.3,1.29.51,1.8l9.16,5.75a5.57,5.57,0,0,0,4.71.17l11.59-5.29c1-.45,1.35-1.12,1.11-1.74A2.37,2.37,0,0,1,559.36,731.86Z"/><path class="cls-24" d="M665.87,683.29l-12.05,5.5a5.57,5.57,0,0,1-4.71-.17L640,682.86a1.62,1.62,0,0,1-.69-.77c-.44.59-.3,1.28.51,1.8l9.16,5.75a5.57,5.57,0,0,0,4.71.17l12.05-5.5c1-.45,1.35-1.12,1.11-1.74A2.37,2.37,0,0,1,665.87,683.29Z"/><path class="cls-24" d="M492.07,743.86a2.36,2.36,0,0,1-.94.72l-18.9,8.62a5.57,5.57,0,0,1-4.71-.17l-7.38-4.63a1.62,1.62,0,0,1-.69-.77c-.44.59-.3,1.29.52,1.8l7.38,4.63a5.57,5.57,0,0,0,4.71.17l18.9-8.62C491.93,745.17,492.3,744.48,492.07,743.86Z"/><path class="cls-24" d="M538.41,741.41l-10,4.57a5.57,5.57,0,0,1-4.71-.17l-9.16-5.75a1.62,1.62,0,0,1-.69-.77c-.44.59-.3,1.29.52,1.8l9.16,5.75a5.57,5.57,0,0,0,4.71.17l10-4.57c1-.45,1.35-1.12,1.11-1.74A2.37,2.37,0,0,1,538.41,741.41Z"/><path class="cls-24" d="M519,750.25l-8.74,4a5.57,5.57,0,0,1-4.71-.17l-9.16-5.75a1.62,1.62,0,0,1-.69-.77c-.44.59-.3,1.29.52,1.8l9.16,5.75a5.57,5.57,0,0,0,4.71.17l8.74-4c1-.45,1.35-1.12,1.11-1.74A2.37,2.37,0,0,1,519,750.25Z"/><path class="cls-24" d="M500.93,758.5l-11.74,5.35a5.57,5.57,0,0,1-4.71-.17l-9.16-5.75a1.62,1.62,0,0,1-.69-.77c-.44.59-.3,1.29.52,1.8l9.16,5.75a5.57,5.57,0,0,0,4.71.17l11.74-5.35c1-.45,1.35-1.12,1.11-1.74A2.37,2.37,0,0,1,500.93,758.5Z"/><path class="cls-24" d="M582.4,662.69l5.13,3.22a10.18,10.18,0,0,0,2.34,1,5,5,0,0,0,2.72-.51l9.67-4.41c1-.45,1.35-1.12,1.11-1.74a2.37,2.37,0,0,1-.94.71l-9.67,4.41a5,5,0,0,1-2.72.51,10.18,10.18,0,0,1-2.34-1l-5.13-3.22a1.62,1.62,0,0,1-.69-.77C581.45,661.49,581.59,662.18,582.4,662.69Z"/><path class="cls-24" d="M562.73,671.66l5.53,3.47a5.37,5.37,0,0,0,2.29.8,5.54,5.54,0,0,0,2.47-.58l10.32-4.71c1-.44,1.35-1.12,1.11-1.74a2.37,2.37,0,0,1-.94.71l-10.32,4.71a5.54,5.54,0,0,1-2.47.58,5.37,5.37,0,0,1-2.29-.8l-5.53-3.47a1.62,1.62,0,0,1-.69-.77C561.78,670.46,561.92,671.15,562.73,671.66Z"/><path class="cls-24" d="M543.15,680.59l5.59,3.51a5.57,5.57,0,0,0,4.71.17l10.22-4.66c1-.45,1.35-1.12,1.11-1.74a2.37,2.37,0,0,1-.94.71l-10.22,4.66a5.57,5.57,0,0,1-4.71-.17l-5.59-3.51a1.62,1.62,0,0,1-.69-.77C542.19,679.39,542.34,680.08,543.15,680.59Z"/><path class="cls-24" d="M642.52,642.71l-10.27,4.68a5.57,5.57,0,0,1-4.71-.17L622,643.71a1.62,1.62,0,0,1-.69-.77c-.44.59-.3,1.29.52,1.8l5.59,3.51a5.57,5.57,0,0,0,4.71.17l10.27-4.68c1-.45,1.35-1.12,1.11-1.74A2.37,2.37,0,0,1,642.52,642.71Z"/><path class="cls-24" d="M601.33,654.06l5.57,3.5a4.51,4.51,0,0,0,2.42.66,4.18,4.18,0,0,0,2.3-.48l11.09-5.06c1-.45,1.35-1.12,1.11-1.74a2.37,2.37,0,0,1-.94.71l-11.09,5.06a4.18,4.18,0,0,1-2.3.48,4.51,4.51,0,0,1-2.42-.66L601.5,653a1.62,1.62,0,0,1-.69-.77C600.37,652.86,600.51,653.55,601.33,654.06Z"/><path class="cls-24" d="M662.57,649.93l-11.3,5.15a5.57,5.57,0,0,1-4.71-.17l-7.29-4.58a1.62,1.62,0,0,1-.69-.77c-.44.59-.3,1.29.52,1.8l7.29,4.58a5.57,5.57,0,0,0,4.71.17L662.4,651c1-.45,1.35-1.12,1.11-1.74A2.37,2.37,0,0,1,662.57,649.93Z"/><path class="cls-24" d="M531.7,659.65l2.52,1.58a5.57,5.57,0,0,0,4.71.17l12.66-5.77c1-.45,1.35-1.12,1.11-1.74a2.37,2.37,0,0,1-.94.71l-12.66,5.77a5.57,5.57,0,0,1-4.71-.17l-2.52-1.58a1.62,1.62,0,0,1-.69-.77C530.74,658.44,530.89,659.14,531.7,659.65Z"/><path class="cls-24" d="M594.07,631.21l2.52,1.58a5.57,5.57,0,0,0,4.71.17l12.92-5.89c1-.45,1.35-1.12,1.11-1.74a2.37,2.37,0,0,1-.94.71l-12.92,5.89a5.57,5.57,0,0,1-4.71-.17l-2.52-1.58a1.62,1.62,0,0,1-.69-.77C593.11,630,593.26,630.7,594.07,631.21Z"/><path class="cls-24" d="M635.84,612.16l2.52,1.58a5.57,5.57,0,0,0,4.71.17l11.73-5.35c1-.45,1.35-1.12,1.11-1.74a2.37,2.37,0,0,1-.94.71l-11.73,5.35a5.57,5.57,0,0,1-4.71-.17L636,611.13a1.62,1.62,0,0,1-.69-.77C634.88,611,635,611.65,635.84,612.16Z"/><path class="cls-24" d="M616.35,621l2.52,1.58a5.57,5.57,0,0,0,4.71.17l10.12-4.62c1-.45,1.35-1.12,1.11-1.74a2.37,2.37,0,0,1-.94.71l-10.12,4.62a5.57,5.57,0,0,1-4.71-.17L616.53,620a1.62,1.62,0,0,1-.69-.77C615.4,619.84,615.54,620.53,616.35,621Z"/><path class="cls-24" d="M573.76,640.47l2.52,1.58a5.57,5.57,0,0,0,4.71.17l11-5c1-.45,1.35-1.12,1.11-1.74a2.37,2.37,0,0,1-.94.71l-11,5a5.57,5.57,0,0,1-4.71-.17l-2.52-1.58a1.62,1.62,0,0,1-.69-.77C572.8,639.26,572.94,640,573.76,640.47Z"/><path class="cls-24" d="M553.72,649.61l2.52,1.58a5.57,5.57,0,0,0,4.71.17l10.68-4.87c1-.45,1.35-1.12,1.11-1.74a2.37,2.37,0,0,1-.94.71l-10.68,4.87a5.57,5.57,0,0,1-4.71-.17l-2.52-1.58a1.62,1.62,0,0,1-.69-.77C552.76,648.4,552.91,649.1,553.72,649.61Z"/><path class="cls-24" d="M712.47,643.64l-35.21,16.05a4.3,4.3,0,0,1-2.44.47,5.67,5.67,0,0,1-2.43-.78l-7.18-4.51a1.62,1.62,0,0,1-.69-.77c-.44.59-.3,1.29.52,1.8l7.18,4.51a5.67,5.67,0,0,0,2.43.78,4.3,4.3,0,0,0,2.44-.47l35.21-16.05c1-.45,1.35-1.12,1.11-1.74A2.37,2.37,0,0,1,712.47,643.64Z"/><path class="cls-24" d="M485.64,730.33a2.37,2.37,0,0,1-.94.72l-27.48,12.53a7.27,7.27,0,0,1-2.71.62,3.86,3.86,0,0,1-2.17-.7L445,738.91a1.62,1.62,0,0,1-.69-.77c-.44.59-.3,1.29.52,1.8l7.31,4.59a3.86,3.86,0,0,0,2.17.7,7.27,7.27,0,0,0,2.71-.62l27.48-12.53C485.5,731.63,485.88,731,485.64,730.33Z"/><path class="cls-24" d="M668.78,616.21,645,627.07a5.37,5.37,0,0,1-4.67-.24l-5.7-3.81a1.64,1.64,0,0,1-.67-.8c-.43.6-.29,1.3.5,1.83l5.7,3.81a5.37,5.37,0,0,0,4.67.24l23.82-10.86c1-.45,1.35-1.12,1.11-1.74A2.37,2.37,0,0,1,668.78,616.21Z"/><path class="cls-24" d="M697.29,634.1l-4,1.84a5.57,5.57,0,0,1-4.71-.17l-10.28-6.45c-1.18-.74-2.41-1.54-3.28-1.41a16.42,16.42,0,0,0-3.18,1.44,8.19,8.19,0,0,1-3,.71,4.77,4.77,0,0,1-2.31-1l-5.27-3.31a1.62,1.62,0,0,1-.69-.77c-.44.59-.3,1.29.52,1.8l5.27,3.31a4.77,4.77,0,0,0,2.31,1,8.19,8.19,0,0,0,3-.71,16.41,16.41,0,0,1,3.18-1.44c.87-.13,2.11.67,3.28,1.41l10.28,6.45a5.57,5.57,0,0,0,4.71.17l4-1.84c1-.45,1.35-1.12,1.11-1.74A2.37,2.37,0,0,1,697.29,634.1Z"/><path class="cls-24" d="M430.23,705.92l2.52,1.58a5.57,5.57,0,0,0,4.71.17l11-5c1-.45,1.35-1.12,1.11-1.74a2.37,2.37,0,0,1-.94.71l-11,5a5.57,5.57,0,0,1-4.71-.17l-2.52-1.58a1.62,1.62,0,0,1-.69-.77C429.27,704.71,429.42,705.41,430.23,705.92Z"/><path class="cls-24" d="M440.2,720.16a2.37,2.37,0,0,1-.94.71l-10.73,4.9a5.57,5.57,0,0,1-4.71-.17l-6-3.76a1.62,1.62,0,0,1-.69-.77c-.44.59-.3,1.29.52,1.8l6,3.76a5.57,5.57,0,0,0,4.71.17l10.73-4.9C440.06,721.46,440.44,720.78,440.2,720.16Z"/><path class="cls-24" d="M450.54,696.66l2.52,1.58a5.57,5.57,0,0,0,4.71.17l11-5c1-.45,1.35-1.12,1.11-1.74a2.37,2.37,0,0,1-.94.71l-11,5a5.57,5.57,0,0,1-4.71-.17l-2.52-1.58a1.62,1.62,0,0,1-.69-.77C449.58,695.45,449.73,696.15,450.54,696.66Z"/><path class="cls-24" d="M523.46,689.57l5.59,3.51a5.57,5.57,0,0,0,4.71.17l10.33-4.71c1-.45,1.35-1.12,1.11-1.74a2.37,2.37,0,0,1-.94.71l-10.33,4.71a5.57,5.57,0,0,1-4.71-.17l-5.59-3.51a1.62,1.62,0,0,1-.69-.77C522.5,688.37,522.64,689.06,523.46,689.57Z"/><path class="cls-24" d="M466.27,722.8a2.37,2.37,0,0,1-.94.71l-23.4,10.67a5.57,5.57,0,0,1-4.71-.17l-5.59-3.51a1.62,1.62,0,0,1-.69-.77c-.44.59-.3,1.29.52,1.8L437,735a5.57,5.57,0,0,0,4.71.17l23.4-10.67C466.13,724.09,466.51,723.42,466.27,722.8Z"/><path class="cls-24" d="M511.48,668.87l2.52,1.58a5.57,5.57,0,0,0,4.71.17l10.86-5c1-.45,1.35-1.12,1.11-1.74a2.37,2.37,0,0,1-.94.71l-10.86,5a5.57,5.57,0,0,1-4.71-.17l-2.52-1.58a1.62,1.62,0,0,1-.69-.77C510.52,667.66,510.67,668.36,511.48,668.87Z"/><path class="cls-24" d="M470.86,687.39l2.52,1.58a5.57,5.57,0,0,0,4.71.17l11-5c1-.45,1.35-1.12,1.11-1.74a2.37,2.37,0,0,1-.94.71l-11,5a5.57,5.57,0,0,1-4.71-.17L471,686.36a1.62,1.62,0,0,1-.69-.77C469.9,686.19,470,686.88,470.86,687.39Z"/><path class="cls-24" d="M491.17,678.13l2.52,1.58a5.57,5.57,0,0,0,4.71.17l11-5c1-.45,1.35-1.12,1.11-1.74a2.37,2.37,0,0,1-.94.71l-11,5a5.57,5.57,0,0,1-4.71-.17l-2.52-1.58a1.62,1.62,0,0,1-.69-.77C490.21,676.92,490.36,677.62,491.17,678.13Z"/><path class="cls-24" d="M429.46,710.74a.66.66,0,0,0-.12-.54,3.58,3.58,0,0,1-1.17.77l-13.45,6.13a5.57,5.57,0,0,1-4.71-.17l-2.52-1.58a1.62,1.62,0,0,1-.69-.77c-.44.59-.3,1.29.52,1.8l2.52,1.58a5.57,5.57,0,0,0,4.71.17L428,712C429.41,711.35,429.44,710.75,429.46,710.74Z"/><path class="cls-24" d="M510.62,735.69l-10.14,4.62a5.57,5.57,0,0,1-4.71-.17l-7.38-4.63a1.62,1.62,0,0,1-.69-.77c-.44.59-.3,1.29.52,1.8l7.38,4.63a5.57,5.57,0,0,0,4.7.17l10.14-4.62c1-.45,1.35-1.12,1.11-1.74A2.37,2.37,0,0,1,510.62,735.69Z"/><path class="cls-24" d="M481.89,723.05l7.29,4.58a5.57,5.57,0,0,0,4.71.17l10.2-4.65c1-.45,1.35-1.12,1.11-1.74a2.37,2.37,0,0,1-.94.71l-10.2,4.65a5.57,5.57,0,0,1-4.71-.17L482.06,722a1.62,1.62,0,0,1-.69-.77C480.93,721.85,481.08,722.54,481.89,723.05Z"/><path class="cls-24" d="M464.38,716.51,470,720a5.57,5.57,0,0,0,4.71.17L485,715.49c1-.45,1.35-1.12,1.11-1.74a2.37,2.37,0,0,1-.94.71l-10.33,4.71a5.57,5.57,0,0,1-4.71-.17l-5.59-3.51a1.62,1.62,0,0,1-.69-.77C463.42,715.31,463.56,716,464.38,716.51Z"/><path class="cls-24" d="M530.32,726.71,520,731.42a6.9,6.9,0,0,1-2.73.62,5,5,0,0,1-2-.81l-7.35-4.62a1.62,1.62,0,0,1-.69-.77c-.44.59-.3,1.29.52,1.8l7.35,4.62a5,5,0,0,0,2,.81,6.9,6.9,0,0,0,2.73-.62l10.34-4.71c1-.45,1.35-1.12,1.11-1.74A2.37,2.37,0,0,1,530.32,726.71Z"/><path class="cls-24" d="M459,711.89l-10.33,4.71a5.57,5.57,0,0,1-4.71-.17l-6-3.76a1.62,1.62,0,0,1-.69-.77c-.44.59-.3,1.29.52,1.8l6,3.76a5.57,5.57,0,0,0,4.71.17l10.33-4.71c1-.45,1.35-1.12,1.11-1.74A2.37,2.37,0,0,1,459,711.89Z"/><path class="cls-24" d="M477.11,695.78l5.78,3.79a5.43,5.43,0,0,0,4.68.22L498.17,695c1-.45,1.35-1.12,1.11-1.74a2.37,2.37,0,0,1-.94.71l-10.59,4.83a5.43,5.43,0,0,1-4.68-.22l-5.78-3.79a1.63,1.63,0,0,1-.68-.79C476.17,694.55,476.31,695.25,477.11,695.78Z"/><path class="cls-24" d="M465.72,709.28a6.14,6.14,0,0,0,2.42-.63l10.34-4.71c1-.45,1.35-1.12,1.11-1.74a2.37,2.37,0,0,1-.94.71l-10.34,4.71a6.14,6.14,0,0,1-2.42.63,5.59,5.59,0,0,1-2.31-.82l-6-3.75a1.62,1.62,0,0,1-.69-.77c-.44.59-.3,1.29.52,1.8l6,3.75A5.6,5.6,0,0,0,465.72,709.28Z"/><path class="cls-24" d="M550,717.73l-10.33,4.71a5.57,5.57,0,0,1-4.71-.17l-7.38-4.63a1.62,1.62,0,0,1-.69-.77c-.44.59-.3,1.29.52,1.8l7.38,4.63a5.57,5.57,0,0,0,4.71.17l10.33-4.71c1-.45,1.35-1.12,1.11-1.74A2.37,2.37,0,0,1,550,717.73Z"/><path class="cls-24" d="M648.27,672.92,638,677.6a5.57,5.57,0,0,1-4.71-.17l-7.38-4.63a1.62,1.62,0,0,1-.69-.77c-.44.59-.3,1.29.52,1.8l7.38,4.63a5.57,5.57,0,0,0,4.71.17l10.27-4.68c1-.45,1.35-1.12,1.11-1.74A2.37,2.37,0,0,1,648.27,672.92Z"/><path class="cls-24" d="M667.93,664l-10.3,4.7a5.57,5.57,0,0,1-4.71-.17l-7.38-4.63a1.62,1.62,0,0,1-.69-.77c-.44.59-.3,1.29.52,1.8l7.38,4.63a5.57,5.57,0,0,0,4.71.17l10.3-4.7c1-.45,1.35-1.12,1.11-1.74A2.37,2.37,0,0,1,667.93,664Z"/><path class="cls-24" d="M699.77,661.1l8.43-3.85a5,5,0,0,1,1-.32,1,1,0,0,0,.05-.87,2.38,2.38,0,0,1-1,.72l-8.49,3.87a4.46,4.46,0,0,1-3.77-.14l-2.16-1.36a1.7,1.7,0,0,1-.75-.86c-.44.63-.28,1.35.58,1.89l2.16,1.36a4.37,4.37,0,0,0,3,.38A1.45,1.45,0,0,1,699.77,661.1Z"/><path class="cls-24" d="M496.83,686.75l6,3.76a4.92,4.92,0,0,0,2.26.77,5.79,5.79,0,0,0,2.45-.59L517.86,686c1-.45,1.35-1.12,1.11-1.74a2.37,2.37,0,0,1-.94.71l-10.33,4.71a5.8,5.8,0,0,1-2.45.59,4.93,4.93,0,0,1-2.26-.77l-6-3.76a1.62,1.62,0,0,1-.69-.77C495.87,685.55,496,686.24,496.83,686.75Z"/><path class="cls-24" d="M569.6,708.79l-10.22,4.66a5.57,5.57,0,0,1-4.71-.17l-7.38-4.63a1.62,1.62,0,0,1-.69-.77c-.44.59-.3,1.29.52,1.8l7.38,4.63a5.57,5.57,0,0,0,4.71.17l10.22-4.66c1-.45,1.35-1.12,1.11-1.74A2.37,2.37,0,0,1,569.6,708.79Z"/><path class="cls-24" d="M589.27,699.82,579,704.53a5.57,5.57,0,0,1-4.7-.17l-7.38-4.63a1.62,1.62,0,0,1-.69-.77c-.44.59-.3,1.29.52,1.8l7.38,4.63a5.57,5.57,0,0,0,4.71.17l10.31-4.7c1-.44,1.35-1.12,1.11-1.74A2.37,2.37,0,0,1,589.27,699.82Z"/><path class="cls-24" d="M608.19,691.2l-9.62,4.39a4.3,4.3,0,0,1-2.65.39,5.82,5.82,0,0,1-2.33-.8l-7-4.42a1.62,1.62,0,0,1-.69-.77c-.44.59-.3,1.29.52,1.8l7,4.42a5.82,5.82,0,0,0,2.33.8,4.3,4.3,0,0,0,2.65-.39l9.62-4.39c1-.45,1.35-1.12,1.11-1.74A2.37,2.37,0,0,1,608.19,691.2Z"/><path class="cls-24" d="M628.64,681.87l-11.09,5.06a5.57,5.57,0,0,1-4.71-.17l-7.38-4.63a1.62,1.62,0,0,1-.69-.77c-.44.59-.3,1.29.52,1.8l7.38,4.63a5.57,5.57,0,0,0,4.71.17l11.09-5.06c1-.45,1.35-1.12,1.11-1.74A2.37,2.37,0,0,1,628.64,681.87Z"/><path class="cls-24" d="M503.76,698.55,509.2,702a3.9,3.9,0,0,0,2.22.82,4.13,4.13,0,0,0,2.62-.54l10.35-4.72c1-.45,1.35-1.12,1.11-1.74a2.37,2.37,0,0,1-.94.71l-10.35,4.72a4.13,4.13,0,0,1-2.62.54,3.9,3.9,0,0,1-2.22-.82l-5.44-3.41a1.62,1.62,0,0,1-.69-.77C502.8,697.35,502.95,698,503.76,698.55Z"/><path class="cls-24" d="M582.9,686.27,572.48,691a4.16,4.16,0,0,1-2.62.57,4.83,4.83,0,0,1-2.44-1.09l-6.83-4.29a1.62,1.62,0,0,1-.69-.77c-.44.59-.3,1.29.52,1.8l6.83,4.29a4.83,4.83,0,0,0,2.44,1.09,4.16,4.16,0,0,0,2.62-.57l10.42-4.75c1-.45,1.35-1.12,1.11-1.74A2.37,2.37,0,0,1,582.9,686.27Z"/><path class="cls-24" d="M601.82,677.64,592.26,682a5.57,5.57,0,0,1-4.71-.17l-7.29-4.58a1.62,1.62,0,0,1-.69-.77c-.44.59-.3,1.29.52,1.8l7.29,4.58a5.57,5.57,0,0,0,4.71.17l9.56-4.36c1-.45,1.35-1.12,1.11-1.74A2.37,2.37,0,0,1,601.82,677.64Z"/><path class="cls-24" d="M641.91,659.36,631.64,664a5.57,5.57,0,0,1-4.71-.17l-7.29-4.58a1.62,1.62,0,0,1-.69-.77c-.44.59-.3,1.29.51,1.8l7.29,4.58a5.57,5.57,0,0,0,4.71.17l10.27-4.68c1-.45,1.35-1.12,1.11-1.74A2.37,2.37,0,0,1,641.91,659.36Z"/><path class="cls-24" d="M563.23,695.24,553,699.9a5.57,5.57,0,0,1-4.71-.17L541,695.14a1.62,1.62,0,0,1-.69-.77c-.44.59-.3,1.29.52,1.8l7.29,4.58a5.57,5.57,0,0,0,4.71.17l10.22-4.66c1-.45,1.35-1.12,1.11-1.74A2.37,2.37,0,0,1,563.23,695.24Z"/><path class="cls-24" d="M622.26,668.25l-11.48,4.92a5.73,5.73,0,0,1-4.72-.24l-6.87-4.32a1.62,1.62,0,0,1-.69-.77c-.44.59-.3,1.29.52,1.8l6.87,4.32a5.73,5.73,0,0,0,4.72.24l11.48-4.92c1-.43,1.37-1.09,1.12-1.71A2.34,2.34,0,0,1,622.26,668.25Z"/><path class="cls-24" d="M543.64,704.17l-10.33,4.71a5.57,5.57,0,0,1-4.71-.17l-7.29-4.58a1.62,1.62,0,0,1-.69-.77c-.44.59-.3,1.29.52,1.8l7.29,4.58a5.57,5.57,0,0,0,4.71.17l10.33-4.71c1-.45,1.35-1.12,1.11-1.74A2.37,2.37,0,0,1,543.64,704.17Z"/><path class="cls-24" d="M484.07,707.53l5.59,3.51a5.57,5.57,0,0,0,4.71.17l10.33-4.71c1-.45,1.35-1.12,1.11-1.74a2.37,2.37,0,0,1-.94.71l-10.33,4.71a5.57,5.57,0,0,1-4.71-.17l-5.59-3.51a1.62,1.62,0,0,1-.69-.77C483.11,706.33,483.26,707,484.07,707.53Z"/><path class="cls-24" d="M524,713.15l-10.48,4.78a4.49,4.49,0,0,1-2.68.49,13.83,13.83,0,0,1-2.44-1.08l-6.74-4.23a1.62,1.62,0,0,1-.69-.77c-.44.59-.3,1.29.52,1.8l6.74,4.23a13.84,13.84,0,0,0,2.44,1.08,4.49,4.49,0,0,0,2.68-.49l10.48-4.78c1-.45,1.35-1.12,1.11-1.74A2.37,2.37,0,0,1,524,713.15Z"/><path class="cls-24" d="M614.78,633l5.95,3.74,2.17,1.36,2.58-1.16,10.31-4.7c1-.45,1.35-1.12,1.11-1.74a2.37,2.37,0,0,1-.94.71l-10.31,4.7L623.07,637l-2.17-1.36L615,631.93a1.62,1.62,0,0,1-.69-.77C613.82,631.76,614,632.45,614.78,633Z"/><path class="cls-24" d="M536.11,668.84l6,3.76a5.57,5.57,0,0,0,4.71.17l10.31-4.7c1-.45,1.35-1.12,1.11-1.74a2.37,2.37,0,0,1-.94.71L547,671.75a5.57,5.57,0,0,1-4.71-.17l-6-3.76a1.62,1.62,0,0,1-.69-.77C535.15,667.64,535.29,668.33,536.11,668.84Z"/><path class="cls-24" d="M683.88,640.22l-12,5.45a5.57,5.57,0,0,1-4.71-.17l-7.29-4.58a1.62,1.62,0,0,1-.69-.77c-.44.59-.3,1.29.52,1.8l7.29,4.58a5.57,5.57,0,0,0,4.71.17l12-5.45c1-.45,1.35-1.12,1.11-1.74A2.37,2.37,0,0,1,683.88,640.22Z"/><path class="cls-24" d="M574.7,651.24l6,3.76a5.57,5.57,0,0,0,4.71.17l11.09-5.06c1-.45,1.35-1.12,1.11-1.74a2.37,2.37,0,0,1-.94.71l-11.09,5.06a5.57,5.57,0,0,1-4.71-.17l-6-3.76a1.62,1.62,0,0,1-.69-.77C573.74,650,573.89,650.73,574.7,651.24Z"/><path class="cls-24" d="M555.78,659.87l6,3.76a5.57,5.57,0,0,0,4.71.17l9.56-4.36c1-.44,1.35-1.12,1.11-1.74a2.37,2.37,0,0,1-.94.71l-9.56,4.36a5.57,5.57,0,0,1-4.71-.17l-6-3.76a1.62,1.62,0,0,1-.69-.77C554.82,658.67,555,659.36,555.78,659.87Z"/><path class="cls-24" d="M516.52,677.77l5.87,3.69a6,6,0,0,0,2.33.84,5.4,5.4,0,0,0,2.47-.58L537.44,677c1-.45,1.35-1.12,1.11-1.74a2.37,2.37,0,0,1-.94.71l-10.24,4.67a5.4,5.4,0,0,1-2.47.58,6,6,0,0,1-2.33-.84l-5.87-3.69A1.62,1.62,0,0,1,516,676C515.56,676.57,515.71,677.26,516.52,677.77Z"/><path class="cls-24" d="M595.15,641.92l6,3.76a5.57,5.57,0,0,0,4.71.17l10.27-4.68c1-.45,1.35-1.12,1.11-1.74a2.37,2.37,0,0,1-.94.71L606,644.82a5.57,5.57,0,0,1-4.71-.17l-6-3.76a1.62,1.62,0,0,1-.69-.77C594.19,640.71,594.34,641.41,595.15,641.92Z"/><path class="cls-24" d="M641.41,635.78l5.59,3.51a5.57,5.57,0,0,0,4.71.17l10.3-4.7c1-.45,1.35-1.12,1.11-1.74a2.37,2.37,0,0,1-.94.71l-10.3,4.7a5.57,5.57,0,0,1-4.71-.17l-5.59-3.51a1.62,1.62,0,0,1-.69-.77C640.45,634.58,640.6,635.27,641.41,635.78Z"/><path class="cls-24" d="M685.87,668.1c-1.32.6-1.5,1.66-.4,2.35l1.26.79a5.69,5.69,0,0,0,4.81.18l8-3.67c1.19-.54,1.35-1.5.36-2.12l-1.45-.91a5.69,5.69,0,0,0-4.81-.18Z"/><path class="cls-24" d="M699.77,661.8c-1.06.48-1.2,1.33-.32,1.89l1.52,1a6,6,0,0,0,5.1.19L714.5,661c1.06-.48,1.2-1.33.32-1.89l-1.52-1a6,6,0,0,0-5.1-.19Z"/><path class="cls-24" d="M716.43,658a5.76,5.76,0,0,0,4.86.18l7.79-3.55c.86-.39,1-1.08.26-1.52l-1.94-1.22a5.76,5.76,0,0,0-4.86-.18l-8,3.66c-.72.33-.82.91-.22,1.29Z"/><path class="cls-23" d="M685.87,667.38c-1.32.6-1.5,1.66-.4,2.35l1.26.79a5.69,5.69,0,0,0,4.81.18l8-3.67c1.19-.54,1.35-1.5.36-2.12l-1.45-.91a5.69,5.69,0,0,0-4.81-.18Z"/><path class="cls-23" d="M555.28,719.15c-1.41.64-1.6,1.77-.42,2.51l9.16,5.75a5.57,5.57,0,0,0,4.71.17l75.73-34.53c1.41-.64,1.6-1.77.42-2.51l-9.16-5.75a5.57,5.57,0,0,0-4.71-.17Z"/><path class="cls-23" d="M661.79,670.58c-1.41.64-1.6,1.77-.42,2.51l9.16,5.75a5.57,5.57,0,0,0,4.71.17l9.12-4.16c1.41-.64,1.6-1.77.42-2.51l-9.16-5.75a5.57,5.57,0,0,0-4.71-.17Z"/><path class="cls-23" d="M534.33,728.7c-1.41.64-1.6,1.77-.42,2.51l9.16,5.75a5.57,5.57,0,0,0,4.71.17l11.59-5.29c1.41-.64,1.6-1.77.42-2.51l-9.16-5.75a5.57,5.57,0,0,0-4.71-.17Z"/><path class="cls-23" d="M640.38,680.35c-1.41.64-1.6,1.76-.43,2.5l9.16,5.75a5.57,5.57,0,0,0,4.71.17l12.05-5.5c1.41-.64,1.6-1.77.42-2.51l-9.08-5.7a5.6,5.6,0,0,0-4.71-.19Z"/><path class="cls-23" d="M484.41,737.35a5.44,5.44,0,0,0-4.68-.21l-19.17,8.74c-1.41.64-1.6,1.77-.42,2.51l7.38,4.63a5.57,5.57,0,0,0,4.71.17l18.9-8.62c1.41-.64,1.61-1.78.43-2.53Z"/><path class="cls-23" d="M515,737.54c-1.41.64-1.6,1.77-.42,2.51l9.16,5.75a5.57,5.57,0,0,0,4.71.17l10-4.57c1.41-.64,1.6-1.77.42-2.51l-9.16-5.75A5.57,5.57,0,0,0,525,733Z"/><path class="cls-23" d="M496.85,745.79c-1.41.64-1.6,1.77-.42,2.51l9.16,5.75a5.57,5.57,0,0,0,4.71.17l8.74-4c1.41-.64,1.6-1.77.42-2.51L510.3,742a5.57,5.57,0,0,0-4.71-.17Z"/><path class="cls-23" d="M475.75,755.42c-1.41.64-1.6,1.77-.42,2.51l9.16,5.75a5.57,5.57,0,0,0,4.71.17l11.74-5.35c1.41-.64,1.6-1.77.42-2.51l-9.16-5.75a5.57,5.57,0,0,0-4.71-.17Z"/><path class="cls-23" d="M595.59,654.18a4.61,4.61,0,0,0-2.9.55L583,659.15c-1.41.64-1.6,1.77-.42,2.51l5.13,3.22a10.18,10.18,0,0,0,2.34,1,5,5,0,0,0,2.72-.51l9.67-4.41c1.41-.64,1.6-1.77.42-2.51l-5.08-3.19C596.6,654.54,596.5,654.28,595.59,654.18Z"/><path class="cls-23" d="M699.77,661.1c-1.06.48-1.2,1.33-.32,1.89l1.52,1a6,6,0,0,0,5.1.19l8.43-3.84c1.06-.48,1.2-1.33.32-1.89l-1.52-1a6,6,0,0,0-5.1-.19Z"/><path class="cls-23" d="M563.33,668.12c-1.41.64-1.6,1.77-.42,2.51l5.53,3.47a5.37,5.37,0,0,0,2.29.8,5.54,5.54,0,0,0,2.47-.58l10.32-4.71c1.41-.64,1.6-1.77.42-2.51l-5.59-3.51a5.57,5.57,0,0,0-4.71-.17Z"/><path class="cls-23" d="M556.52,671.75a5.86,5.86,0,0,0-2.52.62L543.75,677c-1.41.64-1.6,1.77-.42,2.51l5.59,3.51a5.57,5.57,0,0,0,4.71.17l10.22-4.66c1.41-.64,1.6-1.77.42-2.51l-5.4-3.39A7.55,7.55,0,0,0,556.52,671.75Z"/><path class="cls-23" d="M642.52,642.71c1.41-.64,1.6-1.77.42-2.51l-5.59-3.51a5.57,5.57,0,0,0-4.71-.17l-10.27,4.68c-1.41.64-1.6,1.77-.42,2.51l5.59,3.51a5.57,5.57,0,0,0,4.71.17Z"/><path class="cls-23" d="M616.1,644.91a4.29,4.29,0,0,0-2.92.47l-11.26,5.13c-1.41.64-1.6,1.77-.42,2.51l5.57,3.5a4.51,4.51,0,0,0,2.42.66,4.18,4.18,0,0,0,2.3-.48l11.09-5.06c1.41-.64,1.6-1.77.42-2.51l-5-3.12A7.85,7.85,0,0,0,616.1,644.91Z"/><path class="cls-23" d="M716.43,657.18a5.76,5.76,0,0,0,4.86.18l7.79-3.55c.86-.39,1-1.08.26-1.52l-1.94-1.22a5.76,5.76,0,0,0-4.86-.18l-8,3.66c-.72.33-.82.91-.22,1.29Z"/><path class="cls-23" d="M639.69,647.82c-1.41.64-1.6,1.77-.42,2.51l7.29,4.58a5.57,5.57,0,0,0,4.71.17l11.3-5.15c1.41-.64,1.6-1.77.42-2.51l-7.29-4.58a5.57,5.57,0,0,0-4.71-.17Z"/><path class="cls-23" d="M551.76,654.6c1.41-.64,1.6-1.77.42-2.51l-2.52-1.58a5.57,5.57,0,0,0-4.71-.17L532.3,656.1c-1.41.64-1.6,1.77-.42,2.51l2.52,1.58a5.57,5.57,0,0,0,4.71.17Z"/><path class="cls-23" d="M614.39,626c1.41-.64,1.6-1.77.42-2.51l-2.52-1.58a5.57,5.57,0,0,0-4.71-.17l-12.92,5.89c-1.41.64-1.6,1.77-.42,2.51l2.52,1.58a5.57,5.57,0,0,0,4.71.17Z"/><path class="cls-23" d="M655,607.54c1.41-.64,1.6-1.77.42-2.51l-2.52-1.58a5.57,5.57,0,0,0-4.71-.17l-11.73,5.35c-1.41.64-1.6,1.77-.42,2.51l2.52,1.58a5.57,5.57,0,0,0,4.71.17Z"/><path class="cls-23" d="M633.88,617.16c1.41-.64,1.6-1.77.42-2.51l-2.52-1.58a5.57,5.57,0,0,0-4.71-.17L617,617.5c-1.41.64-1.6,1.77-.42,2.51l2.52,1.58a5.57,5.57,0,0,0,4.71.17Z"/><path class="cls-23" d="M592.11,636.2c1.41-.64,1.6-1.77.42-2.51L590,632.11a5.57,5.57,0,0,0-4.71-.17l-11,5c-1.41.64-1.6,1.77-.42,2.51l2.52,1.58a5.57,5.57,0,0,0,4.71.17Z"/><path class="cls-23" d="M571.8,645.47c1.41-.64,1.6-1.77.42-2.51l-2.52-1.58a5.57,5.57,0,0,0-4.71-.17l-10.67,4.87c-1.41.64-1.6,1.77-.42,2.51l2.52,1.58a5.57,5.57,0,0,0,4.71.17Z"/><path class="cls-23" d="M672.4,659.39a5.67,5.67,0,0,0,2.43.78,4.3,4.3,0,0,0,2.44-.47l35.21-16.05c1.41-.64,1.6-1.77.42-2.51l-7.38-4.63a5.57,5.57,0,0,0-4.71-.17l-35.18,16c-1.41.64-1.6,1.77-.42,2.51Z"/><path class="cls-23" d="M484.7,731c1.41-.64,1.6-1.78.43-2.52l-7.25-4.59a5.55,5.55,0,0,0-4.7-.18L445.46,736.4c-1.41.64-1.6,1.77-.42,2.51l7.31,4.59a3.86,3.86,0,0,0,2.17.7,7.27,7.27,0,0,0,2.71-.62Z"/><path class="cls-23" d="M640.28,626.84a5.37,5.37,0,0,0,4.67.24l23.82-10.86c1.41-.64,1.6-1.77.42-2.51l-6-3.76a5.57,5.57,0,0,0-4.71-.17L635,620.45c-1.41.64-1.62,1.8-.46,2.57Z"/><path class="cls-23" d="M666.51,629.1a4.77,4.77,0,0,0,2.31,1,8.19,8.19,0,0,0,3-.71,16.42,16.42,0,0,1,3.18-1.44c.87-.13,2.11.67,3.28,1.41l10.28,6.45a5.57,5.57,0,0,0,4.71.17l4-1.84c1.41-.64,1.6-1.77.42-2.51l-20.7-13a5.57,5.57,0,0,0-4.71-.17l-10.64,4.85c-1.41.64-1.6,1.77-.42,2.51Z"/><path class="cls-23" d="M448.58,701.65c1.41-.64,1.6-1.77.42-2.51l-2.52-1.58a5.57,5.57,0,0,0-4.71-.17l-11,5c-1.41.64-1.6,1.77-.42,2.51l2.52,1.58a5.57,5.57,0,0,0,4.71.17Z"/><path class="cls-23" d="M433.69,714.59a5.57,5.57,0,0,0-4.71-.17l-10.73,4.9c-1.41.64-1.6,1.77-.42,2.51l6,3.76a5.57,5.57,0,0,0,4.71.17l10.73-4.9c1.41-.64,1.6-1.77.42-2.51Z"/><path class="cls-23" d="M468.9,692.39c1.41-.64,1.6-1.77.42-2.51l-2.52-1.58a5.57,5.57,0,0,0-4.71-.17l-11,5c-1.41.64-1.6,1.77-.42,2.51l2.52,1.58a5.57,5.57,0,0,0,4.71.17Z"/><path class="cls-23" d="M524.05,686c-1.41.64-1.6,1.77-.42,2.51l5.59,3.51a5.57,5.57,0,0,0,4.71.17l10.33-4.71c1.41-.64,1.6-1.77.42-2.51l-5.59-3.51a5.57,5.57,0,0,0-4.71-.17Z"/><path class="cls-23" d="M460.16,717.49a5.57,5.57,0,0,0-4.71-.17L432.05,728c-1.41.64-1.6,1.77-.42,2.51l5.59,3.51a5.57,5.57,0,0,0,4.71.17l23.4-10.67c1.41-.64,1.6-1.77.42-2.51Z"/><path class="cls-23" d="M529.74,664.65c1.41-.64,1.6-1.77.42-2.51l-2.52-1.58a5.57,5.57,0,0,0-4.71-.17l-10.86,5c-1.41.64-1.6,1.77-.42,2.51l2.52,1.58a5.57,5.57,0,0,0,4.71.17Z"/><path class="cls-23" d="M489.21,683.13c1.41-.64,1.6-1.77.42-2.51L487.11,679a5.57,5.57,0,0,0-4.71-.17l-11,5c-1.41.64-1.6,1.77-.42,2.51l2.52,1.58a5.57,5.57,0,0,0,4.71.17Z"/><path class="cls-23" d="M509.52,673.87c1.41-.64,1.6-1.77.42-2.51l-2.52-1.58a5.57,5.57,0,0,0-4.71-.17l-11,5c-1.41.64-1.6,1.77-.42,2.51l2.52,1.58a5.57,5.57,0,0,0,4.71.17Z"/><path class="cls-23" d="M429.63,709.71s.21-.59-1-1.33l-2.49-1.56a5.57,5.57,0,0,0-4.71-.17l-13.55,6.18c-1.41.64-1.6,1.77-.42,2.51l2.52,1.58a5.57,5.57,0,0,0,4.71.17L428.17,711C429.58,710.32,429.62,709.72,429.63,709.71Z"/><path class="cls-23" d="M501.59,727.7a6,6,0,0,0-2.58.65L488.83,733c-1.41.64-1.6,1.77-.42,2.51l7.38,4.63a5.57,5.57,0,0,0,4.71.17l10.14-4.62c1.41-.64,1.6-1.77.42-2.51l-7.1-4.46A9.76,9.76,0,0,0,501.59,727.7Z"/><path class="cls-23" d="M504.26,722.13c1.41-.64,1.6-1.77.42-2.51L497.39,715a5.57,5.57,0,0,0-4.71-.17l-10.2,4.65c-1.41.64-1.6,1.77-.42,2.51l7.29,4.58a5.57,5.57,0,0,0,4.71.17Z"/><path class="cls-23" d="M480.41,708.68a10,10,0,0,0-2.32-1,5.36,5.36,0,0,0-2.7.56L465,713c-1.41.64-1.6,1.77-.42,2.51l5.59,3.51a5.57,5.57,0,0,0,4.71.17l10.33-4.71c1.41-.64,1.6-1.77.42-2.51Z"/><path class="cls-23" d="M508.33,724.1c-1.41.64-1.6,1.77-.42,2.51l7.35,4.62a5,5,0,0,0,2,.81,6.9,6.9,0,0,0,2.73-.62l10.34-4.71c1.41-.64,1.6-1.77.42-2.51l-7.38-4.63a5.57,5.57,0,0,0-4.71-.17Z"/><path class="cls-23" d="M451.17,704.83a5.41,5.41,0,0,0-2.46.6l-10.36,4.72c-1.41.64-1.6,1.77-.42,2.51l6,3.76a5.57,5.57,0,0,0,4.71.17l10.33-4.71c1.41-.64,1.6-1.77.42-2.51l-5.82-3.65A7,7,0,0,0,451.17,704.83Z"/><path class="cls-23" d="M498.34,693.93c1.41-.64,1.6-1.77.42-2.51l-6-3.76a5.57,5.57,0,0,0-4.71-.17l-10.33,4.71c-1.41.64-1.61,1.79-.45,2.56l5.78,3.79a5.43,5.43,0,0,0,4.68.22Z"/><path class="cls-23" d="M465.89,708.25a6.14,6.14,0,0,0,2.42-.63l10.34-4.71c1.41-.64,1.6-1.77.42-2.51l-6-3.76a5.57,5.57,0,0,0-4.71-.17L458,701.17c-1.41.64-1.6,1.77-.42,2.51l6,3.75A5.59,5.59,0,0,0,465.89,708.25Z"/><path class="cls-23" d="M528,715.12c-1.41.64-1.6,1.77-.42,2.51l7.38,4.63a5.57,5.57,0,0,0,4.71.17L550,717.73c1.41-.64,1.6-1.77.42-2.51l-7.38-4.63a5.57,5.57,0,0,0-4.71-.17Z"/><path class="cls-23" d="M626.35,670.28c-1.41.64-1.6,1.77-.42,2.51l7.38,4.63a5.57,5.57,0,0,0,4.71.17l10.27-4.68c1.41-.64,1.6-1.77.42-2.51l-7.38-4.63a5.57,5.57,0,0,0-4.71-.17Z"/><path class="cls-23" d="M646,661.33c-1.41.64-1.6,1.77-.42,2.51l7.38,4.63a5.57,5.57,0,0,0,4.71.17l10.3-4.7c1.41-.64,1.6-1.77.42-2.51L661,656.81a5.57,5.57,0,0,0-4.71-.17Z"/><path class="cls-23" d="M694.36,656.48c-1.51.69-1.71,1.9-.45,2.69l2.16,1.36a4.47,4.47,0,0,0,3.77.14l8.49-3.87c1.42-.65,1.62-1.79.43-2.53l-2.95-1.85a2.75,2.75,0,0,0-2.33-.09Z"/><path class="cls-23" d="M505.25,690.25a5.79,5.79,0,0,0,2.45-.59L518,684.95c1.41-.64,1.6-1.77.42-2.51l-6-3.76a5.57,5.57,0,0,0-4.71-.17l-10.33,4.71c-1.41.64-1.6,1.77-.42,2.51l6,3.76A4.94,4.94,0,0,0,505.25,690.25Z"/><path class="cls-23" d="M547.72,706.14c-1.41.64-1.6,1.77-.42,2.51l7.38,4.63a5.57,5.57,0,0,0,4.71.17l10.22-4.66c1.41-.64,1.6-1.77.42-2.51l-7.38-4.63a5.57,5.57,0,0,0-4.71-.17Z"/><path class="cls-23" d="M567.3,697.21c-1.41.64-1.6,1.77-.42,2.51l7.38,4.63a5.57,5.57,0,0,0,4.71.17l10.31-4.7c1.41-.64,1.6-1.77.42-2.51l-7.38-4.63a5.57,5.57,0,0,0-4.71-.17Z"/><path class="cls-23" d="M598.94,683.28a5.51,5.51,0,0,0-2.4.59L587,688.24c-1.41.64-1.6,1.77-.42,2.51l7,4.42a5.82,5.82,0,0,0,2.33.8,4.3,4.3,0,0,0,2.65-.39l9.62-4.39c1.41-.64,1.6-1.77.42-2.51l-7.31-4.59A5.7,5.7,0,0,0,598.94,683.28Z"/><path class="cls-23" d="M619.45,674a4.48,4.48,0,0,0-2.44.5l-11.12,5.07c-1.41.64-1.6,1.77-.42,2.51l7.38,4.63a5.57,5.57,0,0,0,4.71.17l11.09-5.06c1.41-.64,1.6-1.77.42-2.51l-7.2-4.52A5.89,5.89,0,0,0,619.45,674Z"/><path class="cls-23" d="M517.32,689.63a6.52,6.52,0,0,0-2.6.66L504.36,695c-1.41.64-1.6,1.77-.42,2.51l5.44,3.41a3.9,3.9,0,0,0,2.22.82,4.13,4.13,0,0,0,2.62-.54l10.35-4.72c1.41-.64,1.6-1.77.42-2.51l-5.42-3.4A7.92,7.92,0,0,0,517.32,689.63Z"/><path class="cls-23" d="M569.86,691.59a4.16,4.16,0,0,0,2.62-.57l10.42-4.75c1.41-.64,1.6-1.77.42-2.51L576,679.17a5.57,5.57,0,0,0-4.71-.17L561,683.7c-1.41.64-1.6,1.77-.42,2.51l6.83,4.29A4.83,4.83,0,0,0,569.86,691.59Z"/><path class="cls-23" d="M601.82,677.64c1.41-.64,1.6-1.77.42-2.51L595,670.54a5.57,5.57,0,0,0-4.71-.17l-9.56,4.36c-1.41.64-1.6,1.77-.42,2.51l7.29,4.58a5.57,5.57,0,0,0,4.71.17Z"/><path class="cls-23" d="M641.91,659.36c1.41-.64,1.6-1.77.42-2.51L635,652.27a5.57,5.57,0,0,0-4.71-.17l-10.27,4.68c-1.41.64-1.6,1.77-.42,2.51l7.29,4.58a5.57,5.57,0,0,0,4.71.17Z"/><path class="cls-23" d="M563.23,695.24c1.41-.64,1.6-1.77.42-2.51l-7.29-4.58a5.57,5.57,0,0,0-4.71-.17l-10.22,4.66c-1.41.64-1.6,1.77-.42,2.51l7.29,4.58a5.57,5.57,0,0,0,4.71.17Z"/><path class="cls-23" d="M622.26,668.25c1.42-.61,1.62-1.71.44-2.45l-7.29-4.58a5.57,5.57,0,0,0-4.71-.17l-11.09,5.06c-1.41.64-1.6,1.77-.42,2.51l6.87,4.32a5.73,5.73,0,0,0,4.72.24Z"/><path class="cls-23" d="M543.64,704.17c1.41-.64,1.6-1.77.42-2.51l-6.48-4.07a6.66,6.66,0,0,0-2.43-1.27,4.07,4.07,0,0,0-2.8.45l-10.62,4.84c-1.41.64-1.6,1.77-.42,2.51l7.29,4.58a5.57,5.57,0,0,0,4.71.17Z"/><path class="cls-23" d="M484.67,704c-1.41.64-1.6,1.77-.42,2.51l5.59,3.51a5.57,5.57,0,0,0,4.71.17l10.33-4.71c1.41-.64,1.6-1.77.42-2.51l-5.59-3.51a5.57,5.57,0,0,0-4.71-.17Z"/><path class="cls-23" d="M510.79,718.41a4.49,4.49,0,0,0,2.68-.49L524,713.15c1.41-.64,1.6-1.77.42-2.51l-7.29-4.58a5.57,5.57,0,0,0-4.71-.17L502,710.59c-1.41.64-1.6,1.77-.42,2.51l6.74,4.23A13.83,13.83,0,0,0,510.79,718.41Z"/><path class="cls-23" d="M623.07,637l2.58-1.16,10.31-4.7c1.41-.64,1.6-1.77.42-2.51l-6-3.76a5.57,5.57,0,0,0-4.71-.17l-10.3,4.7c-1.41.64-1.6,1.77-.42,2.51l5.95,3.74Z"/><path class="cls-23" d="M557.29,667c1.41-.64,1.6-1.77.42-2.51l-6-3.76a5.57,5.57,0,0,0-4.71-.17l-10.31,4.7c-1.41.64-1.6,1.77-.42,2.51l6,3.76a5.57,5.57,0,0,0,4.71.17Z"/><path class="cls-23" d="M667.23,645.49a5.57,5.57,0,0,0,4.71.17l12-5.45c1.41-.64,1.6-1.77.42-2.51L677,633.12a5.57,5.57,0,0,0-4.71-.17l-12,5.45c-1.41.64-1.6,1.77-.42,2.51Z"/><path class="cls-23" d="M596.66,649.09c1.41-.64,1.6-1.77.42-2.51l-5.6-3.51a9.19,9.19,0,0,0-2.33-1,5.12,5.12,0,0,0-2.68.53l-11.17,5.1c-1.41.64-1.6,1.77-.42,2.51l6,3.76a5.57,5.57,0,0,0,4.71.17Z"/><path class="cls-23" d="M576.21,658.42c1.41-.64,1.6-1.77.42-2.51l-5.71-3.58a7.21,7.21,0,0,0-2.22-.91,5.54,5.54,0,0,0-2.74.54l-9.6,4.38c-1.41.64-1.6,1.77-.42,2.51l6,3.76a5.57,5.57,0,0,0,4.71.17Z"/><path class="cls-23" d="M524.9,681.27a5.4,5.4,0,0,0,2.47-.58L537.62,676c1.41-.64,1.6-1.77.42-2.51l-6-3.76a5.57,5.57,0,0,0-4.71-.17l-10.22,4.66c-1.41.64-1.6,1.77-.42,2.51l5.87,3.69A6,6,0,0,0,524.9,681.27Z"/><path class="cls-23" d="M616.29,640.14c1.41-.64,1.6-1.77.42-2.51l-6-3.76a5.57,5.57,0,0,0-4.71-.17l-10.27,4.68c-1.41.64-1.6,1.77-.42,2.51l6,3.76a5.57,5.57,0,0,0,4.71.17Z"/><path class="cls-23" d="M662.18,633.74c1.41-.64,1.6-1.77.42-2.51L657,627.72a5.57,5.57,0,0,0-4.71-.17l-10.3,4.7c-1.41.64-1.6,1.77-.42,2.51l5.59,3.51a5.57,5.57,0,0,0,4.71.17Z"/><g class="cls-25"><path class="cls-26" d="M488.19,753.28l-4.24,1.94a.53.53,0,0,0-.15.88l1.57,1a.36.36,0,0,0,.34,0l4.24-1.94a.53.53,0,0,0,.15-.88l-1.57-1A.36.36,0,0,0,488.19,753.28Z"/><path class="cls-26" d="M659.59,613.37l-4.24,1.94a.53.53,0,0,0-.15.88l1.57,1a.36.36,0,0,0,.34,0l4.24-1.94a.53.53,0,0,0,.15-.88l-1.57-1A.36.36,0,0,0,659.59,613.37Z"/><path class="cls-26" d="M672.57,622.67l-4.24,1.94a.53.53,0,0,0-.15.88l1.57,1a.36.36,0,0,0,.34,0l4.24-1.94a.53.53,0,0,0,.15-.88l-1.57-1A.36.36,0,0,0,672.57,622.67Z"/><path class="cls-26" d="M459.81,736.11,455.57,738a.53.53,0,0,0-.15.88l1.57,1a.36.36,0,0,0,.34,0l4.24-1.94a.53.53,0,0,0,.15-.88l-1.57-1A.36.36,0,0,0,459.81,736.11Z"/><path class="cls-26" d="M445.83,727.28l-4.24,1.94a.53.53,0,0,0-.15.88l1.57,1a.36.36,0,0,0,.34,0l4.24-1.94a.53.53,0,0,0,.15-.88l-1.57-1A.36.36,0,0,0,445.83,727.28Z"/><path class="cls-26" d="M420.81,709.47l-4.24,1.94a.53.53,0,0,0-.15.88l1.57,1a.36.36,0,0,0,.34,0l4.24-1.94a.53.53,0,0,0,.15-.88l-1.57-1A.36.36,0,0,0,420.81,709.47Z"/><path class="cls-26" d="M441.74,699.83l-4.24,1.94a.53.53,0,0,0-.15.88l1.57,1a.36.36,0,0,0,.34,0l4.24-1.94a.53.53,0,0,0,.15-.88l-1.57-1A.36.36,0,0,0,441.74,699.83Z"/><path class="cls-26" d="M462.66,690.19l-4.24,1.94a.53.53,0,0,0-.15.88l1.57,1a.36.36,0,0,0,.34,0l4.24-1.94a.53.53,0,0,0,.15-.88l-1.57-1A.36.36,0,0,0,462.66,690.19Z"/><path class="cls-26" d="M481.78,681l-4.24,1.94a.53.53,0,0,0-.15.88l1.57,1a.36.36,0,0,0,.34,0l4.24-1.94a.53.53,0,0,0,.15-.88l-1.57-1A.36.36,0,0,0,481.78,681Z"/><path class="cls-26" d="M502.45,671.61l-4.24,1.94a.53.53,0,0,0-.15.88l1.57,1a.36.36,0,0,0,.34,0l4.24-1.94a.53.53,0,0,0,.15-.88l-1.57-1A.36.36,0,0,0,502.45,671.61Z"/><path class="cls-26" d="M522.81,662.71l-4.24,1.94a.53.53,0,0,0-.15.88l1.57,1a.36.36,0,0,0,.34,0l4.24-1.94a.53.53,0,0,0,.15-.88l-1.57-1A.36.36,0,0,0,522.81,662.71Z"/><path class="cls-26" d="M543.48,653.32l-4.24,1.94a.53.53,0,0,0-.15.88l1.57,1a.36.36,0,0,0,.34,0l4.24-1.94a.53.53,0,0,0,.15-.88l-1.57-1A.36.36,0,0,0,543.48,653.32Z"/><path class="cls-26" d="M564,643.67l-4.24,1.94a.53.53,0,0,0-.15.88l1.57,1a.36.36,0,0,0,.34,0l4.24-1.94a.53.53,0,0,0,.15-.88l-1.57-1A.36.36,0,0,0,564,643.67Z"/><path class="cls-26" d="M583.91,634.75l-4.24,1.94a.53.53,0,0,0-.15.88l1.57,1a.36.36,0,0,0,.34,0l4.24-1.94a.53.53,0,0,0,.15-.88l-1.57-1A.36.36,0,0,0,583.91,634.75Z"/><path class="cls-26" d="M605.74,624.9l-4.24,1.94a.53.53,0,0,0-.15.88l1.57,1a.36.36,0,0,0,.34,0l4.24-1.94a.53.53,0,0,0,.15-.88l-1.57-1A.36.36,0,0,0,605.74,624.9Z"/><path class="cls-26" d="M626.67,615.26l-4.24,1.94a.53.53,0,0,0-.15.88l1.57,1a.36.36,0,0,0,.34,0l4.24-1.94a.53.53,0,0,0,.15-.88l-1.57-1A.36.36,0,0,0,626.67,615.26Z"/><path class="cls-26" d="M647.12,605.86l-4.24,1.94a.53.53,0,0,0-.15.88l1.57,1a.36.36,0,0,0,.34,0l4.24-1.94a.53.53,0,0,0,.15-.88l-1.57-1A.36.36,0,0,0,647.12,605.86Z"/><path class="cls-26" d="M475.53,745.25l-4.24,1.94a.53.53,0,0,0-.15.88l1.57,1a.36.36,0,0,0,.34,0l4.24-1.94a.53.53,0,0,0,.15-.88l-1.57-1A.36.36,0,0,0,475.53,745.25Z"/><path class="cls-27" d="M506.3,749.06c-.36.16-.41.45-.11.64l1.87,1.17a1.28,1.28,0,0,0,.51.21,1.75,1.75,0,0,0,.69-.16l2.62-1.2c.36-.16.41-.45.11-.64l-1.87-1.18a1.41,1.41,0,0,0-1.19,0Z"/><path class="cls-27" d="M525.54,740.38c-.36.16-.41.45-.11.64l1.87,1.17a1.28,1.28,0,0,0,.51.21,1.76,1.76,0,0,0,.69-.16l2.62-1.2c.36-.16.41-.45.11-.64l-1.87-1.18a1.41,1.41,0,0,0-1.19,0Z"/><path class="cls-27" d="M545.13,730.95c-.36.16-.41.45-.11.64l1.87,1.17a1.28,1.28,0,0,0,.51.21,1.75,1.75,0,0,0,.69-.16l2.62-1.2c.36-.16.41-.45.11-.64L549,729.79a1.42,1.42,0,0,0-1.19,0Z"/><path class="cls-27" d="M651.7,682.83c-.36.16-.41.45-.11.64l1.87,1.17a1.28,1.28,0,0,0,.51.21,1.76,1.76,0,0,0,.69-.16l2.62-1.2c.36-.16.41-.45.11-.64l-1.87-1.18a1.41,1.41,0,0,0-1.19,0Z"/><path class="cls-27" d="M671.66,673.48c-.36.16-.41.45-.11.64l1.87,1.17a1.28,1.28,0,0,0,.51.21,1.75,1.75,0,0,0,.69-.16l2.62-1.2c.36-.16.41-.45.11-.64l-1.87-1.18a1.42,1.42,0,0,0-1.19,0Z"/><path class="cls-27" d="M701.39,642c-.36.16-.41.45-.11.64l1.87,1.17a1.28,1.28,0,0,0,.51.21,1.75,1.75,0,0,0,.69-.16l2.62-1.2c.36-.16.41-.45.11-.64l-1.87-1.18a1.42,1.42,0,0,0-1.19,0Z"/><path class="cls-27" d="M575.76,698.11c-.29.13-.33.37-.09.52l1.52,1a1,1,0,0,0,.41.17,1.4,1.4,0,0,0,.56-.13l2.13-1c.29-.13.33-.37.09-.52l-1.52-1a1.15,1.15,0,0,0-1,0Z"/><path class="cls-27" d="M497.31,733.81c-.29.13-.33.37-.09.52l1.52,1a1,1,0,0,0,.41.17,1.43,1.43,0,0,0,.56-.13l2.13-1c.29-.13.33-.37.09-.52l-1.52-1a1.15,1.15,0,0,0-1,0Z"/><path class="cls-27" d="M517,724.89c-.29.13-.33.37-.09.52l1.52,1a1,1,0,0,0,.41.17,1.42,1.42,0,0,0,.56-.13l2.13-1c.29-.13.33-.37.09-.52l-1.52-1a1.15,1.15,0,0,0-1,0Z"/><path class="cls-27" d="M536.75,716c-.29.13-.33.37-.09.52l1.52,1a1,1,0,0,0,.41.17,1.42,1.42,0,0,0,.56-.13l2.13-1c.29-.13.33-.37.09-.52l-1.52-1a1.15,1.15,0,0,0-1,0Z"/><path class="cls-27" d="M556.47,707c-.29.13-.33.37-.09.52l1.52,1a1,1,0,0,0,.41.17,1.42,1.42,0,0,0,.56-.13l2.13-1c.29-.13.33-.37.09-.52l-1.52-1a1.15,1.15,0,0,0-1,0Z"/><path class="cls-27" d="M595.91,689.21c-.29.13-.33.37-.09.52l1.52,1a1,1,0,0,0,.41.17,1.42,1.42,0,0,0,.56-.13l2.13-1c.29-.13.33-.37.09-.52l-1.52-1a1.15,1.15,0,0,0-1,0Z"/><path class="cls-27" d="M615.63,680.29c-.29.13-.33.37-.09.52l1.52,1a1,1,0,0,0,.41.17,1.42,1.42,0,0,0,.56-.13l2.13-1c.29-.13.33-.37.09-.52l-1.52-1a1.15,1.15,0,0,0-1,0Z"/><path class="cls-27" d="M635.35,671.37c-.29.13-.33.37-.09.52l1.52,1a1,1,0,0,0,.41.17,1.43,1.43,0,0,0,.56-.13l2.13-1c.29-.13.33-.37.09-.52l-1.52-1a1.15,1.15,0,0,0-1,0Z"/><path class="cls-27" d="M655.07,662.45c-.29.13-.33.37-.09.52l1.52,1a1,1,0,0,0,.41.17,1.42,1.42,0,0,0,.56-.13l2.13-1c.29-.13.33-.37.09-.52l-1.52-1a1.15,1.15,0,0,0-1,0Z"/><path class="cls-27" d="M570,684.51c-.29.13-.33.37-.09.52l1.52,1a1,1,0,0,0,.41.17,1.4,1.4,0,0,0,.56-.13l2.13-1c.29-.13.33-.37.09-.52l-1.52-1a1.15,1.15,0,0,0-1,0Z"/><path class="cls-27" d="M491.55,720.21c-.29.13-.33.37-.09.52l1.52,1a1,1,0,0,0,.41.17,1.42,1.42,0,0,0,.56-.13l2.13-1c.29-.13.33-.37.09-.52l-1.52-1a1.15,1.15,0,0,0-1,0Z"/><path class="cls-27" d="M511.27,711.29c-.29.13-.33.37-.09.52l1.52,1a1,1,0,0,0,.41.17,1.42,1.42,0,0,0,.56-.13l2.13-1c.29-.13.33-.37.09-.52l-1.52-1a1.15,1.15,0,0,0-1,0Z"/><path class="cls-27" d="M531,702.37c-.29.13-.33.37-.09.52l1.52,1a1,1,0,0,0,.41.17,1.42,1.42,0,0,0,.56-.13l2.13-1c.29-.13.33-.37.09-.52l-1.52-1a1.15,1.15,0,0,0-1,0Z"/><path class="cls-27" d="M550.71,693.45c-.29.13-.33.37-.09.52l1.52,1a1,1,0,0,0,.41.17,1.44,1.44,0,0,0,.56-.13l2.13-1c.29-.13.33-.37.09-.52l-1.52-1a1.15,1.15,0,0,0-1,0Z"/><path class="cls-27" d="M590.15,675.61c-.29.13-.33.37-.09.52l1.52,1a1,1,0,0,0,.41.17,1.42,1.42,0,0,0,.56-.13l2.13-1c.29-.13.33-.37.09-.52l-1.52-1a1.15,1.15,0,0,0-1,0Z"/><path class="cls-27" d="M609.88,666.69c-.29.13-.33.37-.09.52l1.52,1a1,1,0,0,0,.41.17,1.42,1.42,0,0,0,.56-.13l2.13-1c.29-.13.33-.37.09-.52l-1.52-1a1.15,1.15,0,0,0-1,0Z"/><path class="cls-27" d="M629.6,657.77c-.29.13-.33.37-.09.52l1.52,1a1,1,0,0,0,.41.17,1.42,1.42,0,0,0,.56-.13l2.13-1c.29-.13.33-.37.09-.52l-1.52-1a1.15,1.15,0,0,0-1,0Z"/><path class="cls-27" d="M649.32,648.85c-.29.13-.33.37-.09.52l1.52,1a1,1,0,0,0,.41.17,1.42,1.42,0,0,0,.56-.13l2.13-1c.29-.13.33-.37.09-.52l-1.52-1a1.15,1.15,0,0,0-1,0Z"/><path class="cls-27" d="M670.46,639.22c-.29.13-.33.37-.09.52l1.52,1a1,1,0,0,0,.41.17,1.42,1.42,0,0,0,.56-.13l2.13-1c.29-.13.33-.37.09-.52l-1.52-1a1.15,1.15,0,0,0-1,0Z"/><path class="cls-27" d="M551.64,677.55c-.29.13-.33.37-.09.52l1.52,1a1,1,0,0,0,.41.17,1.42,1.42,0,0,0,.56-.13l2.13-1c.29-.13.33-.37.09-.52l-1.52-1a1.15,1.15,0,0,0-1,0Z"/><path class="cls-27" d="M473.19,713.25c-.29.13-.33.37-.09.52l1.52,1a1,1,0,0,0,.41.17,1.42,1.42,0,0,0,.56-.13l2.13-1c.29-.13.33-.37.09-.52l-1.52-1a1.15,1.15,0,0,0-1,0Z"/><path class="cls-27" d="M492.91,704.33c-.29.13-.33.37-.09.52l1.52,1a1,1,0,0,0,.41.17,1.42,1.42,0,0,0,.56-.13l2.13-1c.29-.13.33-.37.09-.52l-1.52-1a1.15,1.15,0,0,0-1,0Z"/><path class="cls-27" d="M512.63,695.41c-.29.13-.33.37-.09.52l1.52,1a1,1,0,0,0,.41.17,1.42,1.42,0,0,0,.56-.13l2.13-1c.29-.13.33-.37.09-.52l-1.52-1a1.15,1.15,0,0,0-1,0Z"/><path class="cls-27" d="M532.35,686.49c-.29.13-.33.37-.09.52l1.52,1a1,1,0,0,0,.41.17,1.42,1.42,0,0,0,.56-.13l2.13-1c.29-.13.33-.37.09-.52l-1.52-1a1.15,1.15,0,0,0-1,0Z"/><path class="cls-27" d="M571.79,668.65c-.29.13-.33.37-.09.52l1.52,1a1,1,0,0,0,.41.17,1.44,1.44,0,0,0,.56-.13l2.13-1c.29-.13.33-.37.09-.52l-1.52-1a1.15,1.15,0,0,0-1,0Z"/><path class="cls-27" d="M591.51,659.73c-.29.13-.33.37-.09.52l1.52,1a1,1,0,0,0,.41.17,1.42,1.42,0,0,0,.56-.13l2.13-1c.29-.13.33-.37.09-.52l-1.52-1a1.15,1.15,0,0,0-1,0Z"/><path class="cls-27" d="M611.23,650.81c-.29.13-.33.37-.09.52l1.52,1a1,1,0,0,0,.41.17,1.43,1.43,0,0,0,.56-.13l2.13-1c.29-.13.33-.37.09-.52l-1.52-1a1.15,1.15,0,0,0-1,0Z"/><path class="cls-27" d="M631,641.89c-.29.13-.33.37-.09.52l1.52,1a1,1,0,0,0,.41.17,1.42,1.42,0,0,0,.56-.13l2.13-1c.29-.13.33-.37.09-.52l-1.52-1a1.15,1.15,0,0,0-1,0Z"/><path class="cls-27" d="M649.9,632.66c-.29.13-.33.37-.09.52l1.52,1a1,1,0,0,0,.41.17,1.4,1.4,0,0,0,.56-.13l2.13-1c.29-.13.33-.37.09-.52l-1.52-1a1.15,1.15,0,0,0-1,0Z"/><path class="cls-27" d="M505,684c-.29.13-.33.37-.09.52l1.52,1a1,1,0,0,0,.41.17,1.42,1.42,0,0,0,.56-.13l2.13-1c.29-.13.33-.37.09-.52l-1.52-1a1.15,1.15,0,0,0-1,0Z"/><path class="cls-27" d="M426.54,719.71c-.29.13-.33.37-.09.52l1.52,1a1,1,0,0,0,.41.17,1.4,1.4,0,0,0,.56-.13l2.13-1c.29-.13.33-.37.09-.52l-1.52-1a1.15,1.15,0,0,0-1,0Z"/><path class="cls-27" d="M446.26,710.79c-.29.13-.33.37-.09.52l1.52,1a1,1,0,0,0,.41.17,1.44,1.44,0,0,0,.56-.13l2.13-1c.29-.13.33-.37.09-.52l-1.52-1a1.15,1.15,0,0,0-1,0Z"/><path class="cls-27" d="M466,701.87c-.29.13-.33.37-.09.52l1.52,1a1,1,0,0,0,.41.17,1.42,1.42,0,0,0,.56-.13l2.13-1c.29-.13.33-.37.09-.52l-1.52-1a1.15,1.15,0,0,0-1,0Z"/><path class="cls-27" d="M485.7,693c-.29.13-.33.37-.09.52l1.52,1a1,1,0,0,0,.41.17,1.42,1.42,0,0,0,.56-.13l2.13-1c.29-.13.33-.37.09-.52l-1.52-1a1.15,1.15,0,0,0-1,0Z"/><path class="cls-27" d="M525.14,675.11c-.29.13-.33.37-.09.52l1.52,1a1,1,0,0,0,.41.17,1.42,1.42,0,0,0,.56-.13l2.13-1c.29-.13.33-.37.09-.52l-1.52-1a1.15,1.15,0,0,0-1,0Z"/><path class="cls-27" d="M544.86,666.19c-.29.13-.33.37-.09.52l1.52,1a1,1,0,0,0,.41.17,1.4,1.4,0,0,0,.56-.13l2.13-1c.29-.13.33-.37.09-.52l-1.52-1a1.15,1.15,0,0,0-1,0Z"/><path class="cls-27" d="M564.58,657.27c-.29.13-.33.37-.09.52l1.52,1a1,1,0,0,0,.41.17,1.44,1.44,0,0,0,.56-.13l2.13-1c.29-.13.33-.37.09-.52l-1.52-1a1.15,1.15,0,0,0-1,0Z"/><path class="cls-27" d="M584.3,648.35c-.29.13-.33.37-.09.52l1.52,1a1,1,0,0,0,.41.17,1.43,1.43,0,0,0,.56-.13l2.13-1c.29-.13.33-.37.09-.52l-1.52-1a1.15,1.15,0,0,0-1,0Z"/><path class="cls-27" d="M603.25,639.12c-.29.13-.33.37-.09.52l1.52,1a1,1,0,0,0,.41.17,1.42,1.42,0,0,0,.56-.13l2.13-1c.29-.13.33-.37.09-.52l-1.52-1a1.15,1.15,0,0,0-1,0Z"/><path class="cls-27" d="M623.23,630c-.29.13-.33.37-.09.52l1.52,1a1,1,0,0,0,.41.17,1.42,1.42,0,0,0,.56-.13l2.13-1c.29-.13.33-.37.09-.52l-1.52-1a1.15,1.15,0,0,0-1,0Z"/><path class="cls-27" d="M701.21,655.59l1.54.75c.14.07.11.31-.05.39l-1.5.67a.16.16,0,0,1-.22-.15l0-1.42C700.93,655.66,701.09,655.53,701.21,655.59Z"/><path class="cls-27" d="M705.67,660.31l1.28-.7a.15.15,0,0,1,.22.1l.29,1.28c0,.16-.11.32-.25.27l-1.56-.58C705.5,660.63,705.52,660.39,705.67,660.31Z"/><path class="cls-27" d="M692.31,666.75a.32.32,0,0,1,.47,0l.64.57c.14.13.11.26-.08.3l-1.63.34c-.19,0-.25-.05-.13-.21Z"/><path class="cls-27" d="M720.83,653.8c-.19,0-.23.16-.08.29l.64.57a.36.36,0,0,0,.5,0l.82-.91c.13-.14.08-.23-.11-.2Z"/></g><path class="cls-28" d="M402.73,721.41c.72,4.79-2.43,8.68-7,8.69s-8.93-3.87-9.66-8.66,2.43-8.68,7-8.69S402,716.62,402.73,721.41Z"/><g class="cls-29"><path class="cls-30" d="M393.07,712.75c-4.61,0-7.76,3.9-7,8.69a10.52,10.52,0,0,0,5.78,7.74c1.48-5,3.28-11,4.7-15.71A8.8,8.8,0,0,0,393.07,712.75Z"/></g></g></g></svg>